<svg width="43" height="54" viewBox="0 0 43 54" fill="none" xmlns="http://www.w3.org/2000/svg">
<path d="M27.0714 2V13.1111C27.0714 13.8478 27.3649 14.5544 27.8873 15.0753C28.4098 15.5962 29.1183 15.8889 29.8571 15.8889H41M27.0714 2H7.57143C6.09379 2 4.67668 2.58532 3.63183 3.62718C2.58699 4.66905 2 6.08213 2 7.55556V46.4444C2 47.9179 2.58699 49.3309 3.63183 50.3728C4.67668 51.4147 6.09379 52 7.57143 52H35.4286C36.9062 52 38.3233 51.4147 39.3682 50.3728C40.413 49.3309 41 47.9179 41 46.4444V15.8889M27.0714 2L41 15.8889M21.5 24.2222V40.8889M21.5 24.2222L14.5357 31.1667M21.5 24.2222L28.4643 31.1667" stroke="#A1B1C8" stroke-width="3" stroke-linecap="round" stroke-linejoin="round"/>
</svg>
