<svg width="320" height="300" viewBox="0 0 320 300" fill="none" xmlns="http://www.w3.org/2000/svg">
<g clip-path="url(#clip0_410_3763)">
<rect width="320" height="300" fill="url(#paint0_linear_410_3763)"/>
<g opacity="0.05" clip-path="url(#clip1_410_3763)">
<mask id="mask0_410_3763" style="mask-type:luminance" maskUnits="userSpaceOnUse" x="-41" y="-80" width="454" height="460">
<path d="M412.081 -80H-41V380H412.081V-80Z" fill="white"/>
</mask>
<g mask="url(#mask0_410_3763)">
<mask id="mask1_410_3763" style="mask-type:luminance" maskUnits="userSpaceOnUse" x="-21" y="-160" width="1412" height="746">
<path d="M-20.5078 585.686H1390.97V-159.904H-20.5078V585.686Z" fill="white"/>
</mask>
<g mask="url(#mask1_410_3763)">
</g>
<mask id="mask2_410_3763" style="mask-type:luminance" maskUnits="userSpaceOnUse" x="-209" y="-159" width="1412" height="747">
<path d="M-208.98 587.304H1202.5V-158.286H-208.98V587.304Z" fill="white"/>
</mask>
<g mask="url(#mask2_410_3763)">
<mask id="mask3_410_3763" style="mask-type:luminance" maskUnits="userSpaceOnUse" x="198" y="284" width="277" height="56">
<path d="M198.66 339.264H474.52V284.287H198.66V339.264Z" fill="white"/>
</mask>
<g mask="url(#mask3_410_3763)">
<path d="M474.505 284.4C474.748 284.858 471.44 287.209 464.852 290.2C463.215 290.974 461.355 291.71 459.329 292.565C457.284 293.348 455.069 294.245 452.654 295.082C447.842 296.827 442.298 298.601 436.128 300.407C423.781 304.016 408.899 307.633 392.147 310.653C375.401 313.645 356.874 315.976 337.46 317.962C318.042 319.956 299.593 321.625 282.88 323.53C274.518 324.492 266.617 325.461 259.237 326.561C252.393 327.573 245.567 328.705 238.763 329.959C233.154 330.991 227.566 332.135 222.003 333.389C217.092 334.495 212.908 335.598 209.482 336.509C202.655 338.378 198.929 339.677 198.671 339.141C198.441 338.68 201.786 336.385 208.456 333.551C212.509 331.87 216.634 330.368 220.82 329.051C225.703 327.502 231.316 325.927 237.569 324.398C243.819 322.868 250.705 321.38 258.135 319.983C265.566 318.581 273.564 317.348 281.954 316.178C298.755 313.853 317.272 311.951 336.63 309.963C355.989 307.983 374.353 305.894 390.929 303.343C407.487 300.768 422.327 297.768 434.689 294.905C440.871 293.473 446.45 292.104 451.313 290.79C453.758 290.169 455.998 289.494 458.087 288.938C460.148 288.314 462.061 287.807 463.747 287.271C470.537 285.233 474.237 283.874 474.505 284.4Z" fill="#A6A6A6"/>
</g>
<mask id="mask4_410_3763" style="mask-type:luminance" maskUnits="userSpaceOnUse" x="227" y="266" width="277" height="56">
<path d="M227.812 321.547H503.666V266.586H227.812V321.547Z" fill="white"/>
</mask>
<g mask="url(#mask4_410_3763)">
<path d="M503.657 266.693C503.891 267.134 500.577 269.468 493.985 272.443C492.347 273.213 490.487 273.946 488.46 274.797C486.413 275.575 484.198 276.469 481.783 277.301C476.969 279.04 471.426 280.806 465.254 282.606C452.908 286.203 438.026 289.809 421.277 292.821C404.534 295.805 386.011 298.133 366.597 300.119C347.181 302.113 328.73 303.786 312.016 305.697C303.653 306.663 295.75 307.637 288.37 308.741C281.525 309.757 274.698 310.895 267.894 312.156C262.285 313.195 256.698 314.345 251.135 315.608C246.224 316.721 242.04 317.832 238.617 318.75C231.792 320.636 228.072 321.952 227.823 321.432C227.6 320.99 230.952 318.712 237.626 315.894C241.68 314.222 245.805 312.728 249.99 311.417C254.875 309.876 260.489 308.308 266.739 306.785C272.99 305.262 279.876 303.78 287.305 302.387C294.736 300.991 302.731 299.762 311.122 298.595C327.921 296.277 346.437 294.38 365.796 292.392C385.156 290.411 403.523 288.318 420.101 285.76C436.663 283.178 451.502 280.167 463.865 277.292C470.048 275.852 475.625 274.477 480.487 273.156C482.933 272.53 485.172 271.853 487.261 271.292C489.32 270.664 491.233 270.154 492.918 269.613C499.705 267.559 503.397 266.183 503.657 266.693Z" fill="#A6A6A6"/>
</g>
<mask id="mask5_410_3763" style="mask-type:luminance" maskUnits="userSpaceOnUse" x="256" y="248" width="277" height="56">
<path d="M256.902 303.838H532.756V248.891H256.902V303.838Z" fill="white"/>
</mask>
<g mask="url(#mask5_410_3763)">
<path d="M532.746 248.987C532.971 249.412 529.651 251.729 523.055 254.688C521.416 255.454 519.555 256.182 517.527 257.029C515.481 257.804 513.265 258.694 510.849 259.523C506.035 261.254 500.489 263.014 494.318 264.808C481.972 268.391 467.092 271.986 450.346 274.992C433.605 277.968 415.085 280.291 395.672 282.277C376.256 284.271 357.805 285.949 341.088 287.866C332.726 288.837 324.821 289.814 317.441 290.923C310.594 291.944 303.767 293.088 296.962 294.356C291.353 295.4 285.766 296.558 280.204 297.828C275.294 298.95 271.111 300.069 267.688 300.995C260.866 302.897 257.153 304.23 256.912 303.727C256.699 303.301 260.055 301.04 266.732 298.239C270.788 296.576 274.915 295.09 279.1 293.785C283.985 292.252 289.598 290.691 295.849 289.174C302.099 287.658 308.985 286.181 316.413 284.794C323.843 283.403 331.837 282.178 340.226 281.015C357.023 278.704 375.539 276.81 394.899 274.823C414.26 272.841 432.629 270.745 449.211 268.18C465.775 265.59 480.616 262.568 492.979 259.679C499.161 258.234 504.738 256.851 509.599 255.523C512.043 254.894 514.282 254.213 516.37 253.649C518.429 253.016 520.341 252.502 522.026 251.958C528.809 249.887 532.495 248.494 532.746 248.987Z" fill="#A6A6A6"/>
</g>
<mask id="mask6_410_3763" style="mask-type:luminance" maskUnits="userSpaceOnUse" x="286" y="231" width="276" height="56">
<path d="M286.047 286.118H561.9V231.185H286.047V286.118Z" fill="white"/>
</mask>
<g mask="url(#mask6_410_3763)">
<path d="M561.89 231.279C562.106 231.688 558.779 233.987 552.18 236.93C550.54 237.692 548.679 238.417 546.65 239.259C544.602 240.031 542.386 240.916 539.97 241.742C535.155 243.466 529.61 245.219 523.437 247.006C511.092 250.577 496.212 254.162 479.468 257.159C462.731 260.128 444.213 262.447 424.801 264.433C405.387 266.427 386.934 268.109 370.217 270.035C361.854 271.006 353.947 271.989 346.565 273.103C339.719 274.129 332.891 275.279 326.086 276.553C320.477 277.603 314.889 278.768 309.327 280.047C304.418 281.175 300.235 282.301 296.814 283.236C289.995 285.155 286.287 286.505 286.056 286.02C285.85 285.611 289.215 283.366 295.893 280.58C299.951 278.928 304.079 277.45 308.264 276.151C313.149 274.626 318.763 273.072 325.013 271.561C331.263 270.05 338.148 268.58 345.575 267.199C353.004 265.812 360.997 264.593 369.386 263.432C386.181 261.128 404.695 259.239 424.056 257.25C443.419 255.27 461.791 253.169 478.376 250.595C494.943 247.998 509.784 244.966 522.147 242.066C528.329 240.613 533.905 239.224 538.766 237.888C541.21 237.255 543.449 236.571 545.536 236.003C547.593 235.366 549.504 234.847 551.188 234.3C557.967 232.213 561.646 230.804 561.89 231.279Z" fill="#A6A6A6"/>
</g>
<mask id="mask7_410_3763" style="mask-type:luminance" maskUnits="userSpaceOnUse" x="315" y="213" width="276" height="56">
<path d="M315.145 268.407H590.998V213.488H315.145V268.407Z" fill="white"/>
</mask>
<g mask="url(#mask7_410_3763)">
<path d="M590.987 213.572C591.195 213.964 587.861 216.248 581.258 219.174C579.619 219.932 577.755 220.652 575.726 221.491C573.679 222.258 571.461 223.141 569.045 223.962C564.229 225.679 558.682 227.425 552.51 229.206C540.164 232.764 525.285 236.338 508.545 239.329C491.811 242.29 473.295 244.605 453.885 246.591C434.471 248.584 416.017 250.27 399.299 252.202C390.936 253.178 383.027 254.166 375.644 255.285C368.796 256.315 361.968 257.471 355.163 258.753C349.553 259.808 343.966 260.98 338.404 262.266C333.495 263.402 329.313 264.537 325.894 265.481C319.078 267.414 315.377 268.781 315.153 268.314C314.955 267.92 318.327 265.694 325.007 262.925C329.068 261.281 333.196 259.811 337.382 258.519C342.267 257.001 347.881 255.453 354.131 253.949C360.381 252.445 367.265 250.98 374.691 249.603C382.119 248.223 390.111 247.007 398.499 245.851C415.293 243.554 433.806 241.669 453.168 239.68C472.531 237.699 490.907 235.594 507.493 233.013C524.065 230.408 538.907 227.366 551.268 224.453C557.451 222.994 563.026 221.597 567.887 220.255C570.33 219.618 572.567 218.93 574.653 218.358C576.711 217.717 578.621 217.196 580.304 216.643C587.081 214.54 590.752 213.113 590.987 213.572Z" fill="#A6A6A6"/>
</g>
</g>
<mask id="mask8_410_3763" style="mask-type:luminance" maskUnits="userSpaceOnUse" x="-398" y="-157" width="1413" height="746">
<path d="M-397.442 588.922H1014.04V-156.668H-397.442V588.922Z" fill="white"/>
</mask>
<g mask="url(#mask8_410_3763)">
<mask id="mask9_410_3763" style="mask-type:luminance" maskUnits="userSpaceOnUse" x="10" y="285" width="277" height="56">
<path d="M10.1953 340.882H286.054V285.905H10.1953V340.882Z" fill="white"/>
</mask>
<g mask="url(#mask9_410_3763)">
<path d="M286.041 286.019C286.283 286.477 282.976 288.828 276.387 291.819C274.75 292.594 272.89 293.33 270.864 294.184C268.819 294.966 266.604 295.865 264.189 296.7C259.378 298.447 253.834 300.22 247.663 302.026C235.317 305.636 220.435 309.252 203.682 312.272C186.936 315.264 168.41 317.595 148.994 319.581C129.577 321.575 111.128 323.245 94.4161 325.149C86.0535 326.111 78.1508 327.08 70.7725 328.18C63.9284 329.191 57.1028 330.324 50.2989 331.578C44.6899 332.61 39.1018 333.754 33.538 335.008C28.6271 336.114 24.4434 337.217 21.0172 338.127C14.1903 339.997 10.4641 341.295 10.2063 340.759C9.97719 340.299 13.3207 338.004 19.9916 335.169C24.0444 333.488 28.1695 331.987 32.3548 330.67C37.2379 329.121 42.8514 327.546 49.1038 326.018C55.3547 324.487 62.2405 323 69.6697 321.602C77.1013 320.2 85.0987 318.967 93.4891 317.797C110.29 315.472 128.807 313.57 148.165 311.582C167.524 309.602 185.888 307.513 202.464 304.962C219.022 302.388 233.862 299.387 246.225 296.524C252.407 295.092 257.985 293.723 262.849 292.408C265.294 291.788 267.534 291.114 269.623 290.557C271.682 289.933 273.596 289.426 275.282 288.89C282.072 286.852 285.772 285.493 286.041 286.019Z" fill="#A6A6A6"/>
</g>
<mask id="mask10_410_3763" style="mask-type:luminance" maskUnits="userSpaceOnUse" x="39" y="268" width="277" height="56">
<path d="M39.3279 323.166H315.181V268.205H39.3279V323.166Z" fill="white"/>
</mask>
<g mask="url(#mask10_410_3763)">
<path d="M315.173 268.312C315.406 268.753 312.092 271.087 305.5 274.062C303.862 274.832 302.002 275.565 299.974 276.415C297.929 277.194 295.713 278.088 293.298 278.92C288.485 280.659 282.941 282.425 276.769 284.225C264.423 287.822 249.542 291.428 232.793 294.44C216.049 297.424 197.526 299.752 178.111 301.738C158.697 303.732 140.245 305.405 123.531 307.316C115.169 308.282 107.265 309.256 99.8853 310.36C93.0401 311.376 86.2137 312.514 79.4093 313.775C73.8004 314.814 68.2129 315.965 62.65 317.227C57.7391 318.34 53.5562 319.451 50.1316 320.37C43.3071 322.255 39.5873 323.571 39.3382 323.051C39.1162 322.609 42.4676 320.331 49.141 317.513C53.1955 315.841 57.3213 314.347 61.5066 313.036C66.3905 311.495 72.004 309.927 78.2556 308.404C84.5056 306.881 91.3922 305.398 98.8199 304.007C106.251 302.61 114.246 301.381 122.637 300.214C139.435 297.897 157.951 295.999 177.311 294.01C196.671 292.031 215.037 289.937 231.617 287.379C248.178 284.797 263.017 281.786 275.381 278.911C281.563 277.471 287.141 276.094 292.003 274.773C294.447 274.149 296.687 273.472 298.776 272.912C300.834 272.283 302.748 271.773 304.433 271.233C311.22 269.178 314.912 267.802 315.172 268.312" fill="#A6A6A6"/>
</g>
<mask id="mask11_410_3763" style="mask-type:luminance" maskUnits="userSpaceOnUse" x="68" y="250" width="277" height="56">
<path d="M68.457 305.456H344.313V250.509H68.457V305.456Z" fill="white"/>
</mask>
<g mask="url(#mask11_410_3763)">
<path d="M344.301 250.606C344.526 251.031 341.206 253.348 334.61 256.307C332.971 257.074 331.11 257.802 329.082 258.648C327.035 259.423 324.819 260.314 322.404 261.142C317.59 262.873 312.045 264.633 305.873 266.427C293.527 270.011 278.646 273.605 261.9 276.612C245.16 279.587 226.639 281.911 207.226 283.897C187.812 285.891 169.36 287.568 152.644 289.486C144.281 290.456 136.376 291.433 128.996 292.543C122.15 293.564 115.323 294.708 108.518 295.976C102.908 297.02 97.3208 298.177 91.7585 299.447C86.8491 300.569 82.6655 301.688 79.2432 302.614C72.4211 304.517 68.7085 305.849 68.4666 305.347C68.2533 304.921 71.6111 302.66 78.2868 299.858C82.3431 298.196 86.4697 296.71 90.6548 295.405C95.5403 293.871 101.153 292.31 107.404 290.794C113.654 289.277 120.54 287.8 127.967 286.414C135.397 285.022 143.392 283.798 151.782 282.634C168.579 280.323 187.094 278.43 206.454 276.442C225.815 274.462 244.185 272.365 260.767 269.799C277.33 267.209 292.17 264.187 304.534 261.299C310.716 259.854 316.294 258.471 321.154 257.142C323.598 256.514 325.837 255.832 327.925 255.268C329.983 254.636 331.896 254.121 333.581 253.577C340.364 251.507 344.049 250.113 344.301 250.606Z" fill="#A6A6A6"/>
</g>
<mask id="mask12_410_3763" style="mask-type:luminance" maskUnits="userSpaceOnUse" x="97" y="232" width="277" height="56">
<path d="M97.6016 287.736H373.452V232.804H97.6016V287.736Z" fill="white"/>
</mask>
<g mask="url(#mask12_410_3763)">
<path d="M373.444 232.898C373.66 233.306 370.333 235.607 363.734 238.549C362.095 239.311 360.233 240.036 358.204 240.878C356.156 241.649 353.94 242.536 351.524 243.361C346.71 245.085 341.164 246.838 334.991 248.625C322.646 252.196 307.766 255.78 291.023 258.778C274.285 261.747 255.767 264.067 236.355 266.053C216.941 268.046 198.489 269.728 181.772 271.653C173.409 272.626 165.501 273.608 158.119 274.723C151.273 275.748 144.445 276.898 137.64 278.172C132.03 279.222 126.443 280.387 120.881 281.665C115.972 282.794 111.789 283.921 108.368 284.856C101.549 286.774 97.842 288.124 97.6105 287.638C97.4044 287.23 100.769 284.986 107.447 282.2C111.505 280.547 115.633 279.069 119.818 277.771C124.703 276.245 130.317 274.69 136.567 273.179C142.817 271.67 149.702 270.199 157.13 268.818C164.558 267.431 172.551 266.212 180.94 265.052C197.735 262.747 216.249 260.858 235.611 258.869C254.973 256.888 273.345 254.787 289.93 252.215C306.497 249.618 321.338 246.586 333.701 243.685C339.884 242.232 345.459 240.842 350.32 239.507C352.764 238.875 355.003 238.19 357.09 237.621C359.147 236.985 361.058 236.467 362.742 235.919C369.522 233.832 373.2 232.422 373.444 232.898Z" fill="#A6A6A6"/>
</g>
<mask id="mask13_410_3763" style="mask-type:luminance" maskUnits="userSpaceOnUse" x="126" y="215" width="277" height="56">
<path d="M126.672 270.028H402.525V215.108H126.672V270.028Z" fill="white"/>
</mask>
<g mask="url(#mask13_410_3763)">
<path d="M402.514 215.192C402.721 215.583 399.387 217.866 392.785 220.793C391.146 221.551 389.282 222.272 387.253 223.11C385.205 223.877 382.988 224.76 380.572 225.582C375.756 227.298 370.21 229.044 364.038 230.825C351.691 234.384 336.812 237.957 320.072 240.947C303.338 243.909 284.822 246.224 265.411 248.21C245.998 250.203 227.544 251.888 210.826 253.821C202.463 254.797 194.554 255.785 187.171 256.904C180.323 257.935 173.495 259.09 166.69 260.371C161.08 261.427 155.493 262.599 149.931 263.886C145.022 265.021 140.841 266.157 137.422 267.099C130.605 269.034 126.904 270.401 126.68 269.932C126.483 269.54 129.854 267.313 136.534 264.544C140.595 262.9 144.723 261.43 148.909 260.138C153.794 258.62 159.408 257.072 165.658 255.569C171.908 254.065 178.792 252.599 186.218 251.223C193.647 249.841 201.637 248.626 210.026 247.469C226.82 245.174 245.333 243.288 264.695 241.3C284.059 239.318 302.433 237.214 319.021 234.633C335.592 232.028 350.434 228.985 362.796 226.072C368.977 224.613 374.553 223.216 379.413 221.873C381.856 221.237 384.094 220.549 386.181 219.977C388.238 219.337 390.149 218.815 391.831 218.262C398.608 216.159 402.28 214.732 402.514 215.192Z" fill="#A6A6A6"/>
</g>
<mask id="mask14_410_3763" style="mask-type:luminance" maskUnits="userSpaceOnUse" x="155" y="197" width="277" height="56">
<path d="M155.773 252.312H431.621V197.406H155.773V252.312Z" fill="white"/>
</mask>
<g mask="url(#mask14_410_3763)">
<path d="M431.615 197.484C431.814 197.858 428.474 200.125 421.868 203.036C420.227 203.789 418.362 204.506 416.333 205.341C414.284 206.104 412.067 206.983 409.649 207.799C404.833 209.509 399.287 211.249 393.114 213.024C380.767 216.569 365.888 220.132 349.153 223.115C332.421 226.07 313.908 228.38 294.498 230.366C275.086 232.36 256.631 234.049 239.911 235.989C231.547 236.969 223.636 237.959 216.253 239.084C209.405 240.119 202.576 241.281 195.771 242.569C190.161 243.63 184.573 244.808 179.012 246.104C174.103 247.247 169.922 248.39 166.504 249.341C159.691 251.292 155.997 252.676 155.781 252.224C155.592 251.849 158.969 249.638 165.653 246.887C169.715 245.252 173.844 243.79 178.03 242.504C182.915 240.993 188.529 239.452 194.779 237.956C201.029 236.457 207.913 234.998 215.338 233.627C222.765 232.251 230.754 231.04 239.142 229.887C255.935 227.598 274.447 225.716 293.81 223.727C313.175 221.746 331.552 219.637 348.142 217.049C364.716 214.437 379.56 211.384 391.92 208.457C398.103 206.993 403.678 205.59 408.536 204.239C410.979 203.599 413.217 202.907 415.303 202.331C417.36 201.686 419.269 201.161 420.951 200.604C427.724 198.485 431.389 197.041 431.615 197.484Z" fill="#A6A6A6"/>
</g>
<mask id="mask15_410_3763" style="mask-type:luminance" maskUnits="userSpaceOnUse" x="184" y="179" width="277" height="56">
<path d="M184.926 234.595H460.776V179.7H184.926V234.595Z" fill="white"/>
</mask>
<g mask="url(#mask15_410_3763)">
<path d="M460.767 179.774C460.957 180.132 457.61 182.382 451.001 185.275C449.358 186.026 447.493 186.739 445.463 187.569C443.414 188.328 441.196 189.204 438.778 190.018C433.961 191.72 428.414 193.452 422.241 195.221C409.894 198.753 395.016 202.306 378.283 205.281C361.555 208.227 343.046 210.535 323.636 212.52C304.225 214.513 285.768 216.207 269.047 218.154C260.683 219.137 252.77 220.133 245.386 221.263C238.537 222.303 231.707 223.47 224.902 224.765C219.291 225.832 213.704 227.017 208.143 228.32C203.234 229.47 199.055 230.622 195.639 231.581C188.828 233.548 185.14 234.949 184.933 234.515C184.752 234.156 188.136 231.963 194.822 229.227C198.886 227.602 203.016 226.148 207.201 224.867C212.087 223.364 217.702 221.83 223.95 220.34C230.2 218.849 237.084 217.395 244.508 216.029C251.935 214.658 259.922 213.452 268.31 212.302C285.101 210.02 303.612 208.142 322.975 206.154C342.341 204.174 360.721 202.059 377.315 199.464C393.893 196.844 408.736 193.78 421.098 190.841C427.278 189.371 432.854 187.96 437.711 186.603C440.154 185.958 442.39 185.263 444.475 184.683C446.532 184.035 448.44 183.504 450.122 182.945C456.891 180.809 460.55 179.348 460.767 179.774Z" fill="#A6A6A6"/>
</g>
<mask id="mask16_410_3763" style="mask-type:luminance" maskUnits="userSpaceOnUse" x="214" y="161" width="276" height="56">
<path d="M214.031 216.881H489.877V161.999H214.031V216.881Z" fill="white"/>
</mask>
<g mask="url(#mask16_410_3763)">
<path d="M489.872 162.067C490.053 162.408 486.699 164.641 480.086 167.519C478.443 168.265 476.578 168.974 474.547 169.8C472.497 170.556 470.279 171.428 467.861 172.238C463.042 173.932 457.495 175.658 451.322 177.419C438.974 180.94 424.097 184.482 407.369 187.449C390.642 190.389 372.136 192.691 352.726 194.677C333.317 196.67 314.859 198.368 298.136 200.322C289.771 201.308 281.857 202.309 274.472 203.444C267.622 204.488 260.793 205.662 253.987 206.963C248.376 208.036 242.788 209.228 237.228 210.539C232.321 211.698 228.142 212.857 224.727 213.824C217.918 215.808 214.237 217.225 214.037 216.807C213.866 216.465 217.255 214.29 223.944 211.57C228.01 209.955 232.141 208.508 236.327 207.234C241.213 205.738 246.827 204.212 253.076 202.728C259.325 201.242 266.208 199.795 273.632 198.434C281.057 197.068 289.044 195.867 297.431 194.72C314.22 192.445 332.729 190.571 352.095 188.583C371.462 186.602 389.844 184.485 406.44 181.881C423.022 179.254 437.865 176.179 450.227 173.228C456.408 171.751 461.982 170.333 466.839 168.968C469.282 168.321 471.518 167.621 473.602 167.038C475.658 166.385 477.565 165.851 479.245 165.287C486.011 163.136 489.663 161.658 489.872 162.067Z" fill="#A6A6A6"/>
</g>
<mask id="mask17_410_3763" style="mask-type:luminance" maskUnits="userSpaceOnUse" x="243" y="144" width="276" height="56">
<path d="M243.152 199.169H518.998V144.298H243.152V199.169Z" fill="white"/>
</mask>
<g mask="url(#mask17_410_3763)">
<path d="M518.992 144.361C519.165 144.686 515.805 146.901 509.19 149.764C507.545 150.505 505.678 151.21 503.647 152.033C501.596 152.784 499.377 153.652 496.958 154.458C492.139 156.146 486.591 157.865 480.418 159.62C468.07 163.127 453.194 166.659 436.467 169.619C419.744 172.551 401.241 174.849 381.833 176.836C362.424 178.828 343.965 180.529 327.241 182.49C318.875 183.481 310.96 184.486 303.574 185.626C296.723 186.675 289.893 187.854 283.087 189.163C277.476 190.24 271.889 191.44 266.33 192.76C261.421 193.925 257.243 195.092 253.83 196.067C247.023 198.068 243.349 199.502 243.158 199.101C242.994 198.777 246.391 196.619 253.083 193.914C257.15 192.309 261.282 190.87 265.467 189.603C270.354 188.115 275.968 186.595 282.217 185.116C288.465 183.637 295.349 182.196 302.771 180.84C310.196 179.479 318.18 178.282 326.567 177.14C343.356 174.872 361.864 173.002 381.23 171.013C400.597 169.032 418.982 166.91 435.581 164.299C452.166 161.664 467.011 158.58 479.372 155.615C485.552 154.131 491.126 152.707 495.982 151.335C498.423 150.684 500.661 149.98 502.743 149.394C504.798 148.737 506.705 148.2 508.384 147.631C515.148 145.463 518.792 143.969 518.992 144.361Z" fill="#A6A6A6"/>
</g>
<mask id="mask18_410_3763" style="mask-type:luminance" maskUnits="userSpaceOnUse" x="272" y="126" width="277" height="56">
<path d="M272.281 181.455H548.127V126.595H272.281V181.455Z" fill="white"/>
</mask>
<g mask="url(#mask18_410_3763)">
<path d="M548.121 126.652C548.285 126.96 544.917 129.158 538.298 132.005C536.653 132.742 534.786 133.443 532.754 134.262C530.702 135.01 528.483 135.873 526.064 136.677C521.244 138.356 515.695 140.068 509.521 141.818C497.173 145.312 482.298 148.834 465.575 151.786C448.855 154.71 430.354 157.005 410.947 158.99C391.539 160.982 373.08 162.688 356.354 164.656C347.988 165.651 340.07 166.659 332.684 167.805C325.832 168.859 319.001 170.044 312.195 171.36C306.583 172.442 300.996 173.648 295.437 174.977C290.53 176.149 286.352 177.325 282.94 178.308C276.137 180.325 272.469 181.777 272.286 181.393C272.131 181.085 275.534 178.943 282.228 176.256C286.298 174.66 290.43 173.229 294.615 171.967C299.503 170.486 305.117 168.973 311.366 167.502C317.614 166.03 324.496 164.594 331.918 163.243C339.342 161.887 347.325 160.694 355.711 159.556C372.498 157.296 391.004 155.429 410.372 153.44C429.74 151.459 448.129 149.333 464.73 146.715C481.318 144.072 496.164 140.978 508.524 138C514.705 136.51 520.278 135.08 525.133 133.699C527.575 133.044 529.81 132.337 531.893 131.746C533.948 131.086 535.854 130.544 537.532 129.972C544.291 127.788 547.93 126.276 548.121 126.652Z" fill="#A6A6A6"/>
</g>
<mask id="mask19_410_3763" style="mask-type:luminance" maskUnits="userSpaceOnUse" x="301" y="108" width="277" height="56">
<path d="M301.383 163.742H577.228V108.893H301.383V163.742Z" fill="white"/>
</mask>
<g mask="url(#mask19_410_3763)">
<path d="M577.222 108.946C577.378 109.237 574.003 111.419 567.381 114.248C565.734 114.982 563.866 115.679 561.834 116.494C559.781 117.238 557.562 118.098 555.142 118.897C550.321 120.57 544.772 122.274 538.598 124.018C526.25 127.499 511.375 131.011 494.655 133.956C477.939 136.873 459.44 139.162 440.034 141.148C420.628 143.141 402.165 144.849 385.439 146.825C377.072 147.823 369.154 148.836 361.766 149.988C354.913 151.046 348.082 152.236 341.275 153.558C335.663 154.647 330.076 155.861 324.518 157.196C319.611 158.377 315.434 159.56 312.024 160.551C305.223 162.585 301.562 164.053 301.387 163.687C301.24 163.396 304.65 161.27 311.347 158.6C315.418 157.013 319.552 155.59 323.737 154.334C328.625 152.861 334.239 151.355 340.487 149.89C346.735 148.424 353.617 146.994 361.038 145.648C368.461 144.298 376.442 143.11 384.828 141.974C401.613 139.721 420.119 137.859 439.487 135.87C458.857 133.889 477.247 131.759 493.852 129.133C510.444 126.483 525.289 123.377 537.65 120.388C543.83 118.891 549.403 117.453 554.258 116.066C556.698 115.408 558.933 114.696 561.015 114.101C563.069 113.438 564.974 112.892 566.652 112.316C573.407 110.115 577.039 108.587 577.222 108.946Z" fill="#A6A6A6"/>
</g>
</g>
<mask id="mask20_410_3763" style="mask-type:luminance" maskUnits="userSpaceOnUse" x="-586" y="-156" width="1412" height="747">
<path d="M-585.965 590.54H825.515V-155.05H-585.965V590.54Z" fill="white"/>
</mask>
<g mask="url(#mask20_410_3763)">
<mask id="mask21_410_3763" style="mask-type:luminance" maskUnits="userSpaceOnUse" x="-179" y="287" width="277" height="56">
<path d="M-178.273 342.502H97.5838V287.525H-178.273V342.502Z" fill="white"/>
</mask>
<g mask="url(#mask21_410_3763)">
<path d="M97.5719 287.639C97.8146 288.098 94.5069 290.449 87.9187 293.439C86.2812 294.214 84.4225 294.95 82.3951 295.804C80.3502 296.587 78.1351 297.485 75.7194 298.321C70.9088 300.067 65.3645 301.84 59.1932 303.646C46.8475 307.256 31.9652 310.872 15.213 313.892C-1.53284 316.884 -20.0594 319.215 -39.4747 321.202C-58.8916 323.195 -77.341 324.865 -94.0534 326.769C-102.416 327.732 -110.318 328.7 -117.696 329.8C-124.54 330.812 -131.366 331.944 -138.17 333.198C-143.779 334.231 -149.367 335.374 -154.931 336.628C-159.842 337.734 -164.025 338.838 -167.451 339.748C-174.278 341.618 -178.004 342.916 -178.262 342.38C-178.493 341.919 -175.148 339.625 -168.477 336.79C-164.424 335.109 -160.299 333.607 -156.114 332.29C-151.231 330.742 -145.617 329.166 -139.366 327.638C-133.115 326.108 -126.229 324.62 -118.799 323.222C-111.367 321.82 -103.371 320.587 -94.9795 319.417C-78.1788 317.092 -59.6618 315.19 -40.3038 313.203C-20.945 311.222 -2.58077 309.133 13.9956 306.582C30.5536 304.008 45.3922 301.007 57.7554 298.144C63.9378 296.712 69.5155 295.344 74.3795 294.029C76.8246 293.408 79.0644 292.734 81.1539 292.178C83.2139 291.553 85.1275 291.046 86.8135 290.511C93.6039 288.472 97.3029 287.113 97.5711 287.639" fill="#A6A6A6"/>
</g>
<mask id="mask22_410_3763" style="mask-type:luminance" maskUnits="userSpaceOnUse" x="-150" y="269" width="277" height="56">
<path d="M-149.16 324.784H126.696V269.823H-149.16V324.784Z" fill="white"/>
</mask>
<g mask="url(#mask22_410_3763)">
<path d="M126.684 269.93C126.918 270.372 123.604 272.705 117.012 275.681C115.375 276.451 113.514 277.183 111.487 278.034C109.441 278.812 107.225 279.707 104.81 280.539C99.9967 282.277 94.4532 284.045 88.2811 285.844C75.9354 289.44 61.053 293.046 44.304 296.059C27.5614 299.042 9.03801 301.37 -10.3757 303.357C-29.7918 305.35 -48.2428 307.024 -64.9568 308.934C-73.3193 309.901 -81.2228 310.874 -88.6027 311.978C-95.4478 312.995 -102.274 314.133 -109.079 315.394C-114.688 316.432 -120.275 317.583 -125.838 318.845C-130.749 319.958 -134.933 321.07 -138.356 321.988C-145.181 323.874 -148.901 325.19 -149.15 324.671C-149.373 324.227 -146.02 321.95 -139.347 319.132C-135.293 317.459 -131.167 315.966 -126.982 314.655C-122.098 313.114 -116.484 311.546 -110.233 310.023C-103.982 308.5 -97.0966 307.017 -89.6681 305.625C-82.2365 304.229 -74.2415 302.999 -65.8511 301.833C-49.0519 299.515 -30.5358 297.617 -11.1769 295.63C8.18349 293.648 26.5493 291.556 43.128 288.998C59.6901 286.416 74.5294 283.404 86.8927 280.529C93.0751 279.089 98.6528 277.714 103.514 276.393C105.959 275.767 108.199 275.091 110.288 274.53C112.347 273.901 114.26 273.391 115.945 272.851C122.732 270.797 126.424 269.42 126.684 269.93" fill="#A6A6A6"/>
</g>
<mask id="mask23_410_3763" style="mask-type:luminance" maskUnits="userSpaceOnUse" x="-121" y="252" width="277" height="56">
<path d="M-120.035 307.074H155.82V252.127H-120.035V307.074Z" fill="white"/>
</mask>
<g mask="url(#mask23_410_3763)">
<path d="M155.809 252.225C156.034 252.649 152.713 254.966 146.117 257.926C144.478 258.691 142.618 259.42 140.59 260.267C138.543 261.041 136.327 261.931 133.912 262.76C129.098 264.492 123.552 266.252 117.381 268.045C105.035 271.629 90.1544 275.224 73.4085 278.23C56.6675 281.206 38.1473 283.529 18.7343 285.515C-0.680971 287.509 -19.1327 289.186 -35.8491 291.105C-44.2117 292.074 -52.1167 293.052 -59.4966 294.162C-66.3428 295.182 -73.1701 296.326 -79.9749 297.593C-85.5839 298.638 -91.1713 299.795 -96.7335 301.066C-101.644 302.188 -105.827 303.306 -109.25 304.232C-116.071 306.134 -119.784 307.468 -120.025 306.965C-120.239 306.538 -116.882 304.278 -110.207 301.476C-106.15 299.813 -102.023 298.327 -97.8371 297.023C-92.9524 295.49 -87.339 293.928 -81.0881 292.412C-74.8381 290.895 -67.9523 289.419 -60.5246 288.032C-53.0946 286.64 -45.1004 285.416 -36.7108 284.252C-19.9141 281.942 -1.39863 280.048 17.9618 278.06C37.323 276.079 55.692 273.982 72.2739 271.417C88.8383 268.827 103.678 265.805 116.042 262.917C122.223 261.472 127.801 260.088 132.662 258.76C135.106 258.132 137.345 257.451 139.433 256.886C141.491 256.254 143.403 255.739 145.088 255.196C151.872 253.125 155.557 251.731 155.809 252.225Z" fill="#A6A6A6"/>
</g>
<mask id="mask24_410_3763" style="mask-type:luminance" maskUnits="userSpaceOnUse" x="-91" y="234" width="276" height="56">
<path d="M-90.8987 289.356H184.955V234.423H-90.8987V289.356Z" fill="white"/>
</mask>
<g mask="url(#mask24_410_3763)">
<path d="M184.944 234.517C185.16 234.925 181.833 237.225 175.234 240.168C173.595 240.93 171.733 241.654 169.704 242.497C167.656 243.268 165.44 244.154 163.024 244.979C158.21 246.703 152.664 248.456 146.491 250.243C134.145 253.814 119.265 257.399 102.523 260.396C85.7848 263.366 67.267 265.685 47.8548 267.671C28.4411 269.664 9.98858 271.345 -6.72859 273.271C-15.0912 274.244 -22.9994 275.227 -30.3809 276.341C-37.2277 277.366 -44.0552 278.516 -50.8601 279.791C-56.4698 280.84 -62.0574 282.005 -67.6194 283.284C-72.5287 284.412 -76.7108 285.54 -80.1322 286.474C-86.9512 288.392 -90.6582 289.742 -90.8898 289.257C-91.0958 288.848 -87.7309 286.604 -81.0536 283.818C-76.9952 282.166 -72.8676 280.688 -68.6824 279.389C-63.797 277.864 -58.1835 276.308 -51.9334 274.798C-45.6834 273.288 -38.7984 271.817 -31.3707 270.436C-23.9423 269.049 -15.9497 267.829 -7.56011 266.669C9.23504 264.366 27.7489 262.476 47.1109 260.488C66.4729 258.507 84.8443 256.407 101.429 253.833C117.997 251.235 132.839 248.204 145.2 245.303C151.383 243.851 156.959 242.461 161.82 241.126C164.264 240.493 166.502 239.808 168.589 239.24C170.647 238.603 172.558 238.085 174.242 237.537C181.022 235.451 184.7 234.04 184.944 234.517Z" fill="#A6A6A6"/>
</g>
<mask id="mask25_410_3763" style="mask-type:luminance" maskUnits="userSpaceOnUse" x="-62" y="216" width="277" height="56">
<path d="M-61.7891 271.643H214.063V216.724H-61.7891V271.643Z" fill="white"/>
</mask>
<g mask="url(#mask25_410_3763)">
<path d="M214.053 216.809C214.261 217.201 210.927 219.484 204.325 222.411C202.686 223.168 200.821 223.889 198.792 224.728C196.744 225.495 194.527 226.377 192.111 227.199C187.295 228.915 181.749 230.662 175.577 232.442C163.23 236.001 148.351 239.575 131.612 242.565C114.877 245.527 96.3616 247.841 76.9502 249.827C57.5373 251.82 39.084 253.506 22.3652 255.438C14.0026 256.415 6.09359 257.402 -1.2895 258.522C-8.1371 259.552 -14.9652 260.708 -21.7702 261.989C-27.3803 263.045 -32.968 264.216 -38.5296 265.503C-43.4389 266.638 -47.6202 267.774 -51.0392 268.717C-57.8558 270.651 -61.5565 272.018 -61.7809 271.55C-61.9782 271.157 -58.6061 268.931 -51.9264 266.162C-47.866 264.518 -43.7374 263.048 -39.552 261.755C-34.6666 260.237 -29.0531 258.69 -22.803 257.186C-16.553 255.682 -9.66877 254.217 -2.24272 252.84C5.18572 251.459 13.1759 250.243 21.5655 249.087C38.3591 246.791 56.8721 244.905 76.2341 242.917C95.5977 240.936 113.973 238.831 130.56 236.25C147.131 233.645 161.973 230.602 174.335 227.689C180.517 226.231 186.092 224.834 190.952 223.491C193.395 222.855 195.633 222.166 197.72 221.594C199.777 220.954 201.688 220.432 203.371 219.88C210.147 217.777 213.819 216.35 214.053 216.809Z" fill="#A6A6A6"/>
</g>
<mask id="mask26_410_3763" style="mask-type:luminance" maskUnits="userSpaceOnUse" x="-33" y="199" width="277" height="55">
<path d="M-32.6992 253.932H243.147V199.025H-32.6992V253.932Z" fill="white"/>
</mask>
<g mask="url(#mask26_410_3763)">
<path d="M243.142 199.103C243.341 199.477 240.001 201.744 233.395 204.655C231.754 205.408 229.89 206.125 227.86 206.961C225.812 207.723 223.595 208.602 221.177 209.419C216.361 211.129 210.814 212.869 204.641 214.643C192.295 218.188 177.416 221.752 160.68 224.735C143.949 227.689 125.436 230 106.026 231.985C86.6137 233.979 68.158 235.668 51.4384 237.608C43.0742 238.588 35.1636 239.579 27.7805 240.705C20.9321 241.739 14.1035 242.901 7.29823 244.189C1.68799 245.25 -3.89942 246.428 -9.46033 247.723C-14.3697 248.867 -18.5501 250.01 -21.9676 250.96C-28.7818 252.912 -32.4753 254.295 -32.6917 253.844C-32.8803 253.468 -29.5035 251.258 -22.8198 248.505C-18.7576 246.871 -14.6284 245.409 -10.443 244.124C-5.55757 242.612 0.0567668 241.072 6.30602 239.575C12.5561 238.077 19.4402 236.617 26.8663 235.246C34.2923 233.87 42.2817 232.659 50.6698 231.507C67.4625 229.217 85.974 227.336 105.338 225.347C124.702 223.366 143.079 221.257 159.67 218.668C176.244 216.056 191.087 213.003 203.449 210.077C209.631 208.612 215.205 207.209 220.064 205.859C222.507 205.219 224.745 204.526 226.83 203.949C228.887 203.306 230.797 202.779 232.478 202.224C239.252 200.104 242.917 198.661 243.142 199.103Z" fill="#A6A6A6"/>
</g>
<mask id="mask27_410_3763" style="mask-type:luminance" maskUnits="userSpaceOnUse" x="-4" y="181" width="277" height="56">
<path d="M-3.52344 236.212H272.326V181.318H-3.52344V236.212Z" fill="white"/>
</mask>
<g mask="url(#mask27_410_3763)">
<path d="M272.318 181.394C272.508 181.752 269.16 184.002 262.551 186.895C260.909 187.645 259.044 188.358 257.014 189.189C254.965 189.949 252.747 190.824 250.329 191.638C245.512 193.34 239.965 195.072 233.792 196.84C221.445 200.373 206.567 203.926 189.834 206.901C173.105 209.848 154.596 212.154 135.187 214.14C115.775 216.133 97.3188 217.827 80.5976 219.774C72.2335 220.757 64.3213 221.753 56.9366 222.883C50.0874 223.923 43.2583 225.09 36.4527 226.384C30.8421 227.452 25.2547 228.638 19.6941 229.941C14.7856 231.091 10.6059 232.242 7.19006 233.201C0.378265 235.168 -3.3089 236.569 -3.51657 236.134C-3.69719 235.776 -0.313161 233.583 6.37291 230.847C10.4368 229.222 14.5667 227.768 18.752 226.488C23.6383 224.985 29.2526 223.451 35.5019 221.96C41.7511 220.468 48.6345 219.016 56.059 217.648C63.4858 216.278 71.4728 215.072 79.8609 213.922C96.652 211.64 115.163 209.762 134.527 207.774C153.892 205.793 172.272 203.68 188.865 201.084C205.443 198.464 220.287 195.4 232.648 192.461C238.829 190.99 244.404 189.581 249.262 188.222C251.705 187.578 253.941 186.882 256.026 186.303C258.083 185.654 259.991 185.125 261.672 184.564C268.442 182.429 272.1 180.968 272.318 181.394Z" fill="#A6A6A6"/>
</g>
<mask id="mask28_410_3763" style="mask-type:luminance" maskUnits="userSpaceOnUse" x="25" y="163" width="277" height="56">
<path d="M25.5781 218.499H301.422V163.617H25.5781V218.499Z" fill="white"/>
</mask>
<g mask="url(#mask28_410_3763)">
<path d="M301.419 163.686C301.6 164.027 298.246 166.26 291.633 169.137C289.991 169.883 288.124 170.592 286.094 171.419C284.044 172.174 281.826 173.045 279.408 173.856C274.589 175.551 269.042 177.276 262.869 179.037C250.521 182.558 235.644 186.101 218.915 189.068C202.189 192.007 183.682 194.31 164.273 196.296C144.863 198.289 126.405 199.986 109.682 201.939C101.318 202.926 93.4039 203.927 86.0184 205.062C79.1686 206.106 72.3392 207.28 65.5337 208.582C59.9227 209.654 54.3352 210.846 48.7751 212.157C43.8674 213.316 39.6885 214.475 36.2734 215.442C29.4648 217.426 25.7841 218.843 25.5843 218.426C25.4125 218.084 28.8029 215.908 35.4905 213.189C39.5567 211.573 43.6879 210.126 47.8737 208.852C52.7591 207.356 58.3742 205.83 64.6226 204.346C70.8719 202.861 77.7553 201.413 85.179 200.052C92.6042 198.687 100.59 197.484 108.978 196.338C125.766 194.063 144.276 192.19 163.642 190.201C183.008 188.22 201.391 186.103 217.987 183.499C234.568 180.871 249.412 177.798 261.773 174.846C267.955 173.369 273.529 171.951 278.386 170.586C280.828 169.939 283.065 169.239 285.149 168.656C287.205 168.004 289.111 167.47 290.792 166.906C297.558 164.754 301.21 163.276 301.419 163.686Z" fill="#A6A6A6"/>
</g>
<mask id="mask29_410_3763" style="mask-type:luminance" maskUnits="userSpaceOnUse" x="54" y="145" width="277" height="56">
<path d="M54.6602 200.787H330.507V145.916H54.6602V200.787Z" fill="white"/>
</mask>
<g mask="url(#mask29_410_3763)">
<path d="M330.5 145.98C330.673 146.305 327.312 148.521 320.696 151.382C319.053 152.124 317.186 152.829 315.155 153.652C313.103 154.403 310.885 155.271 308.466 156.077C303.647 157.764 298.098 159.483 291.926 161.239C279.577 164.746 264.701 168.279 247.975 171.238C231.252 174.17 212.749 176.469 193.34 178.454C173.932 180.447 155.472 182.149 138.748 184.109C130.383 185.101 122.468 186.105 115.082 187.246C108.231 188.295 101.401 189.473 94.5945 190.782C88.9832 191.859 83.396 193.058 77.8367 194.378C72.929 195.545 68.7501 196.711 65.3366 197.687C58.5312 199.687 54.8568 201.122 54.6658 200.721C54.5019 200.397 57.8986 198.237 64.5903 195.533C68.6579 193.927 72.7896 192.489 76.975 191.221C81.862 189.733 87.4755 188.213 93.724 186.736C99.9732 185.257 106.857 183.815 114.279 182.459C121.704 181.098 129.688 179.901 138.075 178.759C154.863 176.491 173.371 174.622 192.737 172.632C212.104 170.651 230.49 168.53 247.089 165.919C263.673 163.284 278.518 160.198 290.879 157.235C297.06 155.751 302.634 154.327 307.49 152.954C309.932 152.304 312.168 151.599 314.251 151.012C316.306 150.357 318.213 149.819 319.892 149.251C326.655 147.082 330.3 145.588 330.5 145.98Z" fill="#A6A6A6"/>
</g>
<mask id="mask30_410_3763" style="mask-type:luminance" maskUnits="userSpaceOnUse" x="83" y="128" width="277" height="56">
<path d="M83.793 183.072H359.634V128.213H83.793V183.072Z" fill="white"/>
</mask>
<g mask="url(#mask30_410_3763)">
<path d="M359.632 128.273C359.796 128.58 356.429 130.779 349.81 133.624C348.165 134.362 346.298 135.063 344.265 135.882C342.213 136.63 339.995 137.494 337.575 138.297C332.756 139.976 327.207 141.688 321.033 143.438C308.684 146.933 293.809 150.455 277.086 153.407C260.367 156.331 241.866 158.625 222.459 160.611C203.051 162.603 184.59 164.308 167.865 166.276C159.499 167.27 151.582 168.28 144.196 169.426C137.344 170.479 130.513 171.664 123.706 172.979C118.094 174.063 112.507 175.269 106.948 176.597C102.041 177.769 97.864 178.945 94.4522 179.927C87.6483 181.946 83.9811 183.396 83.7981 183.013C83.6421 182.706 87.046 180.564 93.7401 177.876C97.8093 176.279 101.942 174.849 106.127 173.587C111.015 172.107 116.629 170.593 122.876 169.121C129.126 167.649 136.008 166.214 143.43 164.863C150.854 163.508 158.836 162.315 167.222 161.176C184.01 158.916 202.516 157.05 221.884 155.061C241.251 153.08 259.64 150.953 276.242 148.336C292.83 145.693 307.675 142.597 320.036 139.62C326.217 138.13 331.79 136.7 336.645 135.319C339.085 134.665 341.322 133.957 343.404 133.367C345.459 132.706 347.365 132.165 349.043 131.592C355.803 129.408 359.441 127.898 359.632 128.273Z" fill="#A6A6A6"/>
</g>
<mask id="mask31_410_3763" style="mask-type:luminance" maskUnits="userSpaceOnUse" x="112" y="110" width="277" height="56">
<path d="M112.91 165.36H388.755V110.511H112.91V165.36Z" fill="white"/>
</mask>
<g mask="url(#mask31_410_3763)">
<path d="M388.749 110.564C388.905 110.855 385.53 113.037 378.908 115.866C377.262 116.599 375.393 117.297 373.362 118.112C371.309 118.856 369.089 119.716 366.671 120.516C361.849 122.187 356.299 123.892 350.125 125.635C337.777 129.118 322.902 132.629 306.182 135.574C289.466 138.49 270.967 140.781 251.562 142.767C232.155 144.758 213.694 146.467 196.966 148.443C188.6 149.441 180.681 150.454 173.293 151.605C166.441 152.663 159.609 153.854 152.803 155.176C147.191 156.265 141.604 157.478 136.046 158.815C131.138 159.995 126.962 161.178 123.551 162.169C116.751 164.203 113.089 165.671 112.915 165.304C112.768 165.014 116.177 162.889 122.874 160.218C126.946 158.631 131.079 157.209 135.264 155.953C140.152 154.479 145.766 152.973 152.014 151.508C158.263 150.042 165.145 148.612 172.567 147.267C179.989 145.916 187.969 144.729 196.355 143.593C213.141 141.339 231.646 139.477 251.014 137.488C270.384 135.507 288.774 133.377 305.379 130.751C321.971 128.102 336.817 124.995 349.178 122.005C355.358 120.509 360.93 119.071 365.785 117.685C368.225 117.026 370.46 116.314 372.543 115.719C374.596 115.056 376.501 114.51 378.179 113.934C384.934 111.734 388.567 110.205 388.749 110.564Z" fill="#A6A6A6"/>
</g>
<mask id="mask32_410_3763" style="mask-type:luminance" maskUnits="userSpaceOnUse" x="142" y="92" width="276" height="56">
<path d="M142.066 147.647H417.913V92.8086H142.066V147.647Z" fill="white"/>
</mask>
<g mask="url(#mask32_410_3763)">
<path d="M417.906 92.8552C418.051 93.1297 414.671 95.2948 408.045 98.1083C406.399 98.8379 404.529 99.531 402.496 100.343C400.443 101.083 398.223 101.939 395.802 102.734C390.981 104.399 385.431 106.098 379.256 107.834C366.908 111.303 352.034 114.804 335.317 117.74C318.603 120.651 300.109 122.936 280.703 124.921C261.297 126.914 242.835 128.627 226.106 130.61C217.739 131.611 209.818 132.63 202.43 133.785C195.577 134.848 188.745 136.045 181.938 137.373C176.326 138.468 170.739 139.688 165.181 141.033C160.275 142.221 156.098 143.412 152.69 144.411C145.891 146.461 142.237 147.946 142.07 147.596C141.931 147.323 145.349 145.215 152.048 142.56C156.121 140.982 160.255 139.567 164.44 138.319C169.328 136.852 174.943 135.353 181.191 133.895C187.438 132.435 194.319 131.01 201.74 129.67C209.162 128.325 217.141 127.141 225.527 126.01C242.311 123.763 260.815 121.905 280.184 119.916C299.554 117.935 317.948 115.8 334.556 113.167C351.151 110.51 365.997 107.394 378.358 104.391C384.538 102.887 390.11 101.443 394.964 100.049C397.403 99.387 399.638 98.6717 401.719 98.0733C403.773 97.405 405.677 96.8559 407.353 96.2751C414.106 94.0591 417.731 92.5139 417.905 92.8561" fill="#A6A6A6"/>
</g>
<mask id="mask33_410_3763" style="mask-type:luminance" maskUnits="userSpaceOnUse" x="171" y="75" width="276" height="55">
<path d="M171.125 129.936H446.967V75.1054H171.125V129.936Z" fill="white"/>
</mask>
<g mask="url(#mask33_410_3763)">
<path d="M446.963 75.1485C447.101 75.4063 443.714 77.5547 437.084 80.3515C435.437 81.0771 433.567 81.7662 431.533 82.5738C429.479 83.3098 427.259 84.162 424.837 84.9544C420.016 86.6118 414.464 88.3027 408.29 90.0333C395.942 93.4897 381.068 96.9795 364.355 99.9092C347.644 102.811 329.151 105.093 309.747 107.078C290.343 109.071 271.879 110.788 255.148 112.778C246.781 113.783 238.859 114.805 231.47 115.966C224.615 117.034 217.783 118.236 210.976 119.572C205.363 120.672 199.776 121.899 194.219 123.252C189.313 124.447 185.137 125.645 181.73 126.653C174.935 128.72 171.287 130.222 171.129 129.89C170.998 129.633 174.42 127.541 181.123 124.904C185.198 123.335 189.333 121.928 193.518 120.685C198.407 119.226 204.021 117.733 210.269 116.282C216.517 114.829 223.397 113.409 230.817 112.075C238.238 110.735 246.216 109.555 254.601 108.427C271.383 106.188 289.887 104.334 309.257 102.345C328.627 100.364 347.024 98.2247 363.635 95.5847C380.233 92.9184 395.081 89.7921 407.44 86.7765C413.62 85.2679 419.191 83.8166 424.044 82.4146C426.484 81.7494 428.718 81.0302 430.799 80.427C432.851 79.7563 434.754 79.2017 436.43 78.6177C443.179 76.385 446.798 74.8223 446.963 75.1485Z" fill="#A6A6A6"/>
</g>
<mask id="mask34_410_3763" style="mask-type:luminance" maskUnits="userSpaceOnUse" x="200" y="57" width="277" height="56">
<path d="M200.277 112.223H476.122V57.4021H200.277V112.223Z" fill="white"/>
</mask>
<g mask="url(#mask34_410_3763)">
<path d="M476.114 57.4427C476.244 57.683 472.85 59.8146 466.217 62.5955C464.569 63.3172 462.697 64.0022 460.663 64.8059C458.609 65.5379 456.388 66.3861 453.967 67.1746C449.144 68.8256 443.591 70.5093 437.417 72.2335C425.068 75.6772 410.196 79.1575 393.486 82.0792C376.778 84.9731 358.288 87.2511 338.885 89.2364C319.481 91.2287 301.016 92.9497 284.284 94.9461C275.917 95.955 267.993 96.9831 260.602 98.1487C253.748 99.2211 246.914 100.429 240.107 101.771C234.494 102.877 228.907 104.111 223.35 105.472C218.445 106.675 214.271 107.881 210.865 108.897C204.072 110.98 200.43 112.499 200.281 112.183C200.158 111.944 203.587 109.869 210.292 107.248C214.369 105.689 218.505 104.29 222.691 103.053C227.579 101.602 233.194 100.117 239.441 98.6707C245.689 97.2241 252.569 95.811 259.988 94.4807C267.408 93.1463 275.384 91.9711 283.769 90.846C300.549 88.6141 319.051 86.765 338.423 84.775C357.794 82.7938 376.194 80.651 392.807 78.0038C409.408 75.3303 424.257 72.1929 436.617 69.1646C442.797 67.6496 448.367 66.1912 453.219 64.782C455.658 64.1136 457.892 63.3896 459.971 62.7832C462.024 62.1077 463.926 61.5507 465.601 60.9619C472.346 58.7134 475.959 57.1348 476.115 57.4427" fill="#A6A6A6"/>
</g>
<mask id="mask35_410_3763" style="mask-type:luminance" maskUnits="userSpaceOnUse" x="229" y="39" width="277" height="56">
<path d="M229.406 94.5125H505.244V39.7006H229.406V94.5125Z" fill="white"/>
</mask>
<g mask="url(#mask35_410_3763)">
<path d="M505.244 39.7342C505.365 39.9578 501.964 42.0727 495.327 44.8369C493.679 45.5546 491.807 46.2357 489.771 47.0353C487.716 47.7642 485.495 48.6084 483.073 49.3937C478.249 51.0368 472.697 52.7133 466.522 54.4311C454.173 57.8629 439.301 61.332 422.595 64.2458C405.889 67.1333 387.402 69.4065 368 71.3918C348.597 73.3841 330.131 75.1084 313.398 77.1127C305.029 78.1248 297.104 79.156 289.713 80.328C282.858 81.4049 276.024 82.6183 269.217 83.9675C262.977 85.2111 257.361 86.4746 252.46 87.6896C247.554 88.8999 243.381 90.1141 239.976 91.1381C233.187 93.2371 229.551 94.7735 229.409 94.4744C229.296 94.2516 232.731 92.1948 239.439 89.5897C243.517 88.0401 247.654 86.6487 251.84 85.4188C256.729 83.9746 262.343 82.4963 268.591 81.0569C274.838 79.6167 281.718 78.2091 289.135 76.8836C296.555 75.5548 304.53 74.3835 312.913 73.2632C329.692 71.0385 348.193 69.1917 367.566 67.2026C386.939 65.2205 405.341 63.0746 421.957 60.4186C438.561 57.738 453.41 54.5903 465.77 51.55C471.95 50.0287 477.52 48.563 482.371 47.1459C484.809 46.4736 487.043 45.7471 489.122 45.136C491.173 44.4573 493.075 43.8955 494.749 43.3028C501.491 41.0383 505.097 39.4422 505.244 39.7342Z" fill="#A6A6A6"/>
</g>
<mask id="mask36_410_3763" style="mask-type:luminance" maskUnits="userSpaceOnUse" x="258" y="21" width="277" height="56">
<path d="M258.531 76.8018H534.377V21.9971H258.531V76.8018Z" fill="white"/>
</mask>
<g mask="url(#mask36_410_3763)">
<path d="M534.368 22.0267C534.479 22.2344 531.073 24.3318 524.432 27.08C522.783 27.7938 520.91 28.4709 518.874 29.2666C516.818 29.9914 514.597 30.8317 512.174 31.6138C507.349 33.2489 501.797 34.9198 495.622 36.6305C483.273 40.0488 468.401 43.5084 451.698 46.4142C434.996 49.2946 416.511 51.5638 397.11 53.5483C377.708 55.5406 359.241 57.2688 342.506 59.2803C334.137 60.2956 326.211 61.3331 318.818 62.5084C311.962 63.5906 305.127 64.81 298.32 66.1661C292.08 67.4153 286.466 68.686 281.563 69.909C276.659 71.1264 272.486 72.3485 269.083 73.3813C262.296 75.4962 258.666 77.0494 258.534 76.7677C258.428 76.5616 261.87 74.5215 268.581 71.9332C272.661 70.3931 276.798 69.0091 280.984 67.7845C285.874 66.3483 291.487 64.8771 297.735 63.4441C303.981 62.0103 310.861 60.6091 318.279 59.289C325.697 57.9642 333.669 56.7986 342.053 55.6807C358.83 53.4631 377.331 51.6211 396.704 49.6311C416.078 47.6499 434.482 45.4992 451.102 42.836C467.71 40.1475 482.56 36.9894 494.918 33.9364C501.098 32.4087 506.668 30.9367 511.518 29.5124C513.956 28.8361 516.188 28.1049 518.266 27.4914C520.318 26.8079 522.218 26.2422 523.892 25.6455C530.631 23.3643 534.229 21.7514 534.368 22.0267Z" fill="#A6A6A6"/>
</g>
<mask id="mask37_410_3763" style="mask-type:luminance" maskUnits="userSpaceOnUse" x="287" y="4" width="277" height="56">
<path d="M287.668 59.0935H563.506V4.29682H287.668V59.0935Z" fill="white"/>
</mask>
<g mask="url(#mask37_410_3763)">
<path d="M563.505 4.32165C563.561 4.43543 562.721 4.96376 561.059 5.87162C559.39 6.7588 556.87 7.96184 553.551 9.32484C551.901 10.0346 550.026 10.7077 547.99 11.4994C545.933 12.2203 543.712 13.0574 541.289 13.8355C536.462 15.4635 530.91 17.1272 524.735 18.8316C512.384 22.2371 497.515 25.6863 480.814 28.585C464.114 31.4566 445.632 33.7219 426.233 35.7063C406.833 37.6987 388.364 39.4317 371.627 41.4503C363.258 42.4688 355.329 43.5095 347.937 44.6919C341.079 45.7779 334.245 47.0029 327.437 48.3663C321.197 49.6219 315.582 50.8998 310.68 52.1299C305.776 53.3552 301.604 54.5845 298.202 55.6253C291.417 57.7569 287.795 59.3268 287.671 59.0626C287.617 58.948 288.468 58.4364 290.148 57.5628C291.834 56.7066 294.384 55.5704 297.735 54.2782C301.817 52.7478 305.955 51.372 310.14 50.1535C315.032 48.7244 320.646 47.2603 326.892 45.8329C333.14 44.4062 340.017 43.0107 347.434 41.6954C354.851 40.3762 362.822 39.2145 371.206 38.1005C387.982 35.8901 406.481 34.0521 425.855 32.0613C445.23 30.0801 463.638 27.9262 480.259 25.2551C496.871 22.5577 511.722 19.3909 524.08 16.3244C530.259 14.7903 535.828 13.3112 540.678 11.8798C543.115 11.2002 545.348 10.4659 547.425 9.84763C549.475 9.16016 551.375 8.59042 553.047 7.99048C559.783 5.69257 563.375 4.06305 563.505 4.32165Z" fill="#A6A6A6"/>
</g>
<mask id="mask38_410_3763" style="mask-type:luminance" maskUnits="userSpaceOnUse" x="316" y="-14" width="277" height="56">
<path d="M316.75 41.3767H592.587V-13.4128H316.75V41.3767Z" fill="white"/>
</mask>
<g mask="url(#mask38_410_3763)">
<path d="M592.586 -13.3895C592.638 -13.2845 591.795 -12.7641 590.129 -11.865C588.457 -10.9858 585.935 -9.79146 582.613 -8.43563C580.962 -7.73066 579.087 -7.06073 577.052 -6.27301C574.993 -5.55611 572.771 -4.72302 570.347 -3.94882C565.521 -2.32882 559.967 -0.67064 553.792 1.02654C541.441 4.4201 526.571 7.85825 509.875 10.7497C493.178 13.6142 474.7 15.8747 455.3 17.8591C435.9 19.8515 417.431 21.5876 400.693 23.6134C392.323 24.6367 384.393 25.6822 376.999 26.8686C370.141 27.9596 363.306 29.1905 356.498 30.5605C350.257 31.8224 344.643 33.1075 339.742 34.3447C334.838 35.578 330.666 36.8153 327.266 37.864C320.485 40.0123 316.868 41.5989 316.752 41.3507C316.702 41.2456 317.557 40.742 319.24 39.8771C320.929 39.0297 323.482 37.9014 326.834 36.6172C330.918 35.0961 335.057 33.7281 339.243 32.5162C344.134 31.0944 349.747 29.6375 355.994 28.2172C362.241 26.7954 369.119 25.4061 376.535 24.0956C383.951 22.7827 391.92 21.625 400.303 20.515C417.077 18.311 435.575 16.477 454.951 14.487C474.326 12.5058 492.738 10.3463 509.362 7.66804C525.976 4.96433 540.828 1.78563 553.186 -1.29284C559.365 -2.83327 564.933 -4.3196 569.782 -5.75818C572.219 -6.44246 574.451 -7.18008 576.527 -7.8023C578.578 -8.49295 580.476 -9.06584 582.148 -9.67135C588.88 -11.9844 592.465 -13.6314 592.586 -13.3895Z" fill="#A6A6A6"/>
</g>
</g>
<mask id="mask39_410_3763" style="mask-type:luminance" maskUnits="userSpaceOnUse" x="-775" y="-154" width="1413" height="747">
<path d="M-774.422 592.159H637.056V-153.431H-774.422V592.159Z" fill="white"/>
</mask>
<g mask="url(#mask39_410_3763)">
<mask id="mask40_410_3763" style="mask-type:luminance" maskUnits="userSpaceOnUse" x="-251" y="218" width="277" height="56">
<path d="M-250.254 273.264H25.5978V218.345H-250.254V273.264Z" fill="white"/>
</mask>
<g mask="url(#mask40_410_3763)">
<path d="M25.5885 218.428C25.7954 218.82 22.4615 221.103 15.8598 224.03C14.2199 224.787 12.3564 225.508 10.3274 226.347C8.27936 227.114 6.06258 227.996 3.64611 228.818C-1.16933 230.535 -6.71597 232.281 -12.888 234.062C-25.2346 237.62 -40.1137 241.194 -56.8532 244.184C-73.5879 247.146 -92.1033 249.461 -111.515 251.447C-130.928 253.44 -149.382 255.125 -166.1 257.058C-174.463 258.034 -182.372 259.021 -189.755 260.141C-196.603 261.171 -203.431 262.327 -210.236 263.608C-215.846 264.664 -221.433 265.836 -226.994 267.122C-231.904 268.258 -236.085 269.393 -239.504 270.337C-246.321 272.27 -250.021 273.637 -250.246 273.169C-250.443 272.776 -247.072 270.55 -240.391 267.781C-236.331 266.137 -232.203 264.667 -228.017 263.375C-223.131 261.856 -217.518 260.308 -211.268 258.805C-205.018 257.301 -198.134 255.836 -190.708 254.459C-183.279 253.079 -175.289 251.863 -166.899 250.706C-150.106 248.41 -131.593 246.525 -112.231 244.536C-92.8671 242.555 -74.4926 240.45 -57.9051 237.869C-41.3335 235.264 -26.4918 232.221 -14.1301 229.308C-7.94851 227.85 -2.37239 226.453 2.4876 225.11C4.93033 224.474 7.16858 223.786 9.25484 223.214C11.3125 222.573 13.2229 222.052 14.9057 221.499C21.6817 219.396 25.353 217.969 25.5885 218.428Z" fill="#A6A6A6"/>
</g>
<mask id="mask41_410_3763" style="mask-type:luminance" maskUnits="userSpaceOnUse" x="-222" y="200" width="277" height="56">
<path d="M-221.133 255.546H54.7173V200.639H-221.133V255.546Z" fill="white"/>
</mask>
<g mask="url(#mask41_410_3763)">
<path d="M54.7089 200.721C54.9078 201.095 51.5675 203.362 44.9618 206.272C43.3203 207.026 41.4561 207.743 39.4263 208.577C37.3782 209.34 35.1615 210.22 32.7434 211.038C27.9272 212.747 22.3805 214.486 16.2076 216.26C3.86111 219.806 -11.018 223.37 -27.7535 226.352C-44.485 229.306 -62.9972 231.617 -82.4078 233.603C-101.82 235.596 -120.276 237.285 -136.995 239.225C-145.359 240.205 -153.27 241.197 -160.653 242.32C-167.501 243.355 -174.33 244.517 -181.135 245.805C-186.746 246.866 -192.333 248.045 -197.894 249.341C-202.803 250.484 -206.984 251.627 -210.401 252.577C-217.215 254.529 -220.909 255.913 -221.125 255.461C-221.314 255.085 -217.937 252.875 -211.253 250.124C-207.191 248.489 -203.062 247.027 -198.877 245.741C-193.99 244.229 -188.377 242.689 -182.128 241.192C-175.878 239.694 -168.993 238.235 -161.567 236.864C-154.141 235.487 -146.152 234.277 -137.764 233.124C-120.971 230.835 -102.46 228.953 -83.096 226.964C-63.7316 224.983 -45.3547 222.874 -28.764 220.286C-12.1892 217.673 2.65331 214.62 15.0149 211.694C21.1974 210.23 26.7718 208.826 31.6302 207.475C34.0738 206.836 36.3112 206.143 38.3967 205.567C40.4535 204.923 42.3632 204.398 44.0444 203.841C50.818 201.722 54.4837 200.278 54.7089 200.721Z" fill="#A6A6A6"/>
</g>
<mask id="mask42_410_3763" style="mask-type:luminance" maskUnits="userSpaceOnUse" x="-192" y="182" width="276" height="56">
<path d="M-192 237.831H83.8493V182.937H-192V237.831Z" fill="white"/>
</mask>
<g mask="url(#mask42_410_3763)">
<path d="M83.8411 183.014C84.032 183.372 80.6839 185.622 74.075 188.516C72.4327 189.266 70.5676 189.979 68.5379 190.81C66.4882 191.569 64.2706 192.444 61.8525 193.258C57.0355 194.96 51.4881 196.692 45.3152 198.461C32.9687 201.994 18.0903 205.546 1.35723 208.521C-15.3711 211.469 -33.8801 213.775 -53.2899 215.76C-72.7012 217.754 -91.1577 219.447 -107.879 221.394C-116.243 222.377 -124.155 223.373 -131.54 224.503C-138.389 225.543 -145.218 226.71 -152.024 228.004C-157.634 229.071 -163.222 230.257 -168.782 231.56C-173.691 232.711 -177.871 233.862 -181.287 234.821C-188.098 236.789 -191.785 238.19 -191.993 237.755C-192.174 237.396 -188.79 235.204 -182.103 232.467C-178.039 230.843 -173.91 229.388 -169.725 228.109C-164.838 226.605 -159.224 225.071 -152.975 223.58C-146.725 222.089 -139.842 220.636 -132.418 219.269C-124.991 217.898 -117.004 216.691 -108.616 215.542C-91.8245 213.26 -73.3139 211.383 -53.9495 209.394C-34.5843 207.413 -16.205 205.3 0.388857 202.704C16.9668 200.084 31.8101 197.021 44.1718 194.081C50.3526 192.611 55.9279 191.2 60.7855 189.843C63.2283 189.198 65.4649 188.503 67.5496 187.923C69.6064 187.275 71.5145 186.744 73.1957 186.185C79.9654 184.049 83.6239 182.589 83.8419 183.014" fill="#A6A6A6"/>
</g>
<mask id="mask43_410_3763" style="mask-type:luminance" maskUnits="userSpaceOnUse" x="-163" y="165" width="276" height="56">
<path d="M-162.875 220.118H112.973V165.236H-162.875V220.118Z" fill="white"/>
</mask>
<g mask="url(#mask43_410_3763)">
<path d="M112.965 165.304C113.147 165.645 109.793 167.878 103.18 170.756C101.537 171.502 99.6721 172.21 97.6407 173.038C95.5902 173.794 93.3727 174.665 90.9546 175.475C86.136 177.17 80.5885 178.895 74.4149 180.656C62.0676 184.177 47.1908 187.719 30.4617 190.687C13.7366 193.627 -4.77087 195.929 -24.1798 197.914C-43.5896 199.908 -62.0477 201.604 -78.7704 203.558C-87.1354 204.545 -95.0492 205.547 -102.434 206.68C-109.284 207.725 -116.114 208.898 -122.919 210.2C-128.53 211.272 -134.118 212.465 -139.678 213.776C-144.586 214.935 -148.765 216.094 -152.18 217.061C-158.988 219.045 -162.669 220.462 -162.869 220.045C-163.041 219.703 -159.651 217.528 -152.962 214.807C-148.896 213.192 -144.765 211.746 -140.579 210.471C-135.693 208.975 -130.08 207.449 -123.83 205.965C-117.581 204.48 -110.698 203.032 -103.274 201.672C-95.8489 200.305 -87.8618 199.104 -79.4754 197.957C-62.6858 195.682 -44.1768 193.808 -24.8116 191.82C-5.44481 189.839 12.9377 187.721 29.5339 185.118C46.1158 182.49 60.9592 179.416 73.3201 176.465C79.5025 174.987 85.0762 173.57 89.9338 172.205C92.3749 171.558 94.6124 170.858 96.6955 170.274C98.7515 169.623 100.659 169.089 102.339 168.524C109.105 166.373 112.757 164.895 112.965 165.304Z" fill="#A6A6A6"/>
</g>
<mask id="mask44_410_3763" style="mask-type:luminance" maskUnits="userSpaceOnUse" x="-134" y="147" width="277" height="56">
<path d="M-133.781 202.405H142.065V147.534H-133.781V202.405Z" fill="white"/>
</mask>
<g mask="url(#mask44_410_3763)">
<path d="M142.059 147.598C142.231 147.922 138.871 150.137 132.255 153C130.611 153.741 128.745 154.446 126.713 155.269C124.662 156.021 122.444 156.888 120.025 157.695C115.206 159.382 109.657 161.101 103.484 162.856C91.1361 166.364 76.2601 169.896 59.5334 172.855C42.8106 175.788 24.3072 178.085 4.89901 180.072C-14.5091 182.064 -32.9689 183.766 -49.6924 185.726C-58.0582 186.718 -65.9736 187.722 -73.3598 188.863C-80.2106 189.912 -87.0409 191.091 -93.8469 192.399C-99.4582 193.477 -105.045 194.676 -110.605 195.996C-115.512 197.162 -119.691 198.328 -123.104 199.304C-129.91 201.304 -133.585 202.739 -133.776 202.338C-133.939 202.013 -130.543 199.855 -123.851 197.151C-119.784 195.545 -115.652 194.106 -111.466 192.839C-106.579 191.351 -100.966 189.831 -94.7166 188.353C-88.4682 186.874 -81.5847 185.433 -74.1626 184.076C-66.7374 182.716 -58.7536 181.518 -50.3663 180.376C-33.5784 178.109 -15.0701 176.239 4.29584 174.25C23.6634 172.268 42.0484 170.147 58.6478 167.536C75.2321 164.9 90.077 161.816 102.438 158.852C108.619 157.368 114.192 155.944 119.048 154.572C121.49 153.921 123.726 153.217 125.809 152.63C127.865 151.974 129.772 151.437 131.451 150.868C138.214 148.7 141.859 147.205 142.059 147.598Z" fill="#A6A6A6"/>
</g>
<mask id="mask45_410_3763" style="mask-type:luminance" maskUnits="userSpaceOnUse" x="-105" y="129" width="277" height="56">
<path d="M-104.66 184.691H171.185V129.832H-104.66V184.691Z" fill="white"/>
</mask>
<g mask="url(#mask45_410_3763)">
<path d="M171.179 129.891C171.343 130.199 167.976 132.398 161.356 135.243C159.712 135.981 157.844 136.682 155.812 137.501C153.761 138.249 151.542 139.112 149.122 139.916C144.303 141.595 138.754 143.307 132.58 145.056C120.231 148.552 105.357 152.072 88.6332 155.025C71.9136 157.949 53.4125 160.243 34.006 162.229C14.5978 164.222 -3.86266 165.927 -20.5878 167.894C-28.9543 168.889 -36.8714 169.899 -44.2576 171.045C-51.1093 172.098 -57.9401 173.283 -64.7463 174.598C-70.358 175.681 -75.9452 176.888 -81.5041 178.216C-86.4118 179.389 -90.5891 180.563 -94.001 181.547C-100.804 183.564 -104.472 185.015 -104.655 184.632C-104.81 184.324 -101.407 182.181 -94.7131 179.495C-90.644 177.898 -86.5115 176.468 -82.326 175.207C-77.4382 173.725 -71.8247 172.212 -65.5754 170.741C-59.327 169.269 -52.4451 167.832 -45.0231 166.481C-37.5994 165.126 -29.6163 163.934 -21.2299 162.795C-4.44351 160.534 14.0631 158.669 33.4307 156.679C52.7975 154.698 71.1872 152.572 87.789 149.954C104.376 147.311 119.222 144.216 131.583 141.239C137.764 139.749 143.337 138.318 148.192 136.938C150.633 136.284 152.869 135.576 154.951 134.984C157.006 134.326 158.911 133.783 160.59 133.21C167.35 131.027 170.988 129.516 171.179 129.891Z" fill="#A6A6A6"/>
</g>
<mask id="mask46_410_3763" style="mask-type:luminance" maskUnits="userSpaceOnUse" x="-76" y="112" width="277" height="55">
<path d="M-75.5234 166.979H200.32V112.129H-75.5234V166.979Z" fill="white"/>
</mask>
<g mask="url(#mask46_410_3763)">
<path d="M200.315 112.182C200.471 112.473 197.097 114.655 190.473 117.485C188.828 118.218 186.96 118.915 184.927 119.731C182.874 120.475 180.656 121.334 178.235 122.134C173.415 123.806 167.865 125.511 161.692 127.254C149.343 130.736 134.468 134.247 117.749 137.192C101.032 140.109 82.5336 142.399 63.1279 144.384C43.7205 146.377 25.2592 148.086 8.53249 150.061C0.165949 151.059 -7.75264 152.073 -15.1405 153.224C-21.9929 154.282 -28.8243 155.472 -35.6308 156.794C-41.2429 157.884 -46.8301 159.097 -52.3885 160.434C-57.2955 161.614 -61.472 162.796 -64.8823 163.787C-71.6829 165.821 -75.3454 167.288 -75.5189 166.922C-75.6661 166.632 -72.2566 164.507 -65.5594 161.836C-61.4879 160.25 -57.3545 158.827 -53.1691 157.571C-48.2813 156.097 -42.6678 154.592 -36.4201 153.126C-30.1709 151.66 -23.289 150.23 -15.8678 148.884C-8.44568 147.534 -0.464231 146.346 7.92141 145.211C24.707 142.957 43.2129 141.095 62.5805 139.106C81.9496 137.125 100.341 134.995 116.946 132.369C133.537 129.719 148.383 126.613 160.744 123.624C166.924 122.127 172.496 120.69 177.351 119.303C179.792 118.645 182.027 117.933 184.108 117.337C186.163 116.675 188.067 116.128 189.745 115.552C196.5 113.352 200.133 111.823 200.315 112.182Z" fill="#A6A6A6"/>
</g>
<mask id="mask47_410_3763" style="mask-type:luminance" maskUnits="userSpaceOnUse" x="-47" y="94" width="277" height="56">
<path d="M-46.4336 149.267H229.413V94.4277H-46.4336V149.267Z" fill="white"/>
</mask>
<g mask="url(#mask47_410_3763)">
<path d="M229.404 94.475C229.551 94.7495 226.171 96.9145 219.545 99.7272C217.898 100.457 216.028 101.151 213.996 101.961C211.942 102.701 209.723 103.558 207.302 104.353C202.481 106.019 196.931 107.717 190.756 109.454C178.407 112.923 163.534 116.424 146.817 119.36C130.103 122.27 111.608 124.556 92.2021 126.541C72.7971 128.533 54.335 130.246 37.6059 132.23C29.2386 133.23 21.3184 134.248 13.9298 135.405C7.07657 136.468 0.244631 137.664 -6.56211 138.993C-12.1743 140.088 -17.7614 141.308 -23.3191 142.652C-28.2252 143.84 -32.4017 145.031 -35.8112 146.03C-42.6087 148.081 -46.2632 149.565 -46.4295 149.216C-46.5687 148.941 -43.1521 146.834 -36.4525 144.179C-32.3794 142.602 -28.2453 141.187 -24.0599 139.938C-19.172 138.471 -13.5577 136.973 -7.30927 135.514C-1.06162 134.054 5.81944 132.63 13.2399 131.289C20.662 129.945 28.641 128.76 37.0267 127.629C53.8107 125.382 72.3149 123.524 91.6841 121.535C111.054 119.554 129.447 117.42 146.056 114.786C162.651 112.129 177.497 109.013 189.857 106.01C196.038 104.508 201.609 103.062 206.463 101.668C208.903 101.006 211.138 100.291 213.218 99.6922C215.273 99.0246 217.177 98.4749 218.853 97.8948C225.606 95.678 229.231 94.1328 229.404 94.475Z" fill="#A6A6A6"/>
</g>
<mask id="mask48_410_3763" style="mask-type:luminance" maskUnits="userSpaceOnUse" x="-18" y="76" width="277" height="56">
<path d="M-17.3008 131.553H258.54V76.7234H-17.3008V131.553Z" fill="white"/>
</mask>
<g mask="url(#mask48_410_3763)">
<path d="M258.537 76.7685C258.675 77.0255 255.287 79.1738 248.658 81.9706C247.011 82.6963 245.14 83.3861 243.106 84.1937C241.053 84.9297 238.833 85.7819 236.412 86.5736C231.589 88.2318 226.038 89.9226 219.865 91.6532C207.516 95.1096 192.642 98.5994 175.929 101.529C159.218 104.431 140.725 106.713 121.321 108.697C101.917 110.691 83.453 112.408 66.7215 114.398C58.355 115.402 50.4332 116.425 43.0438 117.586C36.1896 118.653 29.357 119.855 22.5503 121.192C16.9375 122.292 11.3504 123.519 5.79333 124.872C0.887186 126.067 -3.28851 127.265 -6.6956 128.273C-13.4907 130.34 -17.1396 131.841 -17.2972 131.509C-17.4277 131.252 -14.0055 129.161 -7.30348 126.523C-3.22835 124.955 0.906771 123.548 5.09235 122.305C9.98099 120.846 15.5953 119.354 21.8429 117.902C28.0906 116.449 34.9716 115.03 42.3913 113.694C49.8118 112.354 57.79 111.175 66.1741 110.047C82.9573 107.808 101.461 105.954 120.831 103.965C140.201 101.983 158.598 99.8447 175.209 97.2046C191.807 94.5383 206.654 91.4121 219.014 88.3973C225.194 86.8879 230.765 85.4366 235.618 84.0346C238.057 83.3686 240.292 82.6501 242.372 82.047C244.425 81.3762 246.328 80.8224 248.005 80.2376C254.754 78.005 258.372 76.4431 258.537 76.7685Z" fill="#A6A6A6"/>
</g>
<mask id="mask49_410_3763" style="mask-type:luminance" maskUnits="userSpaceOnUse" x="11" y="59" width="277" height="55">
<path d="M11.8047 113.842H287.648V59.0213H11.8047V113.842Z" fill="white"/>
</mask>
<g mask="url(#mask49_410_3763)">
<path d="M287.642 59.063C287.772 59.3033 284.377 61.4341 277.745 64.2158C276.098 64.9367 274.225 65.6225 272.191 66.4254C270.136 67.1574 267.916 68.0064 265.494 68.7949C260.671 70.446 255.12 72.1288 248.945 73.853C236.596 77.2975 221.723 80.7778 205.013 83.6988C188.305 86.5934 169.815 88.8706 150.412 90.8567C131.008 92.8482 112.544 94.5693 95.8131 96.5665C87.4441 97.5746 79.5208 98.6018 72.1297 99.7683C65.2748 100.84 58.4418 102.048 51.6347 103.391C46.0217 104.497 40.4346 105.732 34.8777 107.092C29.9724 108.296 25.799 109.502 22.392 110.517C15.5993 112.6 11.9574 114.119 11.8079 113.803C11.6853 113.564 15.1147 111.489 21.8199 108.868C25.8964 107.309 30.0323 105.91 34.2181 104.674C39.1067 103.221 44.721 101.737 50.9687 100.291C57.2163 98.8445 64.0974 97.4313 71.5147 96.101C78.9352 94.7658 86.911 93.5914 95.2959 92.4663C112.077 90.2344 130.579 88.3845 149.951 86.3953C169.322 84.4133 187.722 82.2713 204.335 79.6225C220.936 76.949 235.785 73.8132 248.144 70.7849C254.324 69.2699 259.894 67.8115 264.746 66.4023C267.185 65.7323 269.419 65.0099 271.499 64.4036C273.551 63.7273 275.453 63.1703 277.128 62.5815C283.874 60.3329 287.486 58.7543 287.642 59.063Z" fill="#A6A6A6"/>
</g>
<mask id="mask50_410_3763" style="mask-type:luminance" maskUnits="userSpaceOnUse" x="40" y="41" width="277" height="56">
<path d="M40.9336 96.1296H316.772V41.317H40.9336V96.1296Z" fill="white"/>
</mask>
<g mask="url(#mask50_410_3763)">
<path d="M316.771 41.3528C316.891 41.5779 313.491 43.6921 306.854 46.4562C305.205 47.1739 303.333 47.8558 301.298 48.6547C299.243 49.3835 297.022 50.2277 294.6 51.0131C289.776 52.6562 284.224 54.3335 278.05 56.0497C265.701 59.4823 250.828 62.9514 234.121 65.866C217.416 68.7527 198.928 71.026 179.527 73.0112C160.124 75.0036 141.658 76.727 124.925 78.7321C116.556 79.7442 108.631 80.7762 101.24 81.9466C94.3841 83.0236 87.5505 84.2375 80.7433 85.5877C74.5028 86.8305 68.8885 88.094 63.9863 89.3098C59.081 90.5192 54.9076 91.7335 51.5029 92.7575C44.7134 94.8573 41.078 96.393 40.9363 96.0946C40.8225 95.871 44.2575 93.8142 50.9658 91.2091C55.0442 89.6599 59.1808 88.2685 63.3665 87.0382C68.2559 85.594 73.8694 84.1157 80.1171 82.6763C86.3647 81.2361 93.2441 79.8277 100.662 78.5037C108.081 77.1741 116.056 76.0037 124.439 74.8826C141.219 72.6579 159.721 70.8111 179.092 68.8219C198.465 66.8407 216.868 64.694 233.485 62.038C250.088 59.3566 264.938 56.2104 277.296 53.1702C283.476 51.648 289.047 50.1824 293.897 48.7653C296.336 48.0929 298.569 47.3665 300.649 46.7562C302.7 46.0767 304.602 45.515 306.276 44.923C313.017 42.6577 316.623 41.0608 316.771 41.3528Z" fill="#A6A6A6"/>
</g>
<mask id="mask51_410_3763" style="mask-type:luminance" maskUnits="userSpaceOnUse" x="70" y="23" width="276" height="56">
<path d="M70.0508 78.418H345.892V23.6141H70.0508V78.418Z" fill="white"/>
</mask>
<g mask="url(#mask51_410_3763)">
<path d="M345.887 23.6458C345.999 23.8527 342.592 25.9509 335.952 28.6992C334.302 29.4121 332.429 30.09 330.394 30.8857C328.338 31.6106 326.116 32.4508 323.694 33.233C318.869 34.8681 313.316 36.5382 307.142 38.2497C294.792 41.6679 279.921 45.1267 263.217 48.0334C246.515 50.9137 228.03 53.1822 208.629 55.1674C189.227 57.1598 170.76 58.888 154.026 60.8994C145.657 61.9147 137.73 62.9507 130.338 64.1275C123.481 65.2093 116.647 66.4288 109.839 67.7852C103.6 69.0344 97.9854 70.3052 93.0824 71.5281C88.1787 72.7455 84.0053 73.9676 80.6022 74.9996C73.8151 77.1161 70.186 78.6685 70.0531 78.386C69.9473 78.1807 73.3894 76.1398 80.1002 73.5515C84.1804 72.012 88.3177 70.6284 92.5032 69.4036C97.3934 67.9674 103.006 66.4963 109.255 65.0632C115.501 63.6294 122.381 62.2274 129.798 60.9074C137.216 59.5834 145.189 58.4169 153.572 57.2998C170.35 55.0823 188.85 53.2402 208.223 51.2503C227.597 49.269 246.002 47.1183 262.621 44.4552C279.229 41.7658 294.079 38.6086 306.438 35.5555C312.618 34.0278 318.187 32.5558 323.037 31.1316C325.475 30.4553 327.708 29.724 329.786 29.1106C331.837 28.4271 333.737 27.8614 335.412 27.2646C342.15 24.9834 345.749 23.3705 345.887 23.6458Z" fill="#A6A6A6"/>
</g>
<mask id="mask52_410_3763" style="mask-type:luminance" maskUnits="userSpaceOnUse" x="99" y="5" width="277" height="56">
<path d="M99.168 60.7117H375.005V5.91499H99.168V60.7117Z" fill="white"/>
</mask>
<g mask="url(#mask52_410_3763)">
<path d="M375.005 5.93957C375.06 6.05255 374.221 6.58168 372.559 7.48954C370.889 8.37672 368.369 9.57976 365.051 10.9428C363.4 11.6509 361.526 12.3257 359.489 13.1174C357.433 13.8383 355.211 14.6753 352.788 15.4527C347.962 17.0806 342.409 18.7444 336.234 20.4495C323.884 23.855 309.013 27.3035 292.313 30.203C275.614 33.0746 257.132 35.3398 237.733 37.3242C218.332 39.3166 199.863 41.048 183.127 43.0682C174.757 44.0867 166.829 45.1274 159.437 46.309C152.579 47.3956 145.744 48.621 138.937 49.9843C133.322 51.1074 127.735 52.362 122.18 53.747C117.276 54.9724 113.103 56.2025 109.702 57.2432C102.917 59.3748 99.2945 60.9447 99.1704 60.6798C99.1163 60.566 99.9661 60.0543 101.647 59.1807C103.334 58.3245 105.884 57.1884 109.235 55.8946C113.317 54.3647 117.455 52.9893 121.641 51.7714C126.531 50.3423 132.144 48.8783 138.392 47.4509C144.638 46.0234 151.517 44.6286 158.934 43.3133C166.351 41.9941 174.322 40.8324 182.705 39.7185C199.481 37.5081 217.981 35.67 237.355 33.6792C256.73 31.698 275.137 29.5441 291.759 26.8731C308.371 24.1757 323.22 21.0081 335.58 17.9423C341.759 16.4083 347.329 14.9291 352.177 13.4977C354.615 12.8174 356.847 12.083 358.925 11.4647C360.975 10.7781 362.875 10.2091 364.547 9.6084C371.282 7.31049 374.875 5.68097 375.005 5.93957Z" fill="#A6A6A6"/>
</g>
<mask id="mask53_410_3763" style="mask-type:luminance" maskUnits="userSpaceOnUse" x="128" y="-12" width="277" height="55">
<path d="M128.293 42.9958H404.133V-11.7937H128.293V42.9958Z" fill="white"/>
</mask>
<g mask="url(#mask53_410_3763)">
<path d="M404.129 -11.7694C404.181 -11.666 403.337 -11.144 401.672 -10.2449C400 -9.36567 397.477 -8.17134 394.156 -6.8163C392.505 -6.11133 390.63 -5.44061 388.594 -4.65369C386.535 -3.93599 384.313 -3.10288 381.89 -2.33027C377.063 -0.708685 371.509 0.947918 365.334 2.64669C352.984 6.04025 338.114 9.47837 321.418 12.3691C304.721 15.2335 286.241 17.4948 266.842 19.4792C247.443 21.4716 228.974 23.2077 212.235 25.2335C203.866 26.2568 195.936 27.3015 188.542 28.4879C181.684 29.5789 174.849 30.8098 168.041 32.1798C161.8 33.4426 156.185 34.726 151.284 35.9648C146.381 37.1973 142.209 38.4354 138.809 39.4841C132.028 41.6325 128.411 43.219 128.295 42.9708C128.245 42.8649 129.099 42.3621 130.783 41.4964C132.472 40.649 135.024 39.5207 138.377 38.2373C142.461 36.7163 146.6 35.348 150.786 34.1356C155.676 32.7145 161.29 31.2568 167.537 29.8366C173.783 28.4155 180.662 27.0254 188.077 25.715C195.493 24.4013 203.463 23.2452 211.846 22.1344C228.62 19.9304 247.118 18.0971 266.493 16.1071C285.869 14.1251 304.28 11.9664 320.905 9.28819C337.518 6.58448 352.37 3.40573 364.729 0.327259C370.908 -1.21317 376.476 -2.70027 381.324 -4.13886C383.762 -4.82314 385.994 -5.55993 388.07 -6.18215C390.121 -6.8728 392.019 -7.44731 393.691 -8.05202C400.422 -10.3651 404.008 -12.0113 404.129 -11.7694Z" fill="#A6A6A6"/>
</g>
<mask id="mask54_410_3763" style="mask-type:luminance" maskUnits="userSpaceOnUse" x="157" y="-30" width="277" height="56">
<path d="M157.395 25.2861H433.23V-29.497H157.395V25.2861Z" fill="white"/>
</mask>
<g mask="url(#mask54_410_3763)">
<path d="M433.231 -29.4763C433.279 -29.3808 432.43 -28.8676 430.763 -27.9765C429.086 -27.106 426.561 -25.9196 423.239 -24.5725C421.587 -23.8723 419.711 -23.2056 417.674 -22.4218C415.615 -21.7081 413.393 -20.879 410.968 -20.1088C406.141 -18.4952 400.587 -16.8449 394.411 -15.1541C382.061 -11.7725 367.191 -8.34552 350.498 -5.46119C333.805 -2.60471 315.329 -0.348132 295.93 1.63629C276.532 3.62866 258.061 5.36797 241.322 7.40252C232.952 8.42815 225.019 9.47844 217.624 10.6704C210.765 11.7655 203.93 13.0017 197.122 14.3782C190.88 15.6473 185.267 16.9387 180.365 18.184C175.462 19.4244 171.291 20.6697 167.893 21.7271C161.114 23.8914 157.505 25.4954 157.397 25.2647C157.35 25.1668 158.208 24.6727 159.895 23.8158C161.588 22.9763 164.142 21.8568 167.496 20.5805C171.581 19.069 175.721 17.7091 179.907 16.5035C184.797 15.0888 190.412 13.6391 196.658 12.2251C202.905 10.8104 209.783 9.42594 217.197 8.12103C224.613 6.81214 232.581 5.65999 240.963 4.5532C257.735 2.35713 276.233 0.527097 295.608 -1.46289C314.986 -3.44572 333.399 -5.60839 350.027 -8.2938C366.645 -11.0055 381.496 -14.1945 393.854 -17.2857C400.033 -18.8333 405.602 -20.326 410.448 -21.7718C412.885 -22.4592 415.116 -23.2016 417.192 -23.827C419.243 -24.5216 421.139 -25.1001 422.811 -25.708C429.54 -28.0377 433.119 -29.7023 433.231 -29.4763Z" fill="#A6A6A6"/>
</g>
<mask id="mask55_410_3763" style="mask-type:luminance" maskUnits="userSpaceOnUse" x="186" y="-48" width="277" height="56">
<path d="M186.523 7.57812H462.362V-47.1995H186.523V7.57812Z" fill="white"/>
</mask>
<g mask="url(#mask55_410_3763)">
<path d="M462.359 -47.1838C462.403 -47.0963 461.551 -46.5918 459.879 -45.7094C458.2 -44.8469 455.673 -43.6693 452.349 -42.3302C450.696 -41.6332 448.818 -40.9696 446.781 -40.1898C444.721 -39.4817 442.499 -38.6566 440.074 -37.8895C435.245 -36.2823 429.69 -34.64 423.516 -32.9547C411.164 -29.5866 396.296 -26.17 379.606 -23.2936C362.915 -20.4443 344.442 -18.1909 325.044 -16.2073C305.646 -14.2149 287.175 -12.4708 270.435 -10.4307C262.062 -9.4011 254.13 -8.34606 246.734 -7.14936C239.874 -6.04948 233.038 -4.80713 226.229 -3.42317C219.989 -2.1477 214.374 -0.849951 209.474 0.404036C204.572 1.65007 200.401 2.90404 197.004 3.96866C190.228 6.1504 186.624 7.77041 186.525 7.55717C186.483 7.46805 187.344 6.98191 189.034 6.13292C190.729 5.30303 193.287 4.19142 196.641 2.92311C200.729 1.42146 204.87 0.0692568 209.056 -1.13084C213.947 -2.53759 219.561 -3.98093 225.807 -5.38769C232.054 -6.79604 238.93 -8.17498 246.344 -9.47432C253.759 -10.7784 261.726 -11.925 270.106 -13.0294C286.879 -15.2175 305.374 -17.0452 324.752 -19.0352C344.129 -21.0164 362.545 -23.1838 379.176 -25.878C395.797 -28.596 410.649 -31.7962 423.007 -34.9002C429.186 -36.4533 434.754 -37.9532 439.6 -39.4069C442.036 -40.0975 444.266 -40.8431 446.341 -41.4732C448.391 -42.1719 450.288 -42.7527 451.958 -43.3654C458.683 -45.7118 462.254 -47.3915 462.359 -47.1838Z" fill="#A6A6A6"/>
</g>
</g>
<mask id="mask56_410_3763" style="mask-type:luminance" maskUnits="userSpaceOnUse" x="-963" y="-152" width="1412" height="746">
<path d="M-962.902 593.777H448.575V-151.813H-962.902V593.777Z" fill="white"/>
</mask>
<g mask="url(#mask56_410_3763)">
<mask id="mask57_410_3763" style="mask-type:luminance" maskUnits="userSpaceOnUse" x="-265" y="113" width="277" height="56">
<path d="M-264.031 168.598H11.8133V113.748H-264.031V168.598Z" fill="white"/>
</mask>
<g mask="url(#mask57_410_3763)">
<path d="M11.8075 113.801C11.9626 114.093 8.58894 116.274 1.96572 119.104C0.320264 119.837 -1.54796 120.534 -3.58012 121.349C-5.63297 122.093 -7.85214 122.953 -10.2718 123.753C-15.0928 125.425 -20.6426 127.13 -26.8163 128.873C-39.1644 132.355 -54.0396 135.866 -70.7591 138.811C-87.4755 141.727 -105.974 144.018 -125.38 146.003C-144.787 147.996 -163.249 149.705 -179.975 151.68C-188.342 152.678 -196.26 153.692 -203.648 154.843C-210.501 155.901 -217.332 157.091 -224.139 158.413C-229.75 159.502 -235.337 160.716 -240.896 162.052C-245.803 163.233 -249.98 164.415 -253.39 165.407C-260.191 167.44 -263.852 168.908 -264.027 168.541C-264.174 168.251 -260.764 166.126 -254.067 163.456C-249.996 161.868 -245.862 160.445 -241.677 159.19C-236.789 157.716 -231.176 156.211 -224.927 154.745C-218.679 153.28 -211.797 151.849 -204.375 150.504C-196.953 149.153 -188.972 147.965 -180.586 146.83C-163.801 144.576 -145.295 142.715 -125.927 140.725C-106.558 138.744 -88.167 136.614 -71.562 133.988C-54.9705 131.338 -40.1248 128.233 -27.7639 125.242C-21.5839 123.746 -16.011 122.308 -11.1566 120.921C-8.71624 120.263 -6.48118 119.552 -4.39969 118.956C-2.34525 118.294 -0.440367 117.747 1.23692 117.171C7.99301 114.971 11.6253 113.442 11.8075 113.801Z" fill="#A6A6A6"/>
</g>
<mask id="mask58_410_3763" style="mask-type:luminance" maskUnits="userSpaceOnUse" x="-235" y="96" width="276" height="55">
<path d="M-234.906 150.886H40.9366V96.0469H-234.906V150.886Z" fill="white"/>
</mask>
<g mask="url(#mask58_410_3763)">
<path d="M40.932 96.0943C41.0785 96.3681 37.6984 98.5339 31.072 101.346C29.4249 102.076 27.5551 102.769 25.5229 103.581C23.4693 104.321 21.2502 105.177 18.8297 105.973C14.0079 107.637 8.45806 109.336 2.2844 111.072C-10.0645 114.541 -24.9389 118.042 -41.6552 120.978C-58.3692 123.889 -76.8648 126.174 -96.2705 128.16C-115.675 130.152 -134.138 131.866 -150.867 133.848C-159.233 134.849 -167.154 135.868 -174.543 137.023C-181.396 138.086 -188.227 139.283 -195.034 140.612C-200.646 141.706 -206.234 142.927 -211.792 144.271C-216.698 145.459 -220.874 146.65 -224.284 147.649C-231.081 149.699 -234.736 151.185 -234.902 150.835C-235.041 150.561 -231.625 148.453 -224.925 145.798C-220.852 144.22 -216.718 142.806 -212.532 141.557C-207.644 140.09 -202.03 138.591 -195.782 137.133C-189.534 135.674 -182.653 134.249 -175.233 132.908C-167.811 131.563 -159.832 130.379 -151.446 129.248C-134.662 127.002 -116.158 125.144 -96.7885 123.154C-77.4185 121.173 -59.0257 119.039 -42.4167 116.406C-25.8221 113.748 -10.9747 110.632 1.38451 107.629C7.56533 106.125 13.1367 104.681 17.9903 103.287C20.4306 102.625 22.6657 101.911 24.7456 101.312C26.8 100.643 28.7041 100.094 30.3806 99.5134C37.1335 97.2974 40.7594 95.7522 40.932 96.0943Z" fill="#A6A6A6"/>
</g>
<mask id="mask59_410_3763" style="mask-type:luminance" maskUnits="userSpaceOnUse" x="-206" y="78" width="277" height="56">
<path d="M-205.769 133.173H70.0728V78.3427H-205.769V133.173Z" fill="white"/>
</mask>
<g mask="url(#mask59_410_3763)">
<path d="M70.0684 78.3868C70.2068 78.6446 66.8196 80.7929 60.1892 83.5897C58.5422 84.3154 56.6715 85.0044 54.6386 85.812C52.5841 86.548 50.3642 87.4002 47.943 88.1927C43.1212 89.8501 37.5697 91.5409 31.3961 93.2715C19.0471 96.7279 4.17359 100.218 -12.5396 103.147C-29.2504 106.049 -47.7436 108.331 -67.1478 110.317C-86.5519 112.309 -105.016 114.026 -121.747 116.016C-130.114 117.021 -138.035 118.043 -145.425 119.204C-152.279 120.272 -159.111 121.474 -165.918 122.81C-171.531 123.91 -177.118 125.137 -182.675 126.49C-187.581 127.685 -191.757 128.884 -195.164 129.892C-201.959 131.958 -205.607 133.46 -205.766 133.128C-205.896 132.871 -202.474 130.78 -195.772 128.142C-191.697 126.574 -187.562 125.167 -183.376 123.923C-178.488 122.464 -172.873 120.971 -166.626 119.52C-160.377 118.067 -153.497 116.648 -146.077 115.313C-138.656 113.973 -130.679 112.793 -122.295 111.666C-105.511 109.426 -87.0078 107.573 -67.6379 105.583C-48.2671 103.602 -29.8703 101.464 -13.2597 98.8229C3.3381 96.1566 18.1854 93.0305 30.5455 90.0148C36.7255 88.507 42.2968 87.0549 47.1497 85.6529C49.5892 84.9878 51.8235 84.2685 53.9042 83.6661C55.957 82.9946 57.8587 82.4408 59.536 81.8559C66.2849 79.6241 69.9037 78.0606 70.0684 78.3868Z" fill="#A6A6A6"/>
</g>
<mask id="mask60_410_3763" style="mask-type:luminance" maskUnits="userSpaceOnUse" x="-177" y="60" width="277" height="56">
<path d="M-176.699 115.465H99.1421V60.6443H-176.699V115.465Z" fill="white"/>
</mask>
<g mask="url(#mask60_410_3763)">
<path d="M99.1382 60.681C99.2679 60.9213 95.8735 63.0522 89.24 65.833C87.5929 66.5547 85.7214 67.2398 83.6861 68.0434C81.6325 68.7762 79.4117 69.6244 76.9905 70.4129C72.1671 72.0632 66.6149 73.7476 60.4404 75.4711C48.0915 78.9148 33.2195 82.3951 16.5094 85.3168C-0.198178 88.2115 -18.6889 90.4887 -38.0915 92.4739C-57.4956 94.4663 -75.9602 96.1873 -92.6917 98.1837C-101.06 99.1926 -108.983 100.221 -116.374 101.386C-123.229 102.459 -130.062 103.666 -136.869 105.008C-142.482 106.115 -148.069 107.349 -153.626 108.71C-158.532 109.913 -162.706 111.119 -166.112 112.134C-172.905 114.217 -176.546 115.736 -176.696 115.421C-176.819 115.181 -173.389 113.107 -166.684 110.486C-162.607 108.927 -158.471 107.528 -154.286 106.291C-149.397 104.84 -143.783 103.355 -137.535 101.908C-131.288 100.462 -124.407 99.0486 -116.988 97.7182C-109.569 96.3839 -101.593 95.2087 -93.208 94.0836C-76.4272 91.8525 -57.9254 90.0025 -38.5538 88.0125C-19.1822 86.0313 -0.782974 83.8885 15.8308 81.2413C32.4318 78.5678 47.2807 75.4305 59.64 72.4021C65.82 70.8872 71.3905 69.4287 76.2426 68.0196C78.6813 67.3512 80.9156 66.6279 82.9947 66.0208C85.0475 65.3453 86.9492 64.7883 88.6241 64.1995C95.3698 61.9509 98.9822 60.3731 99.1382 60.681Z" fill="#A6A6A6"/>
</g>
<mask id="mask61_410_3763" style="mask-type:luminance" maskUnits="userSpaceOnUse" x="-148" y="42" width="277" height="56">
<path d="M-147.535 97.752H128.305V42.9401H-147.535V97.752Z" fill="white"/>
</mask>
<g mask="url(#mask61_410_3763)">
<path d="M128.303 42.9732C128.424 43.196 125.023 45.3117 118.386 48.0759C116.737 48.7936 114.864 49.4747 112.829 50.2743C110.775 51.0032 108.553 51.8474 106.131 52.6327C101.307 54.2758 95.7554 55.9531 89.581 57.6694C77.2321 61.1019 62.3593 64.571 45.6524 67.4856C28.9472 70.3723 10.4597 72.6456 -8.94133 74.6308C-28.3439 76.6232 -46.8108 78.3466 -63.5439 80.3517C-71.9128 81.3638 -79.8378 82.3958 -87.2288 83.5663C-94.0846 84.6432 -100.918 85.8571 -107.725 87.2073C-113.964 88.4501 -119.58 89.7137 -124.482 90.9286C-129.387 92.1381 -133.561 93.3531 -136.966 94.3771C-143.755 96.4769 -147.39 98.0125 -147.532 97.7134C-147.646 97.4906 -144.21 95.4338 -137.503 92.8279C-133.424 91.2789 -129.287 89.8878 -125.101 88.6578C-120.213 87.2136 -114.599 85.7353 -108.351 84.2959C-102.104 82.8557 -95.2246 81.4474 -87.8065 80.1226C-80.3876 78.7938 -72.4125 77.6234 -64.0292 76.5022C-47.2492 74.2775 -28.7481 72.4308 -9.37579 70.4416C9.99657 68.4603 28.3998 66.3136 45.0159 63.6576C61.6193 60.9762 76.469 57.8293 88.8283 54.789C95.0075 53.2677 100.579 51.802 105.429 50.3849C107.867 49.7126 110.101 48.9861 112.18 48.3759C114.231 47.6963 116.133 47.1346 117.807 46.5418C124.549 44.2773 128.155 42.6812 128.302 42.9732" fill="#A6A6A6"/>
</g>
<mask id="mask62_410_3763" style="mask-type:luminance" maskUnits="userSpaceOnUse" x="-119" y="25" width="277" height="56">
<path d="M-118.402 80.0371H157.437V25.2333H-118.402V80.0371Z" fill="white"/>
</mask>
<g mask="url(#mask62_410_3763)">
<path d="M157.434 25.265C157.546 25.4718 154.14 27.5692 147.499 30.3183C145.849 31.0312 143.976 31.71 141.941 32.5056C139.885 33.2297 137.663 34.0699 135.241 34.8513C130.415 36.488 124.863 38.1573 118.689 39.8696C106.34 43.2871 91.4671 46.7459 74.7642 49.6525C58.0629 52.5328 39.577 54.8013 20.176 56.7865C0.774173 58.7789 -17.6927 60.5079 -34.4274 62.5194C-42.7963 63.5339 -50.7229 64.5698 -58.1147 65.7466C-64.9715 66.8284 -71.8059 68.0479 -78.6137 69.4044C-84.2274 70.5217 -89.8142 71.7694 -95.3699 73.1464C-100.274 74.3646 -104.448 75.5868 -107.851 76.6188C-114.638 78.7353 -118.266 80.2868 -118.4 80.0052C-118.506 79.7991 -115.064 77.7598 -108.353 75.1706C-104.273 73.6311 -100.135 72.2477 -95.9499 71.0236C-91.0597 69.5866 -85.4462 68.1162 -79.1985 66.6824C-72.9517 65.2478 -66.0723 63.8474 -58.6542 62.5274C-51.2369 61.2026 -43.2642 60.0368 -34.8809 58.9197C-18.1033 56.7014 0.397016 54.8586 19.7702 52.8694C39.1449 50.8882 57.5489 48.7382 74.1682 46.0743C90.7764 43.3849 105.626 40.2277 117.985 37.1747C124.165 35.647 129.734 34.175 134.584 32.7507C137.022 32.0744 139.255 31.3432 141.333 30.7297C143.384 30.0454 145.284 29.4805 146.958 28.8837C153.698 26.6033 157.296 24.9897 157.434 25.265Z" fill="#A6A6A6"/>
</g>
<mask id="mask63_410_3763" style="mask-type:luminance" maskUnits="userSpaceOnUse" x="-90" y="7" width="277" height="56">
<path d="M-89.301 62.3308H186.539V7.53413H-89.301V62.3308Z" fill="white"/>
</mask>
<g mask="url(#mask63_410_3763)">
<path d="M186.536 7.55918C186.592 7.67296 185.752 8.20129 184.09 9.10916C182.42 9.99634 179.901 11.1994 176.582 12.5624C174.931 13.2721 173.057 13.9453 171.021 14.737C168.964 15.4587 166.742 16.2949 164.32 17.0731C159.493 18.701 153.94 20.3648 147.765 22.0692C135.415 25.4747 120.545 28.9239 103.845 31.8226C87.1452 34.695 68.6632 36.9602 49.2638 38.9438C29.8628 40.937 11.3944 42.6692 -5.34192 44.6878C-13.7117 45.7063 -21.6398 46.7479 -29.0324 47.9295C-35.8898 49.0154 -42.7245 50.2405 -49.5322 51.6039C-55.7727 52.8603 -61.387 54.1373 -66.2892 55.3675C-71.1929 56.5928 -75.3655 57.8221 -78.767 58.8628C-85.5517 60.9952 -89.1737 62.5643 -89.2986 62.3002C-89.3527 62.1856 -88.5013 61.674 -86.8216 60.8003C-85.1348 59.9442 -82.5855 58.8079 -79.2341 57.5158C-75.152 55.9853 -71.0137 54.6094 -66.8279 53.391C-61.9376 51.962 -56.3241 50.4979 -50.0773 49.0705C-43.8296 47.6438 -36.9518 46.2482 -29.5353 44.9329C-22.118 43.6137 -14.1461 42.4528 -5.76361 41.3381C11.0125 39.1277 29.5119 37.2896 48.8859 35.2989C68.2606 33.3176 86.6678 31.1638 103.29 28.4927C119.902 25.7953 134.752 22.6285 147.111 19.562C153.29 18.0279 158.859 16.5488 163.708 15.1173C166.146 14.4378 168.379 13.7034 170.456 13.0852C172.506 12.3985 174.406 11.828 176.078 11.2281C182.813 8.93095 186.406 7.30059 186.536 7.55918Z" fill="#A6A6A6"/>
</g>
<mask id="mask64_410_3763" style="mask-type:luminance" maskUnits="userSpaceOnUse" x="-61" y="-11" width="277" height="56">
<path d="M-60.2031 44.614H215.636V-10.1755H-60.2031V44.614Z" fill="white"/>
</mask>
<g mask="url(#mask64_410_3763)">
<path d="M215.633 -10.1525C215.685 -10.0474 214.841 -9.52707 213.176 -8.62716C211.504 -7.74873 208.981 -6.55443 205.66 -5.19939C204.009 -4.49363 202.134 -3.82284 200.098 -3.03512C198.04 -2.31901 195.818 -1.48595 193.394 -0.711761C188.567 0.909034 183.014 2.56642 176.838 4.2636C164.488 7.65716 149.618 11.0953 132.922 13.9868C116.225 16.8512 97.7464 19.1118 78.347 21.0962C58.9468 23.0886 40.4776 24.8247 23.7397 26.8505C15.37 27.8737 7.44028 28.9193 0.0460563 30.1056C-6.81216 31.1966 -13.6474 32.4275 -20.4554 33.7976C-26.6958 35.0595 -32.3102 36.3445 -37.2115 37.5818C-42.1153 38.8151 -46.287 40.0524 -49.687 41.1011C-56.4685 43.2494 -60.0849 44.836 -60.201 44.5885C-60.2512 44.4827 -59.3966 43.9791 -57.7129 43.1141C-56.0237 42.2668 -53.4712 41.1385 -50.119 39.8543C-46.0352 38.3335 -41.8962 36.9656 -37.7104 35.7533C-32.8194 34.3314 -27.2059 32.8746 -20.9591 31.4543C-14.7122 30.0332 -7.83437 28.6432 -0.418655 27.3335C6.99785 26.019 14.9674 24.8621 23.3498 23.7513C40.1243 21.5481 58.6222 19.7141 77.9978 17.7249C97.3733 15.7421 115.784 13.5834 132.409 10.9059C149.023 8.20143 163.874 5.02269 176.233 1.94422C182.412 0.403789 187.98 -1.08254 192.828 -2.52112C195.265 -3.2054 197.498 -3.94302 199.574 -4.56524C201.624 -5.25589 203.523 -5.82877 205.195 -6.43428C211.927 -8.74732 215.512 -10.3943 215.633 -10.1525Z" fill="#A6A6A6"/>
</g>
<mask id="mask65_410_3763" style="mask-type:luminance" maskUnits="userSpaceOnUse" x="-32" y="-28" width="277" height="55">
<path d="M-31.0625 26.9062H244.779V-27.8769H-31.0625V26.9062Z" fill="white"/>
</mask>
<g mask="url(#mask65_410_3763)">
<path d="M244.773 -27.8564C244.821 -27.7609 243.973 -27.2477 242.305 -26.3566C240.629 -25.4861 238.104 -24.2998 234.782 -22.9527C233.13 -22.2525 231.253 -21.5857 229.216 -20.802C227.158 -20.0882 224.936 -19.2591 222.511 -18.4889C217.684 -16.8761 212.129 -15.2266 205.954 -13.5342C193.603 -10.1526 178.735 -6.72561 162.041 -3.84287C145.347 -0.986391 126.872 1.27172 107.473 3.25693C88.0744 5.24851 69.6036 6.98866 52.8641 9.02161C44.4944 10.048 36.5623 11.0983 29.1672 12.2895C22.3084 13.3851 15.4729 14.6218 8.66504 15.9989C2.42375 17.2672 -3.19056 18.5586 -8.09114 19.8039C-12.9949 21.0443 -17.1658 22.2895 -20.5641 23.3462C-27.3433 25.5104 -30.9525 27.1153 -31.0607 26.8837C-31.1069 26.7867 -30.2483 26.2918 -28.5623 25.4357C-26.8691 24.5962 -24.315 23.4767 -20.962 22.2004C-16.8763 20.689 -12.7363 19.3291 -8.55022 18.1234C-3.65919 16.7087 1.95509 15.259 8.20116 13.8442C14.448 12.4295 21.325 11.0458 28.74 9.7409C36.1557 8.43201 44.1236 7.27986 52.5061 6.17307C69.2789 3.97621 87.776 2.14617 107.152 0.15698C126.529 -1.82585 144.941 -3.9885 161.57 -6.6747C178.187 -9.38558 193.039 -12.5747 205.397 -15.6659C211.576 -17.2135 217.144 -18.7062 221.992 -20.1519C224.428 -20.8402 226.66 -21.5817 228.736 -22.2071C230.786 -22.9017 232.682 -23.4802 234.353 -24.0881C241.082 -26.4178 244.661 -28.0824 244.773 -27.8564Z" fill="#A6A6A6"/>
</g>
<mask id="mask66_410_3763" style="mask-type:luminance" maskUnits="userSpaceOnUse" x="-2" y="-46" width="276" height="56">
<path d="M-1.95312 9.19312H273.883V-45.5837H-1.95312V9.19312Z" fill="white"/>
</mask>
<g mask="url(#mask66_410_3763)">
<path d="M273.883 -45.5654C273.926 -45.4779 273.074 -44.9734 271.402 -44.091C269.724 -43.2285 267.196 -42.0509 263.872 -40.7118C262.22 -40.0148 260.342 -39.3528 258.305 -38.5722C256.244 -37.8641 254.022 -37.0381 251.597 -36.2711C246.769 -34.6654 241.214 -33.0224 235.039 -31.3363C222.688 -27.9682 207.819 -24.5516 191.13 -21.6752C174.439 -18.8267 155.966 -16.5725 136.568 -14.5889C117.169 -12.5965 98.6983 -10.8524 81.9581 -8.81231C73.5867 -7.7827 65.6538 -6.72844 58.258 -5.53174C51.3981 -4.43116 44.5618 -3.18856 37.7534 -1.80477C31.5121 -0.529302 25.8979 0.768435 20.9965 2.02083C16.0951 3.26845 11.9242 4.52248 8.52741 5.5871C1.75142 7.76726 -1.85219 9.38882 -1.95165 9.17479C-1.99382 9.08647 -1.13211 8.59953 0.557911 7.75054C2.2527 6.92065 4.81001 5.80907 8.16458 4.54156C12.2523 3.0399 16.3933 1.68765 20.5795 0.487559C25.4705 -0.919198 31.0849 -2.36252 37.3309 -3.77007C43.577 -5.17842 50.454 -6.55654 57.8674 -7.85588C65.2823 -9.16079 73.2494 -10.3082 81.6303 -11.4126C98.4023 -13.6007 116.898 -15.4268 136.275 -17.4168C155.653 -19.3988 174.069 -21.5654 190.699 -24.2596C207.32 -26.9784 222.173 -30.1778 234.531 -33.2826C240.71 -34.8349 246.277 -36.3348 251.124 -37.7885C253.559 -38.4791 255.791 -39.2255 257.866 -39.8548C259.915 -40.5534 261.811 -41.1343 263.482 -41.7486C270.207 -44.0934 273.779 -45.7747 273.883 -45.5654Z" fill="#A6A6A6"/>
</g>
</g>
<mask id="mask67_410_3763" style="mask-type:luminance" maskUnits="userSpaceOnUse" x="-1152" y="-151" width="1413" height="747">
<path d="M-1151.4 595.396H260.086V-150.195H-1151.4V595.396Z" fill="white"/>
</mask>
<g mask="url(#mask67_410_3763)">
<mask id="mask68_410_3763" style="mask-type:luminance" maskUnits="userSpaceOnUse" x="-249" y="-9" width="277" height="56">
<path d="M-248.68 46.2314H27.1585V-8.55808H-248.68V46.2314Z" fill="white"/>
</mask>
<g mask="url(#mask68_410_3763)">
<path d="M27.1566 -8.53502C27.2092 -8.43079 26.365 -7.90961 24.7004 -7.01049C23.0271 -6.13127 20.5048 -4.93696 17.1836 -3.58113C15.5326 -2.87695 13.6572 -2.20621 11.6218 -1.41929C9.56343 -0.701587 7.34108 0.132299 4.91745 0.904901C0.0908698 2.5257 -5.46291 4.18306 -11.6382 5.88104C-23.9887 9.2746 -38.8583 12.7127 -55.5548 15.6042C-72.2505 18.4687 -90.7301 20.7292 -110.129 22.7136C-129.53 24.706 -147.999 26.4421 -164.736 28.4679C-173.107 29.4912 -181.036 30.5367 -188.431 31.7231C-195.289 32.8141 -202.124 34.045 -208.932 35.415C-215.172 36.677 -220.787 37.962 -225.688 39.1992C-230.592 40.4325 -234.764 41.6698 -238.164 42.7185C-244.945 44.8668 -248.561 46.4534 -248.678 46.2052C-248.728 46.1001 -247.872 45.5965 -246.19 44.7316C-244.5 43.8842 -241.949 42.7559 -238.596 41.4717C-234.512 39.9506 -230.372 38.5827 -226.186 37.3708C-221.295 35.9489 -215.682 34.492 -209.435 33.0717C-203.189 31.6499 -196.31 30.2606 -188.894 28.9501C-181.479 27.6373 -173.508 26.4796 -165.126 25.3696C-148.351 23.1656 -129.854 21.3315 -110.479 19.3415C-91.1025 17.3603 -72.6921 15.2008 -56.0672 12.5226C-39.4535 9.81888 -24.6014 6.64013 -12.2437 3.56166C-6.06369 2.02123 -0.496339 0.534126 4.35172 -0.904458C6.78888 -1.58794 9.02237 -2.32558 11.0975 -2.9478C13.148 -3.63845 15.0464 -4.21133 16.7181 -4.81684C23.4496 -7.13067 27.0357 -8.77691 27.1575 -8.53502" fill="#A6A6A6"/>
</g>
<mask id="mask69_410_3763" style="mask-type:luminance" maskUnits="userSpaceOnUse" x="-220" y="-27" width="277" height="56">
<path d="M-219.547 28.5254H56.2913V-26.2577H-219.547V28.5254Z" fill="white"/>
</mask>
<g mask="url(#mask69_410_3763)">
<path d="M56.2892 -26.2385C56.3369 -26.1422 55.4887 -25.6298 53.821 -24.7387C52.1445 -23.8682 49.6206 -22.6818 46.2978 -21.3348C44.6452 -20.6338 42.769 -19.9678 40.7321 -19.184C38.6737 -18.4703 36.4513 -17.6404 34.0269 -16.871C29.1995 -15.2574 23.6449 -13.6071 17.4696 -11.9155C5.11913 -8.5339 -9.74967 -5.10772 -26.443 -2.22339C-43.1363 0.633093 -61.6119 2.89045 -81.0105 4.87487C-100.409 6.86645 -118.881 8.60657 -135.619 10.6403C-143.99 11.6667 -151.922 12.717 -159.317 13.9082C-166.176 15.0035 -173.011 16.24 -179.819 17.6168C-186.061 18.8859 -191.675 20.1765 -196.576 21.4217C-201.479 22.663 -205.65 23.9074 -209.049 24.9649C-215.828 27.1291 -219.437 28.7332 -219.545 28.5025C-219.591 28.4046 -218.733 27.9105 -217.047 27.0544C-215.353 26.2141 -212.799 25.0946 -209.446 23.8183C-205.36 22.3072 -201.22 20.9472 -197.035 19.7413C-192.144 18.3266 -186.529 16.8769 -180.283 15.4629C-174.036 14.0482 -167.159 12.6637 -159.744 11.3588C-152.329 10.0499 -144.361 8.89779 -135.978 7.791C-119.205 5.59494 -100.708 3.76488 -81.3328 1.77569C-61.9556 -0.207935 -43.5429 -2.36979 -26.9148 -5.056C-10.2971 -7.76766 4.55503 -10.9567 16.9127 -14.0471C23.0919 -15.5955 28.66 -17.0882 33.5073 -18.534C35.9437 -19.2214 38.1756 -19.9638 40.2515 -20.5892C42.3011 -21.2838 44.198 -21.8615 45.869 -22.4702C52.598 -24.7999 56.177 -26.4629 56.2892 -26.2385Z" fill="#A6A6A6"/>
</g>
<mask id="mask70_410_3763" style="mask-type:luminance" maskUnits="userSpaceOnUse" x="-191" y="-44" width="277" height="55">
<path d="M-190.438 10.8154H85.3999V-43.9622H-190.438V10.8154Z" fill="white"/>
</mask>
<g mask="url(#mask70_410_3763)">
<path d="M85.3982 -43.9465C85.442 -43.859 84.5898 -43.3545 82.9181 -42.4721C81.2392 -41.6096 78.7122 -40.432 75.3878 -39.0929C73.7352 -38.3951 71.8582 -37.7323 69.8205 -36.9525C67.7613 -36.2444 65.5381 -35.4192 63.1137 -34.6522C58.2847 -33.0449 52.7301 -31.4027 46.5557 -29.7174C34.2036 -26.3493 19.3356 -22.9327 2.64543 -20.0563C-14.0455 -17.207 -32.5187 -14.9536 -51.9165 -12.9692C-71.3144 -10.9776 -89.786 -9.23353 -106.526 -7.19262C-114.897 -6.16381 -122.83 -5.10791 -130.226 -3.91201C-137.086 -2.8122 -143.923 -1.56965 -150.731 -0.185087C-156.972 1.08959 -162.586 2.38732 -167.487 3.64052C-172.388 4.88734 -176.56 6.14135 -179.955 7.20596C-186.733 9.38771 -190.336 11.0077 -190.436 10.7945C-190.478 10.7054 -189.616 10.2192 -187.926 9.37101C-186.231 8.54032 -183.674 7.42957 -180.319 6.16047C-176.231 4.65904 -172.091 3.30679 -167.905 2.10647C-163.014 0.69971 -157.4 -0.743629 -151.153 -2.15039C-144.907 -3.55873 -138.03 -4.93768 -130.616 -6.23702C-123.2 -7.54113 -115.235 -8.68767 -106.854 -9.79207C-90.0812 -11.9802 -71.5865 -13.8079 -52.2094 -15.7978C-32.8315 -17.7791 -14.4147 -19.9465 2.21495 -22.6399C18.8367 -25.3587 33.6887 -28.5581 46.0464 -31.6628C52.2256 -33.216 57.793 -34.7159 62.6395 -36.1696C65.075 -36.8602 67.3069 -37.6058 69.3813 -38.2359C71.4309 -38.9345 73.3278 -39.5154 74.9971 -40.1281C81.7222 -42.4745 85.2948 -44.1542 85.3982 -43.9465Z" fill="#A6A6A6"/>
</g>
</g>
</g>
</g>
</g>
<defs>
<linearGradient id="paint0_linear_410_3763" x1="0" y1="0" x2="317.505" y2="302.618" gradientUnits="userSpaceOnUse">
<stop stop-color="#E9EFF9"/>
<stop offset="1" stop-color="#F0EFE4"/>
</linearGradient>
<clipPath id="clip0_410_3763">
<rect width="320" height="300" fill="white"/>
</clipPath>
<clipPath id="clip1_410_3763">
<rect width="320" height="300" fill="white"/>
</clipPath>
</defs>
</svg>
