<svg width="390" height="90" viewBox="0 0 390 90" fill="none" xmlns="http://www.w3.org/2000/svg">
<g clip-path="url(#clip0_430_2437)">
<rect width="390" height="90" fill="url(#paint0_linear_430_2437)"/>
<g opacity="0.1" clip-path="url(#clip1_430_2437)">
<mask id="mask0_430_2437" style="mask-type:luminance" maskUnits="userSpaceOnUse" x="0" y="-206" width="390" height="400">
<path d="M390 -206H0V194H390V-206Z" fill="white"/>
</mask>
<g mask="url(#mask0_430_2437)">
<mask id="mask1_430_2437" style="mask-type:luminance" maskUnits="userSpaceOnUse" x="17" y="-276" width="1216" height="649">
<path d="M17.6357 372.857H1232.6V-275.482H17.6357V372.857Z" fill="white"/>
</mask>
<g mask="url(#mask1_430_2437)">
</g>
<mask id="mask2_430_2437" style="mask-type:luminance" maskUnits="userSpaceOnUse" x="-145" y="-275" width="1216" height="650">
<path d="M-144.593 374.266H1070.37V-274.074H-144.593V374.266Z" fill="white"/>
</mask>
<g mask="url(#mask2_430_2437)">
<mask id="mask3_430_2437" style="mask-type:luminance" maskUnits="userSpaceOnUse" x="256" y="79" width="238" height="49">
<path d="M256.422 127.773H493.869V79.9934H256.422V127.773Z" fill="white"/>
</mask>
<g mask="url(#mask3_430_2437)">
<path d="M493.861 80.0788C494.055 80.4483 491.197 82.4631 485.519 85.0362C484.108 85.7018 482.507 86.3356 480.761 87.0718C478.999 87.7457 477.092 88.5192 475.013 89.2402C470.869 90.7457 466.095 92.2762 460.783 93.8357C450.156 96.952 437.347 100.078 422.933 102.692C408.523 105.28 392.581 107.3 375.871 109.027C359.159 110.761 343.276 112.219 328.887 113.887C321.689 114.731 314.884 115.581 308.532 116.545C302.639 117.433 296.762 118.428 290.904 119.53C286.076 120.438 281.267 121.445 276.479 122.549C272.253 123.525 268.652 124.498 265.706 125.303C259.834 126.957 256.638 128.116 256.43 127.679C256.247 127.308 259.135 125.342 264.883 122.906C268.374 121.46 271.927 120.168 275.529 119.034C279.734 117.701 284.566 116.343 289.946 115.024C295.326 113.706 301.253 112.421 307.647 111.215C314.042 110.005 320.923 108.94 328.145 107.929C342.603 105.92 358.541 104.273 375.206 102.545C391.871 100.822 407.683 98.9986 421.956 96.768C436.214 94.5159 448.988 91.8881 459.63 89.3765C464.951 88.12 469.752 86.9168 473.937 85.762C476.041 85.2154 477.968 84.6232 479.765 84.1326C481.537 83.5826 483.183 83.1349 484.633 82.6624C490.472 80.8614 493.644 79.6499 493.861 80.0788Z" fill="#A6A6A6"/>
</g>
<mask id="mask4_430_2437" style="mask-type:luminance" maskUnits="userSpaceOnUse" x="281" y="64" width="238" height="49">
<path d="M281.516 112.365H518.964V64.5976H281.516V112.365Z" fill="white"/>
</mask>
<g mask="url(#mask4_430_2437)">
<path d="M518.955 64.678C519.141 65.0336 516.277 67.0332 510.597 69.5918C509.186 70.2547 507.583 70.8856 505.836 71.6177C504.074 72.2888 502.167 73.0582 500.087 73.7764C495.942 75.2757 491.169 76.8 485.856 78.354C475.229 81.4592 462.421 84.5762 448.008 87.1825C433.602 89.7647 417.662 91.7808 400.953 93.5078C384.241 95.2417 368.358 96.7044 353.968 98.3787C346.77 99.2235 339.963 100.079 333.609 101.047C327.716 101.939 321.839 102.939 315.981 104.047C311.153 104.96 306.343 105.973 301.555 107.086C297.33 108.066 293.73 109.046 290.785 109.859C284.915 111.527 281.723 112.701 281.524 112.279C281.347 111.923 284.243 109.971 289.992 107.549C293.485 106.112 297.038 104.827 300.64 103.697C304.846 102.371 309.678 101.02 315.057 99.7058C320.437 98.3925 326.364 97.1139 332.757 95.9128C339.151 94.7068 346.031 93.6469 353.253 92.6374C367.71 90.6343 383.646 88.9911 400.311 87.2621C416.978 85.54 432.792 83.7127 447.068 81.4751C461.329 79.2167 474.104 76.5799 484.746 74.058C490.067 72.7946 494.866 71.5866 499.05 70.4256C501.154 69.8748 503.081 69.2798 504.878 68.7858C506.649 68.2323 508.294 67.7811 509.743 67.3051C515.578 65.4903 518.745 64.2649 518.955 64.678Z" fill="#A6A6A6"/>
</g>
<mask id="mask5_430_2437" style="mask-type:luminance" maskUnits="userSpaceOnUse" x="306" y="49" width="239" height="48">
<path d="M306.562 96.9648H544.009V49.209H306.562V96.9648Z" fill="white"/>
</mask>
<g mask="url(#mask5_430_2437)">
<path d="M543.999 49.2819C544.178 49.6224 541.308 51.6081 535.625 54.1529C534.214 54.8116 532.61 55.4384 530.863 56.1677C529.101 56.8347 527.192 57.602 525.112 58.3167C520.967 59.8091 516.193 61.3278 510.88 62.8763C500.252 65.9704 487.445 69.0784 473.036 71.6785C458.631 74.2538 442.693 76.2665 425.985 77.9935C409.275 79.7266 393.39 81.1928 378.999 82.8727C371.801 83.7216 364.993 84.5803 358.638 85.5538C352.744 86.4495 346.866 87.4548 341.009 88.5691C336.18 89.4868 331.37 90.5055 326.583 91.6244C322.357 92.6118 318.758 93.5991 315.815 94.4197C309.947 96.101 306.762 97.2897 306.569 96.8829C306.399 96.5411 309.301 94.6051 315.051 92.1973C318.546 90.7678 322.1 89.4894 325.703 88.3656C329.908 87.0455 334.741 85.6997 340.12 84.3921C345.5 83.0844 351.425 81.8099 357.817 80.613C364.212 79.4125 371.091 78.3553 378.311 77.35C392.767 75.3532 408.702 73.7134 425.368 71.9844C442.036 70.2615 457.853 68.4315 472.13 66.187C486.395 63.9217 499.17 61.2759 509.811 58.7429C515.132 57.4747 519.931 56.2597 524.115 55.0925C526.218 54.539 528.144 53.9405 529.94 53.443C531.711 52.886 533.355 52.4328 534.804 51.952C540.637 50.1233 543.797 48.8827 543.999 49.2819Z" fill="#A6A6A6"/>
</g>
<mask id="mask6_430_2437" style="mask-type:luminance" maskUnits="userSpaceOnUse" x="331" y="33" width="239" height="49">
<path d="M331.629 81.5625H569.07V33.8177H331.629V81.5625Z" fill="white"/>
</mask>
<g mask="url(#mask6_430_2437)">
<path d="M569.067 33.8861C569.238 34.2113 566.363 36.1825 560.677 38.7134C559.264 39.3686 557.659 39.992 555.912 40.7178C554.149 41.3813 552.241 42.1459 550.159 42.8572C546.014 44.3434 541.239 45.8558 535.926 47.3987C525.298 50.4818 512.491 53.5808 498.085 56.1741C483.682 58.7431 467.748 60.753 451.04 62.4793C434.331 64.2125 418.445 65.6813 404.053 67.3682C396.853 68.2206 390.044 69.0827 383.689 70.061C377.794 70.9605 371.916 71.9706 366.058 73.0908C361.229 74.0131 356.419 75.0378 351.633 76.1642C347.407 77.1585 343.809 78.1527 340.867 78.9788C335.001 80.676 331.821 81.8793 331.636 81.4863C331.474 81.1597 334.38 79.2376 340.133 76.845C343.63 75.424 347.184 74.1525 350.787 73.0341C354.992 71.7195 359.825 70.38 365.204 69.0786C370.584 67.7764 376.51 66.5068 382.902 65.3147C389.294 64.1177 396.171 63.0653 403.391 62.0628C417.846 60.0722 433.78 58.4358 450.448 56.7068C467.116 54.984 482.935 53.1498 497.215 50.899C511.482 48.6276 524.259 45.9728 534.899 43.4287C540.221 42.1549 545.019 40.9344 549.201 39.7596C551.304 39.2033 553.23 38.6013 555.026 38.1004C556.796 37.54 558.44 37.0833 559.887 36.599C565.717 34.7565 568.873 33.5007 569.067 33.8861Z" fill="#A6A6A6"/>
</g>
<mask id="mask7_430_2437" style="mask-type:luminance" maskUnits="userSpaceOnUse" x="356" y="18" width="239" height="49">
<path d="M356.697 66.1543H594.144V18.4206H356.697V66.1543Z" fill="white"/>
</mask>
<g mask="url(#mask7_430_2437)">
<path d="M594.168 18.4863C594.333 18.7977 591.451 20.7536 585.762 23.2701C584.348 23.9218 582.744 24.5418 580.996 25.2641C579.231 25.9249 577.323 26.686 575.241 27.3938C571.095 28.8744 566.32 30.3799 561.006 31.9173C550.379 34.99 537.572 38.0793 523.169 40.6663C508.769 43.2284 492.837 45.2342 476.13 46.9612C459.422 48.6943 443.534 50.1667 429.141 51.8598C421.941 52.7149 415.131 53.5805 408.775 54.5637C402.879 55.4677 397 56.4826 391.142 57.608C386.313 58.5361 381.504 59.5673 376.718 60.7008C372.492 61.7006 368.894 62.7017 365.954 63.5355C360.091 65.2465 356.916 66.4643 356.738 66.0865C356.582 65.7751 359.495 63.8683 365.251 61.4888C368.749 60.0758 372.304 58.811 375.907 57.698C380.112 56.391 384.944 55.057 390.324 53.7611C395.703 52.4638 401.628 51.1997 408.019 50.0117C414.411 48.8203 421.287 47.7714 428.507 46.7716C442.96 44.7872 458.894 43.1544 475.562 41.4253C492.231 39.7025 508.051 37.8648 522.335 35.6079C536.605 33.3295 549.382 30.6657 560.022 28.1098C565.342 26.8305 570.142 25.6052 574.323 24.4234C576.425 23.8637 578.351 23.2583 580.145 22.7546C581.916 22.1907 583.559 21.7306 585.005 21.2428C590.832 19.3865 593.981 18.1155 594.168 18.4863Z" fill="#A6A6A6"/>
</g>
<mask id="mask8_430_2437" style="mask-type:luminance" maskUnits="userSpaceOnUse" x="381" y="3" width="239" height="48">
<path d="M381.746 50.752H619.186V3.02863H381.746V50.752Z" fill="white"/>
</mask>
<g mask="url(#mask8_430_2437)">
<path d="M619.182 3.0864C619.338 3.38391 616.451 5.32467 610.759 7.82724C609.345 8.47555 607.74 9.09203 605.991 9.81091C604.227 10.4682 602.317 11.2258 600.236 11.9302C596.088 13.4039 591.313 14.9053 586 16.4365C575.371 19.4974 562.565 22.5777 548.165 25.1585C533.768 27.7143 517.838 29.7167 501.131 31.443C484.424 33.1761 468.535 34.6519 454.141 36.3512C446.941 37.2092 440.129 38.0796 433.772 39.0662C427.876 39.9744 421.997 40.9946 416.139 42.1265C411.309 43.0592 406.499 44.0959 401.713 45.2358C397.489 46.2432 393.892 47.2513 390.952 48.092C385.092 49.8176 381.923 51.0498 381.751 50.6872C381.603 50.3897 384.521 48.4981 390.279 46.1325C393.779 44.7282 397.335 43.4706 400.937 42.3631C405.143 41.0624 409.975 39.7339 415.355 38.4435C420.734 37.1524 426.659 35.8932 433.049 34.7101C439.44 33.5221 446.315 32.4773 453.534 31.481C467.986 29.5022 483.918 27.8735 500.588 26.1437C517.258 24.4209 533.081 22.5805 547.367 20.3159C561.639 18.0313 574.417 15.3578 585.056 12.7916C590.377 11.5067 595.175 10.2745 599.356 9.08717C601.458 8.52466 603.384 7.91582 605.177 7.40866C606.947 6.842 608.589 6.37773 610.035 5.88649C615.859 4.01561 619.003 2.73146 619.182 3.0864Z" fill="#A6A6A6"/>
</g>
</g>
<mask id="mask9_430_2437" style="mask-type:luminance" maskUnits="userSpaceOnUse" x="-307" y="-273" width="1216" height="649">
<path d="M-306.817 375.67H908.148V-272.669H-306.817V375.67Z" fill="white"/>
</mask>
<g mask="url(#mask9_430_2437)">
<mask id="mask10_430_2437" style="mask-type:luminance" maskUnits="userSpaceOnUse" x="94" y="81" width="238" height="49">
<path d="M94.218 129.178H331.667V81.3977H94.218V129.178Z" fill="white"/>
</mask>
<g mask="url(#mask10_430_2437)">
<path d="M331.657 81.4831C331.851 81.8526 328.993 83.8673 323.316 86.4405C321.905 87.1068 320.303 87.7399 318.557 88.4761C316.795 89.15 314.888 89.9242 312.809 90.6444C308.665 92.15 303.892 93.6805 298.579 95.24C287.952 98.3563 275.143 101.482 260.729 104.096C246.319 106.684 230.377 108.704 213.667 110.431C196.955 112.165 181.073 113.624 166.684 115.292C159.485 116.134 152.681 116.985 146.328 117.95C140.435 118.837 134.559 119.833 128.701 120.935C123.873 121.842 119.063 122.849 114.275 123.954C110.049 124.929 106.448 125.902 103.503 126.707C97.6302 128.362 94.4345 129.521 94.2262 129.084C94.0427 128.713 96.9329 126.747 102.679 124.311C106.171 122.865 109.723 121.573 113.325 120.439C117.531 119.105 122.362 117.747 127.742 116.429C133.122 115.11 139.05 113.826 145.443 112.62C151.838 111.41 158.72 110.345 165.942 109.333C180.4 107.324 196.338 105.678 213.002 103.949C229.668 102.227 245.48 100.404 259.753 98.1722C274.011 95.9201 286.785 93.2923 297.427 90.7807C302.748 89.5243 307.549 88.3218 311.733 87.1663C313.837 86.6197 315.764 86.0275 317.561 85.5369C319.333 84.9868 320.979 84.5392 322.429 84.0666C328.268 82.2663 331.441 81.0541 331.657 81.4831Z" fill="#A6A6A6"/>
</g>
<mask id="mask11_430_2437" style="mask-type:luminance" maskUnits="userSpaceOnUse" x="119" y="66" width="238" height="48">
<path d="M119.305 113.771H356.749V66.0039H119.305V113.771Z" fill="white"/>
</mask>
<g mask="url(#mask11_430_2437)">
<path d="M356.743 66.0866C356.929 66.4416 354.065 68.4419 348.385 71.0005C346.974 71.6633 345.371 72.2936 343.625 73.0256C341.862 73.6961 339.954 74.4669 337.874 75.1844C333.731 76.6837 328.957 78.2079 323.644 79.7619C313.017 82.8671 300.208 85.9841 285.797 88.5905C271.389 91.1726 255.45 93.1895 238.74 94.9164C222.029 96.6496 206.146 98.1123 191.756 99.7867C184.558 100.632 177.751 101.487 171.397 102.456C165.503 103.348 159.626 104.348 153.769 105.455C148.94 106.368 144.131 107.381 139.343 108.493C135.117 109.475 131.517 110.454 128.572 111.267C122.703 112.935 119.512 114.109 119.312 113.687C119.135 113.331 122.032 111.38 127.779 108.958C131.273 107.52 134.825 106.235 138.428 105.106C142.633 103.78 147.465 102.427 152.845 101.114C158.225 99.8012 164.151 98.5219 170.545 97.3208C176.939 96.1148 183.819 95.0548 191.04 94.046C205.497 92.0423 221.433 90.3998 238.1 88.67C254.766 86.9472 270.58 85.1206 284.856 82.8837C299.117 80.6254 311.891 77.9886 322.533 75.4659C327.855 74.2032 332.654 72.9945 336.838 71.8335C338.942 71.2834 340.869 70.6877 342.665 70.1937C344.436 69.6402 346.082 69.1898 347.531 68.7131C353.367 66.8989 356.533 65.6722 356.743 66.0866Z" fill="#A6A6A6"/>
</g>
<mask id="mask12_430_2437" style="mask-type:luminance" maskUnits="userSpaceOnUse" x="144" y="50" width="238" height="49">
<path d="M144.327 98.3711H381.774V50.6152H144.327V98.3711Z" fill="white"/>
</mask>
<g mask="url(#mask12_430_2437)">
<path d="M381.765 50.6903C381.943 51.0308 379.073 53.0158 373.391 55.5613C371.979 56.22 370.375 56.8468 368.628 57.5761C366.866 58.2431 364.957 59.0104 362.877 59.7251C358.732 61.2175 353.958 62.7355 348.645 64.2847C338.018 67.3788 325.21 70.4861 310.801 73.0863C296.396 75.6622 280.459 77.6749 263.75 79.4019C247.04 81.135 231.155 82.6005 216.765 84.2811C209.566 85.13 202.758 85.9887 196.403 86.9622C190.509 87.858 184.631 88.863 178.773 89.9767C173.945 90.8947 169.135 91.9136 164.348 93.0329C160.122 94.0202 156.523 95.0075 153.58 95.8267C147.713 97.5094 144.527 98.6981 144.334 98.2906C144.165 97.9495 147.066 96.0128 152.816 93.605C156.312 92.1758 159.865 90.8976 163.468 89.774C167.673 88.4539 172.505 87.1075 177.885 85.8005C183.265 84.4928 189.191 83.2183 195.583 82.0214C201.977 80.8202 208.855 79.7637 216.076 78.7577C230.532 76.7616 246.467 75.1218 263.134 73.3928C279.801 71.6699 295.618 69.8399 309.896 67.5954C324.16 65.3301 336.935 62.6843 347.576 60.1513C352.897 58.8831 357.697 57.6681 361.88 56.5002C363.983 55.9474 365.909 55.3489 367.705 54.8514C369.476 54.2944 371.121 53.8412 372.569 53.3604C378.403 51.5317 381.563 50.2904 381.765 50.6903Z" fill="#A6A6A6"/>
</g>
<mask id="mask13_430_2437" style="mask-type:luminance" maskUnits="userSpaceOnUse" x="169" y="35" width="238" height="48">
<path d="M169.38 82.9668H406.822V35.222H169.38V82.9668Z" fill="white"/>
</mask>
<g mask="url(#mask13_430_2437)">
<path d="M406.817 35.2904C406.988 35.6156 404.113 37.5868 398.427 40.1177C397.014 40.7729 395.409 41.3964 393.662 42.1222C391.899 42.7857 389.99 43.5502 387.909 44.2601C383.764 45.747 378.99 47.2601 373.676 48.803C363.049 51.8861 350.241 54.9844 335.836 57.5784C321.434 60.1474 305.498 62.1566 288.79 63.8836C272.081 65.6168 256.195 67.0856 241.803 68.7725C234.604 69.6249 227.794 70.4863 221.439 71.4639C215.544 72.3641 209.666 73.3744 203.808 74.4944C198.979 75.417 194.17 76.4419 189.383 77.5685C185.157 78.5621 181.559 79.5563 178.617 80.3831C172.752 82.0796 169.572 83.2836 169.386 82.8906C169.224 82.564 172.131 80.6419 177.884 78.2493C181.38 76.828 184.935 75.5565 188.537 74.4384C192.743 73.1238 197.575 71.7843 202.954 70.4829C208.334 69.18 214.26 67.9111 220.651 66.719C227.044 65.522 233.921 64.4696 241.142 63.467C255.596 61.4765 271.53 59.8401 288.198 58.1104C304.867 56.3876 320.685 54.5541 334.966 52.3033C349.232 50.0319 362.009 47.3771 372.649 44.8323C377.97 43.5585 382.77 42.3387 386.952 41.1639C389.054 40.6076 390.981 40.0056 392.776 39.5047C394.546 38.9443 396.19 38.4876 397.637 38.0033C403.468 36.1608 406.622 34.905 406.817 35.2904Z" fill="#A6A6A6"/>
</g>
<mask id="mask14_430_2437" style="mask-type:luminance" maskUnits="userSpaceOnUse" x="194" y="19" width="238" height="49">
<path d="M194.47 67.5625H431.915V19.8281H194.47V67.5625Z" fill="white"/>
</mask>
<g mask="url(#mask14_430_2437)">
<path d="M431.907 19.8924C432.071 20.2037 429.19 22.1597 423.501 24.6761C422.087 25.3286 420.482 25.9485 418.734 26.6708C416.97 27.3309 415.061 28.092 412.98 28.7998C408.834 30.2798 404.059 31.786 398.745 33.3241C388.117 36.3961 375.311 39.4854 360.907 42.0724C346.508 44.6345 330.576 46.641 313.868 48.3673C297.16 50.1004 281.273 51.5728 266.88 53.2658C259.68 54.121 252.869 54.9873 246.513 55.9698C240.617 56.8737 234.739 57.8889 228.881 59.0148C224.051 59.9425 219.242 60.9732 214.456 62.1062C210.23 63.1066 206.633 64.1078 203.692 64.9415C197.829 66.6526 194.655 67.871 194.476 67.4932C194.321 67.1812 197.234 65.2743 202.989 62.8949C206.487 61.4822 210.042 60.2175 213.645 59.104C217.85 57.797 222.683 56.4631 228.062 55.1671C233.442 53.8705 239.367 52.6065 245.757 51.4185C252.15 50.2264 259.025 49.1774 266.245 48.1776C280.699 46.1933 296.632 44.5604 313.3 42.8314C329.97 41.1093 345.79 39.2709 360.074 37.0139C374.344 34.7355 387.12 32.0718 397.761 29.5159C403.081 28.2373 407.88 27.0106 412.062 25.8302C414.164 25.2698 416.089 24.6651 417.883 24.1607C419.654 23.5975 421.297 23.136 422.744 22.6496C428.571 20.7925 431.72 19.5222 431.907 19.8924Z" fill="#A6A6A6"/>
</g>
<mask id="mask15_430_2437" style="mask-type:luminance" maskUnits="userSpaceOnUse" x="219" y="4" width="238" height="49">
<path d="M219.523 52.1582H456.964V4.43488H219.523V52.1582Z" fill="white"/>
</mask>
<g mask="url(#mask15_430_2437)">
<path d="M456.959 4.49479C457.116 4.79161 454.229 6.7331 448.537 9.23567C447.122 9.88398 445.517 10.5005 443.768 11.2193C442.004 11.8766 440.094 12.6342 438.013 13.3386C433.865 14.8123 429.09 16.313 423.777 17.8442C413.148 20.9058 400.342 23.9861 385.943 26.5662C371.545 29.1227 355.616 31.1244 338.908 32.8513C322.201 34.5845 306.313 36.0603 291.918 37.7596C284.718 38.6176 277.906 39.4873 271.549 40.4746C265.653 41.3828 259.774 42.4031 253.916 43.5349C249.086 44.4676 244.277 45.5043 239.491 46.6442C235.266 47.6516 231.669 48.6598 228.729 49.5004C222.869 51.226 219.7 52.4582 219.529 52.095C219.381 51.7975 222.298 49.9058 228.056 47.5409C231.556 46.1364 235.112 44.8783 238.715 43.7701C242.921 42.4694 247.753 41.1423 253.132 39.8519C258.511 38.5602 264.436 37.3016 270.826 36.1178C277.217 34.9305 284.092 33.8857 291.311 32.8887C305.763 30.9099 321.695 29.2812 338.365 27.5521C355.036 25.8293 370.858 23.9882 385.144 21.7243C399.417 19.4397 412.194 16.7662 422.834 14.2C428.155 12.9152 432.953 11.6829 437.134 10.4956C439.236 9.93309 441.161 9.32421 442.955 8.81705C444.724 8.2497 446.366 7.78547 447.813 7.29492C453.636 5.42404 456.78 4.13915 456.959 4.49479Z" fill="#A6A6A6"/>
</g>
<mask id="mask16_430_2437" style="mask-type:luminance" maskUnits="userSpaceOnUse" x="244" y="-11" width="239" height="48">
<path d="M244.595 36.7559H482.035V-10.9578H244.595V36.7559Z" fill="white"/>
</mask>
<g mask="url(#mask16_430_2437)">
<path d="M482.03 -10.9026C482.179 -10.6203 479.287 -8.69408 473.592 -6.20465C472.177 -5.5605 470.57 -4.94749 468.821 -4.23138C467.056 -3.57823 465.146 -2.82404 463.064 -2.12246C458.916 -0.654957 454.14 0.839532 448.827 2.36585C438.198 5.41571 425.393 8.487 410.995 11.0608C396.6 13.6105 380.673 15.6087 363.967 17.3363C347.261 19.0681 331.371 20.5481 316.976 22.2529C309.775 23.1143 302.962 23.9882 296.604 24.9797C290.707 25.8922 284.828 26.9175 278.969 28.0551C274.139 28.9923 269.33 30.0353 264.545 31.1832C260.32 32.1968 256.724 33.2111 253.786 34.0587C247.927 35.7988 244.764 37.0463 244.6 36.6976C244.459 36.4153 247.382 34.5388 253.142 32.1871C256.644 30.7908 260.2 29.54 263.803 28.4377C268.009 27.1439 272.841 25.8224 278.221 24.5362C283.599 23.2506 289.524 21.9969 295.913 20.8179C302.304 19.6348 309.177 18.5935 316.396 17.6006C330.847 15.6287 346.778 14.0028 363.449 12.273C380.119 10.5502 395.944 8.70496 410.233 6.43486C424.508 4.14331 437.286 1.46153 447.926 -1.11646C453.246 -2.40684 458.044 -3.64535 462.224 -4.83818C464.325 -5.40415 466.251 -6.01647 468.043 -6.5264C469.813 -7.09721 471.454 -7.56421 472.899 -8.05892C478.721 -9.94433 481.858 -11.2437 482.03 -10.9026Z" fill="#A6A6A6"/>
</g>
<mask id="mask17_430_2437" style="mask-type:luminance" maskUnits="userSpaceOnUse" x="269" y="-27" width="239" height="49">
<path d="M269.663 21.3535H507.103V-26.3511H269.663V21.3535Z" fill="white"/>
</mask>
<g mask="url(#mask17_430_2437)">
<path d="M507.098 -26.3017C507.24 -26.034 504.34 -24.1223 498.643 -21.6474C497.227 -21.006 495.62 -20.3964 493.87 -19.6845C492.105 -19.0341 490.194 -18.2834 488.112 -17.5846C483.963 -16.124 479.187 -14.6357 473.873 -13.1142C463.244 -10.0755 450.44 -7.01317 436.045 -4.44624C421.653 -1.90354 405.727 0.092587 389.023 1.81817C372.317 3.55067 356.427 5.03411 342.03 6.74516C334.829 7.61003 328.013 8.48735 321.655 9.48368C315.758 10.3998 309.878 11.4302 304.019 12.5744C299.189 13.5159 294.38 14.5646 289.595 15.7197C285.37 16.7395 281.775 17.7615 278.838 18.6166C272.982 20.3706 269.824 21.6333 269.667 21.2991C269.533 21.0313 272.463 19.1688 278.225 16.8323C281.728 15.4441 285.285 14.2 288.887 13.1029C293.095 11.8146 297.927 10.4993 303.306 9.22004C308.684 7.94004 314.608 6.69119 320.997 5.51636C327.387 4.33737 334.258 3.3002 341.477 2.3101C355.926 0.345127 371.856 -1.27804 388.528 -3.00777C405.199 -4.73058 421.027 -6.57934 435.318 -8.85567C449.596 -11.1541 462.375 -13.8442 473.014 -16.434C478.335 -17.7292 483.132 -18.9732 487.311 -20.1736C489.412 -20.7431 491.337 -21.3582 493.129 -21.8722C494.898 -22.4458 496.539 -22.917 497.983 -23.4145C503.801 -25.3137 506.933 -26.6283 507.098 -26.3017Z" fill="#A6A6A6"/>
</g>
<mask id="mask18_430_2437" style="mask-type:luminance" maskUnits="userSpaceOnUse" x="294" y="-42" width="239" height="48">
<path d="M294.719 5.95117H532.159V-41.7438H294.719V5.95117Z" fill="white"/>
</mask>
<g mask="url(#mask18_430_2437)">
<path d="M532.154 -41.7006C532.288 -41.4474 529.383 -39.5502 523.683 -37.0899C522.266 -36.4519 520.658 -35.8458 518.909 -35.1367C517.141 -34.4897 515.231 -33.7425 513.149 -33.0471C508.999 -31.5928 504.222 -30.1107 498.907 -28.5948C488.279 -25.5671 475.474 -22.5138 461.083 -19.9531C446.694 -17.4166 430.77 -15.4253 414.066 -13.699C397.362 -11.9658 381.47 -10.4803 367.072 -8.76237C359.87 -7.89473 353.054 -7.01328 346.695 -6.01211C340.797 -5.09203 334.916 -4.05699 329.058 -2.90759C324.227 -1.96014 319.418 -0.905212 314.633 0.25644C310.409 1.28321 306.814 2.31136 303.879 3.17346C298.025 4.94194 294.873 6.21851 294.723 5.90024C294.596 5.64701 297.531 3.79896 303.296 1.47697C306.8 0.0968314 310.358 -1.14059 313.961 -2.23229C318.168 -3.51368 323 -4.82274 328.379 -6.0972C333.757 -7.37167 339.681 -8.61569 346.069 -9.78568C352.458 -10.9598 359.328 -11.9928 366.546 -12.9802C380.995 -14.9396 396.924 -16.5586 413.595 -18.2884C430.268 -20.0112 446.098 -21.8634 460.392 -24.1466C474.673 -26.4513 487.452 -29.1518 498.092 -31.7512C503.411 -33.0527 508.208 -34.3029 512.387 -35.5096C514.488 -36.0818 516.411 -36.7003 518.204 -37.2179C519.971 -37.7942 521.611 -38.2696 523.056 -38.7705C528.87 -40.6836 531.997 -42.0127 532.154 -41.7006Z" fill="#A6A6A6"/>
</g>
</g>
<mask id="mask19_430_2437" style="mask-type:luminance" maskUnits="userSpaceOnUse" x="-470" y="-272" width="1216" height="650">
<path d="M-469.097 377.078H745.868V-271.261H-469.097V377.078Z" fill="white"/>
</mask>
<g mask="url(#mask19_430_2437)">
<mask id="mask20_430_2437" style="mask-type:luminance" maskUnits="userSpaceOnUse" x="-69" y="82" width="239" height="49">
<path d="M-68.0372 130.59H169.411V82.8098H-68.0372V130.59Z" fill="white"/>
</mask>
<g mask="url(#mask20_430_2437)">
<path d="M169.402 82.8913C169.596 83.2608 166.737 85.2755 161.06 87.8487C159.649 88.5143 158.048 89.1481 156.302 89.8843C154.54 90.5582 152.633 91.3317 150.553 92.0527C146.41 93.5582 141.636 95.0887 136.324 96.6482C125.697 99.7645 112.888 102.89 98.4738 105.504C84.0635 108.092 68.1218 110.112 51.4117 111.839C34.6995 113.573 18.8167 115.032 4.42771 116.7C-2.77057 117.543 -9.57501 118.393 -15.9274 119.358C-21.8205 120.246 -27.6972 121.24 -33.5547 122.342C-38.3827 123.251 -43.1922 124.257 -47.98 125.362C-52.2072 126.337 -55.807 127.31 -58.7535 128.115C-64.6251 129.769 -67.8215 130.929 -68.029 130.491C-68.2126 130.121 -65.3237 128.155 -59.5774 125.719C-56.0854 124.273 -52.5329 122.981 -48.9299 121.846C-44.7254 120.513 -39.8934 119.156 -34.5129 117.837C-29.133 116.518 -23.2059 115.234 -16.8124 114.028C-10.4168 112.818 -3.53561 111.754 3.68596 110.741C18.1441 108.732 34.0818 107.085 50.7467 105.357C67.4123 103.634 83.2238 101.811 97.4971 99.5804C111.755 97.3283 124.529 94.7005 135.171 92.1889C140.492 90.9325 145.293 89.7293 149.477 88.5745C151.581 88.0279 153.509 87.4357 155.306 86.9451C157.078 86.395 158.724 85.9474 160.173 85.4748C166.013 83.6745 169.185 82.4623 169.402 82.8913Z" fill="#A6A6A6"/>
</g>
<mask id="mask21_430_2437" style="mask-type:luminance" maskUnits="userSpaceOnUse" x="-43" y="67" width="238" height="49">
<path d="M-42.9504 115.18H194.497V67.4121H-42.9504V115.18Z" fill="white"/>
</mask>
<g mask="url(#mask21_430_2437)">
<path d="M194.487 67.4929C194.674 67.8478 191.809 69.8481 186.13 72.4067C184.719 73.0696 183.116 73.6992 181.369 74.4319C179.607 75.1023 177.699 75.8731 175.619 76.5906C171.475 78.0892 166.702 79.6142 161.388 81.1681C150.761 84.2734 137.953 87.3903 123.542 89.9967C109.134 92.5789 93.1944 94.5957 76.4849 96.3227C59.7741 98.0559 43.8907 99.5179 29.5009 101.192C22.3027 102.038 15.4955 102.893 9.14167 103.862C3.24815 104.753 -2.62881 105.754 -8.48626 106.862C-13.315 107.774 -18.1246 108.787 -22.9123 109.899C-27.1381 110.88 -30.7379 111.861 -33.683 112.674C-39.5525 114.341 -42.7435 115.515 -42.9428 115.093C-43.1201 114.737 -40.2237 112.786 -34.476 110.364C-30.9827 108.927 -27.4298 107.642 -23.8273 106.512C-19.622 105.186 -14.7901 103.833 -9.41018 102.52C-4.03031 101.207 1.89612 99.9281 8.28964 98.727C14.6838 97.521 21.5636 96.4604 28.7852 95.4516C43.242 93.4486 59.1782 91.8053 75.8445 90.077C92.5108 88.3542 108.324 86.5276 122.6 84.29C136.861 82.031 149.637 79.3948 160.277 76.8722C165.599 75.6095 170.399 74.4007 174.583 73.2398C176.687 72.6897 178.613 72.094 180.41 71.6C182.181 71.0465 183.826 70.596 185.275 70.1193C191.111 68.3052 194.278 67.0784 194.487 67.4929Z" fill="#A6A6A6"/>
</g>
<mask id="mask22_430_2437" style="mask-type:luminance" maskUnits="userSpaceOnUse" x="-18" y="52" width="238" height="48">
<path d="M-17.8977 99.7754H219.548V52.0195H-17.8977V99.7754Z" fill="white"/>
</mask>
<g mask="url(#mask22_430_2437)">
<path d="M219.54 52.0944C219.719 52.4349 216.849 54.4206 211.166 56.9654C209.755 57.624 208.15 58.2509 206.404 58.9801C204.641 59.6471 202.733 60.4145 200.653 61.1292C196.508 62.6216 191.733 64.1403 186.421 65.6887C175.793 68.7829 162.985 71.8909 148.577 74.491C134.172 77.0663 118.234 79.0789 101.525 80.8059C84.8153 82.5391 68.9311 84.0052 54.5401 85.6851C47.3418 86.5341 40.5339 87.3927 34.1787 88.3662C28.2845 89.262 22.4071 90.2673 16.5495 91.3815C11.7204 92.2993 6.91069 93.318 2.12342 94.4369C-2.1024 95.4243 -5.70153 96.4116 -8.64454 97.2315C-14.5121 98.9135 -17.6975 100.102 -17.8907 99.6953C-18.0605 99.3535 -15.1579 97.4176 -9.40819 95.0098C-5.91306 93.5806 -2.35933 92.3022 1.24334 91.1781C5.44862 89.858 10.2806 88.5122 15.6604 87.2046C21.0403 85.8969 26.9661 84.6231 33.3582 83.4261C39.7524 82.225 46.6302 81.1678 53.8517 80.1624C68.3072 78.1656 84.2427 76.5259 100.909 74.7968C117.577 73.0747 133.394 71.244 147.671 68.9995C161.935 66.7342 174.711 64.0884 185.351 61.5554C190.673 60.2871 195.472 59.0728 199.656 57.9049C201.758 57.3514 203.685 56.7529 205.481 56.2555C207.252 55.6985 208.896 55.2446 210.345 54.7644C216.177 52.9358 219.338 51.6952 219.54 52.0944Z" fill="#A6A6A6"/>
</g>
<mask id="mask23_430_2437" style="mask-type:luminance" maskUnits="userSpaceOnUse" x="7" y="36" width="238" height="49">
<path d="M7.13989 84.377H244.581V36.6322H7.13989V84.377Z" fill="white"/>
</mask>
<g mask="url(#mask23_430_2437)">
<path d="M244.577 36.6984C244.748 37.0236 241.873 38.9948 236.187 41.5257C234.774 42.1809 233.169 42.8044 231.422 43.5308C229.659 44.1937 227.751 44.9582 225.67 45.6688C221.524 47.1557 216.75 48.6682 211.436 50.2111C200.809 53.2942 188.001 56.3931 173.596 58.9864C159.194 61.5554 143.259 63.5653 126.551 65.2916C109.841 67.0248 93.9551 68.4937 79.5633 70.1805C72.3637 71.0329 65.5544 71.895 59.1992 72.8733C53.3043 73.7729 47.4264 74.783 41.5686 75.9032C36.7395 76.8258 31.93 77.8505 27.1433 78.9765C22.9175 79.9708 19.319 80.965 16.3774 81.7911C10.5119 83.4883 7.33263 84.6915 7.14634 84.2992C6.98401 83.972 9.89071 82.0506 15.6439 79.6567C19.1404 78.2358 22.6948 76.9646 26.2974 75.8464C30.5027 74.5318 35.3354 73.193 40.7146 71.8909C46.0944 70.5887 52.0202 69.3191 58.4123 68.127C64.8045 66.93 71.6815 65.8776 78.9017 64.875C93.3565 62.8845 109.291 61.2481 125.958 59.5191C142.627 57.7963 158.445 55.9628 172.726 53.7113C186.993 51.4399 199.769 48.7851 210.41 46.241C215.731 44.9672 220.53 43.7467 224.712 42.5726C226.815 42.0163 228.741 41.4137 230.536 40.912C232.306 40.353 233.95 39.8949 235.397 39.412C241.228 37.5688 244.383 36.3137 244.577 36.6984Z" fill="#A6A6A6"/>
</g>
<mask id="mask24_430_2437" style="mask-type:luminance" maskUnits="userSpaceOnUse" x="32" y="21" width="238" height="48">
<path d="M32.2454 68.9668H269.689V21.2331H32.2454V68.9668Z" fill="white"/>
</mask>
<g mask="url(#mask24_430_2437)">
<path d="M269.682 21.2988C269.846 21.6102 266.964 23.5661 261.276 26.0826C259.862 26.7343 258.257 27.3543 256.509 28.0766C254.745 28.7374 252.836 29.4985 250.755 30.2063C246.609 31.6869 241.833 33.1924 236.52 34.7298C225.892 37.8025 213.086 40.8918 198.682 43.4788C184.283 46.0409 168.35 48.0467 151.643 49.7737C134.935 51.5069 119.048 52.9792 104.655 54.6723C97.4549 55.5274 90.6443 56.393 84.2877 57.3762C78.3922 58.2802 72.5138 59.2952 66.6557 60.4205C61.8263 61.349 57.0168 62.3801 52.2304 63.5133C48.0053 64.5131 44.4075 65.5142 41.4673 66.348C35.6038 68.059 32.43 69.2768 32.2513 68.899C32.0958 68.5876 35.0087 66.6808 40.7639 64.3013C44.2619 62.8883 47.8169 61.6236 51.4195 60.5105C55.6255 59.2035 60.4581 57.8695 65.8373 56.5736C71.2165 55.2763 77.1415 54.0136 83.5323 52.8242C89.9252 51.6328 96.8002 50.5839 104.02 49.5841C118.474 47.5997 134.407 45.9669 151.076 44.2378C167.745 42.515 183.565 40.6774 197.849 38.4204C212.118 36.142 224.895 33.4782 235.536 30.9223C240.856 29.643 245.655 28.4177 249.836 27.2359C251.939 26.6762 253.864 26.0708 255.659 25.5671C257.429 25.0032 259.072 24.5431 260.519 24.0553C266.346 22.199 269.495 20.928 269.682 21.2988Z" fill="#A6A6A6"/>
</g>
<mask id="mask25_430_2437" style="mask-type:luminance" maskUnits="userSpaceOnUse" x="57" y="5" width="238" height="49">
<path d="M57.3059 53.5664H294.745V5.84308H57.3059V53.5664Z" fill="white"/>
</mask>
<g mask="url(#mask25_430_2437)">
<path d="M294.742 5.90317C294.898 6.2 292.011 8.14144 286.319 10.644C284.906 11.2923 283.299 11.9088 281.551 12.6277C279.787 13.2843 277.877 14.0419 275.796 14.7469C271.648 16.2207 266.873 17.7207 261.559 19.2525C250.931 22.3142 238.125 25.3945 223.725 27.9745C209.328 30.5304 193.398 32.5327 176.691 34.2597C159.984 35.9929 144.095 37.4687 129.7 39.1673C122.501 40.0252 115.689 40.8956 109.331 41.883C103.435 42.7908 97.5566 43.8111 91.6986 44.9432C86.8688 45.8756 82.0592 46.9123 77.2733 48.0526C73.0488 49.06 69.4517 50.0681 66.5122 50.9087C60.6515 52.6343 57.4832 53.8666 57.3113 53.5033C57.1633 53.2058 60.0817 51.3142 65.8383 48.9493C69.3383 47.5444 72.8943 46.2864 76.4973 45.1785C80.7026 43.8777 85.5359 42.5507 90.9144 41.2603C96.2936 39.9685 102.219 38.7099 108.609 37.5261C115 36.3388 121.875 35.2934 129.094 34.2971C143.545 32.3182 159.478 30.6895 176.148 28.9605C192.818 27.2377 208.641 25.3966 222.926 23.1327C237.199 20.8474 249.976 18.1746 260.616 15.6077C265.937 14.3235 270.736 13.0905 274.916 11.9039C277.018 11.3407 278.944 10.7326 280.737 10.2254C282.507 9.65804 284.148 9.19382 285.595 8.70326C291.419 6.83239 294.563 5.54685 294.742 5.90317Z" fill="#A6A6A6"/>
</g>
<mask id="mask26_430_2437" style="mask-type:luminance" maskUnits="userSpaceOnUse" x="82" y="-10" width="238" height="49">
<path d="M82.3357 38.166H319.777V-9.54764H82.3357V38.166Z" fill="white"/>
</mask>
<g mask="url(#mask26_430_2437)">
<path d="M319.771 -9.49243C319.92 -9.21014 317.028 -7.28322 311.333 -4.79517C309.918 -4.15032 308.311 -3.53733 306.562 -2.82122C304.797 -2.16807 302.887 -1.41389 300.805 -0.712307C296.657 0.754506 291.881 2.249 286.568 3.776C275.938 6.82587 263.134 9.89784 248.736 12.471C234.341 15.0206 218.414 17.0195 201.708 18.7458C185.002 20.479 169.112 21.9582 154.716 23.6631C147.516 24.5252 140.703 25.3984 134.345 26.3905C128.448 27.3025 122.569 28.3276 116.71 29.4653C111.88 30.4022 107.071 31.445 102.285 32.5926C98.061 33.607 94.4639 34.6213 91.5257 35.4695C85.6678 37.2089 82.5049 38.4564 82.3406 38.1084C82.1995 37.8261 85.1233 35.9483 90.8833 33.5973C94.3846 32.2007 97.941 30.9496 101.544 29.8472C105.75 28.5534 110.582 27.2318 115.961 25.947C121.34 24.6614 127.265 23.407 133.654 22.2281C140.045 21.0449 146.918 20.0037 154.137 19.0108C168.588 17.0389 184.519 15.4129 201.189 13.6832C217.859 11.9604 233.685 10.1158 247.973 7.84569C262.249 5.55414 275.027 2.87098 285.667 0.294367C290.987 -0.996014 295.785 -2.23451 299.965 -3.42802C302.067 -3.99399 303.991 -4.6063 305.784 -5.11692C307.553 -5.68704 309.195 -6.15475 310.64 -6.64876C316.462 -8.53417 319.599 -9.83354 319.771 -9.49243Z" fill="#A6A6A6"/>
</g>
<mask id="mask27_430_2437" style="mask-type:luminance" maskUnits="userSpaceOnUse" x="107" y="-25" width="238" height="48">
<path d="M107.415 22.7598H344.852V-24.9442H107.415V22.7598Z" fill="white"/>
</mask>
<g mask="url(#mask27_430_2437)">
<path d="M344.85 -24.8911C344.991 -24.624 342.093 -22.7116 336.395 -20.2374C334.98 -19.596 333.372 -18.9865 331.623 -18.2745C329.856 -17.6241 327.947 -16.8727 325.864 -16.1739C321.716 -14.714 316.939 -13.2257 311.625 -11.7043C300.996 -8.66478 288.191 -5.60246 273.797 -3.03554C259.405 -0.492832 243.48 1.50191 226.775 3.22887C210.069 4.96137 194.179 6.4441 179.782 8.15515C172.581 9.02002 165.766 9.89802 159.408 10.8943C153.51 11.8103 147.63 12.8405 141.771 13.9843C136.941 14.9266 132.132 15.9755 127.347 17.1304C123.123 18.1495 119.527 19.1715 116.59 20.0259C110.734 21.7813 107.577 23.0426 107.42 22.7091C107.285 22.442 110.215 20.5795 115.977 18.2422C119.48 16.8538 123.037 15.6097 126.64 14.5129C130.847 13.2253 135.679 11.9094 141.057 10.6294C146.437 9.34935 152.36 8.10118 158.749 6.92635C165.139 5.74805 172.01 4.71088 179.229 3.72009C193.679 1.75511 209.609 0.132626 226.28 -1.59711C242.951 -3.31992 258.78 -5.16933 273.07 -7.44497C287.348 -9.74343 300.127 -12.4349 310.767 -15.024C316.087 -16.3192 320.884 -17.5632 325.064 -18.7637C327.164 -19.3324 329.089 -19.9482 330.882 -20.4616C332.65 -21.0359 334.291 -21.5063 335.736 -22.0045C341.554 -23.9037 344.686 -25.217 344.85 -24.8911Z" fill="#A6A6A6"/>
</g>
<mask id="mask28_430_2437" style="mask-type:luminance" maskUnits="userSpaceOnUse" x="132" y="-41" width="238" height="49">
<path d="M132.475 7.35938H369.915V-40.3356H132.475V7.35938Z" fill="white"/>
</mask>
<g mask="url(#mask28_430_2437)">
<path d="M369.91 -40.2905C370.044 -40.0373 367.139 -38.1401 361.439 -35.6797C360.022 -35.0425 358.414 -34.4357 356.665 -33.7272C354.898 -33.0803 352.987 -32.3323 350.905 -31.637C346.755 -30.1833 341.978 -28.7006 336.663 -27.1853C326.035 -24.1569 313.23 -21.1036 298.839 -18.5429C284.45 -16.0071 268.527 -14.0152 251.823 -12.2882C235.118 -10.5564 219.227 -9.07018 204.828 -7.35221C197.627 -6.48458 190.81 -5.6031 184.451 -4.60263C178.553 -3.68233 172.672 -2.64708 166.814 -1.49743C161.983 -0.550306 157.174 0.504627 152.39 1.6666C148.165 2.69337 144.57 3.72152 141.635 4.58362C135.781 6.3521 132.629 7.62865 132.479 7.30968C132.352 7.05714 135.287 5.20912 141.052 2.88713C144.556 1.50722 148.114 0.270013 151.717 -0.821454C155.924 -2.10353 160.756 -3.41327 166.135 -4.68704C171.513 -5.96151 177.437 -7.20555 183.826 -8.37485C190.215 -9.54968 197.084 -10.582 204.302 -11.57C218.751 -13.5294 234.68 -15.1485 251.351 -16.8782C268.024 -18.601 283.854 -20.4532 298.148 -22.7364C312.429 -25.0404 325.208 -27.7416 335.848 -30.3417C341.167 -31.6425 345.964 -32.8934 350.143 -34.0987C352.244 -34.6716 354.167 -35.2902 355.96 -35.8077C357.728 -36.3847 359.367 -36.8594 360.812 -37.3603C366.626 -39.2734 369.753 -40.6025 369.91 -40.2905Z" fill="#A6A6A6"/>
</g>
</g>
<mask id="mask29_430_2437" style="mask-type:luminance" maskUnits="userSpaceOnUse" x="-632" y="-270" width="1216" height="649">
<path d="M-631.317 378.484H583.646V-269.855H-631.317V378.484Z" fill="white"/>
</mask>
<g mask="url(#mask29_430_2437)">
<mask id="mask30_430_2437" style="mask-type:luminance" maskUnits="userSpaceOnUse" x="-231" y="84" width="239" height="48">
<path d="M-230.26 131.992H7.18779V84.2122H-230.26V131.992Z" fill="white"/>
</mask>
<g mask="url(#mask30_430_2437)">
<path d="M7.17887 84.2937C7.37269 84.6631 4.51393 86.6779 -1.16318 89.2511C-2.57407 89.9167 -4.17538 90.5505 -5.92118 91.286C-7.68274 91.9606 -9.59018 92.7341 -11.6695 93.4551C-15.8132 94.9606 -20.5869 96.4904 -25.899 98.0506C-36.5258 101.167 -49.3348 104.293 -63.7491 106.907C-78.1594 109.494 -94.1011 111.515 -110.811 113.242C-127.523 114.975 -143.406 116.434 -157.795 118.102C-164.993 118.946 -171.797 119.795 -178.15 120.76C-184.043 121.647 -189.92 122.642 -195.777 123.745C-200.605 124.653 -205.415 125.66 -210.203 126.764C-214.43 127.74 -218.03 128.713 -220.976 129.518C-226.848 131.172 -230.044 132.331 -230.252 131.894C-230.435 131.523 -227.547 129.557 -221.799 127.121C-218.307 125.675 -214.755 124.383 -211.153 123.249C-206.948 121.915 -202.116 120.558 -196.736 119.239C-191.356 117.92 -185.429 116.636 -179.035 115.43C-172.64 114.22 -165.759 113.155 -158.537 112.144C-144.079 110.135 -128.141 108.488 -111.476 106.759C-94.8106 105.037 -78.9991 103.213 -64.7258 100.982C-50.4676 98.73 -37.6936 96.1029 -27.0516 93.5913C-21.7307 92.3348 -16.9295 91.1316 -12.7455 89.9769C-10.6415 89.4303 -8.71418 88.838 -6.91701 88.3468C-5.14518 87.7974 -3.49937 87.3505 -2.04944 86.8772C3.78999 85.0762 6.96175 83.8647 7.17887 84.2937Z" fill="#A6A6A6"/>
</g>
<mask id="mask31_430_2437" style="mask-type:luminance" maskUnits="userSpaceOnUse" x="-206" y="68" width="239" height="49">
<path d="M-205.215 116.584H32.2316V68.8164H-205.215V116.584Z" fill="white"/>
</mask>
<g mask="url(#mask31_430_2437)">
<path d="M32.2235 68.8984C32.4098 69.254 29.5455 71.2543 23.8657 73.8129C22.4541 74.4758 20.8515 75.1061 19.105 75.8381C17.3427 76.5092 15.4353 77.2793 13.3552 77.9968C9.21091 79.4961 4.43785 81.0204 -0.87559 82.5744C-11.5025 85.6796 -24.3107 88.7966 -38.723 91.4029C-53.1298 93.9858 -69.0695 96.0019 -85.7789 97.7289C-102.49 99.4628 -118.374 100.925 -132.764 102.599C-139.962 103.445 -146.768 104.299 -153.122 105.268C-159.016 106.16 -164.893 107.16 -170.75 108.268C-175.579 109.181 -180.389 110.193 -185.176 111.305C-189.402 112.287 -193.002 113.267 -195.946 114.08C-201.816 115.747 -205.007 116.922 -205.207 116.5C-205.384 116.144 -202.488 114.193 -196.739 111.77C-193.246 110.333 -189.693 109.048 -186.091 107.918C-181.886 106.592 -177.054 105.24 -171.674 103.926C-166.294 102.614 -160.367 101.334 -153.974 100.133C-147.58 98.9279 -140.701 97.8673 -133.479 96.8585C-119.022 94.8555 -103.086 93.2122 -86.42 91.4825C-69.753 89.761 -53.9394 87.9331 -39.6634 85.6962C-25.4025 83.4379 -12.627 80.801 -1.98579 78.2784C3.33518 77.0157 8.13494 75.8076 12.319 74.646C14.423 74.0959 16.3496 73.5002 18.1461 73.0062C19.9172 72.4527 21.5624 72.0022 23.0116 71.5255C28.8469 69.7114 32.0139 68.4847 32.2235 68.8991" fill="#A6A6A6"/>
</g>
<mask id="mask32_430_2437" style="mask-type:luminance" maskUnits="userSpaceOnUse" x="-181" y="53" width="239" height="49">
<path d="M-180.128 101.184H57.3177V53.4277H-180.128V101.184Z" fill="white"/>
</mask>
<g mask="url(#mask32_430_2437)">
<path d="M57.3097 53.5009C57.4878 53.8413 54.6181 55.827 48.9355 58.3718C47.5239 59.0305 45.9198 59.6573 44.1734 60.3866C42.4104 61.0536 40.5023 61.8209 38.4222 62.5356C34.2772 64.028 29.5028 65.5467 24.1901 67.0952C13.5625 70.1893 0.754937 73.2966 -13.6539 75.8968C-28.0587 78.4727 -43.9963 80.4854 -60.7051 82.2124C-77.4152 83.9455 -93.3 85.411 -107.69 87.0916C-114.889 87.9405 -121.697 88.7992 -128.052 89.7727C-133.947 90.6686 -139.824 91.6736 -145.682 92.7872C-150.51 93.7055 -155.32 94.7245 -160.107 95.8434C-164.333 96.8307 -167.932 97.818 -170.875 98.6386C-176.743 100.32 -179.928 101.509 -180.121 101.102C-180.291 100.76 -177.389 98.8241 -171.639 96.4163C-168.144 94.9864 -164.59 93.708 -160.987 92.5845C-156.782 91.2644 -151.95 89.918 -146.57 88.611C-141.19 87.3033 -135.264 86.0288 -128.872 84.8319C-122.478 83.6314 -115.6 82.5742 -108.379 81.5682C-93.9233 79.5721 -77.9878 77.9323 -61.3215 76.2033C-44.6538 74.4804 -28.8375 72.6504 -14.5594 70.4059C-0.295026 68.1407 12.4804 65.4948 23.1209 62.9618C28.4419 61.6936 33.2417 60.4786 37.425 59.3107C39.5277 58.7579 41.4543 58.1594 43.2501 57.6619C45.0212 57.105 46.6657 56.6517 48.1142 56.1709C53.9468 54.3422 57.107 53.101 57.3097 53.5009Z" fill="#A6A6A6"/>
</g>
<mask id="mask33_430_2437" style="mask-type:luminance" maskUnits="userSpaceOnUse" x="-156" y="38" width="239" height="48">
<path d="M-155.056 85.7773H82.3882V38.0326H-155.056V85.7773Z" fill="white"/>
</mask>
<g mask="url(#mask33_430_2437)">
<path d="M82.3809 38.1009C82.5522 38.4261 79.677 40.3973 73.9909 42.9283C72.578 43.5835 70.9733 44.2069 69.2261 44.9327C67.4632 45.5962 65.5551 46.3608 63.4737 47.072C59.328 48.5582 54.5535 50.0707 49.2401 51.6136C38.6126 54.6967 25.805 57.7957 11.3995 60.3889C-3.00252 62.9579 -18.9373 64.9671 -35.6454 66.6941C-52.3549 68.4273 -68.2411 69.8962 -82.6329 71.5831C-89.8325 72.4355 -96.6417 73.2975 -102.997 74.2745C-108.892 75.1746 -114.77 76.1849 -120.628 77.305C-125.457 78.2272 -130.266 79.2521 -135.053 80.3791C-139.279 81.3733 -142.877 82.3676 -145.819 83.1937C-151.684 84.8909 -154.864 86.0941 -155.05 85.7011C-155.212 85.3745 -152.305 83.4525 -146.552 81.0599C-143.056 79.6388 -139.501 78.3674 -135.899 77.2489C-131.693 75.9343 -126.861 74.5949 -121.482 73.2934C-116.102 71.9906 -110.176 70.7216 -103.784 69.5295C-97.3917 68.3325 -90.5147 67.2801 -83.2945 66.2776C-68.8397 64.287 -52.9055 62.6507 -36.2378 60.921C-19.5695 59.1981 -3.75108 57.3646 10.5297 55.1139C24.7968 52.8424 37.5729 50.1876 48.2135 47.6428C53.5351 46.3698 58.3335 45.1493 62.5155 43.9744C64.6188 43.4181 66.5448 42.8162 68.3399 42.3153C70.1103 41.7548 71.7541 41.2982 73.2013 40.8139C79.0318 38.9713 82.1871 37.7155 82.3809 38.1009Z" fill="#A6A6A6"/>
</g>
<mask id="mask34_430_2437" style="mask-type:luminance" maskUnits="userSpaceOnUse" x="-130" y="22" width="238" height="49">
<path d="M-129.985 70.373H107.459V22.6393H-129.985V70.373Z" fill="white"/>
</mask>
<g mask="url(#mask34_430_2437)">
<path d="M107.452 22.7068C107.616 23.0182 104.734 24.9741 99.0452 27.4913C97.6316 28.143 96.0262 28.763 94.279 29.4853C92.5147 30.1454 90.6059 30.9065 88.5245 31.6143C84.3781 33.0942 79.603 34.6005 74.2895 36.1386C63.662 39.2106 50.8551 42.2999 36.4517 44.8868C22.0524 47.4496 6.1203 49.4554 -10.5871 51.1817C-27.2959 52.9149 -43.1828 54.3872 -57.5759 56.0803C-64.7755 56.9355 -71.5862 57.8017 -77.9427 58.7842C-83.8383 59.6879 -89.7167 60.7029 -95.5747 61.8286C-100.404 62.7565 -105.214 63.7874 -110 64.9206C-114.225 65.9211 -117.823 66.9222 -120.763 67.756C-126.626 69.467 -129.8 70.6855 -129.979 70.3077C-130.135 69.9957 -127.222 68.0888 -121.466 65.7094C-117.968 64.2966 -114.413 63.0322 -110.811 61.9192C-106.605 60.6115 -101.772 59.2776 -96.3932 57.9816C-91.014 56.685 -85.0889 55.4209 -78.6982 54.2329C-72.3053 53.0408 -65.4303 51.9912 -58.2101 50.9921C-43.7567 49.0077 -27.8233 47.3749 -11.1549 45.6458C5.51414 43.923 21.3346 42.0854 35.6181 39.8284C49.888 37.55 62.6648 34.8862 73.3053 32.3304C78.6256 31.0517 83.4247 29.825 87.606 28.6447C89.7086 28.0842 91.6339 27.4795 93.4283 26.9751C95.1988 26.4119 96.8412 25.9504 98.2884 25.464C104.115 23.607 107.265 22.3367 107.452 22.7068" fill="#A6A6A6"/>
</g>
<mask id="mask35_430_2437" style="mask-type:luminance" maskUnits="userSpaceOnUse" x="-105" y="7" width="238" height="48">
<path d="M-104.913 54.9707H132.529V7.24738H-104.913V54.9707Z" fill="white"/>
</mask>
<g mask="url(#mask35_430_2437)">
<path d="M132.523 7.30534C132.679 7.60147 129.792 9.54358 124.1 12.0455C122.686 12.6945 121.08 13.3103 119.332 14.0298C117.567 14.6871 115.658 15.4448 113.577 16.1491C109.429 17.6228 104.654 19.1228 99.3397 20.6547C88.7114 23.7163 75.9059 26.7966 61.5059 29.3767C47.1094 31.9332 31.1787 33.9356 14.4719 35.6618C-2.23546 37.395 -18.1237 38.8702 -32.5182 40.5695C-39.7186 41.4274 -46.5306 42.2985 -52.8871 43.2845C-58.7834 44.1926 -64.6622 45.2128 -70.5205 46.3447C-75.3503 47.2775 -80.1598 48.3145 -84.9458 49.4547C-89.1703 50.4621 -92.7673 51.4703 -95.7069 52.3109C-101.568 54.0365 -104.736 55.2681 -104.908 54.9055C-105.056 54.608 -102.138 52.717 -96.3802 50.3514C-92.8803 48.9469 -89.3245 47.6889 -85.7218 46.5806C-81.5158 45.2799 -76.6839 43.9528 -71.3047 42.6625C-65.9255 41.3714 -60.0005 40.1121 -53.6104 38.929C-47.2189 37.741 -40.3439 36.6962 -33.125 35.6992C-18.673 33.7204 -2.74092 32.091 13.9281 30.3626C30.5985 28.6398 46.4217 26.798 60.7073 24.5348C74.9806 22.2495 87.7574 19.576 98.3973 17.0105C103.719 15.725 108.517 14.4927 112.698 13.3054C114.799 12.7429 116.725 12.1347 118.518 11.6269C120.288 11.0609 121.93 10.596 123.376 10.1047C129.2 8.23452 132.344 6.9497 132.523 7.30534Z" fill="#A6A6A6"/>
</g>
<mask id="mask36_430_2437" style="mask-type:luminance" maskUnits="userSpaceOnUse" x="-80" y="-9" width="238" height="49">
<path d="M-79.8718 39.5684H157.569V-8.1453H-79.8718V39.5684Z" fill="white"/>
</mask>
<g mask="url(#mask36_430_2437)">
<path d="M157.564 -8.09009C157.712 -7.8078 154.82 -5.88158 149.125 -3.39215C147.71 -2.748 146.103 -2.13499 144.355 -1.41888C142.589 -0.76573 140.68 -0.0115423 138.598 0.690037C134.45 2.15754 129.673 3.65203 124.36 5.17835C113.731 8.22821 100.926 11.2995 86.5283 13.8733C72.1338 16.423 56.2065 18.4212 39.5005 20.1488C22.7945 21.8806 6.9048 23.3606 -7.49038 25.0654C-14.6914 25.9275 -21.5048 26.8007 -27.8627 27.7929C-33.7597 28.7048 -39.639 29.7299 -45.4974 30.8676C-50.3274 31.8048 -55.1368 32.8477 -59.922 33.9957C-64.1465 35.0093 -67.7429 36.0236 -70.6811 36.8719C-76.5397 38.6113 -79.7026 39.8588 -79.867 39.5101C-80.008 39.2278 -77.0842 37.3514 -71.3242 35.0003C-67.823 33.6034 -64.2666 32.3524 -60.6638 31.2503C-56.4571 29.9564 -51.6252 28.6349 -46.246 27.3494C-40.8675 26.0631 -34.9424 24.8101 -28.5537 23.6305C-22.1622 22.4473 -15.29 21.406 -8.07048 20.4131C6.38018 18.4412 22.3116 16.8153 38.9813 15.0855C55.6524 13.3627 71.4777 11.5182 85.766 9.24736C100.041 6.95581 112.819 4.27403 123.459 1.69604C128.78 0.406347 133.577 -0.832161 137.757 -2.02568C139.859 -2.59165 141.784 -3.20397 143.577 -3.7139C145.346 -4.28471 146.988 -4.75171 148.433 -5.24642C154.254 -7.13183 157.392 -8.43119 157.564 -8.09009Z" fill="#A6A6A6"/>
</g>
<mask id="mask37_430_2437" style="mask-type:luminance" maskUnits="userSpaceOnUse" x="-55" y="-24" width="238" height="49">
<path d="M-54.8042 24.1641H182.636V-23.5399H-54.8042V24.1641Z" fill="white"/>
</mask>
<g mask="url(#mask37_430_2437)">
<path d="M182.631 -23.4873C182.772 -23.2195 179.874 -21.3078 174.176 -18.8336C172.76 -18.1922 171.153 -17.5819 169.404 -16.87C167.638 -16.2196 165.728 -15.4689 163.645 -14.7701C159.496 -13.3102 154.72 -11.8212 149.406 -10.3004C138.776 -7.26096 125.973 -4.19934 111.578 -1.63173C97.1858 0.910981 81.2606 2.90572 64.5559 4.63268C47.8499 6.36519 31.9596 7.84791 17.5631 9.55896C10.3614 10.4238 3.5466 11.3018 -2.8113 12.2982C-8.70904 13.214 -14.5888 14.2442 -20.4474 15.3882C-25.2778 16.3302 -30.0872 17.3792 -34.872 18.5342C-39.0965 19.554 -42.6922 20.5753 -45.629 21.4304C-51.4849 23.1851 -54.6423 24.4464 -54.7998 24.1129C-54.9334 23.8458 -52.0041 21.9819 -46.242 19.6467C-42.7394 18.258 -39.1823 17.0139 -35.5795 15.9175C-31.3722 14.6292 -26.5403 13.3131 -21.1611 12.0338C-15.7826 10.7538 -9.85888 9.50499 -3.47016 8.33016C2.91994 7.15186 9.79153 6.11472 17.0104 5.12462C31.4596 3.15826 47.3897 1.53644 64.0608 -0.193295C80.7312 -1.91611 96.5605 -3.76485 110.851 -6.04187C125.129 -8.33965 137.908 -11.0311 148.548 -13.6195C153.868 -14.9154 158.665 -16.1601 162.844 -17.3598C164.946 -17.9286 166.87 -18.5437 168.662 -19.0584C170.431 -19.6313 172.071 -20.1032 173.516 -20.6014C179.335 -22.4999 182.467 -23.8138 182.631 -23.4873Z" fill="#A6A6A6"/>
</g>
<mask id="mask38_430_2437" style="mask-type:luminance" maskUnits="userSpaceOnUse" x="-30" y="-39" width="238" height="48">
<path d="M-29.7288 8.76367H207.71V-38.9313H-29.7288V8.76367Z" fill="white"/>
</mask>
<g mask="url(#mask38_430_2437)">
<path d="M207.706 -38.8862C207.839 -38.633 204.935 -36.7358 199.234 -34.2754C197.818 -33.6375 196.21 -33.0314 194.46 -32.3222C192.693 -31.6753 190.783 -30.928 188.7 -30.2327C184.551 -28.7783 179.774 -27.2963 174.459 -25.7803C163.83 -22.7526 151.026 -19.6993 136.635 -17.1386C122.245 -14.6021 106.322 -12.6108 89.6184 -10.8846C72.913 -9.15138 57.022 -7.66588 42.6241 -5.94791C35.4224 -5.08027 28.6063 -4.19882 22.247 -3.19765C16.3486 -2.27757 10.4684 -1.24253 4.60953 -0.0931231C-0.221193 0.854194 -5.03056 1.90938 -9.81508 3.07162C-14.0388 4.0977 -17.6339 5.12583 -20.5694 5.98793C-26.4232 7.75641 -29.5758 9.03226 -29.7251 8.71399C-29.8518 8.46145 -26.917 6.61342 -21.1522 4.29143C-17.6476 2.9116 -14.0897 1.67418 -10.487 0.582174C-6.27965 -0.699213 -1.44771 -2.00827 3.93011 -3.28274C9.3093 -4.55721 15.233 -5.80123 21.621 -6.97122C28.0098 -8.14536 34.88 -9.17836 42.0981 -10.1657C56.5467 -12.1251 72.4761 -13.7442 89.1472 -15.4739C105.82 -17.1967 121.65 -19.0489 135.944 -21.3321C150.225 -23.6368 163.004 -26.3373 173.644 -28.9368C178.963 -30.2382 183.76 -31.4884 187.939 -32.6944C190.039 -33.2666 191.963 -33.8852 193.755 -34.4034C195.523 -34.9798 197.163 -35.4551 198.607 -35.956C204.422 -37.8691 207.549 -39.1982 207.706 -38.8862Z" fill="#A6A6A6"/>
</g>
</g>
<mask id="mask39_430_2437" style="mask-type:luminance" maskUnits="userSpaceOnUse" x="-794" y="-269" width="1216" height="649">
<path d="M-793.56 379.893H421.402V-268.447H-793.56V379.893Z" fill="white"/>
</mask>
<g mask="url(#mask39_430_2437)">
<mask id="mask40_430_2437" style="mask-type:luminance" maskUnits="userSpaceOnUse" x="-218" y="-23" width="239" height="49">
<path d="M-217.065 25.5762H20.3751V-22.1285H-217.065V25.5762Z" fill="white"/>
</mask>
<g mask="url(#mask40_430_2437)">
<path d="M20.3709 -22.0791C20.512 -21.8113 17.6135 -19.8996 11.9159 -17.4247C10.5002 -16.7833 8.89271 -16.1738 7.14348 -15.4618C5.37713 -14.8115 3.46762 -14.0607 1.38485 -13.3619C-2.76358 -11.9013 -7.53936 -10.4131 -12.8542 -8.89159C-23.4831 -5.8528 -36.2872 -2.79047 -50.6824 -0.223544C-65.0742 2.31916 -80.9994 4.31525 -97.7041 6.04083C-114.41 7.77333 -130.3 9.25677 -144.697 10.9678C-151.899 11.8327 -158.713 12.71 -165.071 13.7063C-170.969 14.6226 -176.849 15.6527 -182.707 16.7963C-187.538 17.7384 -192.347 18.7874 -197.131 19.9424C-201.357 20.9622 -204.952 21.9841 -207.889 22.8386C-213.745 24.5933 -216.902 25.8553 -217.06 25.5218C-217.193 25.254 -214.264 23.3914 -208.502 21.0549C-204.999 19.6668 -201.442 18.4227 -197.84 17.3256C-193.632 16.0373 -188.8 14.722 -183.422 13.442C-178.043 12.162 -172.119 10.9139 -165.73 9.73902C-159.34 8.56003 -152.469 7.52286 -145.25 6.53276C-130.8 4.56779 -114.87 2.94462 -98.1993 1.21489C-81.5282 -0.507925 -65.6995 -2.35668 -51.4091 -4.63301C-37.1311 -6.93148 -24.3522 -9.62295 -13.7123 -12.2113C-8.39205 -13.5065 -3.59505 -14.7505 0.584197 -15.9517C2.68478 -16.5204 4.61006 -17.1348 6.40244 -17.6496C8.17085 -18.2232 9.81116 -18.6943 11.2563 -19.1925C17.0745 -21.0911 20.2065 -22.4056 20.3709 -22.0791Z" fill="#A6A6A6"/>
</g>
<mask id="mask41_430_2437" style="mask-type:luminance" maskUnits="userSpaceOnUse" x="-192" y="-38" width="238" height="49">
<path d="M-191.985 10.1719H45.4544V-37.5231H-191.985V10.1719Z" fill="white"/>
</mask>
<g mask="url(#mask41_430_2437)">
<path d="M45.4489 -37.478C45.5824 -37.2248 42.6784 -35.3276 36.9773 -32.8672C35.561 -32.2293 33.9529 -31.6232 32.2036 -30.9147C30.4366 -30.2678 28.5264 -29.5198 26.4436 -28.8245C22.2938 -27.3701 17.5167 -25.8881 12.2026 -24.3721C1.57362 -21.3444 -11.2305 -18.2911 -25.6223 -15.7304C-40.0113 -13.1946 -55.9345 -11.2026 -72.6385 -9.47637C-89.3431 -7.74387 -105.235 -6.25768 -119.633 -4.53971C-126.834 -3.67208 -133.651 -2.79062 -140.01 -1.78945C-145.908 -0.869705 -151.789 0.16533 -157.647 1.31507C-162.478 2.26219 -167.287 3.31713 -172.071 4.4791C-176.296 5.50587 -179.891 6.53402 -182.826 7.39612C-188.68 9.1646 -191.832 10.4411 -191.982 10.1222C-192.109 9.86964 -189.174 8.02162 -183.409 5.69963C-179.905 4.31949 -176.347 3.08207 -172.744 1.99037C-168.536 0.708984 -163.705 -0.600077 -158.326 -1.87454C-152.948 -3.14901 -147.024 -4.39303 -140.635 -5.56302C-134.247 -6.73716 -127.377 -7.77016 -120.159 -8.7575C-105.71 -10.7169 -89.7808 -12.336 -73.1097 -14.0657C-56.4372 -15.7885 -40.6065 -17.6407 -26.3134 -19.9239C-12.0319 -22.2286 0.746965 -24.9291 11.3869 -27.5292C16.7065 -28.83 21.5034 -30.081 25.682 -31.2869C27.7826 -31.8591 29.7065 -32.4777 31.4982 -32.9952C33.2666 -33.5716 34.9062 -34.0469 36.35 -34.5478C42.1655 -36.4609 45.292 -37.79 45.4489 -37.478Z" fill="#A6A6A6"/>
</g>
</g>
<mask id="mask42_430_2437" style="mask-type:luminance" maskUnits="userSpaceOnUse" x="-956" y="-268" width="1216" height="650">
<path d="M-955.806 381.297H259.162V-267.042H-955.806V381.297Z" fill="white"/>
</mask>
<g mask="url(#mask42_430_2437)">
</g>
</g>
</g>
</g>
<defs>
<linearGradient id="paint0_linear_430_2437" x1="0" y1="0" x2="80.018" y2="208.796" gradientUnits="userSpaceOnUse">
<stop stop-color="#0034AC"/>
<stop offset="1" stop-color="#00005D"/>
</linearGradient>
<clipPath id="clip0_430_2437">
<rect width="390" height="90" fill="white"/>
</clipPath>
<clipPath id="clip1_430_2437">
<rect width="390" height="90" fill="white"/>
</clipPath>
</defs>
</svg>
