<svg width="170" height="90" viewBox="0 0 170 90" fill="none" xmlns="http://www.w3.org/2000/svg">
<g clip-path="url(#clip0_2520_575)">
<path d="M12.3125 41.1349C33.1227 45.5174 61.8292 47.3501 88.3167 47.3501C114.804 47.3501 143.521 45.5274 164.331 41.1349V40.8361C146.509 43.8541 116.653 45.2186 88.3167 45.2186C59.9801 45.2186 30.1341 43.8441 12.3125 40.8262V41.125V41.1349Z" fill="#C6A27C"/>
<path d="M164.331 89.7015C143.521 85.309 114.804 83.4863 88.3167 83.4863C61.8292 83.4863 33.1227 85.309 12.3125 89.7015V89.9903C30.1341 86.9823 60.0001 85.5979 88.3167 85.5979C116.633 85.5979 146.509 86.9823 164.331 89.9903V89.7015Z" fill="#C6A27C"/>
<path d="M31.3925 56.1758C30.1231 58.875 27.6443 60.9069 23.956 60.9069C20.0079 60.9069 16.3096 58.5961 12.5614 58.6559C9.69274 58.7156 7.69368 59.6419 5.7446 61.3551L5.55469 62.0921C7.76365 60.1798 9.67275 59.2734 12.5514 59.2236C15.9098 59.1638 20.4877 61.4746 23.926 61.4746C27.6443 61.4746 30.313 59.5025 31.8623 56.1758H31.4025H31.3925Z" fill="#C6A27C"/>
<path d="M21.417 67.7194C17.4688 67.7194 13.7706 65.4086 10.0223 65.4684C7.15368 65.5281 5.15462 66.4544 3.20554 68.1676L3.01562 68.9046C5.22459 66.9923 7.13369 66.0859 10.0123 66.0361C13.3708 65.9763 17.9486 68.2871 21.387 68.2871C25.1052 68.2871 27.774 66.315 29.3232 62.9883H28.8735C27.6041 65.6875 25.1252 67.7194 21.427 67.7194H21.417Z" fill="#C6A27C"/>
<path d="M18.8879 74.5319C14.9398 74.5319 11.2415 72.2211 7.48326 72.2809C4.60462 72.3406 2.60556 73.2669 0.666473 74.9801L0.476562 75.7171C2.68552 73.8048 4.59462 72.8984 7.47327 72.8486C10.8317 72.7888 15.4095 75.0996 18.8479 75.0996C22.5662 75.0996 25.2349 73.1275 26.7842 69.8008H26.3344C25.055 72.5 22.5862 74.5319 18.8879 74.5319Z" fill="#C6A27C"/>
<path d="M10.0421 64.7312C14.0202 64.6515 17.6385 66.9822 21.4667 66.9822C25.105 66.9822 27.3239 64.8707 28.4134 62.022L28.3535 61.9922C26.5743 63.0878 25.2249 63.5958 22.7261 63.5958C18.5781 63.5958 15.4395 61.3946 11.3715 61.4543C7.61323 61.5141 4.0649 64.0141 2.51562 67.6794H2.54561C4.72459 65.8169 6.95354 64.781 10.0221 64.7213L10.0421 64.7312Z" fill="white"/>
<path d="M12.5733 57.9187C16.5515 57.8291 20.1698 60.1697 23.998 60.1697C27.6362 60.1697 29.8552 58.0582 30.9447 55.2095L30.8847 55.1797C29.1056 56.2753 27.7562 56.7833 25.2574 56.7833C21.1093 56.7833 17.9708 54.5821 13.9027 54.6418C10.1445 54.7016 6.59615 57.2016 5.04688 60.8669H5.07686C7.25584 59.0044 9.48479 57.9685 12.5633 57.9088L12.5733 57.9187Z" fill="white"/>
<path d="M18.9394 73.8045C22.5777 73.8045 24.7966 71.6929 25.8861 68.8443L25.8261 68.8144C24.047 69.91 22.6976 70.418 20.1988 70.418C16.0507 70.418 12.9122 68.2168 8.84411 68.2766C5.08588 68.3363 1.53755 70.8363 -0.0117188 74.5017H0.00827184C2.18725 72.6391 4.4162 71.6033 7.49475 71.5435C11.4729 71.4539 15.0912 73.7945 18.9194 73.7945L18.9394 73.8045Z" fill="white"/>
<path d="M73.6711 54.9512L73.3513 56.1066C75.7601 56.2261 76.6597 56.7141 75.99 58.8854L73.4312 67.1524C72.1818 71.1962 71.1123 72.0129 70.3527 72.0129C69.9729 72.0129 69.573 71.6942 69.603 71.0866C69.633 70.2201 70.5326 69.8416 71.2023 69.8416C70.9424 68.7958 70.1328 68.0787 68.9433 68.0787C67.3441 68.0787 66.4445 69.4133 66.3845 70.8874C66.3246 72.6504 67.8339 74.1544 69.8929 74.1544C71.9519 74.1544 73.6611 72.7699 75.2304 67.5906L77.7892 59.005C78.3089 57.242 79.1785 56.3157 80.9277 56.3157C82.6769 56.3157 82.9567 57.242 82.467 59.005L79.3285 70.0508C78.6888 72.2819 77.5293 72.6504 75.99 72.6504L75.6402 73.8058H85.0158L85.3656 72.6504C83.8263 72.6504 82.5769 72.2719 83.2166 70.0508L86.3751 58.9452C87.0148 56.7739 88.0044 56.2261 90.0934 56.1066L90.4132 54.9512H73.6711Z" fill="white"/>
<path d="M63.9889 70.0503V54.1738C62.7395 54.6918 61.0003 55.0404 59.461 55.1898L49.7356 69.5025C48.3163 71.6439 47.2368 72.6499 45.6975 72.6499L45.3477 73.8053H52.9841L53.3339 72.6499C51.7946 72.6499 50.4053 71.8432 51.6247 70.0503L53.124 67.8192H60.1307V70.0503C60.1007 72.2515 58.5015 72.6499 56.9722 72.6499L56.6224 73.8053H65.4182L65.7681 72.6499C64.7185 72.6499 63.9689 72.2714 63.9989 70.0503H63.9889ZM60.1207 66.2854H54.1435L59.7609 57.9189L60.1207 57.8392V66.2854Z" fill="white"/>
<path d="M47.7049 66.983C47.8748 62.5309 43.5268 61.9532 38.939 62.3516L40.7382 56.1066C45.5559 56.1066 47.2951 57.3516 48.0247 61.1066H49.2142L48.5145 54.9512H34.5811L34.2612 56.1066C35.8005 56.1066 36.73 56.485 36.0903 58.7062L32.8719 70.0408C32.2322 72.2719 31.0727 72.6404 29.5334 72.6404L29.1836 73.7958H38.5292C42.1875 73.7958 47.5549 71.246 47.6949 66.9731L47.7049 66.983ZM43.4669 67.1225C43.3769 69.4332 40.5382 72.6504 37.3997 72.6504C36.4702 72.6504 36.1203 72.2719 36.73 70.2201L38.4992 63.8257C42.2974 63.5966 43.5468 64.5528 43.4569 67.1225H43.4669Z" fill="white"/>
<path d="M145.357 70.5986L142.498 61.9034L145.477 59.7819C150.145 56.4552 150.994 56.1066 153.193 56.1066L153.513 54.9512H145.267L144.947 56.1066C146.367 56.1962 146.337 57.2022 144.488 58.5966L137.211 63.985L138.71 58.7161C139.35 56.485 140.539 56.1165 142.079 56.1165L142.399 54.9611H133.313L132.993 56.1165C134.532 56.1165 135.462 56.495 134.822 58.7161L131.604 70.0508C130.964 72.2819 129.834 72.6504 128.295 72.6504L127.945 73.8058H137.031L137.381 72.6504C135.842 72.6504 134.852 72.2719 135.492 70.0508L136.681 65.8775L139.2 64.1344L141.269 70.748C141.529 71.6145 141.209 72.6603 139.67 72.6603L139.32 73.8157H147.356L147.706 72.6603C146.517 72.5408 145.847 72.1125 145.357 70.6085V70.5986Z" fill="white"/>
<path d="M166.401 70.0503L166.021 54.1738C164.741 54.6918 162.802 55.0404 161.293 55.1898L152.237 69.3631C150.818 71.6141 149.858 72.4906 148.639 72.6599L148.289 73.8153H155.226L155.576 72.6599C154.476 72.6599 152.727 72.2515 154.096 70.0603L155.486 67.8292H162.213L162.252 70.0603C162.282 72.2615 160.713 72.6599 158.824 72.6599L158.474 73.8153H168.14L168.49 72.6599C167.3 72.6599 166.461 72.2814 166.401 70.0603V70.0503ZM156.435 66.2854L161.643 57.9288L162.053 57.8392L162.193 66.2854H156.445H156.435Z" fill="white"/>
<path d="M106.847 61.256L108.616 54.9512H92.4237L90.6545 61.256H91.6141C93.3533 58.1882 95.0425 56.3655 98.2609 56.1066L94.2828 70.0408C93.6431 72.2719 92.1938 72.6404 90.6545 72.6404L90.3047 73.7958H100.26L100.61 72.6404C99.0706 72.6404 97.5313 72.2619 98.171 70.0408L102.149 56.1066C105.198 56.3655 105.897 58.1882 105.897 61.256H106.857H106.847Z" fill="white"/>
<path d="M127.188 58.7159C127.858 56.4848 129.337 56.1163 130.877 56.1163L131.197 54.9609H122.111L121.791 56.1163C123.28 56.1163 123.93 56.4749 123.35 58.5366L113.475 67.6701L116.014 58.7259C116.653 56.4948 117.843 56.1263 119.382 56.1263L119.702 54.9709H110.616L110.296 56.1263C111.836 56.1263 112.765 56.5048 112.126 58.7259L108.907 70.0605C108.267 72.2916 107.108 72.6601 105.569 72.6601L105.219 73.8155H114.304L114.654 72.6601C113.175 72.6601 112.225 72.3115 112.735 70.2896L122.611 61.186L120.112 70.0605C119.472 72.2916 118.602 72.6601 117.063 72.6601L116.713 73.8155H125.799L126.149 72.6601C124.61 72.6601 123.36 72.2817 124 70.0605L127.188 58.7259V58.7159Z" fill="white"/>
<path d="M53.5615 74.6106H45.9551L45.7852 75.1883H54.0613L54.721 72.6484H54.1112L53.5615 74.6106Z" fill="#C6A27C"/>
<path d="M80.2094 57.2607C79.5697 57.201 79.2199 58.0675 78.8501 59.2826L76.1513 67.8185C74.4122 73.4858 72.4631 74.9599 70.0842 74.9599C68.7448 74.9599 68.1151 74.6711 67.4454 74.2129L67.3555 74.5615C67.8153 75.0794 68.7148 75.6073 70.0842 75.6073C72.523 75.6073 74.8419 74.3623 76.821 68.0277L80.2194 57.2707L80.2094 57.2607Z" fill="#C6A27C"/>
<path d="M65.9248 74.6104H57.3088L57.1289 75.1881H66.4445L66.7944 73.7738L66.3945 73.0566L65.9248 74.6104Z" fill="#C6A27C"/>
<path d="M29.7637 74.6118L29.5938 75.1895H38.4696C41.3982 75.1895 43.3773 74.4424 44.6467 73.3369V72.7891C43.0774 74.0042 40.9884 74.6118 38.5195 74.6118H29.7537H29.7637Z" fill="#C6A27C"/>
<path d="M41.9568 57.5189C43.3761 57.5189 45.0353 57.9571 45.845 58.4751L45.9349 58.1862C45.0353 57.3197 43.4061 56.8516 41.437 56.8516L40.0977 61.4233H40.8273L41.9568 57.5189Z" fill="#C6A27C"/>
<path d="M52.5214 71.7525L54.0906 69.2027H59.4281V68.625H53.6208L52.1415 70.9955C51.9116 71.3142 52.0816 71.7226 52.5214 71.7425V71.7525Z" fill="#C6A27C"/>
<path d="M59.8277 60.3887H59.0781L55.6797 65.5978L56.4693 65.6178L59.8277 60.3887Z" fill="#C6A27C"/>
<path d="M117.613 59.1424C118.073 57.6086 118.802 57.5787 120.481 57.5488L121.261 54.9492H120.561L119.982 56.9413C118.442 56.9711 117.453 57.1703 116.903 59.0528L115.254 64.6604H115.984L117.613 59.1325V59.1424Z" fill="#C6A27C"/>
<path d="M143.332 57.5488L144.111 54.9492H143.411L142.832 56.9413C141.292 56.9711 139.983 57.1703 139.463 59.0528L138.594 62.1803L139.493 61.5428L140.163 59.1424C140.603 57.6086 141.642 57.5787 143.322 57.5488H143.332Z" fill="#C6A27C"/>
<path d="M131.865 57.5488L132.644 54.9492H131.945L131.365 56.9413C129.826 56.9711 128.496 57.1703 127.997 59.0528L124.858 70.5369C124.688 71.2042 124.948 71.5229 125.298 71.6325L128.696 59.1424C129.106 57.6086 130.176 57.5787 131.855 57.5488H131.865Z" fill="#C6A27C"/>
<path d="M167.937 71.5533L167.588 54.3223L166.918 54.4916L167.268 70.1091C167.298 70.9159 167.528 71.5832 167.937 71.5533Z" fill="#C6A27C"/>
<path d="M65.5173 71.5533L65.6073 54.3223L64.9376 54.4916L64.8477 70.1091C64.8477 70.9159 65.1075 71.5832 65.5173 71.5533Z" fill="#C6A27C"/>
<path d="M37.9797 71.6632L39.7188 65.1293C40.9083 65.1293 41.8079 65.1592 42.4176 65.8564L42.5375 65.5974C42.0178 64.7309 41.0582 64.5018 39.1691 64.6114L37.5199 70.6273C37.29 71.4341 37.5199 71.6731 37.9797 71.6731V71.6632Z" fill="#C6A27C"/>
<path d="M48.7142 62.4094H50.7732L49.9936 54.9492H49.2939L50.0235 61.8317H48.5742L48.7142 62.4094Z" fill="#C6A27C"/>
<path d="M110.037 54.9492H109.397L107.428 62.011H106.148V62.5887H108.008L110.037 54.9492Z" fill="#C6A27C"/>
<path d="M46.4844 71.4631H47.0941C48.1936 70.3675 49.2431 68.8038 49.3031 66.9811C49.363 65.8556 48.9532 65.0986 48.4335 64.5508L48.2336 64.7002C48.4934 65.3376 48.6434 66.005 48.5834 66.9811C48.5234 68.6842 47.7438 70.1584 46.4944 71.4631H46.4844Z" fill="#C6A27C"/>
<path d="M146.64 69.5508L144.231 62.3496L146.32 60.8456C150.728 57.6683 151.308 57.5488 154.356 57.5488L155.136 54.9492H154.436L153.857 56.9413C150.958 56.9413 150.378 57.2002 145.99 60.3277L143.352 62.1803L146.02 69.8695C146.51 71.2839 147.27 71.8317 148.139 71.8915L148.199 71.5428C147.71 71.4233 147.13 70.9652 146.63 69.5508H146.64Z" fill="#C6A27C"/>
<path d="M140.051 75.189H147.707L147.877 74.6113H140.221L140.051 75.189Z" fill="#C6A27C"/>
<path d="M155.833 74.6106H148.896L148.727 75.1883H156.323L156.993 72.6484H156.353L155.833 74.6106Z" fill="#C6A27C"/>
<path d="M137.642 74.6106H128.906L128.727 75.1883H138.132L138.802 72.6484H138.162L137.642 74.6106Z" fill="#C6A27C"/>
<path d="M136.685 71.6331L138.394 65.418L137.555 65.9957L136.245 70.5375C136.045 71.2048 136.335 71.5235 136.685 71.6331Z" fill="#C6A27C"/>
<path d="M169.358 72.6484L168.838 74.6106H158.973L158.793 75.1883H169.328L169.998 72.6484H169.358Z" fill="#C6A27C"/>
<path d="M154.934 71.8419L156.274 69.2124H161.671V68.6348H155.864L154.525 71.0053C154.325 71.324 154.495 71.8121 154.934 71.8419Z" fill="#C6A27C"/>
<path d="M162.012 60.3887H161.292L158.184 65.5978L158.943 65.6178L162.012 60.3887Z" fill="#C6A27C"/>
<path d="M100.899 74.6106H91.0041L90.8242 75.1883H101.389L102.059 72.6484H101.419L100.899 74.6106Z" fill="#C6A27C"/>
<path d="M98.9793 70.4175C98.7794 71.1645 99.0393 71.5131 99.4191 71.6327L103.247 57.29L102.608 57.1406L98.9793 70.4175Z" fill="#C6A27C"/>
<path d="M75.3615 58.7142L75.5914 57.9672C75.4715 57.2998 74.8918 56.7819 73.8522 56.8118L73.6523 57.3596C75.0417 57.3895 75.3016 58.1664 75.3615 58.7142Z" fill="#C6A27C"/>
<path d="M126.348 74.6106H117.322L117.152 75.1883H126.838L127.507 72.6484H126.868L126.348 74.6106Z" fill="#C6A27C"/>
<path d="M91.7841 54.9492H91.0845L90.5047 56.9413C88.9655 56.9711 87.776 57.1703 87.1363 59.4313L84.0278 70.4173C83.8279 71.1644 83.9978 71.513 84.4676 71.6325L87.776 59.511C88.3857 57.3397 89.4852 57.6285 90.9945 57.5488L91.7741 54.9492H91.7841Z" fill="#C6A27C"/>
<path d="M85.5455 74.6106H76.5198L76.3398 75.1883H86.0353L86.705 72.6484H86.0653L85.5455 74.6106Z" fill="#C6A27C"/>
<path d="M120.723 63.9746L113.526 70.5682L113.496 71.375L120.693 64.7814L120.723 63.9746Z" fill="#C6A27C"/>
<path d="M114.713 74.6106H105.688L105.508 75.1883H115.203L115.873 72.6484H115.233L114.713 74.6106Z" fill="#C6A27C"/>
<path d="M97.2131 57.8986L97.273 57.291C95.214 57.3807 93.5048 59.283 92.1654 62.0022H90.916L90.7461 62.5799H92.5153C93.8246 59.801 95.214 58.0081 97.2131 57.8986Z" fill="#C6A27C"/>
<path d="M67.3477 28.0174L67.5176 28.5353C67.9174 28.4755 68.3872 28.4158 68.677 28.3062L68.5571 27.7285C68.2073 27.848 67.8074 27.9576 67.3477 28.0174Z" fill="#C6A27C"/>
<path d="M67.7457 29.572C68.1456 29.6318 68.6153 29.572 68.9552 29.572L68.8352 28.8848C68.4854 29.0043 68.0856 29.0541 67.6758 29.1138L67.7358 29.572H67.7457Z" fill="#C6A27C"/>
<path d="M68.0371 23.8154L69.4964 24.0345C69.5164 23.9349 69.5464 23.8254 69.5764 23.7258C68.9067 23.4867 68.227 23.4668 67.8672 23.4668L68.0371 23.8154Z" fill="#C6A27C"/>
<path d="M69.606 33.5353C69.566 33.3859 69.526 33.2265 69.4861 33.0771L67.3471 33.0273L67.1172 33.4855C68.1067 33.5652 69.0463 33.5652 69.606 33.5353Z" fill="#C6A27C"/>
<path d="M67.9258 30.3193V30.897L69.1152 30.9767C69.0852 30.7476 69.0553 30.5086 69.0353 30.2695C68.6654 30.3094 68.2756 30.3094 67.9258 30.3094V30.3193Z" fill="#C6A27C"/>
<path d="M68.2656 24.4414L68.4355 24.9593L69.2751 25.0291C69.3051 24.8896 69.3151 24.7402 69.3451 24.5908L68.2656 24.4414Z" fill="#C6A27C"/>
<path d="M66.8256 26.9822L66.7656 27.1515L67.0555 27.4404C67.5153 27.4404 68.035 27.271 68.3849 27.1515L68.2149 26.6934C67.9251 26.8129 67.3453 26.9224 66.8256 26.9822Z" fill="#C6A27C"/>
<path d="M69.2242 31.7637L67.7449 31.8135L67.625 32.2716L69.3042 32.3115C69.2642 32.1322 69.2542 31.943 69.2242 31.7637Z" fill="#C6A27C"/>
<path d="M50.8251 27.2105C50.5952 26.5233 50.5353 25.8858 50.6552 25.1388H51.055C51.055 26.0054 51.1749 26.6329 51.5748 27.3799H51.8047C51.6347 26.6926 51.5148 26.0552 51.5748 25.3679H51.9746C51.9746 26.1747 52.2045 26.7524 52.6143 27.4396H52.9041C52.6143 26.8022 52.4444 26.1149 52.5543 25.4277H52.9041C52.9641 26.1149 53.134 26.7524 53.4839 27.3301H53.7138C53.5438 26.6428 53.4239 26.0054 53.4239 24.9695C53.254 24.5711 50.9351 23.4157 48.7461 24.3918C48.866 25.1388 49.1459 25.7763 49.4957 26.2942H49.7256C49.5557 25.7763 49.5557 25.3181 49.6057 24.7404H50.0055C50.0055 25.3779 50.2354 26.4137 50.5852 27.2205H50.8151L50.8251 27.2105Z" fill="#C6A27C"/>
<path d="M47.6474 18.6844C47.4774 19.6605 47.5274 20.4672 47.7073 21.0449H47.8773C47.8173 20.4672 47.9372 19.9493 48.0472 19.4314L48.447 19.4911C48.3271 20.3577 48.387 21.274 48.6169 22.1405H48.7868C48.6669 21.4533 48.7269 20.7561 48.8468 20.0688H49.2466C49.1866 20.9354 49.3066 21.9115 49.5965 22.7182H49.7664C49.7064 22.031 49.7064 21.3338 49.8263 20.6465H50.2262C50.2262 21.1644 50.2861 21.6226 50.3461 22.0907C50.3461 22.3198 50.4061 22.5489 50.466 22.7282H50.6959C50.636 22.2103 50.6959 21.6923 50.7559 21.1744H51.2157C51.0957 21.6923 51.1557 22.0907 51.4456 23.0768H51.7354C51.6155 22.3298 51.5655 21.2342 51.9054 20.0788C51.2157 19.1625 50.2262 18.4652 47.6274 18.6943L47.6474 18.6844Z" fill="#C6A27C"/>
<path d="M44.5864 22.0311C44.5864 23.2363 44.8763 23.9933 45.1062 24.561L45.336 24.4415C45.2761 24.0431 45.2161 23.6347 45.2761 23.2363L45.6759 23.2961C45.6759 24.1028 45.9058 24.9096 46.2556 25.6566L46.4855 25.5969C46.2556 25.0192 46.1956 24.2124 46.2556 23.4056L46.6554 23.4654C46.7154 24.3319 46.8853 25.2483 47.3451 26.055L47.575 25.9953C47.3451 25.4176 47.1752 24.6706 47.2252 23.8638H47.625C47.625 25.069 47.9748 25.5869 48.4346 26.2841L48.6645 26.1646C48.4346 25.7064 48.1447 25.0092 48.0848 23.9734L48.9543 23.6845C47.9148 21.7224 45.7758 21.6726 44.5664 22.0112L44.5864 22.0311Z" fill="#C6A27C"/>
<path d="M68.6741 25.5373C68.814 25.9357 68.9239 26.3341 69.0439 26.7325C69.0439 26.7126 69.0439 26.6827 69.0439 26.6628C69.0439 26.613 69.0539 26.5732 69.0639 26.5234C69.0939 26.2246 69.1438 25.9158 69.1838 25.617L68.6641 25.5273L68.6741 25.5373Z" fill="#C6A27C"/>
<path d="M46.5451 27.0312C45.2157 26.8021 43.8264 26.8021 43.1367 27.0312C43.2567 27.5491 43.4866 28.067 43.7764 28.4754L43.8964 28.4157C43.8364 28.1268 43.7764 27.7284 43.8364 27.32L44.2962 27.3798C44.2962 27.7782 44.4161 28.2463 44.586 28.6447H44.706C44.646 28.2961 44.646 27.838 44.706 27.4894L45.1658 27.5491C45.1658 28.0073 45.3357 28.5252 45.5656 29.1627H45.9154C45.7455 28.585 45.6855 28.0073 45.6855 27.5491C45.9754 27.4296 46.2053 27.3798 46.5551 27.3798V27.0312H46.5451Z" fill="#C6A27C"/>
<path d="M60.6393 15.1796C60.9892 14.831 61.329 14.3728 61.449 13.9744L61.2191 13.6855C60.5794 14.4326 59.7797 15.0102 58.9102 15.4087L59.4899 15.9266C59.8897 15.7573 60.2995 15.5282 60.6493 15.1796H60.6393Z" fill="#C6A27C"/>
<path d="M59.6587 11.9512C58.8491 12.4691 57.9795 12.8675 57 12.987L57.1699 13.6245C57.6897 13.5647 58.2094 13.3954 58.6692 13.2261C59.129 12.997 59.6488 12.7081 59.9986 12.3595L59.6488 11.9611L59.6587 11.9512Z" fill="#C6A27C"/>
<path d="M58.1002 14.8899C58.6199 14.7704 59.1397 14.5413 59.5495 14.2524C60.0093 13.9636 60.4191 13.5652 60.709 13.0971L60.539 12.9277C59.6195 13.5652 58.6299 14.0831 57.4805 14.3122C57.5404 14.4317 57.6004 14.5413 57.6504 14.601L58.1102 14.8899H58.1002Z" fill="#C6A27C"/>
<path d="M66.3086 23.585L66.4785 24.2224C66.7684 24.1626 67.0582 24.0531 67.2881 23.9336L67.1182 23.5352L66.3086 23.5949V23.585Z" fill="#C6A27C"/>
<path d="M60.8694 15.8665L61.3292 16.0956C61.729 15.8665 62.0788 15.4581 62.3087 15.0597L61.9589 14.6016C61.609 15.0597 61.2692 15.4681 60.8594 15.8665H60.8694Z" fill="#C6A27C"/>
<path d="M61.9685 20.4682C62.0884 20.1794 62.1984 19.8906 62.7181 19.3726L63.6977 19.9503C62.8881 18.0479 61.0989 16.8427 60.4592 16.4941C59.8795 17.0718 59.7695 17.9882 59.7695 18.4563L60.0594 18.6854L60.4092 17.9981L60.7591 18.1176L60.5891 19.0937L60.7591 19.2631L61.1089 18.5758L61.4587 18.6953L61.2288 19.6714L61.3988 19.8408L61.7486 19.0937L62.0984 19.2631L61.8086 20.2989L61.9785 20.4682H61.9685Z" fill="#C6A27C"/>
<path d="M62.7773 17.1914L63.0072 17.4205L63.7569 17.0719L63.527 16.793L62.7773 17.1914Z" fill="#C6A27C"/>
<path d="M61.918 16.5033L62.1978 16.7323L63.1874 16.2144L62.7776 15.6367L61.918 16.5033Z" fill="#C6A27C"/>
<path d="M56.6598 20.6474L57.0097 20.7072C56.9497 20.4781 56.9497 20.0697 57.1296 19.6713L57.5294 19.7908C57.4095 20.3685 57.4695 20.7072 57.7593 21.1753L57.9293 21.1155C57.8693 20.8267 57.9293 20.4283 58.0492 20.1394L58.449 20.259C58.389 20.6076 58.449 21.006 58.5689 21.2948H58.7389C58.7988 21.006 58.8588 20.7769 58.9688 20.5478L59.3686 20.7171C59.2486 21.0657 59.2486 21.4642 59.4285 21.753L59.5985 21.6932C59.5985 21.5239 59.6584 21.2948 59.7684 21.0558L60.1682 21.1753C60.0483 21.5239 60.1082 21.8626 60.3381 22.0916L60.4581 22.0319C60.4581 21.8626 60.518 21.6833 60.578 21.4542L60.9778 21.6235C60.9178 21.9124 60.9778 22.0817 61.2077 22.261C61.2677 21.9721 61.3277 21.743 61.4376 21.4542C61.1477 20.8765 59.7084 18.6952 56.8698 17.5996C56.6998 18.2371 56.41 19.5618 56.6399 20.6474H56.6598Z" fill="#C6A27C"/>
<path d="M64.5664 25.4773L64.9162 25.6467L64.4564 26.563L64.6264 27.0212C64.7463 26.6228 64.9162 26.2741 65.0861 26.0451C65.436 26.1048 65.7258 26.2741 66.0657 26.5032C66.0657 26.0451 65.9457 25.2383 65.5459 23.8538C64.9062 21.8419 63.5269 20.7463 62.9471 20.3379C62.0775 21.5431 61.9076 22.6387 61.8477 23.0471L61.9076 23.1068C62.1375 22.8777 62.3074 22.5889 62.5473 22.3598L62.8972 22.5889C62.7272 22.8777 62.4974 23.1666 62.4374 23.5052L62.5573 23.6247C62.7272 23.3957 62.9571 23.1666 63.197 22.9873L63.4869 23.2761C63.317 23.5052 63.137 23.7941 63.0271 24.1427L63.147 24.2622C63.317 24.0929 63.6068 23.9136 63.8367 23.804L64.0666 24.2024L63.5469 24.7801L63.6668 25.0092C63.8367 24.8399 64.0666 24.7204 64.2465 24.6108L64.5364 24.9594L64.0166 25.7064L64.1366 25.8757L64.5964 25.4773H64.5664Z" fill="#C6A27C"/>
<path d="M66.8881 26.3447C67.2879 26.3447 67.7577 26.2251 68.0476 26.1156L67.9276 25.5977C67.6377 25.7172 67.2379 25.8267 66.8281 25.8865L66.8881 26.3447Z" fill="#C6A27C"/>
<path d="M52.6744 23.5847L52.7944 23.7042C52.7344 23.1863 52.7944 22.6086 52.9143 22.1504L53.4341 22.2102C53.3741 22.6086 53.3741 23.017 53.4341 23.3656C53.4341 23.5947 53.554 23.9433 53.6639 24.1724H53.8938C53.7739 23.6544 53.8339 23.1365 53.8938 22.6186H54.4136C54.3536 23.017 54.4136 23.4253 54.5335 23.8237C54.5335 23.9433 54.6535 24.1724 54.7035 24.3417H54.9334C54.8734 23.9433 54.8734 23.4751 54.9334 23.017L55.3931 23.0767C55.3931 23.5349 55.5131 24.2321 55.683 24.5708H55.9129C55.8529 24.2222 55.8529 23.764 55.9729 23.4154H56.3227C56.3827 24.0528 56.3827 24.2819 56.6126 24.6206L56.8425 24.6803C56.7225 24.1026 56.6126 22.9572 56.9624 21.9214C55.693 20.4771 53.3841 20.3078 52.6344 20.248C52.2346 21.8018 52.5745 23.2461 52.6944 23.5847H52.6744Z" fill="#C6A27C"/>
<path d="M63.4766 17.997L63.7564 18.3954L64.4561 18.1664L64.1662 17.6484L63.4766 17.997Z" fill="#C6A27C"/>
<path d="M65.957 22.6596L66.127 23.0679L66.8866 22.8886L66.7067 22.4902L65.957 22.6596Z" fill="#C6A27C"/>
<path d="M66.6484 24.7908L66.7684 25.3087C67.1182 25.249 67.4581 25.1394 67.6879 25.0796L67.518 24.502C67.2881 24.6215 66.9383 24.731 66.6484 24.7908Z" fill="#C6A27C"/>
<path d="M65.4961 21.8533L65.726 22.2617L66.4756 22.0326L66.3057 21.5645L65.4961 21.8533Z" fill="#C6A27C"/>
<path d="M64.918 20.9951V21.0449L65.2078 21.4533L66.0774 21.1644L65.8475 20.6465L64.918 20.9951Z" fill="#C6A27C"/>
<path d="M64.2266 19.0943L64.4565 19.672L65.2061 19.433L64.8563 18.8652L64.2266 19.0943Z" fill="#C6A27C"/>
<path d="M64.6289 20.0689L64.8088 20.5869L65.6084 20.2382L65.3786 19.8398L64.6289 20.0689Z" fill="#C6A27C"/>
<path d="M132.514 22.8876C132.344 23.5748 132.114 24.2123 131.824 24.79C131.884 24.79 131.944 24.79 132.054 24.8497C132.454 24.3318 132.744 23.7541 132.804 23.1266H133.204C133.204 23.7043 133.034 24.2223 132.804 24.6804H132.974C133.324 24.2223 133.493 23.7641 133.553 23.1864H133.953C133.953 23.5848 133.893 23.9334 133.833 24.2223H133.953C134.123 23.8736 134.303 23.535 134.353 23.1266C134.123 22.9573 133.603 22.4394 132.504 22.8976L132.514 22.8876Z" fill="#C6A27C"/>
<path d="M114.832 21.4542L115.002 21.9124L115.462 21.8526C115.582 21.5638 115.692 21.1653 115.692 20.9363L116.151 20.8167C116.211 21.1056 116.211 21.504 116.151 21.7928H116.501C116.731 21.2151 116.791 20.5279 116.621 20.01L117.081 19.8406C117.251 20.4183 117.371 20.996 117.251 21.5638H117.601C117.831 20.8765 117.831 20.0697 117.541 19.3227L118.001 19.2032C118.29 19.7809 118.4 20.4084 118.29 21.1056H118.64C118.87 20.3586 118.81 19.5518 118.58 18.745L118.98 18.5757C119.33 19.1534 119.38 20.01 119.33 20.6474H119.62C119.91 19.5518 119.62 18.2271 119.45 17.5996C116.561 18.6952 115.122 20.996 114.832 21.4542Z" fill="#C6A27C"/>
<path d="M123.56 23.1765L123.79 23.1168C123.91 22.4793 124.02 21.3937 123.73 20.2383C122.921 20.298 120.672 20.4674 119.402 21.9116C119.632 22.5988 119.572 23.4654 119.522 24.0431H119.812C120.042 23.4654 120.102 22.8379 120.042 22.2602L120.392 22.2004C120.562 22.8379 120.622 23.3558 120.622 23.9833H120.912C121.032 23.4056 121.082 22.7781 121.082 22.1407L121.431 22.0809C121.551 22.6586 121.661 23.2861 121.661 23.8638L121.891 23.804C122.061 23.1666 122.121 22.4196 122.061 21.7921L122.411 21.6725C122.641 22.31 122.701 22.9375 122.701 23.5749L122.931 23.5152C123.161 22.8279 123.101 22.0211 123.051 21.3239L123.4 21.2044C123.57 21.8419 123.57 22.5291 123.57 23.1666L123.56 23.1765Z" fill="#C6A27C"/>
<path d="M112.586 20.0097L113.625 19.3723C113.915 19.6611 114.205 20.1193 114.435 20.5276L114.665 20.4081C114.545 19.8304 114.205 19.2029 113.795 18.8543L114.025 18.5655C114.425 18.7348 114.665 18.9639 114.945 19.3125L115.175 19.193C115.005 18.7348 114.775 18.3264 114.425 18.0376L114.715 17.7487C115.005 17.9181 115.295 18.2069 115.585 18.5555L115.814 18.436C115.814 17.7487 115.645 16.9918 115.415 16.7129C114.775 17.1113 113.336 18.1472 112.586 19.9898V20.0097Z" fill="#C6A27C"/>
<path d="M112.176 25.6582L112.406 25.4889C112.116 24.8514 111.596 24.2239 111.076 23.706L111.306 23.3574C111.886 23.706 112.466 24.1044 112.926 24.6223L113.095 24.3932C112.696 23.8155 112.286 23.1881 111.826 22.6701L112.116 22.3813C112.696 22.7797 113.215 23.2478 113.735 23.7657L113.855 23.6462C113.565 22.959 113.165 22.202 112.646 21.5745L112.936 21.2857C113.455 21.6841 113.855 22.1522 114.205 22.6104L114.375 22.4908C114.255 21.9132 113.975 21.1661 113.395 20.3594C111.316 21.6243 110.047 24.9112 110.277 26.5745L110.567 26.3454L110.627 25.708L110.856 25.6482C111.146 25.9371 111.316 26.1064 111.546 26.8036L111.836 26.7438C111.606 26.1064 111.316 25.3594 110.797 24.9012L111.026 24.5526C111.546 24.8414 111.836 25.1901 112.186 25.6482L112.176 25.6582Z" fill="#C6A27C"/>
<path d="M131.187 24.3326C131.417 23.8146 131.647 23.1772 131.707 22.5497C131.067 22.3804 129.278 22.0318 127.659 23.6453L128.119 23.9342C128.059 24.5716 127.829 25.3186 127.539 25.9461L127.829 26.0656C128.229 25.4282 128.639 24.5716 128.639 23.7051L129.098 23.6453C129.158 24.2828 129.098 24.9102 128.928 25.4879H129.158C129.448 24.8007 129.618 24.0437 129.618 23.2967L130.018 23.2369C130.138 23.9242 130.078 24.6214 129.898 25.3087H130.128C130.418 24.5616 130.528 23.7549 130.528 22.9481L130.927 22.8883C130.987 23.3465 130.987 23.8047 130.927 24.2728L131.157 24.3326H131.187Z" fill="#C6A27C"/>
<path d="M49.373 28.6449C49.433 29.3321 49.6029 29.9098 50.0627 30.4278L50.4125 30.368C50.2426 29.7903 50.1227 29.2724 50.0127 28.6947C48.5634 27.2007 47.0041 27.7784 46.4844 28.0572C46.6043 28.7445 46.6543 29.3222 46.9442 29.8401L47.294 29.9596C47.1741 29.3819 47.0641 28.8043 47.1741 28.2365H47.5239C47.4639 28.9238 47.6438 29.6708 47.9837 30.2485L48.2735 30.3082C48.1036 29.7903 48.0436 29.1529 48.1536 28.5254H48.5034C48.5034 29.2126 48.6733 29.9098 49.0232 30.4875H49.373C49.0832 29.9098 48.9732 29.2823 49.0232 28.6449H49.373Z" fill="#C6A27C"/>
<path d="M125.869 26.0559L126.158 26.1156C126.278 25.6575 126.388 25.1396 126.388 24.6714L126.738 24.6117C126.798 25.0101 126.738 25.3587 126.738 25.7073L127.028 25.767C127.198 25.3089 127.378 24.9005 127.428 24.3826C126.508 23.9244 124.659 23.3467 122.75 24.9603L122.81 25.02L123.1 25.0798V25.3686L122.93 26.7531L123.28 26.8726C123.51 26.3547 123.68 25.8368 123.68 25.2591H124.079C124.139 25.777 124.079 26.2949 123.959 26.7531L124.249 26.8129C124.419 26.2949 124.539 25.7172 124.539 25.1396L124.939 25.0798C124.999 25.538 124.999 25.9961 124.939 26.4643H125.229C125.399 25.9463 125.459 25.4284 125.459 24.8507H125.859C125.919 25.2491 125.919 25.6575 125.859 26.0559H125.869Z" fill="#C6A27C"/>
<path d="M111.884 30.6665L112.174 30.4972C111.944 29.5809 111.484 28.2562 110.844 27.041C110.385 27.3299 109.345 28.1366 109.285 30.0888C109.285 31.2442 109.685 32.051 110.265 32.6187L110.555 32.2701C109.975 31.4633 109.635 30.3677 109.805 29.2721H110.155C110.215 30.0789 110.555 30.8259 111.024 31.5131L111.314 31.2243C110.854 30.3079 110.625 29.3219 110.505 28.286H110.854C111.084 29.1526 111.434 29.8996 111.894 30.6466L111.884 30.6665Z" fill="#C6A27C"/>
<path d="M69.9638 34.7714C69.9038 34.5822 69.8338 34.393 69.7739 34.2037C68.7343 34.2635 67.6948 34.2635 66.7053 34.1738L66.3555 34.6918C68.1646 34.9009 69.3541 34.8312 69.9638 34.7714Z" fill="#C6A27C"/>
<path d="M130.547 29.2828C130.896 28.7051 131.066 28.0776 131.126 27.3804H131.476C131.536 27.729 131.536 28.1274 131.536 28.476H131.766C131.886 28.1274 131.996 27.729 131.996 27.3207H132.346C132.406 27.6095 132.406 27.8983 132.406 28.1872H132.576C132.805 27.8386 132.925 27.4402 133.035 27.0916C132.636 26.9721 131.596 26.6334 129.917 26.9223L129.797 27.3207C130.147 27.4402 130.377 27.5497 130.666 27.7191C130.666 28.1772 130.497 28.8744 130.317 29.2728H130.547V29.2828Z" fill="#C6A27C"/>
<path d="M133.494 26.4042L134.134 26.693C133.844 28.5954 132.634 30.0894 131.125 31.1253C131.585 31.2448 132.045 31.4739 132.224 31.703C132.055 32.0516 131.705 32.3404 131.355 32.5695L134.823 33.7249C136.502 31.0157 140.481 26.2946 142.33 25.0894L142.62 25.4879L141.98 26.0655L142.62 26.2946L142.56 26.5237L141.52 26.4639L141.17 26.8624L142.15 27.211L142.09 27.44L140.641 27.2707L140.291 27.6691L141.74 27.958V28.2468L139.891 28.1273L139.491 28.5855L141.22 28.8145V29.1632L139.081 29.0436L138.681 29.442L140.411 29.6711L140.351 30.0197H138.272L138.042 30.3086L139.601 30.5974L139.541 30.8863L137.692 30.8265L137.402 31.1751L138.731 31.4639L138.671 31.7528L137.052 31.6333L136.762 32.0914L138.152 32.3205L138.092 32.6691L136.413 32.5496L136.183 33.0078L137.862 33.2966L137.802 33.6452L135.833 33.5257L135.603 33.9241C136.992 34.3823 138.432 34.7309 139.821 35.0197C140.74 34.1034 141.73 33.2966 142.879 32.7787L143.109 33.1771C142.13 33.7548 141.09 34.442 140.8 35.1891C141.72 35.3584 142.53 35.4779 143.569 35.4779L144.149 34.8404L143.689 34.2628L144.439 33.8643L143.859 33.1173L144.549 32.6592L144.149 32.201L144.499 31.3345L143.579 31.6831L142.999 31.5137L142.42 32.1512L141.73 31.8624L141.44 32.5496H140.75L140.581 33.0675L139.941 33.1273V34.1632H138.611V33.0078L139.531 32.7189L139.651 32.0317H140.461L140.581 31.5137L141.45 31.454L141.33 30.8165L142.2 30.5875L142.03 29.8404L142.78 29.6114L142.49 28.9241L143.239 28.5257L142.78 27.8883L143.419 27.3703L142.959 26.7926L143.709 26.2747L143.019 25.7568L143.659 25.1193L142.969 24.7209L143.199 23.8544L142.28 24.203L141.53 23.8544L141.13 24.7209L140.211 24.3723L139.981 25.2388L138.941 25.1193L138.771 25.9261L137.852 25.6373L137.682 26.5038H136.812L136.932 27.191L136.293 27.3106L136.462 27.9978L135.883 28.1671L136.113 28.8544L135.133 29.203L135.593 30.4082L134.034 30.9859L133.574 29.4321L134.673 28.8544L134.553 28.0476L135.303 27.8783L135.183 27.1313L135.763 27.0118L135.533 26.4341L136.053 26.1452L135.653 25.5675L136.522 25.1094L136.003 24.4719L136.752 24.1233L136.293 23.4859L136.982 23.197L136.862 22.5098H135.993L135.823 23.2568L135.183 23.197C135.063 24.7508 134.144 25.7867 133.504 26.3643L133.494 26.4042Z" fill="#C6A27C"/>
<path d="M114.893 26.8621L115.063 26.6331C115.003 25.9458 114.773 25.4777 114.423 24.9099L114.773 24.5613C115.123 25.0195 115.463 25.4777 115.643 26.0056L115.993 25.7167C115.933 25.0793 115.703 24.5613 115.413 24.1032L115.813 23.8741C116.103 24.2227 116.392 24.7406 116.562 25.2586L116.912 25.0892C116.912 24.6311 116.742 24.0534 116.512 23.5952L116.912 23.3661C117.202 23.7645 117.372 24.2825 117.492 24.8103L117.782 24.6908C117.842 24.1729 117.782 23.655 117.662 23.137L118.122 22.9677C118.292 23.4259 118.411 23.9438 118.411 24.4119L118.761 24.3522C118.881 23.8343 118.931 22.9677 118.701 22.2207C114.133 23.3163 112.524 25.3283 112.234 28.3263H112.584C112.644 27.8084 112.934 27.2904 113.224 26.892L113.974 28.0474L114.263 27.6988C114.093 27.0115 113.864 26.4339 113.574 25.8562L113.974 25.4578C114.323 25.9159 114.613 26.3741 114.893 26.902V26.8621Z" fill="#C6A27C"/>
<path d="M129.277 29.971C129.567 29.5128 129.677 28.8754 129.857 28.0686C129.277 27.7798 127.718 27.2021 126.279 28.7061C126.219 29.2838 126.109 29.8017 125.879 30.3794L126.229 30.4391C126.579 29.8614 126.689 29.2838 126.808 28.6563H127.268C127.268 29.2937 127.208 29.8614 127.038 30.4989H127.328C127.618 29.8116 127.788 29.1144 127.788 28.3674H128.248C128.308 29.0049 128.248 29.6324 128.078 30.2698H128.368C128.658 29.5826 128.768 28.9451 128.768 28.2579H129.167C129.287 28.8356 129.227 29.3535 129.047 29.981H129.277V29.971Z" fill="#C6A27C"/>
<path d="M125 30.548C125.289 29.9703 125.459 29.3927 125.519 28.7652C124.94 28.5958 123.61 28.4166 122.171 28.8249L121.531 29.8608L121.991 29.9205L122.571 29.1138L122.921 29.1735C122.921 29.4624 122.861 29.6915 122.751 30.0401L122.981 30.0998C123.27 29.811 123.5 29.4624 123.62 29.064L123.97 29.1237C123.97 29.5221 123.85 29.9305 123.74 30.2791L124.03 30.3389C124.32 29.9405 124.43 29.4723 124.55 29.0739L124.95 29.1337C124.95 29.6516 124.83 30.1098 124.66 30.5182L125.01 30.5779L125 30.548Z" fill="#C6A27C"/>
<path d="M114.144 30.3182L114.544 30.1987L113.505 28.5254H113.105C112.815 29.2126 112.815 30.0792 113.165 30.7664L113.515 30.5971C113.395 30.1987 113.285 29.9099 113.285 29.4417H113.575L114.154 30.3083L114.144 30.3182Z" fill="#C6A27C"/>
<path d="M122.002 25.5374C121.133 25.3681 119.464 25.1888 117.904 25.9956C116.635 26.633 115.415 27.7187 115.016 29.5115L115.475 29.9697C115.535 29.5115 115.645 29.0533 115.825 28.645H116.175C116.235 28.9936 116.295 29.392 116.295 29.8004L116.465 29.7406C116.635 29.1629 116.755 28.5354 116.755 27.898L117.155 27.8382C117.325 28.4159 117.325 29.0434 117.325 29.6808L117.614 29.6211C117.784 28.8143 117.904 27.9478 117.964 27.0912H118.364C118.484 27.898 118.534 28.7645 118.534 29.6211H118.764C118.934 28.645 119.054 27.6589 119.054 26.6828H119.454C119.623 27.6589 119.623 28.645 119.623 29.6211H119.683C120.203 28.5852 120.373 27.38 120.323 26.2844L120.723 26.2247C120.893 27.0912 120.893 27.9478 120.843 28.7545C121.303 28.2366 121.882 27.2008 122.002 25.5274V25.5374Z" fill="#C6A27C"/>
<path d="M124.421 20.0702C124.77 21.3351 124.651 22.5503 124.591 23.2375L124.88 23.1778C125.17 22.371 125.23 21.3351 125.11 20.359L125.46 20.2395C125.69 20.9865 125.81 21.9626 125.75 22.8292L126.15 22.7694C126.27 21.8531 126.09 20.8073 125.98 19.8909L126.38 19.8312C126.55 20.4088 126.839 21.2654 126.899 21.8431L127.129 21.7834C127.189 21.0961 127.129 20.1698 126.959 19.4826L127.359 19.4228C127.589 20.0005 127.709 20.6877 127.759 21.2654L127.989 21.2057C128.109 20.5682 127.989 19.7116 127.869 19.1339L128.269 19.0742C128.389 19.363 128.499 19.881 128.499 20.2296L128.729 20.1698C128.789 19.7714 128.789 19.2535 128.669 18.6758C127.279 18.5563 124.91 18.7953 124.391 20.0602L124.421 20.0702Z" fill="#C6A27C"/>
<path d="M65.8958 32.9085C66.4155 32.2711 66.9953 31.295 66.9953 30.0898C66.9953 28.1874 65.9557 27.3806 65.496 27.0918C64.9162 28.1874 64.4565 29.3926 64.2266 30.3189L64.5164 30.548C64.8663 30.03 65.2061 29.3428 65.436 28.7053L65.8358 28.7651C65.7159 29.6814 65.376 30.548 64.9162 31.3547L65.2661 31.6436C65.5559 31.295 65.9058 30.6675 66.1357 30.0898L66.5355 30.2093C66.3656 31.1257 66.1357 31.9922 65.5559 32.7392L65.9058 32.9085H65.8958Z" fill="#C6A27C"/>
<path d="M130.777 20.9953L131.067 21.1647C131.707 20.7065 132.337 20.0093 132.686 19.2623L133.036 19.322C132.806 20.1886 132.347 20.8758 131.767 21.3937L132.117 21.4535C132.696 20.8758 133.276 20.0093 133.446 19.093L133.846 19.1527C133.726 20.0192 133.386 20.8758 132.866 21.573H133.266C133.616 20.9953 134.136 19.9595 134.246 18.6348C133.956 18.5153 133.376 18.4655 132.567 18.5153C132.277 19.322 131.527 20.4177 130.777 20.9953Z" fill="#C6A27C"/>
<path d="M63.0688 30.7772C63.4186 30.0302 63.3587 29.2234 63.1888 28.6457L62.9589 28.5859L61.8594 30.2592L62.1492 30.3788C62.3192 30.2094 62.4991 29.8608 62.669 29.6318L63.0188 29.7513C63.0188 30.0401 62.9589 30.3887 62.7889 30.6676L63.0788 30.7871L63.0688 30.7772Z" fill="#C6A27C"/>
<path d="M101.949 15.129C102.269 15.4577 102.579 15.7963 102.879 16.1549C102.959 16.2445 103.039 16.3341 103.109 16.4238C103.479 16.872 103.829 17.3401 104.148 17.8282C105.178 19.3521 105.988 21.0254 106.547 22.8083C106.587 22.9377 106.617 23.0772 106.657 23.2067C106.777 23.6349 106.897 24.0533 106.987 24.4915C107.047 24.7804 107.097 25.0692 107.147 25.3581C107.177 25.5573 107.227 25.7465 107.257 25.9457C107.537 24.8401 107.867 23.7445 108.256 22.6688C106.807 20.9457 106.347 18.5851 106.407 16.3939C106.467 14.5513 106.757 12.7684 107.277 10.9855L107.107 10.9258C106.297 11.8421 106.008 13.2863 106.068 14.611L105.718 14.7804L104.278 12.0214H103.409C104.278 13.2863 105.028 14.5513 105.778 15.876L105.378 16.0453C104.508 14.8401 103.589 13.625 102.949 12.9975H102.079C103.349 14.2624 104.508 15.6469 105.258 17.3102L104.858 17.5393C103.819 15.7565 102.319 14.372 101.45 13.6847C101.33 13.864 101.21 14.0632 101.09 14.2724C101.25 14.4218 101.4 14.5812 101.56 14.7306C101.7 14.86 101.839 14.9995 101.969 15.129H101.949Z" fill="#C6A27C"/>
<path d="M64.8591 17.5886C65.3788 16.9512 65.029 15.8057 64.0495 14.8794L64.2793 14.5308C64.5692 14.7002 64.969 15.1085 65.1489 15.4472L65.3788 15.3277C65.2089 14.8097 64.6892 14.0627 64.3393 13.8336L64.5092 13.5448C64.6792 13.6046 64.909 13.7141 65.1989 13.9432L65.3688 13.8237C65.1989 13.3655 64.969 13.0767 64.4493 12.7878L64.5692 12.499C64.6891 12.5587 64.919 12.6185 65.089 12.7878L65.2089 12.7281C65.1489 12.3296 65.039 12.0408 64.979 11.752L65.3788 11.6324C66.2484 13.7042 66.5383 16.4133 65.3788 18.4253C66.1285 19.75 66.8281 21.0149 67.3979 22.3994C67.4578 22.3994 67.4578 22.3396 67.4578 22.3396C67.6877 21.3038 67.6877 20.0388 66.9981 19.1723L67.3479 18.8834C67.8077 19.4014 68.0975 20.0886 68.2175 20.7858H68.2775C68.4474 19.8097 68.3974 18.7141 67.7577 17.9073L68.1075 17.6185C68.3974 17.9073 68.6273 18.2559 68.7472 18.5946H68.9771C69.0971 17.7878 68.5773 16.981 68.1075 16.3536L68.4574 16.0647L68.9771 16.5229H69.207C69.207 15.8356 68.8572 15.1384 68.3374 14.7998L68.6273 14.4014C68.8572 14.5209 69.0271 14.6902 69.1471 14.8595H69.207C69.207 14.2818 69.0871 13.3057 68.9172 12.5587L69.4969 12.4392C69.9567 14.74 70.0766 17.1603 69.5569 19.4611C70.0366 19.5906 70.4564 19.8595 70.8562 20.2081C70.9062 20.1085 70.9462 20.0189 70.9962 19.9193C70.7663 19.5209 70.3365 19.2121 69.9067 19.1125L69.9667 18.6544C70.4864 18.6942 70.9662 18.9133 71.336 19.252C71.376 19.1822 71.426 19.1125 71.466 19.0428C71.296 18.6643 70.9062 18.4153 70.4864 18.2559L70.6064 17.7978C71.0761 17.8775 71.5059 18.0966 71.8558 18.4153C71.9058 18.3257 71.9657 18.236 72.0157 18.1464C71.9158 17.8177 71.6059 17.6085 71.2461 17.5089L71.306 17.0508C71.7158 17.0508 72.1356 17.23 72.4355 17.5189C72.5055 17.4193 72.5754 17.3296 72.6454 17.23C72.4355 17.001 72.1356 16.742 71.9357 16.7022L71.9957 16.244C72.3455 16.244 72.7454 16.4133 73.0352 16.6424C73.0952 16.5229 73.1552 16.3536 73.1552 16.244C73.0352 15.9551 72.7554 15.7261 72.4055 15.6663L72.4655 15.2081C72.6954 15.2081 72.9852 15.2679 73.2151 15.3775C73.2151 15.1484 73.2151 14.8595 72.6354 14.6902L72.6954 14.3416L73.0952 14.4014L72.9253 13.246L73.0452 13.1862C73.6249 13.8237 73.9648 14.5707 73.9648 15.3775C73.9648 15.4472 73.9648 15.5368 73.9548 15.6364C74.0847 15.487 74.2347 15.3575 74.3746 15.2181C74.5545 15.0388 74.7244 14.8595 74.9143 14.6802C75.0343 14.5607 75.1442 14.4312 75.2742 14.3217L75.2542 14.2818L74.7344 14.1623L74.8544 13.5249L74.3946 13.4053L74.2746 12.8874H73.7549L73.525 12.3097L72.9453 12.4293L72.5954 11.9711L72.1956 12.2599L72.4255 12.7779L72.0257 13.1763L72.3156 13.6344L71.9157 14.0926L72.2656 14.5508L71.7458 14.9492L71.9757 15.1783L71.336 15.8157L70.6963 15.238L70.9862 14.8894L70.4664 14.4312L70.9862 14.0328L70.4664 13.6842L70.9862 13.2261L70.4065 12.7679L70.7563 12.1304L70.2965 11.8416L70.3565 11.3237L69.7168 11.2639L69.4869 10.6862L68.9671 10.9751L68.4474 10.2878L68.0975 14.0328L67.5778 14.0926L67.5178 13.0567L66.8781 12.9372L67.108 12.25L66.4683 12.1304L66.5283 11.493L65.9486 11.3735V10.736L65.2589 10.7958L64.969 10.1583L64.3893 10.6165L63.7496 10.0388L63.9195 13.7241H63.5697L63.2198 12.1703L62.4102 12.23L62.3503 11.3137L61.4307 11.483L61.3707 10.5069L60.2712 10.5667L59.9214 9.81969L59.1717 9.98901L58.592 9.35156L57.9023 9.47108C60.5611 11.7121 63.0399 14.6504 64.8891 17.5289L64.8591 17.5886Z" fill="#C6A27C"/>
<path d="M64.1068 28.3565C63.4671 25.0797 61.568 22.8287 57.5798 22.2012C57.29 23.4064 57.5798 24.7311 57.6398 24.8506L57.9896 24.9701C57.8697 24.4522 57.9297 23.8745 58.1096 23.4761L58.5094 23.5358C58.5094 24.0538 58.5094 24.5717 58.7993 24.9203C58.8592 24.5717 58.9192 24.1733 59.0891 23.8844L59.4889 24.004C59.369 24.5219 59.429 25.0398 59.7188 25.4382C59.7788 25.0896 59.8888 24.751 60.1186 24.4621L60.4685 24.6314C60.2986 25.2689 60.2986 25.7868 60.5884 26.245C60.7084 25.8964 60.8783 25.5577 61.1082 25.2689L61.458 25.5577C61.1682 26.0159 61.1682 26.5936 61.398 27.0518C61.568 26.7032 61.7979 26.4143 62.0377 26.1354L62.3876 26.4243C61.8678 27.1713 61.8079 27.8087 62.0977 28.5558L63.0173 27.3506C63.3671 27.5199 63.707 27.9283 63.7669 28.506L64.1168 28.3864L64.1068 28.3565Z" fill="#C6A27C"/>
<path d="M54.4008 29.8607L54.8006 29.8009L54.3408 28.9941C52.7816 28.4762 51.3922 28.7053 50.8125 28.8248C50.8725 29.4623 51.1024 29.9802 51.2723 30.5479L51.6721 30.4284C51.6121 30.0798 51.5522 29.5121 51.6121 29.2232H51.962L52.4217 30.2591L52.7716 30.1993C52.6017 29.8507 52.5417 29.4523 52.6017 29.1635H52.9515C53.0714 29.4523 53.2414 29.7412 53.4712 30.03L53.8211 29.9702C53.7011 29.6814 53.6512 29.5121 53.6512 29.2232H53.8811L54.4008 29.8607Z" fill="#C6A27C"/>
<path d="M60.299 28.4157C60.359 28.9336 60.5289 29.5113 60.8187 29.9097L61.3385 29.6209C59.9492 25.7065 57.0105 24.84 54.1719 25.5372C54.2318 26.344 54.3418 27.091 54.6317 27.7783H54.8016C54.8016 27.2006 54.8615 26.6229 54.9715 26.105L55.4313 26.1647C55.3713 27.3201 55.4913 28.585 56.011 29.6209H56.1809C55.951 28.6448 55.951 27.6587 56.121 26.6229L56.5807 26.6826C56.5807 27.4297 56.7007 28.5253 57.1605 29.6209H57.3304C57.2104 28.8141 57.2704 28.0073 57.3904 27.2603H57.7902C57.8501 28.0671 57.9601 28.9336 58.3099 29.6209H58.5398C58.4798 29.103 58.5398 28.585 58.6598 28.0671L59.1195 28.1269C59.1195 28.6448 59.2395 29.2225 59.5194 29.7404H59.8092C59.7492 29.2822 59.7493 28.8241 59.8692 28.4157H60.269H60.299Z" fill="#C6A27C"/>
<path d="M107.847 13.2773H107.267L107.207 13.7952H107.787L107.727 14.3131H107.147L107.087 14.7116C107.317 14.7713 107.607 14.8311 107.837 14.8311L107.897 15.2295C107.607 15.2892 107.317 15.2892 107.087 15.2892L107.027 15.6378C107.317 15.7574 107.717 15.8669 108.007 15.8669L108.067 16.2653C107.717 16.3251 107.377 16.3251 107.027 16.2056V16.604C107.317 16.7733 107.717 16.8331 108.067 16.8331L108.127 17.2315C107.777 17.2912 107.377 17.2912 107.027 17.1717L107.087 17.5701C107.377 17.7394 107.837 17.7992 108.187 17.7992L108.247 18.1976C107.897 18.2574 107.557 18.2574 107.147 18.1976C107.147 18.3171 107.207 18.4865 107.207 18.596C107.557 18.7653 107.957 18.8251 108.307 18.8251L108.367 19.2235C108.017 19.2235 107.677 19.2833 107.327 19.2235C107.387 19.343 107.387 19.4526 107.447 19.5721C107.797 19.6916 108.137 19.8012 108.547 19.861V20.1498H107.627L107.797 20.4984C108.027 20.6179 108.317 20.6677 108.607 20.6677V21.0661C108.437 21.0661 108.207 21.0661 108.027 21.0064C108.197 21.355 108.377 21.5841 108.607 21.8729C109.246 20.3191 109.996 18.8749 110.916 17.5004C109.356 15.3689 110.626 12.6697 111.785 10.3092L111.555 10.0801C111.205 10.0801 110.866 10.2494 110.576 10.4785L110.926 10.9964L110.756 11.345C110.526 11.2853 110.296 11.1159 110.066 10.9466L109.836 11.2952C109.956 11.5243 110.186 11.6936 110.416 11.8131L110.356 12.1618C110.006 12.1618 109.716 12.0422 109.486 11.8729L109.316 12.1618C109.486 12.3311 109.666 12.5104 109.896 12.6199V12.9685C109.606 12.9685 109.376 12.9088 109.146 12.7992V13.7155H108.567C108.567 12.5602 108.397 11.4147 108.167 10.8371L107.877 10.8968L107.647 11.6438L108.047 11.7633L107.987 12.2215L107.527 12.1618L107.407 12.6797L107.927 12.7394L107.867 13.2574L107.847 13.2773Z" fill="#C6A27C"/>
<path d="M127.018 14.8911L127.308 15.0107C127.188 15.2397 127.018 15.4688 126.848 15.6979L127.138 15.8174C127.487 15.419 127.777 15.0107 127.887 14.4927L128.287 14.5525C128.287 14.9509 128.117 15.2995 127.937 15.6481L128.167 15.7079C128.457 15.3593 128.687 14.7915 128.687 14.2138H129.087C129.147 14.5624 129.147 14.8513 129.087 15.1899L129.546 15.0206C129.546 14.7318 129.487 14.3334 129.317 13.8652C128.797 13.8652 127.298 13.925 125.738 15.5883L125.908 15.9369L127.008 14.9011L127.018 14.8911Z" fill="#C6A27C"/>
<path d="M112.116 12.3605C111.996 12.3605 111.716 12.241 111.596 12.1912L111.476 12.48C111.646 12.7091 111.826 12.8286 112.056 12.9382L111.996 13.2868C111.766 13.2868 111.536 13.1673 111.306 13.0577L111.186 13.4063C111.356 13.5756 111.586 13.8047 111.876 13.9242L111.756 14.2728C111.526 14.2131 111.296 14.1533 111.066 14.0438L111.006 14.3924C111.126 14.5617 111.356 14.6215 111.646 14.6215L111.766 14.9701C111.476 15.0896 111.246 15.1394 110.956 15.0896V15.5477C111.186 15.5477 111.416 15.5477 111.596 15.488L111.766 15.8366C111.596 15.9561 111.366 16.0657 111.076 16.1852L111.366 16.8724C113.045 14.5119 115.174 12.4999 117.663 10.996L117.833 11.3446L117.483 11.5736L117.653 12.1513L117.363 12.3207L117.073 11.9222L116.784 12.0916L116.953 12.6693L116.664 12.8386L116.374 12.4402L116.144 12.6095L116.314 13.1274L116.024 13.2968L115.674 12.9481L115.444 13.1175L115.614 13.6354L115.324 13.8645L114.974 13.5159L114.745 13.745L114.974 14.2031L114.745 14.4322L114.345 14.0836L114.055 14.3724L114.405 14.7709L114.175 14.9999L113.775 14.7111L113.485 14.9999L113.835 15.3983L113.605 15.6274L113.145 15.3983L112.915 15.6872L113.265 16.0856L113.035 16.3744L112.576 16.1454L112.346 16.4342L112.745 16.8326L112.516 17.1215L111.996 16.8924L111.766 17.241L112.685 17.8187L112.456 18.1673L111.356 17.8187L111.236 18.0477L111.636 18.5059L111.466 18.8545L110.886 18.5657L110.766 18.7948L111.116 19.1932L110.946 19.5418L110.487 19.3127L110.317 19.6613L110.716 20.0099L110.596 20.3585L110.017 20.239L109.847 20.5876L110.307 20.8764L110.187 21.2748L109.607 21.1055L109.437 21.5039L109.897 21.733L109.727 22.1314L109.207 21.9621L109.037 22.4203L109.907 22.7689L109.787 23.1175L108.807 22.9979L108.687 23.3964L109.207 23.5657L109.147 23.9641H108.507L108.338 24.3625L108.917 24.482L108.857 24.9402L108.218 24.8804L108.098 25.2788L108.617 25.5079V25.8565H107.928L107.808 26.2549L108.328 26.484L108.388 26.8824H107.698L107.638 27.2808L108.158 27.4003V27.7987L107.518 27.8585L107.458 28.2071L108.148 28.3764L108.208 28.7748L107.388 28.8246C107.388 28.9641 107.368 29.1035 107.368 29.243L107.978 29.3426L108.038 29.8007L107.338 29.8505C107.328 30.0398 107.328 30.239 107.308 30.4282C107.508 30.4681 107.718 30.4979 107.918 30.4979L108.038 30.8964C107.758 31.0059 107.488 31.0358 107.228 31.0358C107.208 31.1752 107.188 31.3147 107.168 31.4442C107.438 31.484 107.708 31.494 107.988 31.4641L108.108 31.8625C107.768 31.972 107.418 32.0617 107.078 32.0916C107.048 32.2509 107.028 32.4003 106.998 32.5597C107.318 32.6195 107.648 32.6593 107.998 32.6095L108.058 33.0677C107.678 33.1673 107.248 33.247 106.828 33.247C106.798 33.3764 106.768 33.496 106.728 33.6254C107.138 33.6952 107.568 33.7051 107.998 33.7051L108.058 34.1035C107.598 34.243 107.088 34.2828 106.558 34.2728C106.508 34.4222 106.448 34.5617 106.398 34.7111C107.278 34.7808 109.087 34.8705 111.116 34.3824V34.2629C110.367 33.8047 108.457 32.4203 108.517 29.9501C108.577 28.5657 109.037 27.7091 109.557 27.0717C109.207 24.7709 110.137 22.5199 111.406 20.9661C111.866 18.7748 113.485 16.5338 115.794 15.6673C116.084 16.0657 116.194 16.3047 116.254 16.474C117.003 15.5577 118.043 14.8605 119.372 14.1732L118.973 13.5358L119.492 13.0179L119.092 12.4999L119.552 11.9222L119.152 11.5736L119.612 11.0557L119.032 10.7071L119.492 10.1892L119.032 9.84058L119.152 9.32265L118.633 9.20312C118.463 9.89038 118.403 10.2987 118.513 10.9262L118.163 11.0458C117.993 10.4681 117.933 10.0697 117.993 9.26289L117.593 9.20312C117.533 9.66129 117.533 10.0099 117.593 10.4681L117.243 10.5278C117.123 10.1792 117.073 9.89038 117.013 9.55173H116.724C116.664 9.95014 116.724 10.4681 116.844 10.8764L116.444 10.9362C116.274 10.5876 116.214 10.2987 116.154 9.90034H115.754C115.694 10.4183 115.874 10.996 116.044 11.5139L115.644 11.6334C115.474 11.235 115.294 10.8864 115.244 10.4282H114.844C114.844 11.1155 115.014 11.5836 115.244 12.1015L114.844 12.2709C114.615 11.8724 114.445 11.5836 114.385 11.3545H113.985C114.045 11.8724 114.215 12.3306 114.445 12.6792L114.095 12.8485C113.865 12.6195 113.695 12.3904 113.575 12.0418L113.285 12.1015C113.285 12.5597 113.515 12.9681 113.685 13.2569L113.395 13.486C112.755 12.7987 112.586 11.5238 112.705 10.5477L112.416 10.488L112.186 11.0059L112.416 11.1254L112.296 11.474L111.946 11.4143L111.826 11.6434C111.946 11.7629 112.116 11.8724 112.226 11.9322L112.106 12.2808L112.116 12.3605Z" fill="#C6A27C"/>
<path d="M128.819 17.9375H129.219L129.449 16.6725H129.739V18.9136H129.909C130.078 18.1068 130.138 17.3598 130.078 16.6128L130.478 16.4932C130.598 17.3 130.598 18.047 130.538 18.8538L130.768 18.794C130.938 17.9873 130.998 17.1805 130.828 16.3737L131.228 16.2542C131.398 16.8916 131.518 17.5191 131.458 18.2163L131.628 18.1566C131.748 17.5191 131.748 16.7721 131.628 16.1446L132.028 16.0251L132.197 16.8916L132.427 16.8319C132.487 16.4335 132.547 15.9156 132.487 15.4474C131.968 15.3279 130.698 15.1586 129.139 15.9654L128.789 17.9275L128.819 17.9375Z" fill="#C6A27C"/>
<path d="M126.447 16.9614L126.906 16.9016C126.906 17.3001 126.787 17.6487 126.677 17.9973L126.966 17.9375C127.086 17.7682 127.426 17.1905 127.546 16.7821H127.836C127.836 17.1805 127.836 17.4196 127.666 17.9375H128.016C128.186 17.4196 128.366 16.8419 128.416 16.5032C127.376 16.2144 126.337 16.563 125.877 16.7323C125.937 17.1905 125.877 17.6487 125.707 18.1666L125.827 18.2263C126.117 17.8279 126.407 17.3598 126.467 16.9614H126.447Z" fill="#C6A27C"/>
<path d="M116.623 17.3105L116.853 18.1771L117.023 18.0575C116.963 17.7089 117.083 17.3703 117.193 17.0217L117.483 17.0814C117.483 17.3105 117.483 17.4799 117.543 17.6591L117.773 17.5396C117.713 17.191 117.833 16.7926 117.943 16.444H118.233C118.233 16.7328 118.292 16.9619 118.352 17.2508L118.582 17.1312C118.582 16.7328 118.702 16.3245 118.812 15.9261L119.042 15.9858C119.102 16.2747 119.162 16.5635 119.272 16.8524L119.442 16.7926C119.442 16.3942 119.502 16.0456 119.562 15.697L119.852 15.7567C119.852 16.0456 119.912 16.3344 120.022 16.6233H120.192C120.252 16.1651 120.312 15.7567 120.362 15.2986H120.651C120.651 15.4181 120.771 16.2747 120.711 16.9121L120.941 16.8524C121.001 16.5635 121.061 15.7567 120.771 14.6113C119.902 14.9002 117.713 15.7667 116.613 17.3205L116.623 17.3105Z" fill="#C6A27C"/>
<path d="M120.613 19.7218H120.843C121.013 19.2636 121.133 18.8552 121.073 18.4568L121.533 18.3971C121.652 18.7457 121.652 19.0843 121.592 19.4329H121.822C121.992 19.0345 122.172 18.3373 122.112 17.8194L122.512 17.7596C122.632 18.158 122.632 18.6262 122.572 19.0843H122.802C123.092 18.5664 123.202 17.9289 123.152 17.3612L123.612 17.3015C123.731 17.7596 123.731 18.2775 123.672 18.7457H123.901C124.191 18.168 124.301 17.5405 124.191 16.903L124.591 16.7835C124.761 17.3015 124.761 17.8791 124.651 18.3971H124.881C125.341 17.4807 125.171 16.3851 125.051 15.8672C121.762 16.3254 120.663 18.2277 120.543 18.5166C120.603 18.915 120.663 19.2636 120.603 19.7218H120.613Z" fill="#C6A27C"/>
<path d="M122.57 14.7716L122.92 14.8911C122.8 15.1202 122.69 15.4688 122.63 15.7576L123.03 15.6381C123.15 15.1202 123.32 14.662 123.55 14.1939L123.95 14.3632C123.83 14.652 123.78 15.0006 123.72 15.3393L124.069 15.2795C124.129 14.8811 124.299 14.413 124.469 14.0146L124.819 14.0744V15.17L125.049 15.1102C125.109 14.4728 125.109 13.7257 125.049 13.2676C122.91 13.666 121.871 14.8811 121.641 15.2297L121.99 15.5783C122.16 15.2297 122.34 15.0006 122.57 14.7716Z" fill="#C6A27C"/>
<path d="M65.4386 38.4369L63.9892 33.0783C63.5295 31.2954 60.8107 30.3691 57.7522 30.3691C54.0539 30.3691 50.0058 31.7536 45.7978 33.1879C41.23 34.7417 36.5522 36.2954 31.9343 36.2954C29.1057 36.2954 27.1966 35.7177 25.8672 35.0305L26.8467 41.0166C26.9667 41.5942 29.1556 43.2576 33.2637 43.2576C41.3499 43.2576 54.2338 37.4409 60.181 37.4409C62.32 37.4409 63.9393 37.7895 65.4386 38.4169V38.4369ZM27.1366 36.5345C28.5259 37.3413 29.9653 37.3413 31.3546 37.3413V37.6301C30.1452 38.0285 28.1761 37.7994 27.1366 36.8233V36.5345ZM27.3665 37.7994C28.6359 38.5464 30.2551 38.7158 31.5845 38.666V38.9548C30.1952 39.413 28.296 39.0743 27.3665 38.0883V37.7994ZM27.5964 39.0644C28.7558 39.8114 30.3151 40.1002 31.7544 39.9807V40.2695C30.3151 40.7875 28.466 40.4389 27.5964 39.3532V39.0644ZM32.0443 41.7735C30.7749 42.2915 28.6959 41.7735 27.8263 40.7377V40.3891C28.6359 41.0763 30.595 41.5444 32.0443 41.4847V41.7735ZM34.9229 41.1958C34.0533 41.1958 33.6035 40.6679 33.5536 39.6321C33.5536 38.5962 33.9734 38.0285 34.843 38.0285C35.7126 37.9787 36.1124 38.4966 36.1623 39.5325C36.2123 40.6281 35.8025 41.146 34.9329 41.1958H34.9229ZM38.8011 40.648C37.9915 40.8173 37.4118 40.4588 37.1919 39.3632C36.972 38.3273 37.3818 37.7496 38.1314 37.5903C38.8811 37.4209 39.3408 37.7197 39.6307 38.3472L38.991 38.5763C38.8211 38.2875 38.6512 38.0584 38.3013 38.1679C37.9015 38.2177 37.7816 38.6261 37.8915 39.2536C38.0015 39.8911 38.2913 40.1799 38.6912 40.0703C39.041 40.0205 39.1509 39.7915 39.1609 39.4428L39.8506 39.393C39.8506 40.0803 39.4908 40.5385 38.8011 40.648ZM42.9092 39.5922L42.5693 38.3771L41.6398 38.656L41.9796 39.8711L41.2799 40.0405L40.4403 37.0923L41.08 36.8632L41.4698 38.0783L42.3994 37.7994L42.0596 36.5843L42.6993 36.415L43.5389 39.3632L42.8992 39.5922H42.9092ZM45.9178 38.6958C45.1081 38.915 44.4784 38.5664 44.1986 37.5903C43.8587 36.5544 44.0986 35.9169 44.9082 35.6978C45.7178 35.4189 46.2976 35.7675 46.6274 36.8034C46.9673 37.7895 46.7274 38.4169 45.9178 38.6958ZM49.3961 37.5205L48.1767 37.8592L47.2771 34.9707L48.4366 34.5823C49.0163 34.413 49.4761 34.5325 49.646 35.0504C49.706 35.3393 49.696 35.6281 49.4061 35.8572C49.7559 35.8074 50.0358 36.0365 50.0958 36.3851C50.3257 36.903 50.0258 37.3014 49.3961 37.5305V37.5205ZM53.0444 36.405L52.7046 35.8273L51.835 36.0464V36.7337L51.1953 36.903L51.2253 33.7357L52.0349 33.5166L53.6841 36.2357L53.0444 36.405ZM56.3428 35.6879L56.123 34.4727L55.1434 34.6321L55.3633 35.8472L54.6736 35.9568L54.1239 32.9588L54.8136 32.8492L55.0335 34.0644L56.013 33.905L55.7931 32.6401L56.4328 32.5305L56.9825 35.5883L56.3428 35.6978V35.6879ZM58.9516 34.7815V35.4687L58.2519 35.409L58.5718 32.3612L59.3814 32.4309L60.9107 35.5484L60.221 35.4887L59.9412 34.8512L58.9616 34.7815H58.9516Z" fill="#C6A27C"/>
<path d="M68.6745 42.8686L68.5546 42.4104C70.0638 41.9224 71.4932 41.1355 72.8326 40.2192C72.7226 40.0797 72.6226 39.9403 72.5227 39.8008C71.1034 40.4981 69.654 41.0359 68.1548 41.4343L67.9848 41.0359C69.3742 40.4981 70.7435 39.8108 72.0229 39.0538C71.923 38.8945 71.823 38.7252 71.7231 38.5558C70.4537 39.1136 69.1843 39.6514 67.8649 40.0499L67.695 39.6514C68.8944 39.1036 70.0838 38.4562 71.2333 37.7391C71.1533 37.5897 71.0934 37.4303 71.0134 37.2809C69.8639 37.7989 68.7145 38.257 67.5151 38.6754L67.3451 38.2172C68.4546 37.7092 69.5541 37.1216 70.6336 36.4941C70.5136 36.2351 70.4037 35.9662 70.3037 35.6973C69.6141 36.1654 67.8949 37.2411 66.0757 37.6495L66.6555 39.7212C62.0376 40.01 56.6602 41.504 56.6602 43.2371C56.6602 44.7909 58.5093 45.6574 61.7478 45.6574C66.5555 45.6574 72.2628 42.6295 74.002 41.6335C73.8021 41.4144 73.5922 41.2052 73.4023 40.9761C71.933 41.7929 70.3737 42.4901 68.6745 42.8885V42.8686ZM60.3484 41.6036C61.6778 41.026 63.1171 40.8566 64.6264 41.0259V41.4244C63.2371 41.773 61.7977 41.9423 60.3484 41.8228V41.5937V41.6036ZM59.079 42.0618C60.0586 43.0379 63.1771 42.6395 64.9762 42.1813V42.6993C62.9572 43.506 60.3584 43.8546 58.4493 42.4104L59.089 42.0618H59.079ZM65.2661 44.1335C62.6673 45.2291 58.3294 45.1694 57.4098 43.267L57.9296 42.8686C59.089 44.3028 62.8972 44.5419 65.2661 43.5558V44.1335Z" fill="#C6A27C"/>
<path d="M60.1809 38.2072C58.9715 38.2072 57.4622 38.4961 55.793 38.8945L55.9629 39.8108C57.5821 39.1734 59.2014 38.8347 60.9306 38.7152L60.9905 39.1136C59.3113 39.512 57.6421 39.9204 56.1928 40.7271L56.4227 41.8825C57.6921 40.4383 61.2804 39.4622 65.0286 39.0638C63.6393 38.5459 62.08 38.1973 60.1709 38.1973L60.1809 38.2072Z" fill="#C6A27C"/>
<path d="M88.1945 10.3086C78.1393 10.3086 69.9531 18.466 69.9531 28.4859C69.9531 38.5058 78.1393 46.6632 88.1945 46.6632C98.2498 46.6632 106.436 38.5058 106.436 28.4859C106.436 18.466 98.2498 10.3086 88.1945 10.3086ZM88.1945 44.7608C79.1688 44.7608 71.8622 37.4699 71.8622 28.4859C71.8622 19.5018 79.1788 12.211 88.1945 12.211C97.2103 12.211 104.527 19.5018 104.527 28.4859C104.527 37.4699 97.2103 44.7608 88.1945 44.7608Z" fill="#C6A27C"/>
<path d="M109.697 39.7604L110.277 37.629C108.518 37.2305 106.839 36.2146 106.079 35.7266C105.979 35.9756 105.879 36.2246 105.769 36.4636C106.829 37.1011 107.948 37.6987 109.117 38.2066L108.948 38.6648C107.748 38.2465 106.559 37.7784 105.389 37.2604C105.319 37.4098 105.259 37.5592 105.179 37.6987C106.309 38.4258 107.518 39.0831 108.778 39.6409L108.608 40.0393C107.288 39.6309 105.969 39.0931 104.69 38.5353C104.59 38.6947 104.5 38.8541 104.4 39.0134C105.649 39.7803 107.038 40.4676 108.438 41.0154L108.318 41.4138C106.749 41.0054 105.319 40.4576 103.9 39.7505C103.8 39.8899 103.69 40.0294 103.59 40.1688C104.919 41.1051 106.399 41.8919 107.918 42.3899L107.748 42.8481C106.199 42.4596 104.3 41.6329 103.01 40.9357C102.81 41.1748 102.601 41.3939 102.391 41.613C104.2 42.5991 109.977 45.607 114.565 45.607C117.803 45.607 119.702 44.7405 119.702 43.1867C119.702 41.4636 114.325 40.0194 109.707 39.7305L109.697 39.7604ZM111.826 41.2544V41.0254C112.516 40.856 113.275 40.9656 113.965 41.0254C114.655 41.1449 115.404 41.2545 116.044 41.6031V41.7724C114.595 41.8321 113.156 41.7724 111.766 41.4835C111.766 41.4835 111.766 41.364 111.826 41.2544ZM111.536 42.3501C113.555 42.5194 115.754 42.9278 117.663 42.2305L117.893 42.4596C116.044 43.8441 113.445 43.4357 111.476 42.629L111.536 42.3401V42.3501ZM111.426 44.0732L111.546 43.7246C113.855 44.3023 116.744 44.5313 118.713 43.0871L119.063 43.2564C117.444 45.3879 113.575 45.2186 111.436 44.0632L111.426 44.0732Z" fill="#C6A27C"/>
<path d="M45.0773 36.2143C44.7275 36.3836 44.6675 36.7322 44.8375 37.3597C45.0674 37.9972 45.3472 38.2262 45.6971 38.1167C46.1069 38.0071 46.1668 37.5988 45.9969 36.9713C45.767 36.3936 45.4872 36.1047 45.0773 36.2143Z" fill="#C6A27C"/>
<path d="M111.254 39.0634C115.062 39.4618 118.71 40.5574 119.98 42.0614L120.21 40.906C118.76 40.0993 117.091 39.4718 115.472 39.1232V38.7248C117.201 38.8443 118.82 39.1829 120.44 39.8204L120.61 38.9041C118.93 38.5056 117.371 38.2168 116.222 38.2168C114.372 38.2766 112.693 38.5654 111.254 39.0833V39.0634Z" fill="#C6A27C"/>
<path d="M48.9442 36.3052L48.4844 36.4745L48.7143 37.112L49.1741 37.0024C49.4039 36.8929 49.5239 36.7733 49.4639 36.5443C49.4039 36.2554 49.1741 36.1956 48.9442 36.3052Z" fill="#C6A27C"/>
<path d="M49.0133 35.3282C48.9533 35.0991 48.7834 35.0393 48.5535 35.1489L48.0938 35.2584L48.3236 35.9556L48.7834 35.7863C49.0133 35.6768 49.0733 35.4975 49.0233 35.3282H49.0133Z" fill="#C6A27C"/>
<path d="M51.7844 35.4673L52.4241 35.298L51.7344 34.1426L51.7844 35.4673Z" fill="#C6A27C"/>
<path d="M59.0195 34.2122H59.6492L59.0895 32.9473L59.0195 34.2122Z" fill="#C6A27C"/>
<path d="M140.251 39.4124C140.191 39.761 140.081 40.0499 139.961 40.279L140.881 40.3985L141.11 38.6156L140.421 38.4961L140.251 39.4124Z" fill="#C6A27C"/>
<path d="M137.595 37.8592C137.195 37.7995 136.905 38.0883 136.785 38.7258C136.665 39.3632 136.725 39.7616 137.135 39.8214C137.535 39.9409 137.775 39.5923 137.945 38.9549C138.065 38.3174 138.005 37.9788 137.595 37.8592Z" fill="#C6A27C"/>
<path d="M130.485 33.1976C126.266 31.7534 122.218 30.3789 118.53 30.3789C115.472 30.3789 112.753 31.2952 112.293 33.0881L110.844 38.4466C112.343 37.8092 113.962 37.4705 116.101 37.4705C122.048 37.4705 135.052 43.2873 143.019 43.2873C147.117 43.2873 149.316 41.614 149.436 41.0462L150.415 35.0602C149.086 35.7474 147.177 36.3251 144.348 36.3251C139.73 36.3251 135.042 34.7713 130.485 33.2176V33.1976ZM117.95 33.1976C117.89 33.4865 117.661 33.7753 117.311 33.8849C117.661 34.0044 117.77 34.2335 117.711 34.5721C117.591 35.1498 117.131 35.4387 116.441 35.4885L115.172 35.5482L115.861 32.4407L117.131 32.3809C117.711 32.3809 118.05 32.6697 117.94 33.1877L117.95 33.1976ZM122.228 36.0761L119.919 35.5582L120.089 34.9805L120.959 35.1498L121.359 33.4267L120.549 33.6558L120.319 33.0781L121.479 32.7295L122.168 32.8988L121.589 35.3191L122.338 35.4885L122.218 36.0662L122.228 36.0761ZM125.457 35.3291C125.107 36.4247 124.587 36.7733 123.838 36.594C123.258 36.4247 122.918 36.0164 122.968 35.4984L123.608 35.5582C123.608 35.7873 123.728 35.9566 123.958 36.0164C124.307 36.1359 124.647 35.8968 124.827 35.3291C124.657 35.4486 124.367 35.4984 124.018 35.3889C123.498 35.2693 123.148 34.8709 123.328 34.2335C123.498 33.596 124.078 33.3172 124.717 33.5462C125.467 33.7156 125.757 34.2933 125.467 35.3291H125.457ZM128.405 36.2454C128.006 37.3411 127.486 37.6897 126.726 37.4506C126.147 37.2813 125.857 36.8729 125.917 36.355L126.556 36.4148C126.556 36.6438 126.616 36.8132 126.906 36.9327C127.256 36.9925 127.546 36.8132 127.716 36.1857C127.546 36.355 127.256 36.4148 126.906 36.3052C126.386 36.1359 126.097 35.7275 126.266 35.1C126.496 34.4626 127.016 34.2335 127.656 34.4128C128.405 34.6419 128.695 35.2793 128.405 36.2554V36.2454ZM131.294 37.2215C131.004 38.2574 130.425 38.606 129.675 38.3769C128.925 38.1478 128.635 37.5104 128.985 36.4745C129.275 35.4984 129.855 35.0901 130.604 35.3191C131.354 35.5482 131.644 36.1857 131.294 37.2215ZM135.742 37.5104L134.533 37.2215L133.893 39.5821L133.253 39.4128L134.003 36.4148L135.912 36.9327L135.742 37.5104ZM138.631 39.1239C138.401 40.1598 137.881 40.5582 137.011 40.3889C136.202 40.2195 135.852 39.5821 136.092 38.5462C136.322 37.5701 136.842 37.102 137.711 37.2813C138.521 37.4506 138.871 38.0881 138.631 39.1239ZM141.869 40.5681L141.699 41.7733L141.06 41.7136L141.12 41.0761L139.62 40.847L139.5 41.4845L138.861 41.365L139.03 40.1598H139.26C139.43 40.0403 139.61 39.6419 139.66 39.2434C139.72 38.8948 139.78 38.3271 139.89 37.7992L141.909 38.0881L141.559 40.5084L141.849 40.5681H141.869ZM146.607 37.112C147.477 36.9426 148.226 36.7634 149.036 36.4247L149.266 36.7136C148.576 37.4008 147.477 37.6299 146.607 37.4008V37.112ZM146.667 38.3769C147.477 38.2574 148.226 38.0881 148.976 37.6897L149.146 37.9187C148.566 38.6658 147.526 38.9546 146.607 38.7255L146.667 38.3769ZM146.377 39.8211L147.646 39.5323C148.046 39.4725 148.396 39.3032 148.856 39.0741L149.026 39.3032C148.446 40.11 147.297 40.3988 146.367 40.11V39.8211H146.377ZM146.027 41.2554C146.487 41.1956 146.897 41.1359 147.297 40.9666C147.696 40.847 148.106 40.7375 148.506 40.5084L148.736 40.7375C148.096 41.5442 146.947 41.8331 146.017 41.604V41.2554H146.027ZM145.218 38.2574L144.238 40.5582C144.008 41.1359 143.718 41.3052 143.199 41.2454H142.909V40.608H143.139C143.308 40.608 143.428 40.608 143.488 40.5482L142.619 38.1279L143.368 38.1877L143.888 39.8012L144.528 38.2474H145.218V38.2574Z" fill="#C6A27C"/>
<path d="M147.298 32.3906C146.199 32.3906 145.449 32.6197 145.049 32.789L144.699 35.4982C145.339 35.4982 145.969 35.4384 146.668 35.3289C146.268 35.0998 145.749 34.9803 145.339 34.9305V34.7014C146.149 34.6416 146.958 34.7014 147.648 35.1595L148.397 34.9902C147.648 34.303 146.488 34.1237 145.449 34.1835V33.9544C146.718 33.7253 148.168 33.8348 149.147 34.7611L149.837 34.4723C148.797 33.4364 147.008 33.0878 145.559 33.3767L145.499 33.1476C147.058 32.6297 149.307 32.9185 150.466 34.0639C150.586 33.9444 150.636 33.8946 150.636 33.7153C150.636 32.799 149.017 32.3906 147.288 32.3906H147.298Z" fill="#C6A27C"/>
<path d="M116.911 32.9689H116.451L116.281 33.6562H116.801C117.031 33.6562 117.201 33.4869 117.261 33.3076C117.321 33.0785 117.201 32.959 116.911 32.959V32.9689Z" fill="#C6A27C"/>
<path d="M116.682 34.2326H116.162L115.992 34.9199H116.512C116.802 34.9199 116.972 34.8003 117.032 34.5713C117.092 34.2824 116.972 34.2227 116.682 34.2227V34.2326Z" fill="#C6A27C"/>
<path d="M124.539 34.0641C124.249 34.0043 124.02 34.1239 123.96 34.353C123.84 34.6418 124.02 34.8709 124.309 34.9306C124.539 35.0502 124.829 34.9306 124.889 34.6418C125.009 34.353 124.829 34.1836 124.539 34.0641Z" fill="#C6A27C"/>
<path d="M127.488 34.9796C127.259 34.86 126.969 34.9796 126.909 35.2684C126.789 35.5573 126.969 35.7266 127.259 35.8461C127.488 35.9059 127.778 35.8461 127.838 35.5573C127.958 35.2684 127.778 35.0393 127.488 34.9796Z" fill="#C6A27C"/>
<path d="M130.435 35.9064C130.145 35.7869 129.855 36.026 129.626 36.7132C129.456 37.4005 129.506 37.7491 129.855 37.8088C130.145 37.9283 130.435 37.6893 130.665 37.0021C130.835 36.3148 130.785 36.026 130.435 35.9064Z" fill="#C6A27C"/>
<path d="M43.1974 25.3687C42.8475 24.8507 42.5577 24.1037 42.4477 23.4065L42.8475 23.287C43.0175 23.9245 43.2473 24.6715 43.7171 25.1894L43.947 25.1296C43.5972 24.6117 43.3073 23.8049 43.1374 23.1675L43.4872 23.048C43.7171 23.6854 44.007 24.4822 44.4068 24.9504L44.6967 24.8308C44.3468 24.2531 44.007 23.5061 43.887 22.6396C42.9075 22.5798 42.1579 22.9284 41.918 23.1575C42.0379 24.2531 42.6676 25.0599 42.8975 25.3986L43.1874 25.3388L43.1974 25.3687Z" fill="#C6A27C"/>
<path d="M44.0657 16.6141L44.2955 15.8671L44.6454 15.9867C44.4755 16.5046 44.4155 17.0225 44.4755 17.5404H44.6454C44.7054 17.1918 44.8153 16.8532 44.9352 16.5046L45.2851 16.6241C45.1152 17.2018 45.1152 17.7795 45.2251 18.407H45.3451C45.3451 18.0086 45.465 17.6002 45.5749 17.2018L45.9248 17.3213C45.8048 17.899 45.8048 18.5265 45.9248 19.1639H46.0447C46.0447 18.7058 46.1047 18.2476 46.2146 17.8392L46.5645 17.899C46.5045 18.4767 46.5045 19.1639 46.6245 19.7416H46.8543C46.7944 19.1042 46.9143 18.4169 47.0243 18.0185C47.3741 17.9588 48.0638 17.899 48.9334 17.9588C46.5045 15.0205 44.4855 15.2496 43.8458 15.4787C43.7858 15.8273 43.7858 16.1659 43.8458 16.6341H44.0757L44.0657 16.6141Z" fill="#C6A27C"/>
<path d="M43.1968 21.3343C42.797 20.5873 42.5071 19.8402 42.3872 18.9737L42.787 18.9139C42.9569 19.7207 43.3667 20.4677 43.8865 21.155C43.9464 21.155 44.0564 21.0952 44.1763 21.0952C43.7166 20.4578 43.3067 19.7705 43.1368 19.0833L43.5366 18.9638C43.7665 19.7108 44.2263 20.3482 44.806 20.8661C44.926 20.8064 45.0959 20.8064 45.2058 20.7466C44.6261 20.1689 44.0464 19.4817 43.5866 18.5554C43.0069 18.4359 42.3772 18.4956 42.0273 18.6151C42.1473 19.7705 42.6071 20.7466 42.9469 21.3243H43.1768L43.1968 21.3343Z" fill="#C6A27C"/>
<path d="M47.2949 14.2536L47.6447 14.3731C47.5848 14.7715 47.7047 15.4089 47.9346 15.8173H48.1045C48.1045 15.5882 48.1645 15.2396 48.2745 14.901L48.5643 15.0205C48.5043 15.5384 48.5043 16.0564 48.6843 16.5145H48.8542C48.7942 16.2257 48.8542 15.8771 48.9741 15.7078L49.264 15.7675C49.264 16.2257 49.324 16.6838 49.5539 17.152H49.7238C49.6638 16.8631 49.6638 16.5743 49.7837 16.2854L50.1336 16.3452C50.0736 16.5743 50.1336 16.9229 50.2535 17.2117H50.4234C50.4234 16.5245 50.5434 15.9468 50.5934 15.5982C49.0341 13.9846 47.5348 13.8751 47.015 13.9249C46.8451 14.383 46.7852 14.8412 46.7852 15.1301L47.2449 15.3591C47.185 15.0105 47.185 14.6719 47.3049 14.2635L47.2949 14.2536Z" fill="#C6A27C"/>
<path d="M51.684 18.2873C51.684 17.9985 51.744 17.7694 51.8539 17.4805L52.0838 17.5403C52.0239 18.118 52.0838 18.6957 52.3737 19.1538L52.5436 19.0941C52.4836 18.7455 52.5436 18.4068 52.6636 18.0582L52.9534 18.118C52.8934 18.5762 53.0134 19.1538 53.1833 19.4427L53.4132 19.3829C53.3532 19.0343 53.4132 18.7455 53.5332 18.4666L53.823 18.5264C53.763 18.9248 53.823 19.2136 53.9929 19.622L54.2228 19.5622C54.2228 19.3331 54.2828 19.1638 54.3428 18.9248L54.6326 18.9845C54.6326 19.3829 54.5727 19.5622 54.7526 19.9009L55.0424 19.8411C55.0424 19.6718 55.1024 19.4925 55.2124 19.3232L55.5022 19.3829C55.4422 19.612 55.5022 19.7813 55.5622 19.9606L55.8521 19.9009C55.7921 19.3829 55.7921 19.0343 55.912 18.6359C55.5622 17.9985 54.7526 16.4447 51.2942 15.877C51.1743 16.3949 51.0643 17.371 51.4641 18.357L51.694 18.2973L51.684 18.2873Z" fill="#C6A27C"/>
<path d="M67.9766 22.888C68.3764 22.888 69.0261 22.9379 69.7157 23.1669C69.7457 23.0574 69.7657 22.9378 69.8057 22.8283C68.9661 22.4398 68.3764 22.4199 68.2664 22.4199L67.9766 22.8781V22.888Z" fill="#C6A27C"/>
<path d="M32.5642 33.138L31.9845 33.8851L32.7341 34.2835L32.2744 34.8611L32.8541 35.4986C33.8936 35.4986 34.7032 35.3791 35.4529 35.2695C34.8731 34.3532 34.1835 33.8253 33.3139 33.1978L33.5438 32.7994C34.7032 33.3173 35.6827 34.1241 36.6023 35.0404C37.9917 34.7516 39.431 34.403 40.8203 33.9448L40.5904 33.5464L38.6214 33.6659L38.5614 33.3173L40.2406 33.0285L40.0107 32.5703L38.3315 32.6898L38.2715 32.3412L39.6609 32.1121L39.371 31.654L37.7518 31.7735L37.6918 31.4847L39.0212 31.1958L38.7313 30.8472L36.8822 30.907L36.8222 30.6181L38.3815 30.3293L38.1516 30.0404H36.0726L36.0126 29.6918L37.7418 29.4627L37.342 29.0643L35.203 29.1839V28.8353L36.9322 28.6062L36.5323 28.148L34.6832 28.2675V27.9787L36.1325 27.6898L35.7827 27.2914L34.3434 27.4608L34.2834 27.2317L35.2629 26.8831L34.9131 26.4847L33.8736 26.5444L33.8136 26.3153L34.4533 26.0862L33.8136 25.5086L34.1035 25.1102C35.9526 26.2058 39.8208 30.1799 41.8998 33.6261L45.0783 32.5902C44.7285 32.3612 44.5586 32.1918 44.2087 31.7237C44.5586 31.4349 44.9584 31.3253 45.3082 31.146C43.8089 30.1102 42.5895 28.6161 42.2996 26.7137L42.9393 26.4249C42.2996 25.8472 41.3801 24.8113 41.2601 23.2576L40.6204 23.3173L40.4505 22.5703H39.5809L39.461 23.2576L40.1506 23.5464L39.6909 24.1839L40.4405 24.5325L39.9208 25.1699L40.7903 25.6281L40.3905 26.2058L40.9103 26.4946L40.6804 27.0723L41.2601 27.1918L41.1402 27.9388L41.8898 28.1082L41.7699 28.9149L42.8694 29.4926L42.4096 31.0464L40.8503 30.4687L41.3101 29.2635L40.3306 28.9149L40.5605 28.2277L39.9807 28.0584L40.1506 27.3711L39.5109 27.2516L39.6309 26.5643H38.7613L38.5914 25.6978L37.6718 25.9866L37.5019 25.1799L36.4624 25.2994L36.2325 24.4329L35.3129 24.7815L34.9131 23.9149L34.1635 24.2635L33.2439 23.9149L33.4738 24.7815L32.7841 25.1799L33.4238 25.8173L32.7341 26.3353L33.4838 26.8532L33.024 27.4309L33.6637 27.9488L33.2039 28.5862L33.9536 28.9847L33.6637 29.6719L34.4133 29.901L34.2434 30.648L35.113 30.8771L34.9931 31.5145L35.8627 31.5743L35.9826 32.0922H36.7922L36.9122 32.7795L37.8317 33.0683V34.2237H36.5024V33.1878L35.8627 33.1281L35.6927 32.6102H35.0031L34.7132 31.9229L34.0235 32.2117L33.4438 31.5743L32.8641 31.7436L31.9445 31.395L32.2943 32.2615L31.8945 32.7197L32.5842 33.1779L32.5642 33.138Z" fill="#C6A27C"/>
<path d="M70.1539 21.8619C69.7141 21.5431 69.2244 21.334 68.8446 21.334L68.5547 21.8519C68.8945 21.9017 69.4043 22.0013 70.004 22.2702C70.054 22.1308 70.104 22.0013 70.1539 21.8619Z" fill="#C6A27C"/>
<path d="M57.411 9.88086L57.1211 10.9167C57.291 10.9167 57.9307 10.857 58.2206 10.5681L57.411 9.88086Z" fill="#C6A27C"/>
<path d="M30.7734 33.138V33.4269C29.384 33.138 27.5349 33.4269 26.4954 34.4627L27.1851 34.7516C28.1646 33.8352 29.6139 33.6559 30.8833 33.885V34.1739C29.8438 34.1141 28.6844 34.2934 27.9347 34.9806L28.6844 35.15C29.374 34.6918 30.2436 34.5723 30.9933 34.632V34.9209C30.5335 34.9806 30.0137 35.0902 29.6039 35.3193C30.3536 35.4388 31.0532 35.4886 31.623 35.4886L31.3331 32.6699C30.8733 32.5006 30.0637 32.2715 28.9642 32.2715C26.8252 32.2715 25.6758 33.1878 25.6758 33.6559C25.6758 33.8253 25.7957 34.0045 25.8457 34.0544C27.1751 32.8492 29.1342 32.6699 30.7534 33.138H30.7734Z" fill="#C6A27C"/>
<path d="M51.6846 15.1797V14.6618L52.0845 14.5423C52.1444 14.7116 52.2544 15.0602 52.2544 15.3491L52.5442 15.4088C52.6042 15.1797 52.6042 14.9507 52.6042 14.7714L52.8941 14.6519C53.064 14.9407 53.1839 15.2295 53.1839 15.5682L53.5338 15.6877V15.11L53.9336 15.0503L54.1035 15.7375H54.5633L54.6233 15.2793C54.3934 14.9307 53.4138 13.7853 51.3348 13.377C51.2748 13.7754 51.2149 14.5323 51.2748 15.1001L51.6747 15.1598L51.6846 15.1797Z" fill="#C6A27C"/>
<path d="M55.9015 17.3097V15.8157H56.3013L56.5312 16.6823L56.991 16.8516L56.931 16.0448L57.3308 16.1046L57.6207 17.0807L57.9705 17.25L58.0305 16.503L58.4303 16.6225L58.5503 17.5388L59.01 17.8874L59.07 16.6823C57.9106 15.4771 56.5312 14.7799 55.7816 14.5508C55.3218 15.3576 55.2618 16.2739 55.3817 16.7918L55.9015 17.3097Z" fill="#C6A27C"/>
<path d="M58.7384 11.0352C58.2186 11.3838 57.6389 11.5531 57.0092 11.6726L56.9492 12.2503C57.8188 12.1308 58.3985 11.9017 59.0882 11.3838L58.7384 11.0352Z" fill="#C6A27C"/>
<path d="M70.5039 20.947C70.214 20.5386 69.7942 20.2199 69.3144 19.9609L69.1445 20.5984C69.4844 20.698 69.9741 20.8374 70.4339 21.1462C70.4639 21.0864 70.4839 21.0167 70.5139 20.957L70.5039 20.947Z" fill="#C6A27C"/>
<path d="M34.8319 38.6055C34.4321 38.6055 34.2522 38.9441 34.2422 39.6413C34.2922 40.2788 34.4621 40.6174 34.8719 40.5676C35.3317 40.5676 35.4516 40.229 35.4616 39.5915C35.4716 38.9541 35.2417 38.6154 34.8319 38.6055Z" fill="#C6A27C"/>
<path d="M83.7812 5.11043C83.7812 5.11043 83.8212 3.6662 85.8003 3.55664C86.5 4.33353 86.8998 5.42915 86.8998 5.42915L83.7812 5.11043Z" fill="#C6A27C"/>
<path d="M92.6068 5.11043C92.6068 5.11043 92.5668 3.6662 90.5878 3.55664C89.8881 4.33353 89.4883 5.42915 89.4883 5.42915L92.6068 5.11043Z" fill="#C6A27C"/>
<path d="M88.5787 3.06757C88.5787 3.06757 88.4088 3.32654 88.2788 3.71498C88.2388 3.82455 88.1289 3.82455 88.0889 3.71498C87.969 3.3365 87.7891 3.06757 87.7891 3.06757L88.1789 3.00781L88.5687 3.06757H88.5787Z" fill="#C6A27C"/>
<path d="M93.2137 8.34722H92.9238C92.1942 8.34722 92.0742 8.15798 92.0742 8.05838C92.0742 7.95877 92.1942 7.76953 92.9238 7.76953H93.2137V8.34722Z" fill="#C6A27C"/>
<path d="M93.215 7.04102H83.1797V7.40954H93.215V7.04102Z" fill="#C6A27C"/>
<path d="M91.0062 7.95858V8.16774C91.0062 8.26734 90.8963 8.34703 90.7563 8.34703H90.4764C90.3365 8.34703 90.2266 8.26734 90.2266 8.16774V7.95858C90.2266 7.85898 90.3365 7.7793 90.4764 7.7793H90.7563C90.8963 7.7793 91.0062 7.85898 91.0062 7.95858Z" fill="#C6A27C"/>
<path d="M89.0469 8.05838C89.0469 8.15798 88.9269 8.34722 88.1973 8.34722C87.4676 8.34722 87.3477 8.15798 87.3477 8.05838C87.3477 7.95877 87.4676 7.76953 88.1973 7.76953C88.9269 7.76953 89.0469 7.95877 89.0469 8.05838Z" fill="#C6A27C"/>
<path d="M86.0882 7.95858V8.16774C86.0882 8.26734 85.9783 8.34703 85.8383 8.34703H85.5585C85.4185 8.34703 85.3086 8.26734 85.3086 8.16774V7.95858C85.3086 7.85898 85.4185 7.7793 85.5585 7.7793H85.8383C85.9783 7.7793 86.0882 7.85898 86.0882 7.95858Z" fill="#C6A27C"/>
<path d="M84.3192 8.05838C84.3192 8.15798 84.1992 8.34722 83.4696 8.34722H83.1797V7.76953H83.4696C84.1992 7.76953 84.3192 7.95877 84.3192 8.05838Z" fill="#C6A27C"/>
<path d="M94.0472 2.10124C94.9967 2.30044 95.6864 3.02753 95.7764 3.96379C95.8763 5.13909 94.8568 6.50363 93.1676 6.51359L93.2176 6.21478C93.4575 6.16498 94.487 5.82634 94.8368 4.89008C94.9967 4.4618 95.0167 3.96379 94.7469 3.50562C94.2771 2.71877 93.0377 2.56936 91.9982 2.92793C91.8182 2.98769 91.6683 3.06737 91.5384 3.14705C91.3984 3.10721 91.2385 3.07733 91.0586 3.05741C91.5084 2.60921 92.5679 1.79247 94.0572 2.10124H94.0472Z" fill="#C6A27C"/>
<path d="M92.6068 5.11043L89.4883 5.42915C89.4883 5.42915 89.8881 4.33353 90.5878 3.55664C92.5768 3.6662 92.6068 5.11043 92.6068 5.11043Z" fill="#CE3A2B"/>
<path d="M87.0882 0.826693H87.618V0.59761C87.618 0.398406 87.8079 0.0498008 88.1977 0C88.5975 0.0498008 88.7774 0.408367 88.7774 0.59761V0.826693H89.3172C89.707 0.826693 89.767 1.09562 89.767 1.09562C89.767 1.09562 89.717 1.38446 89.3472 1.38446H88.5276V2.04183C88.5276 2.2012 88.5076 2.23108 88.2077 2.23108C87.9078 2.23108 87.8879 2.2012 87.8879 2.04183V1.38446H87.0682C86.6984 1.38446 86.6484 1.09562 86.6484 1.09562C86.6484 1.09562 86.7084 0.826693 87.0982 0.826693H87.0882Z" fill="#C6A27C"/>
<path d="M88.5787 3.07734C88.5787 3.07734 88.4088 3.3363 88.2788 3.72475C88.2388 3.83431 88.1289 3.83431 88.0889 3.72475C87.969 3.34626 87.7891 3.07734 87.7891 3.07734L88.1789 3.01758L88.5687 3.07734H88.5787Z" fill="#CE3A2B"/>
<path d="M86.4683 2.26172C86.4683 2.26172 87.6577 3.4171 88.0675 4.68204C88.0875 4.7418 88.1175 4.80156 88.2074 4.7916C88.3074 4.7916 88.3374 4.67208 88.3374 4.67208C88.7472 3.40714 89.9366 2.26172 89.9366 2.26172C89.9366 2.26172 90.4964 2.4908 90.7962 2.63024C89.5268 3.59638 88.7272 5.97686 88.7272 5.97686L92.6154 5.72785L92.4854 6.50475H83.8995L83.7695 5.72785L87.6877 5.97686C87.5478 5.51869 86.8181 3.60634 85.6187 2.63024C85.9185 2.4908 86.4783 2.26172 86.4783 2.26172H86.4683Z" fill="#C6A27C"/>
<path d="M83.7812 5.11043C83.7812 5.11043 83.8212 3.6662 85.8003 3.55664C86.5 4.33353 86.8998 5.42915 86.8998 5.42915L83.7812 5.11043Z" fill="#CE3A2B"/>
<path d="M80.6016 3.95402C80.6815 3.01777 81.3812 2.29067 82.3308 2.09147C83.8201 1.78271 84.8796 2.59944 85.3293 3.04765C85.1494 3.06757 84.9995 3.09745 84.8496 3.13729C84.7196 3.05761 84.5697 2.97793 84.3898 2.91816C83.3503 2.56956 82.1109 2.709 81.6411 3.49585C81.3612 3.95402 81.3812 4.44207 81.5511 4.88032C81.9009 5.80661 82.9205 6.15522 83.1704 6.20502L83.2203 6.50382C81.5411 6.50382 80.5116 5.12932 80.6116 3.95402H80.6016Z" fill="#C6A27C"/>
<path d="M93.215 8.68555H83.1797V9.05407H93.215V8.68555Z" fill="#C6A27C"/>
<path d="M88.1956 12.2109C79.1698 12.2109 71.8633 19.5018 71.8633 28.4858C71.8633 37.4699 79.1798 44.7607 88.1956 44.7607C97.2113 44.7607 104.528 37.4699 104.528 28.4858C104.528 19.5018 97.2113 12.2109 88.1956 12.2109ZM91.1742 36.7428C87.7958 36.7428 84.6673 35.0595 81.3688 35.0595C79.1299 35.0595 77.5606 35.687 75.7415 37.2508H75.5316C76.9709 34.2627 79.4597 32.5695 82.5482 32.4898C86.0166 32.4898 88.7653 34.0934 92.3536 34.0934C94.2527 34.0934 95.4022 33.6751 96.8315 32.6591L97.0015 32.699C95.9819 35.2687 94.0428 36.7428 91.1642 36.7428H91.1742ZM92.9933 30.3384C89.6549 30.3384 86.3964 28.695 83.058 28.695C80.7291 28.695 78.9599 29.2428 77.1808 30.8464H77.0109C78.4502 27.8085 81.1589 26.1651 84.2874 26.1253C87.7958 26.0854 90.5445 27.689 94.2228 27.689C96.1219 27.689 97.3913 27.3105 98.8306 26.2149L99.0005 26.2946C97.941 28.8245 95.9519 30.3384 92.9933 30.3384ZM94.8924 23.9739C91.514 23.9739 88.2955 22.2906 84.9571 22.2906C82.5882 22.2906 80.939 22.7986 78.91 24.6113H78.7001C80.1794 21.3643 83.058 19.8105 86.1865 19.7209C89.6549 19.7209 92.4436 21.3245 96.1219 21.3245C98.021 21.3245 99.2904 20.8165 100.77 19.8504L100.85 19.8902C99.7901 22.4201 97.8011 23.9739 94.8924 23.9739Z" fill="#CE3A2B"/>
<path d="M94.2236 27.6895C90.5453 27.6895 87.7966 26.0859 84.2883 26.1257C81.1598 26.1656 78.451 27.809 77.0117 30.8468H77.1816C78.9608 29.2433 80.73 28.6955 83.0589 28.6955C86.3973 28.6955 89.6558 30.3389 92.9942 30.3389C95.9528 30.3389 97.9419 28.8249 99.0014 26.2951L98.8314 26.2154C97.3921 27.311 96.1227 27.6895 94.2236 27.6895Z" fill="white"/>
<path d="M92.3651 34.0938C88.7667 34.0938 86.018 32.4902 82.5597 32.4902C79.4711 32.5699 76.9823 34.2631 75.543 37.2512H75.7529C77.572 35.6874 79.1313 35.06 81.3802 35.06C84.6787 35.06 87.8072 36.7432 91.1856 36.7432C94.0643 36.7432 96.0033 35.2691 97.0229 32.6994L96.8529 32.6596C95.4136 33.6755 94.2741 34.0938 92.375 34.0938H92.3651Z" fill="white"/>
<path d="M100.773 19.8502C99.2934 20.8163 98.024 21.3243 96.1249 21.3243C92.4467 21.3243 89.658 19.7207 86.1896 19.7207C83.0611 19.8004 80.1824 21.3641 78.7031 24.6111H78.913C80.9421 22.7984 82.5913 22.2904 84.9602 22.2904C88.2986 22.2904 91.5171 23.9737 94.8955 23.9737C97.8141 23.9737 99.8032 22.4099 100.853 19.89L100.773 19.8502Z" fill="white"/>
</g>
<defs>
<clipPath id="clip0_2520_575">
<rect width="170" height="90" fill="white"/>
</clipPath>
</defs>
</svg>
