<svg width="161" height="48" viewBox="0 0 161 48" fill="none" xmlns="http://www.w3.org/2000/svg">
<mask id="mask0_199_502" style="mask-type:luminance" maskUnits="userSpaceOnUse" x="0" y="0" width="161" height="48">
<path d="M0 48H160.491V2.28882e-05H0V48Z" fill="white"/>
</mask>
<g mask="url(#mask0_199_502)">
<mask id="mask1_199_502" style="mask-type:luminance" maskUnits="userSpaceOnUse" x="0" y="0" width="161" height="48">
<path d="M0 48H160.491V2.28882e-05H0V48Z" fill="white"/>
</mask>
<g mask="url(#mask1_199_502)">
<path d="M80.2451 6.19084C36.1575 6.19084 0 0 0 0V47.9998C0 47.9998 36.1575 41.808 80.2451 41.808C124.333 41.808 160.49 47.9998 160.49 47.9998V0C160.49 0 124.333 6.19103 80.2451 6.19103" fill="#F1BC7C"/>
<path d="M0 44.8527C0 44.8527 36.1575 39.8953 80.2449 39.8953C124.333 39.8953 160.49 44.8527 160.49 44.8527V3.03691C160.49 3.03691 124.333 7.99524 80.2449 7.99524C36.1575 7.99524 0 3.03691 0 3.03691V44.8527Z" fill="white"/>
</g>
</g>
<path d="M44.6311 25.4574C44.6311 30.176 40.4396 31.847 36.5149 31.847H29.1343L29.8749 32.593H36.6105C38.9561 32.593 44.4906 32.0595 45.2732 27.0763C45.1277 26.4648 44.9355 25.8304 44.7863 25.4258L44.6311 25.4574ZM37.4192 23.0471L35.5717 29.2814C35.5484 29.4535 35.5809 29.5744 35.6673 29.6705C35.783 29.8025 35.9872 29.8703 36.2748 29.8703H36.3362C36.3362 29.8703 37.9831 23.8774 38.0214 23.7525C38.3622 23.7785 39.0541 24.0355 39.2716 24.1658L39.4944 24.3035L39.3868 24.0617C39.0811 23.3996 38.1774 23.0471 37.4792 23.0471H37.4192ZM39.587 16.1748H39.3487L38.0014 21.0085H38.8916C38.8916 21.0085 39.9694 16.9947 40.0006 16.8727C41.0971 16.8753 41.5792 16.8871 42.5977 17.445L42.6962 17.32C41.5609 16.1718 40.984 16.1746 39.5872 16.1746M46.3238 19.998L47.0848 20.7006L46.5266 15.8337L45.7656 15.1297L46.3238 19.998ZM50.1175 27.0818L49.7171 27.738C49.2896 28.4219 48.87 29.0929 48.87 29.7093C48.87 30.1204 49.0523 30.4995 49.5227 30.8664L49.5256 30.8742V30.8719L49.5341 30.8815L49.6386 30.7561C49.5362 30.6522 49.4944 30.5122 49.4944 30.3481C49.4944 29.6893 50.2288 28.647 50.6206 28.0858L50.8306 27.7799H53.5707V27.0818H50.1175ZM51.8648 24.6778L52.7492 24.9201L53.8437 23.312L54.0012 21.6614L53.8551 21.6201L51.8648 24.6778ZM52.8631 31.847L53.554 32.5425H60.2406L59.5462 31.847H52.8631ZM58.5693 28.42C58.5199 29.484 58.5878 29.9941 59.4318 30.4424L59.6665 30.5736L59.538 30.3302C59.3569 30.0039 59.3802 29.3607 59.3961 28.8829L59.4064 28.5744L60.1785 15.4973L59.4933 14.809L58.5693 28.42ZM72.2216 18.3723L67.637 30.2455C67.1466 31.6429 65.7387 32.0703 64.5609 32.2928L63.6178 32.3557L63.8073 32.4826C63.9881 32.6035 64.4664 32.6459 64.5736 32.6459C66.5751 32.8078 68.0052 31.9453 68.7057 30.1644L72.8522 19.1104C73.1667 18.3019 73.5149 17.7315 73.8729 17.123L74.4997 16.0335L74.3755 16.0274C73.3792 15.977 72.5502 17.476 72.2216 18.3723ZM63.4851 29.3629C63.5125 29.4855 63.584 29.5816 63.699 29.6583C63.8432 29.7603 64.0459 29.8025 64.2115 29.7703L64.2905 29.7537L64.2742 29.6716C64.2337 29.4823 64.4572 29.3686 64.5927 29.338C64.8335 29.2415 65.0646 29.2415 65.3459 29.2415H65.5326L65.2581 28.9372C65.0936 28.7481 64.9148 28.5398 64.5736 28.5398C63.9836 28.6324 63.4278 28.7742 63.4851 29.3629ZM70.0284 31.8472L70.7201 32.5425H78.6765L77.9211 31.847L70.0284 31.8472ZM82.4645 15.8421C81.0512 15.8421 80.1939 16.1411 79.735 17.7441L76.7932 27.9714C76.4383 29.0511 76.359 29.7259 76.56 30.0106C76.6256 30.1132 76.7367 30.1705 76.8727 30.1705H76.8661L77.7588 30.2298L77.6043 30.0757C77.1823 29.6398 77.3505 28.9607 77.5768 28.3062L80.5185 18.0781C80.8933 16.689 81.8429 16.5886 83.0399 16.5886H83.2384L82.4972 15.8421H82.4645ZM88.1681 16.3799C86.8343 16.9677 84.9559 18.2712 84.0345 20.0191L84.0053 20.0729L84.6569 20.7255L84.7094 20.6257C85.3711 19.2886 86.4783 18.1686 87.8091 17.4919L87.8344 17.482L88.3618 16.2938L88.1681 16.3799ZM82.8892 31.847L83.6471 32.5425H92.2085L91.5161 31.847H82.8892ZM89.6198 29.2814C89.578 29.415 89.5923 29.5317 89.6592 29.6326C89.8107 29.8884 90.2252 29.9662 90.4525 30.0078L90.6272 30.04L90.5996 29.9163C90.5032 29.5041 90.5498 29.3219 90.6945 28.9372L94.1776 16.5812L93.5203 15.857L89.6198 29.2814ZM97.6402 19.9756H97.016L97.7707 20.6715H98.2945L99.625 15.8465L98.9099 15.1807C98.9099 15.1807 97.6728 19.8559 97.6402 19.9756ZM96.4036 31.847L97.0933 32.5425H104.892L104.2 31.847H96.4036ZM105.74 31.847L106.497 32.5425H114.243L113.554 31.847H105.74ZM102.801 29.3014C102.684 29.5112 102.72 29.6483 102.771 29.7331C102.897 29.959 103.25 30.0189 103.443 30.0189H103.482L108.324 24.4955L108.92 22.5092L108.781 22.432L102.801 29.3014ZM108.888 15.8421C107.296 15.8421 106.477 16.4121 106.16 17.7468L104.471 23.2885L104.608 23.3717L105.637 22.2922L106.745 18.6187C107.068 17.6102 107.64 16.5886 109.468 16.5886H109.661L108.921 15.8421H108.888ZM118.195 15.8421C116.86 15.8421 115.881 16.1602 115.466 17.7468L112.475 27.9714C112.114 29.0511 112.041 29.7259 112.24 30.0106C112.312 30.1132 112.418 30.1705 112.553 30.1705H112.548L113.221 30.2148L113.257 30.0549C112.739 29.8524 113.08 28.8247 113.229 28.3866L113.255 28.3062L116.248 18.0781C116.628 16.6862 117.535 16.5886 118.773 16.5886H118.968L118.228 15.8421H118.195ZM116.265 31.847L116.956 32.5425H124.755L124.064 31.847H116.265ZM123.98 24.7133L122.601 29.3801C122.554 29.5971 122.591 29.8132 122.71 29.9834C122.839 30.1705 123.044 30.2777 123.296 30.3052L123.387 30.3176V30.2315C123.387 29.9385 123.387 29.8069 123.477 29.5705C123.482 29.5622 124.589 25.5023 124.629 25.3554L124.905 25.1428L124.436 24.312L123.98 24.7133ZM135.644 15.8421C134.253 15.9448 132.963 16.9326 132.317 17.5076L128.321 21.1523L132.347 29.2431C132.502 29.6603 132.871 30.1705 133.384 30.1705H133.514C133.514 30.1705 129.39 21.6002 129.335 21.4908C129.427 21.4094 133.099 18.116 133.099 18.116C133.716 17.5675 134.938 16.6354 136.232 16.5886L136.415 16.5768L135.679 15.8393L135.644 15.8421ZM128.266 15.8421C126.53 16.0391 126.197 17.1851 125.978 17.9422L125.278 20.3841L126.347 19.4858L126.806 18.0398C127.192 17.0186 127.804 16.5888 128.85 16.5888H129.047L128.303 15.8393L128.266 15.8421ZM126.872 31.7978L127.562 32.4971H134.785L134.09 31.7978H126.872ZM135.166 31.847L135.858 32.5425H141.018L140.262 31.847H135.166ZM140.913 27.0818L140.574 27.5328C139.946 28.3439 138.894 29.6982 139.698 30.3374L140.268 30.9237L140.385 30.8065C140.238 30.6494 140.177 30.4596 140.177 30.2564C140.177 29.5744 140.855 28.713 141.3 28.1359L141.571 27.7799H144.361V27.0818H140.913ZM142.61 24.6778L143.495 24.9201L144.586 23.312L144.745 21.6614L144.597 21.6201L142.61 24.6778ZM143.591 31.847L144.342 32.5425H150.98L150.29 31.847H143.591ZM149.214 28.42C149.118 29.4459 149.403 29.7259 150.029 30.3481L150.107 30.4294L150.229 30.3213C150.009 29.9967 149.933 29.476 150 28.7317L150.921 15.4973L150.24 14.8105L149.214 28.42ZM44.3479 31.847L45.1653 32.5425H50.2123L49.5197 31.847H44.3479Z" fill="#F1BC7C"/>
<path d="M33.1399 15.3288L33.2836 14.7493H45.0985L45.5821 19.3758H45.1468C44.3274 15.8731 41.7204 15.6267 38.5886 15.675L36.9022 21.5691H37.7691C40.3225 21.5691 43.7967 22.6841 43.7967 25.8992C43.7967 29.4023 39.8419 31.3472 36.7086 31.3472H28.5121L28.6557 30.7677C30.3461 30.7677 31.0673 30.276 31.4991 28.6703L34.6832 17.4206C34.9721 16.4557 35.1366 15.5247 33.8314 15.3776L33.1399 15.3288ZM37.0937 22.4858H36.5639L34.6338 29.5422C34.5403 29.9853 34.8274 30.4191 35.309 30.4191C37.9591 30.4191 40.3224 27.9916 40.3224 25.1704C40.3224 23.3673 38.7837 22.4859 37.0937 22.4859M145.34 25.3565L145.872 18.696L145.485 18.7866L141.097 25.3565H145.34ZM143.268 30.6649C144.712 30.6649 145.051 29.7899 145.149 28.525L145.293 26.5824H140.232L139.169 28.2291C138.591 29.2065 137.626 30.6649 139.699 30.6649L139.462 31.347H134.641L134.832 30.6649C136.129 30.469 137 29.354 137.674 28.3286L146.208 15.4798C147.363 15.3781 148.521 14.8489 149.582 14.4131L148.521 28.6703C148.424 29.6411 148.33 30.6647 149.677 30.6647L149.486 31.3472H143.075L143.268 30.6649ZM127.55 15.3325L127.693 14.7493H120.464L120.268 15.3326C121.522 15.3781 122.247 15.8265 121.814 17.4206L118.58 28.6703C118.146 30.1845 117.422 30.7677 115.833 30.7677L115.689 31.3472H123.308L123.5 30.7677C122.102 30.6161 121.619 30.1337 122.053 28.6703L123.354 24.2915L124.704 23.117L127.646 28.7712C128.129 29.6411 127.501 30.6649 126.535 30.6649L126.343 31.2984H133.288L133.482 30.6649C132.18 30.7178 131.839 29.6409 131.358 28.6703L127.453 20.8394L131.647 17.1851C132.611 16.3062 133.528 15.4299 134.928 15.3326L135.121 14.7493H129.719L129.527 15.3326C132.034 15.4299 130.585 16.7896 129.575 17.6204L123.884 22.2495L125.282 17.4206C125.62 16.306 126.101 15.3779 127.55 15.3325ZM108.164 15.3326C106.766 15.3326 105.895 16.3062 105.614 17.4206L103.006 26.4326L111.492 17.0376C111.879 15.8265 111.446 15.3326 109.949 15.3326L110.143 14.7493H117.714L117.52 15.3326C115.88 15.3326 115.203 15.8731 114.772 17.4206L111.543 28.6703C111.156 30.1845 111.492 30.7677 113.131 30.7677L112.985 31.3472H105.419L105.514 30.7677C107.06 30.7677 107.732 30.0845 108.164 28.6703L110.816 19.1766L102.33 28.7714C102.092 30.1845 102.428 30.7677 103.776 30.7677L103.588 31.3472H96.0639L96.1593 30.7677C97.6082 30.6161 98.6176 29.9341 98.9546 28.6703L102.141 17.4206C102.571 15.8731 102.186 15.3326 100.55 15.3326L100.789 14.7493H108.358L108.164 15.3326ZM97.08 19.4731L98.3295 14.7493H84.3968L82.9044 19.4731H83.4822C84.4388 17.4206 87.2413 15.5264 89.5025 15.4798L85.6012 28.6703C85.1175 30.4189 84.251 30.6647 82.5597 30.6647L82.4645 31.3472H90.8082L90.9516 30.6649C89.3636 30.6649 88.5923 30.469 89.0742 28.6703L92.8863 15.4798C95.0985 15.4798 96.5911 17.3282 96.5911 19.4731H97.08ZM69.6893 30.7677L69.4484 31.3472H77.1637L77.349 30.7677C75.7178 30.8158 75.4226 30.1845 75.8174 28.6703L79.042 17.4206C79.4716 15.8731 80.1072 15.3326 81.7416 15.3326L81.8876 14.7493H69.3081L69.1092 15.3326C71.1321 15.3326 70.605 16.9411 70.1247 18.1537L65.9252 29.0577C65.5914 29.8886 64.5285 30.569 63.9485 30.518C63.2753 30.469 62.6971 29.9339 62.6971 29.3041C62.65 28.3762 63.618 28.0439 64.0474 28.0439C64.0474 27.2646 63.1763 26.5826 62.3118 26.633C61.3953 26.6685 60.4301 27.5509 60.4301 28.7714C60.4301 30.3215 61.5896 31.6429 63.226 31.6873C65.1588 31.7335 66.5117 31.0512 67.1363 29.4023L71.378 18.3008C72.1022 16.3589 73.1589 15.4798 74.3713 15.5263C75.474 15.577 75.8175 16.689 75.5716 17.5688L72.4367 28.6703C72.0031 30.2317 71.282 30.7677 69.6893 30.7677ZM54.5952 25.3565H50.3522L54.7403 18.7866L55.1289 18.696L54.5952 25.3565ZM52.5191 30.6649L52.3287 31.347H58.7432L58.9355 30.6649C57.6346 30.6649 57.6813 29.5916 57.7802 28.6703L58.8392 14.4131C57.7804 14.8489 56.5756 15.3779 55.464 15.4796L46.9294 28.3286C46.256 29.354 45.337 30.469 44.0372 30.6649L43.8449 31.347H48.7621L48.9543 30.6649C46.9294 30.6649 47.8477 29.1577 48.4257 28.2291L49.487 26.5826H54.5501L54.4073 28.525C54.3561 29.7899 53.9696 30.6649 52.5191 30.6649ZM24.9016 22.4749C21.6111 22.3299 18.6914 20.5135 15.358 20.5608C12.3005 20.607 8.91815 22.7142 7.99099 25.7478C9.75344 24.39 12.1606 23.271 14.4308 23.2248C17.6742 23.0811 20.7316 24.9582 23.9268 25.0478C26.7055 25.1 29.3969 23.4508 30.2252 21.213C28.513 21.915 26.7036 22.5697 24.9016 22.4749ZM26.7533 16.2578C23.4626 16.1129 20.5427 14.2964 17.2095 14.3439C14.1521 14.3901 10.7697 16.4973 9.84254 19.5309C11.605 18.1729 14.0122 17.0539 16.2824 17.0078C19.5257 16.864 22.5832 18.7411 25.7783 18.8309C28.557 18.8827 31.2485 17.2337 32.0767 14.9959C30.3646 15.6981 28.5554 16.3526 26.7533 16.2578ZM28.3685 27.4729C27.54 29.711 24.8488 31.3601 22.0701 31.308C18.8749 31.2185 15.8175 29.3413 12.5741 29.4853C10.3039 29.5309 7.89673 30.6498 6.13428 32.008C7.06143 28.9744 10.4438 26.8674 13.5013 26.821C16.8345 26.7737 19.7544 28.5899 23.0451 28.735C24.8471 28.83 26.6563 28.1753 28.3685 27.4729Z" fill="#002D74"/>
<path d="M9.68948 25.7928L9.76896 25.9277C9.76896 25.9277 11.6848 24.8893 14.1362 24.9333C15.4864 24.9577 16.9188 25.4116 18.5612 25.8769C20.2326 26.361 22.3087 26.8914 23.714 26.9112C26.0689 26.9439 27.9899 25.9249 28.903 24.5495L28.8051 24.4288C28.8051 24.4288 27.0546 26.0085 23.8064 26.0037C22.4713 26.0018 20.6034 25.4966 19.1285 25.0883C17.5975 24.6577 16.2731 24.2416 14.8757 24.219C12.9379 24.1876 10.9665 24.8558 9.68948 25.7928ZM7.83276 32.0529L7.91224 32.1877C7.91224 32.1877 9.82811 31.1492 12.2795 31.1932C13.6297 31.218 15.062 31.6716 16.7045 32.137C18.3757 32.6211 20.452 33.1518 21.8573 33.1712C24.2122 33.2041 26.1332 32.1851 27.0461 30.8097L26.9484 30.6888C26.9484 30.6888 25.1979 32.2686 21.9497 32.264C20.6146 32.262 18.7466 31.7568 17.2718 31.3487C15.7408 30.9178 14.4162 30.5019 13.019 30.4792C11.0811 30.4476 9.10964 31.116 7.83276 32.0529ZM16.7273 18.0019C18.1247 18.0245 19.4492 18.4406 20.9801 18.8714C22.4551 19.2797 24.3229 19.7849 25.658 19.7868C28.906 19.7914 30.6566 18.2117 30.6566 18.2117L30.7546 18.3324C29.8415 19.7076 27.9204 20.727 25.5656 20.6941C24.1604 20.6745 22.0841 20.1441 20.4128 19.66C18.7703 19.1945 17.3382 18.7407 15.9877 18.7163C13.5364 18.672 11.6205 19.7106 11.6205 19.7106L11.541 19.5757C12.8183 18.6385 14.7894 17.9705 16.7273 18.0019Z" fill="#F1BC7C"/>
</svg>
