<svg width="402" height="140" viewBox="0 0 402 140" fill="none" xmlns="http://www.w3.org/2000/svg">
<g opacity="0.15" clip-path="url(#clip0_515_40668)">
<mask id="mask0_515_40668" style="mask-type:luminance" maskUnits="userSpaceOnUse" x="0" y="0" width="402" height="409">
<path d="M402 0.000123251H0V408.139H402V0.000123251Z" fill="white"/>
</mask>
<g mask="url(#mask0_515_40668)">
<mask id="mask1_515_40668" style="mask-type:luminance" maskUnits="userSpaceOnUse" x="18" y="-71" width="1253" height="662">
<path d="M18.1875 590.635H1270.54V-70.8962H18.1875V590.635Z" fill="white"/>
</mask>
<g mask="url(#mask1_515_40668)">
</g>
<mask id="mask2_515_40668" style="mask-type:luminance" maskUnits="userSpaceOnUse" x="-150" y="-70" width="1254" height="663">
<path d="M-149.043 592.071H1103.31V-69.4601H-149.043V592.071Z" fill="white"/>
</mask>
<g mask="url(#mask2_515_40668)">
</g>
<mask id="mask3_515_40668" style="mask-type:luminance" maskUnits="userSpaceOnUse" x="-317" y="-69" width="1254" height="663">
<path d="M-316.281 593.507H936.067V-68.0241H-316.281V593.507Z" fill="white"/>
</mask>
<g mask="url(#mask3_515_40668)">
<mask id="mask4_515_40668" style="mask-type:luminance" maskUnits="userSpaceOnUse" x="355" y="136" width="246" height="49">
<path d="M355.465 184.832H600.211V136.184H355.465V184.832Z" fill="white"/>
</mask>
<g mask="url(#mask4_515_40668)">
<path d="M600.204 136.222C600.327 136.45 597.322 138.356 591.439 140.837C589.978 141.481 588.319 142.094 586.514 142.809C584.691 143.463 582.722 144.219 580.573 144.921C576.295 146.392 571.37 147.893 565.892 149.428C554.935 152.495 541.739 155.591 526.91 158.191C512.083 160.765 495.675 162.79 478.459 164.552C461.242 166.319 444.86 167.843 430.015 169.608C422.591 170.499 415.562 171.407 409.005 172.437C402.924 173.384 396.862 174.451 390.823 175.636C385.843 176.612 380.886 177.701 375.955 178.902C371.602 179.962 367.897 181.025 364.874 181.919C358.845 183.753 355.609 185.085 355.468 184.79C355.352 184.563 358.389 182.708 364.335 180.367C367.951 178.976 371.62 177.728 375.333 176.625C379.671 175.33 384.652 174.006 390.196 172.718C395.739 171.428 401.844 170.169 408.427 168.984C415.012 167.796 422.09 166.749 429.529 165.748C444.42 163.762 460.837 162.117 478.023 160.352C495.21 158.594 511.533 156.696 526.271 154.353C540.997 151.988 554.171 149.214 565.137 146.539C570.621 145.2 575.564 143.913 579.87 142.669C582.034 142.078 584.016 141.44 585.863 140.905C587.684 140.31 589.371 139.819 590.859 139.3C596.848 137.319 600.058 135.933 600.204 136.222Z" fill="#A6A6A6"/>
</g>
<mask id="mask5_515_40668" style="mask-type:luminance" maskUnits="userSpaceOnUse" x="381" y="120" width="246" height="50">
<path d="M381.312 169.116H626.052V120.476H381.312V169.116Z" fill="white"/>
</mask>
<g mask="url(#mask5_515_40668)">
<path d="M626.052 120.511C626.167 120.725 623.155 122.615 617.269 125.083C615.808 125.723 614.147 126.331 612.342 127.044C610.52 127.694 608.549 128.446 606.401 129.146C602.121 130.61 597.195 132.105 591.717 133.634C580.76 136.689 567.565 139.777 552.739 142.37C537.913 144.938 521.509 146.958 504.293 148.72C487.077 150.488 470.694 152.015 455.848 153.787C448.424 154.681 441.394 155.592 434.836 156.627C428.754 157.579 422.692 158.65 416.652 159.842C411.672 160.823 406.714 161.918 401.784 163.125C397.432 164.193 393.728 165.263 390.706 166.164C384.679 168.012 381.448 169.36 381.315 169.08C381.207 168.867 384.249 167.026 390.199 164.701C393.816 163.318 397.485 162.076 401.199 160.979C405.536 159.691 410.518 158.374 416.061 157.091C421.604 155.807 427.709 154.553 434.291 153.373C440.875 152.189 447.951 151.146 455.39 150.149C470.279 148.168 486.696 146.527 503.883 144.762C521.071 143.004 537.396 141.102 552.136 138.753C566.866 136.381 580.041 133.598 591.006 130.912C596.49 129.567 601.432 128.273 605.737 127.023C607.901 126.429 609.883 125.788 611.728 125.249C613.55 124.65 615.237 124.156 616.723 123.633C622.708 121.638 625.913 120.237 626.052 120.511Z" fill="#A6A6A6"/>
</g>
</g>
<mask id="mask6_515_40668" style="mask-type:luminance" maskUnits="userSpaceOnUse" x="-484" y="-67" width="1253" height="662">
<path d="M-483.496 594.943H768.852V-66.588H-483.496V594.943Z" fill="white"/>
</mask>
<g mask="url(#mask6_515_40668)">
<mask id="mask7_515_40668" style="mask-type:luminance" maskUnits="userSpaceOnUse" x="188" y="137" width="245" height="50">
<path d="M188.227 186.268H432.97V137.62H188.227V186.268Z" fill="white"/>
</mask>
<g mask="url(#mask7_515_40668)">
<path d="M432.966 137.658C433.089 137.886 430.084 139.792 424.201 142.274C422.739 142.918 421.08 143.529 419.276 144.246C417.453 144.899 415.483 145.655 413.335 146.358C409.057 147.829 404.131 149.329 398.654 150.864C387.697 153.931 374.5 157.027 359.671 159.627C344.845 162.201 328.436 164.226 311.221 165.988C294.003 167.755 277.621 169.279 262.777 171.044C255.353 171.936 248.324 172.843 241.768 173.873C235.686 174.821 229.624 175.887 223.585 177.073C218.605 178.049 213.648 179.137 208.717 180.338C204.364 181.398 200.659 182.461 197.636 183.356C191.607 185.189 188.37 186.522 188.23 186.227C188.114 185.999 191.15 184.144 197.097 181.803C200.713 180.412 204.381 179.163 208.095 178.06C212.433 176.766 217.414 175.441 222.957 174.154C228.501 172.864 234.606 171.605 241.189 170.421C247.774 169.232 254.852 168.185 262.291 167.184C277.181 165.198 293.599 163.553 310.785 161.788C327.972 160.03 344.295 158.132 359.033 155.79C373.759 153.424 386.933 150.65 397.899 147.975C403.382 146.636 408.326 145.348 412.631 144.105C414.796 143.514 416.778 142.876 418.624 142.341C420.446 141.746 422.134 141.254 423.621 140.736C429.609 138.755 432.82 137.368 432.966 137.658Z" fill="#A6A6A6"/>
</g>
<mask id="mask8_515_40668" style="mask-type:luminance" maskUnits="userSpaceOnUse" x="214" y="121" width="245" height="50">
<path d="M214.086 170.553H458.831V121.913H214.086V170.553Z" fill="white"/>
</mask>
<g mask="url(#mask8_515_40668)">
<path d="M458.824 121.947C458.94 122.16 455.928 124.052 450.043 126.519C448.581 127.159 446.92 127.767 445.116 128.48C443.293 129.13 441.323 129.882 439.174 130.582C434.895 132.047 429.969 133.54 424.49 135.07C413.534 138.126 400.338 141.214 385.512 143.806C370.688 146.374 354.282 148.395 337.067 150.156C319.85 151.924 303.468 153.451 288.622 155.222C281.198 156.117 274.168 157.03 267.61 158.064C261.528 159.015 255.465 160.087 249.425 161.277C244.445 162.259 239.488 163.354 234.558 164.562C230.205 165.629 226.502 166.699 223.48 167.6C217.453 169.448 214.221 170.796 214.089 170.516C213.98 170.304 217.023 168.463 222.972 166.137C226.589 164.754 230.259 163.513 233.972 162.415C238.31 161.128 243.291 159.81 248.835 158.527C254.378 157.243 260.482 155.99 267.065 154.809C273.648 153.625 280.725 152.583 288.164 151.584C303.053 149.604 319.469 147.963 336.657 146.198C353.844 144.44 370.169 142.539 384.91 140.19C399.639 137.818 412.814 135.034 423.78 132.347C429.263 131.003 434.206 129.709 438.511 128.459C440.675 127.866 442.657 127.223 444.502 126.685C446.323 126.086 448.01 125.592 449.496 125.07C455.482 123.074 458.687 121.674 458.825 121.947" fill="#A6A6A6"/>
</g>
<mask id="mask9_515_40668" style="mask-type:luminance" maskUnits="userSpaceOnUse" x="239" y="106" width="246" height="49">
<path d="M239.934 154.837H484.673V106.205H239.934V154.837Z" fill="white"/>
</mask>
<g mask="url(#mask9_515_40668)">
<path d="M484.673 106.235C484.78 106.434 481.763 108.31 475.875 110.763C474.412 111.4 472.751 112.004 470.945 112.713C469.121 113.36 467.151 114.109 465.002 114.806C460.722 116.264 455.795 117.751 450.317 119.275C439.36 122.32 426.165 125.398 411.342 127.984C396.52 130.546 380.117 132.562 362.902 134.324C345.687 136.092 329.303 137.621 314.456 139.4C307.031 140.298 299.999 141.213 293.442 142.253C287.359 143.208 281.296 144.285 275.256 145.482C269.72 146.585 264.737 147.706 260.388 148.784C256.036 149.858 252.333 150.935 249.311 151.844C243.288 153.706 240.062 155.07 239.936 154.804C239.836 154.606 242.883 152.782 248.835 150.47C252.454 149.095 256.124 147.861 259.838 146.769C264.176 145.488 269.157 144.176 274.7 142.899C280.243 141.622 286.347 140.373 292.928 139.197C299.512 138.018 306.587 136.978 314.026 135.984C328.913 134.01 345.328 132.372 362.517 130.607C379.706 128.848 396.033 126.944 410.776 124.588C425.508 122.209 438.683 119.417 449.649 116.719C455.132 115.369 460.075 114.069 464.379 112.812C466.542 112.215 468.524 111.57 470.369 111.028C472.189 110.426 473.876 109.928 475.361 109.402C481.343 107.392 484.542 105.976 484.673 106.235Z" fill="#A6A6A6"/>
</g>
<mask id="mask10_515_40668" style="mask-type:luminance" maskUnits="userSpaceOnUse" x="265" y="90" width="246" height="50">
<path d="M265.758 139.124H510.504V90.4978H265.758V139.124Z" fill="white"/>
</mask>
<g mask="url(#mask10_515_40668)">
<path d="M510.496 90.5246C510.595 90.7089 507.573 92.5699 501.681 95.0083C500.217 95.6415 498.556 96.2423 496.75 96.9483C494.925 97.5914 492.954 98.3369 490.805 99.0309C486.524 100.482 481.597 101.964 476.119 103.482C465.162 106.515 451.967 109.584 437.147 112.163C422.327 114.718 405.926 116.732 388.713 118.492C371.498 120.26 355.113 121.794 340.265 123.578C332.84 124.479 325.807 125.4 319.248 126.442C313.164 127.403 307.101 128.485 301.061 129.688C295.524 130.796 290.543 131.924 286.193 133.009C281.842 134.089 278.139 135.173 275.12 136.089C269.098 137.966 265.878 139.344 265.76 139.094C265.666 138.911 268.72 137.101 274.674 134.805C278.294 133.438 281.965 132.21 285.679 131.124C290.018 129.849 294.998 128.544 300.542 127.273C306.084 126 312.188 124.757 318.769 123.586C325.351 122.411 332.425 121.376 339.863 120.384C354.749 118.417 371.164 116.783 388.353 115.017C405.542 113.259 421.872 111.351 436.618 108.988C451.353 106.602 464.529 103.8 475.494 101.092C480.977 99.7362 485.919 98.4301 490.222 97.1664C492.385 96.5664 494.366 95.9176 496.21 95.3733C498.03 94.7669 499.716 94.2649 501.202 93.7354C507.18 91.7114 510.374 90.2804 510.496 90.5246Z" fill="#A6A6A6"/>
</g>
<mask id="mask11_515_40668" style="mask-type:luminance" maskUnits="userSpaceOnUse" x="291" y="74" width="246" height="50">
<path d="M291.605 123.408H536.345V74.7894H291.605V123.408Z" fill="white"/>
</mask>
<g mask="url(#mask11_515_40668)">
<path d="M536.344 74.8135C536.394 74.9144 535.649 75.3832 534.174 76.1887C532.693 76.9759 530.458 78.0433 527.512 79.2526C526.048 79.8823 524.385 80.4796 522.578 81.182C520.753 81.8217 518.782 82.5643 516.633 83.2548C512.35 84.6992 507.424 86.1754 501.946 87.6876C490.987 90.7091 477.793 93.7695 462.976 96.3414C448.159 98.8892 431.761 100.899 414.548 102.66C397.335 104.428 380.949 105.965 366.099 107.756C358.673 108.66 351.638 109.583 345.079 110.632C338.995 111.596 332.931 112.683 326.891 113.893C321.354 115.007 316.372 116.14 312.023 117.232C307.672 118.319 303.97 119.41 300.952 120.333C294.932 122.224 291.718 123.617 291.608 123.383C291.56 123.281 292.315 122.827 293.805 122.052C295.302 121.293 297.564 120.284 300.537 119.138C304.159 117.78 307.831 116.559 311.544 115.478C315.885 114.21 320.865 112.911 326.407 111.645C331.95 110.379 338.053 109.141 344.633 107.974C351.214 106.803 358.287 105.772 365.725 104.784C380.609 102.823 397.023 101.192 414.213 99.4258C431.403 97.6679 447.736 95.7568 462.484 93.3869C477.222 90.9936 490.399 88.1838 501.364 85.463C506.846 84.1019 511.787 82.7895 516.09 81.5195C518.253 80.9166 520.234 80.265 522.077 79.7165C523.896 79.1065 525.582 78.601 527.065 78.0687C533.041 76.0298 536.229 74.584 536.344 74.8135Z" fill="#A6A6A6"/>
</g>
<mask id="mask12_515_40668" style="mask-type:luminance" maskUnits="userSpaceOnUse" x="317" y="59" width="246" height="49">
<path d="M317.422 107.695H562.161V59.0821H317.422V107.695Z" fill="white"/>
</mask>
<g mask="url(#mask12_515_40668)">
<path d="M562.16 59.1022C562.206 59.1954 561.458 59.6571 559.98 60.4548C558.496 61.2349 556.258 62.2946 553.312 63.4976C551.847 64.1231 550.183 64.7175 548.377 65.4164C546.55 66.0525 544.579 66.7916 542.428 67.4786C538.146 68.9159 533.218 70.3871 527.739 71.893C516.781 74.904 503.588 77.9545 488.774 80.52C473.96 83.0615 457.564 85.0671 440.352 86.8278C423.139 88.5956 406.752 90.136 391.901 91.9334C384.475 92.8413 377.439 93.7689 370.878 94.8215C364.793 95.7896 358.729 96.8817 352.688 98.0972C347.152 99.2169 342.17 100.357 337.821 101.455C333.471 102.549 329.769 103.647 326.752 104.577C320.735 106.483 317.527 107.891 317.424 107.671C317.379 107.578 318.138 107.131 319.631 106.363C321.13 105.612 323.395 104.611 326.369 103.471C329.992 102.122 333.665 100.908 337.379 99.8325C341.718 98.5709 346.699 97.2783 352.242 96.0182C357.784 94.7566 363.887 93.5239 370.466 92.3612C377.047 91.1964 384.118 90.1692 391.555 89.1843C406.438 87.2288 422.851 85.6015 440.042 83.8359C457.233 82.078 473.568 80.162 488.318 77.7857C503.06 75.3868 516.237 72.5665 527.202 69.8351C532.684 68.4683 537.625 67.1496 541.927 65.8732C544.089 65.266 546.07 64.6116 547.911 64.0595C549.731 63.4467 551.415 62.9384 552.898 62.4012C558.872 60.3489 562.052 58.8876 562.16 59.1022Z" fill="#A6A6A6"/>
</g>
<mask id="mask13_515_40668" style="mask-type:luminance" maskUnits="userSpaceOnUse" x="343" y="43" width="246" height="49">
<path d="M343.273 91.98H588.013V43.3731H343.273V91.98Z" fill="white"/>
</mask>
<g mask="url(#mask13_515_40668)">
<path d="M588.011 43.3916C588.054 43.4771 587.301 43.9317 585.821 44.7217C584.335 45.4947 582.095 46.5466 579.147 47.7425C577.68 48.3645 576.016 48.9554 574.208 49.6508C572.382 50.2833 570.41 51.019 568.259 51.7023C563.976 53.134 559.047 54.5982 553.568 56.0991C542.61 59.0988 529.418 62.1401 514.607 64.6986C499.795 67.233 483.403 69.2359 466.191 70.9966C448.979 72.7643 432.59 74.3082 417.739 76.112C410.312 77.0227 403.274 77.9539 396.713 79.0114C390.628 79.9835 384.563 81.0808 378.522 82.3027C372.984 83.428 368.003 84.5738 363.655 85.6786C359.304 86.7785 355.603 87.8841 352.588 88.8216C346.573 90.7425 343.371 92.1651 343.275 91.9603C343.234 91.8742 343.996 91.4351 345.492 90.6755C346.994 89.9307 349.26 88.9374 352.236 87.805C355.861 86.4641 359.534 85.2572 363.248 84.1869C367.587 82.9324 372.569 81.6461 378.11 80.3909C383.653 79.1357 389.755 77.908 396.334 76.7502C402.913 75.5889 409.983 74.5666 417.421 73.5846C432.303 71.6354 448.714 70.0117 465.905 68.246C483.098 66.4875 499.435 64.5687 514.188 62.1853C528.932 59.7801 542.11 56.9505 553.074 54.2078C558.557 52.8347 563.497 51.5103 567.798 50.2268C569.96 49.6169 571.94 48.9589 573.782 48.404C575.6 47.787 577.283 47.2752 578.767 46.7351C584.736 44.668 587.912 43.1918 588.011 43.3916Z" fill="#A6A6A6"/>
</g>
<mask id="mask14_515_40668" style="mask-type:luminance" maskUnits="userSpaceOnUse" x="369" y="27" width="245" height="50">
<path d="M369.105 76.2666H613.845V27.6647H369.105V76.2666Z" fill="white"/>
</mask>
<g mask="url(#mask14_515_40668)">
<path d="M613.843 27.6802C613.882 27.7585 613.126 28.2054 611.643 28.9891C610.153 29.7536 607.911 30.7985 604.961 31.9866C603.495 32.6058 601.829 33.1938 600.022 33.8857C598.194 34.514 596.222 35.2461 594.07 35.9266C589.787 37.3527 584.858 38.8098 579.379 40.3051C568.42 43.2935 555.228 46.3249 540.42 48.877C525.611 51.4051 509.22 53.4044 492.009 55.1651C474.798 56.9321 458.409 58.4796 443.556 60.2904C436.13 61.2032 429.091 62.1401 422.528 63.2011C416.442 64.1773 410.376 65.2798 404.335 66.5079C398.798 67.6389 393.817 68.7903 389.468 69.9022C385.118 71.0085 381.418 72.1211 378.404 73.0657C372.392 75.0015 369.195 76.4402 369.107 76.2496C369.069 76.1706 369.835 75.7392 371.333 74.9866C372.838 74.2496 375.106 73.2641 378.082 72.1388C381.709 70.8062 385.383 69.6062 389.097 68.5411C393.437 67.293 398.419 66.0123 403.961 64.7642C409.502 63.5146 415.604 62.2912 422.182 61.1383C428.761 59.9812 435.83 58.9639 443.266 57.984C458.147 56.0426 474.557 54.421 491.75 52.6553C508.943 50.8975 525.282 48.9744 540.038 46.5847C554.786 44.1724 567.963 41.3337 578.928 38.579C584.41 37.2009 589.35 35.8702 593.65 34.5803C595.811 33.9676 597.791 33.3061 599.632 32.7469C601.451 32.1271 603.134 31.6117 604.615 31.0681C610.582 28.9862 613.751 27.4959 613.843 27.6802Z" fill="#A6A6A6"/>
</g>
<mask id="mask15_515_40668" style="mask-type:luminance" maskUnits="userSpaceOnUse" x="394" y="11" width="246" height="50">
<path d="M394.941 60.5496H639.681V11.9597H394.941V60.5496Z" fill="white"/>
</mask>
<g mask="url(#mask15_515_40668)">
<path d="M639.679 11.9697C639.714 12.0403 638.954 12.4801 637.468 13.256C635.976 14.0135 633.732 15.0513 630.78 16.2324C629.313 16.8466 627.647 17.4311 625.838 18.1195C624.01 18.7457 622.038 19.4742 619.886 20.1512C615.601 21.5702 610.672 23.0217 605.193 24.5113C594.234 27.4884 581.043 30.5107 566.237 33.0564C551.431 35.5767 535.043 37.5732 517.833 39.3325C500.623 41.101 484.233 42.652 469.378 44.4684C461.95 45.3855 454.911 46.3244 448.347 47.3911C442.26 48.3719 436.194 49.4793 430.153 50.7128C424.615 51.8494 419.634 53.0072 415.286 54.1261C410.937 55.2394 407.238 56.3584 404.225 57.3101C401.919 58.0609 399.629 58.8648 397.36 59.721C395.809 60.3253 394.976 60.6098 394.942 60.5392C394.909 60.4679 395.677 60.0436 397.179 59.2988C398.686 58.5688 400.956 57.5903 403.934 56.4728C407.562 55.1484 411.237 53.9554 414.951 52.8963C419.291 51.6538 424.273 50.3802 429.815 49.137C435.357 47.8931 441.458 46.676 448.035 45.5274C454.613 44.3745 461.679 43.3601 469.115 42.3844C483.995 40.4486 500.404 38.832 517.598 37.0656C534.792 35.307 551.134 33.3804 565.892 30.9844C580.643 28.565 593.822 25.7171 604.785 22.9518C610.267 21.5681 615.206 20.231 619.506 18.9349C621.667 18.3185 623.646 17.6535 625.486 17.0916C627.305 16.4682 628.986 15.9493 630.467 15.4015C632.756 14.5976 635.027 13.7427 637.279 12.8374C638.816 12.2013 639.644 11.8984 639.679 11.969" fill="#A6A6A6"/>
</g>
</g>
<mask id="mask16_515_40668" style="mask-type:luminance" maskUnits="userSpaceOnUse" x="-651" y="-66" width="1253" height="663">
<path d="M-650.734 596.379H601.612V-65.152H-650.734V596.379Z" fill="white"/>
</mask>
<g mask="url(#mask16_515_40668)">
<mask id="mask17_515_40668" style="mask-type:luminance" maskUnits="userSpaceOnUse" x="21" y="139" width="245" height="49">
<path d="M21.0273 187.704H265.769V139.056H21.0273V187.704Z" fill="white"/>
</mask>
<g mask="url(#mask17_515_40668)">
<path d="M265.767 139.094C265.889 139.322 262.884 141.228 257.002 143.71C255.54 144.354 253.88 144.966 252.076 145.682C250.254 146.335 248.284 147.091 246.136 147.794C241.857 149.265 236.932 150.765 231.455 152.301C220.498 155.368 207.301 158.464 192.472 161.063C177.645 163.638 161.237 165.663 144.021 167.423C126.804 169.192 110.422 170.715 95.5769 172.481C88.1536 173.372 81.125 174.28 74.5686 175.31C68.4871 176.257 62.4249 177.323 56.3856 178.509C51.4056 179.485 46.4484 180.574 41.5178 181.774C37.1648 182.835 33.4599 183.898 30.4369 184.792C24.4079 186.626 21.1703 187.958 21.0305 187.663C20.9148 187.436 23.9511 185.58 29.8975 183.239C33.5132 181.848 37.1822 180.6 40.8959 179.497C45.2333 178.202 50.2147 176.879 55.758 175.59C61.3013 174.301 67.4065 173.042 73.9897 171.857C80.5736 170.668 87.6523 169.622 95.0911 168.621C109.982 166.634 126.4 164.989 143.586 163.224C160.773 161.466 177.095 159.569 191.833 157.226C206.56 154.861 219.733 152.087 230.7 149.412C236.183 148.073 241.126 146.785 245.432 145.541C247.596 144.95 249.579 144.313 251.424 143.778C253.246 143.182 254.934 142.691 256.422 142.172C262.41 140.191 265.621 138.805 265.767 139.094Z" fill="#A6A6A6"/>
</g>
<mask id="mask18_515_40668" style="mask-type:luminance" maskUnits="userSpaceOnUse" x="46" y="123" width="246" height="49">
<path d="M46.8633 171.989H291.608V123.349H46.8633V171.989Z" fill="white"/>
</mask>
<g mask="url(#mask18_515_40668)">
<path d="M291.602 123.383C291.718 123.597 288.706 125.487 282.821 127.955C281.36 128.595 279.698 129.203 277.893 129.916C276.07 130.565 274.1 131.318 271.952 132.018C267.672 133.483 262.747 134.976 257.268 136.506C246.312 139.562 233.116 142.65 218.289 145.242C203.465 147.81 187.059 149.83 169.844 151.593C152.628 153.36 136.245 154.887 121.4 156.659C113.975 157.553 106.945 158.464 100.387 159.499C94.3051 160.451 88.2425 161.522 82.2028 162.714C77.2226 163.695 72.2654 164.791 67.3351 165.998C62.9827 167.065 59.2799 168.136 56.2569 169.036C50.2301 170.885 46.9988 172.232 46.8661 171.952C46.7574 171.74 49.8001 169.899 55.7493 167.574C59.3663 166.19 63.0359 164.949 66.7498 163.852C71.0873 162.563 76.0686 161.246 81.6119 159.963C87.1552 158.68 93.2604 157.426 99.8415 156.246C106.425 155.061 113.502 154.019 120.942 153.021C135.831 151.041 152.246 149.399 169.435 147.634C186.622 145.876 202.947 143.975 217.688 141.625C232.417 139.253 245.591 136.471 256.557 133.784C262.041 132.44 266.983 131.145 271.288 129.895C273.452 129.301 275.434 128.66 277.279 128.122C279.1 127.522 280.788 127.028 282.274 126.505C288.259 124.51 291.464 123.109 291.602 123.383Z" fill="#A6A6A6"/>
</g>
<mask id="mask19_515_40668" style="mask-type:luminance" maskUnits="userSpaceOnUse" x="72" y="107" width="246" height="50">
<path d="M72.6797 156.274H317.42V107.641H72.6797V156.274Z" fill="white"/>
</mask>
<g mask="url(#mask19_515_40668)">
<path d="M317.418 107.671C317.526 107.871 314.508 109.747 308.62 112.199C307.157 112.836 305.496 113.441 303.69 114.15C301.867 114.796 299.896 115.545 297.747 116.242C293.467 117.7 288.541 119.188 283.063 120.711C272.106 123.757 258.91 126.835 244.087 129.421C229.265 131.982 212.862 133.999 195.648 135.76C178.432 137.528 162.048 139.057 147.202 140.836C139.776 141.734 132.745 142.65 126.187 143.688C120.104 144.644 114.041 145.721 108.001 146.919C102.464 148.022 97.4829 149.143 93.1334 150.221C88.7811 151.294 85.0783 152.372 82.0574 153.28C76.0333 155.143 72.8078 156.506 72.6821 156.241C72.5812 156.043 75.6288 154.218 81.5809 151.906C85.1994 150.532 88.8697 149.297 92.5835 148.206C96.9217 146.924 101.902 145.613 107.446 144.336C112.989 143.058 119.093 141.808 125.674 140.634C132.257 139.454 139.333 138.415 146.771 137.421C161.659 135.447 178.075 133.808 195.262 132.043C212.451 130.285 228.779 128.381 243.522 126.024C258.254 123.645 271.429 120.854 282.395 118.156C287.878 116.806 292.82 115.505 297.124 114.248C299.288 113.651 301.269 113.007 303.114 112.465C304.934 111.862 306.621 111.364 308.107 110.839C314.088 108.829 317.288 107.412 317.418 107.671Z" fill="#A6A6A6"/>
</g>
<mask id="mask20_515_40668" style="mask-type:luminance" maskUnits="userSpaceOnUse" x="98" y="91" width="246" height="50">
<path d="M98.5195 140.559H343.262V91.9337H98.5195V140.559Z" fill="white"/>
</mask>
<g mask="url(#mask20_515_40668)">
<path d="M343.258 91.9609C343.357 92.1444 340.335 94.0061 334.443 96.4445C332.979 97.077 331.317 97.6785 329.511 98.3845C327.687 99.0276 325.716 99.7732 323.566 100.467C319.285 101.918 314.359 103.4 308.881 104.918C297.923 107.951 284.729 111.02 269.908 113.599C255.089 116.155 238.688 118.167 221.474 119.929C204.26 121.696 187.875 123.23 173.027 125.014C165.602 125.915 158.569 126.834 152.01 127.879C145.926 128.838 139.862 129.92 133.822 131.124C128.286 132.232 123.305 133.36 118.955 134.445C114.604 135.525 110.901 136.609 107.881 137.525C101.859 139.403 98.6395 140.78 98.5216 140.53C98.4277 140.347 101.482 138.537 107.436 136.24C111.056 134.874 114.727 133.647 118.441 132.56C122.78 131.286 127.759 129.98 133.303 128.709C138.845 127.437 144.95 126.193 151.531 125.022C158.113 123.847 165.187 122.812 172.625 121.821C187.511 119.853 203.925 118.219 221.114 116.453C238.304 114.695 254.634 112.787 269.379 110.424C284.115 108.038 297.291 105.237 308.256 102.528C313.739 101.172 318.681 99.8663 322.984 98.6027C325.147 98.0026 327.128 97.3538 328.972 96.8095C330.792 96.2031 332.478 95.7011 333.963 95.1716C339.942 93.1476 343.135 91.7166 343.258 91.9609Z" fill="#A6A6A6"/>
</g>
<mask id="mask21_515_40668" style="mask-type:luminance" maskUnits="userSpaceOnUse" x="124" y="76" width="246" height="49">
<path d="M124.355 124.845H369.094V76.2259H124.355V124.845Z" fill="white"/>
</mask>
<g mask="url(#mask21_515_40668)">
<path d="M369.094 76.2498C369.143 76.35 368.399 76.8195 366.924 77.625C365.443 78.4122 363.207 79.4796 360.262 80.6889C358.798 81.3172 357.135 81.9159 355.328 82.6184C353.503 83.258 351.532 84.0006 349.383 84.6904C345.1 86.1348 340.173 87.611 334.695 89.1239C323.737 92.1454 310.543 95.2051 295.725 97.7777C280.909 100.326 264.511 102.335 247.298 104.096C230.085 105.864 213.698 107.4 198.849 109.193C191.422 110.096 184.389 111.02 177.829 112.068C171.745 113.032 165.681 114.119 159.641 115.329C154.659 116.325 149.702 117.438 144.773 118.667C140.422 119.755 136.72 120.846 133.702 121.769C127.682 123.661 124.468 125.054 124.358 124.819C124.31 124.718 125.064 124.264 126.555 123.488C128.052 122.729 130.314 121.721 133.287 120.573C136.909 119.215 140.581 117.995 144.295 116.914C148.634 115.647 153.614 114.348 159.157 113.081C164.699 111.815 170.803 110.577 177.383 109.41C183.964 108.239 191.037 107.209 198.475 106.22C213.359 104.259 229.773 102.628 246.963 100.862C264.153 99.1042 280.485 97.1932 295.234 94.8232C309.972 92.43 323.148 89.6195 334.114 86.8993C339.596 85.5382 344.538 84.2258 348.84 82.9558C351.003 82.3522 352.984 81.7006 354.827 81.152C356.646 80.5428 358.331 80.038 359.815 79.505C365.791 77.4662 368.979 76.0203 369.094 76.2498Z" fill="#A6A6A6"/>
</g>
<mask id="mask22_515_40668" style="mask-type:luminance" maskUnits="userSpaceOnUse" x="150" y="60" width="245" height="50">
<path d="M150.188 109.131H394.929V60.5183H150.188V109.131Z" fill="white"/>
</mask>
<g mask="url(#mask22_515_40668)">
<path d="M394.926 60.5394C394.972 60.6312 394.223 61.0943 392.746 61.892C391.262 62.6721 389.024 63.7318 386.077 64.9341C384.612 65.5596 382.948 66.1547 381.142 66.8529C379.315 67.4897 377.343 68.2289 375.194 68.9144C370.911 70.3531 365.983 71.823 360.505 73.3302C349.547 76.3412 336.353 79.3917 321.539 81.9565C306.725 84.498 290.328 86.5043 273.117 88.265C255.904 90.0328 239.517 91.5732 224.666 93.3706C217.24 94.2785 210.205 95.2054 203.644 96.258C197.559 97.226 191.494 98.3182 185.454 99.5338C179.917 100.654 174.935 101.793 170.586 102.892C166.236 103.986 162.535 105.084 159.518 106.015C153.501 107.921 150.292 109.328 150.189 109.108C150.145 109.014 150.902 108.568 152.397 107.8C153.896 107.048 156.16 106.047 159.135 104.908C162.758 103.559 166.43 102.345 170.144 101.269C174.483 100.008 179.465 98.7148 185.007 97.4547C190.549 96.1938 196.652 94.9605 203.232 93.7977C209.811 92.6322 216.883 91.6064 224.321 90.6209C239.204 88.6653 255.616 87.0388 272.807 85.2731C289.999 83.5145 306.333 81.5992 321.084 79.2229C335.825 76.8241 349.002 74.0037 359.967 71.2723C365.45 69.9055 370.39 68.5861 374.692 67.3097C376.854 66.7025 378.835 66.0488 380.677 65.4967C382.496 64.884 384.181 64.3742 385.664 63.8377C391.637 61.7854 394.818 60.3248 394.926 60.5394Z" fill="#A6A6A6"/>
</g>
<mask id="mask23_515_40668" style="mask-type:luminance" maskUnits="userSpaceOnUse" x="176" y="44" width="245" height="50">
<path d="M176.02 93.4163H420.757V44.8094H176.02V93.4163Z" fill="white"/>
</mask>
<g mask="url(#mask23_515_40668)">
<path d="M420.758 44.8278C420.8 44.9125 420.047 45.3678 418.568 46.1585C417.08 46.9309 414.84 47.9835 411.892 49.1787C410.426 49.7999 408.762 50.3915 406.954 51.0869C405.128 51.7202 403.156 52.4558 401.004 53.1392C396.722 54.5709 391.794 56.0351 386.315 57.5353C375.356 60.5357 362.163 63.5763 347.352 66.1354C332.541 68.6698 316.148 70.672 298.936 72.4327C281.725 74.2005 265.336 75.7437 250.485 77.5488C243.058 78.4588 236.02 79.3907 229.458 80.4483C223.373 81.4199 217.308 82.5168 211.268 83.7381C205.73 84.8641 200.749 86.0099 196.4 87.1148C192.049 88.2154 188.349 89.3202 185.334 90.2585C179.319 92.1787 176.117 93.602 176.021 93.3972C175.98 93.3104 176.741 92.872 178.238 92.1117C179.74 91.3669 182.006 90.3735 184.982 89.2412C188.607 87.9001 192.28 86.6935 195.994 85.6238C200.333 84.3686 205.314 83.0823 210.857 81.8278C216.398 80.5725 222.502 79.3441 229.08 78.1863C235.66 77.025 242.729 76.0028 250.166 75.0208C265.048 73.0723 281.46 71.4486 298.651 69.6829C315.844 67.9236 332.181 66.0048 346.934 63.6221C361.678 61.2162 374.855 58.3867 385.82 55.644C391.302 54.2708 396.243 52.9464 400.543 51.6637C402.706 51.0537 404.685 50.3951 406.527 49.8402C408.347 49.2239 410.029 48.7106 411.513 48.1713C417.483 46.1042 420.658 44.6273 420.758 44.8278Z" fill="#A6A6A6"/>
</g>
<mask id="mask24_515_40668" style="mask-type:luminance" maskUnits="userSpaceOnUse" x="201" y="29" width="246" height="49">
<path d="M201.863 77.7026H446.603V29.1007H201.863V77.7026Z" fill="white"/>
</mask>
<g mask="url(#mask24_515_40668)">
<path d="M446.601 29.1162C446.64 29.1939 445.884 29.6415 444.4 30.4244C442.911 31.1897 440.669 32.2345 437.719 33.4227C436.253 34.0411 434.586 34.6299 432.779 35.3217C430.951 35.95 428.98 36.6821 426.828 37.3627C422.544 38.7887 417.615 40.2459 412.137 41.7411C401.178 44.7295 387.986 47.7609 373.178 50.313C358.369 52.8411 341.978 54.8404 324.767 56.6004C307.556 58.3682 291.167 59.9156 276.314 61.7258C268.886 62.6393 261.847 63.5754 255.285 64.6372C249.199 65.613 243.133 66.7153 237.093 67.9433C231.556 69.0749 226.574 70.2264 222.226 71.339C217.877 72.4445 214.176 73.5571 211.162 74.5017C205.15 76.4375 201.953 77.8749 201.865 77.6857C201.827 77.6066 202.592 77.1753 204.091 76.422C205.595 75.6857 207.864 74.6994 210.84 73.5741C214.467 72.2417 218.141 71.0419 221.856 69.9771C226.195 68.729 231.177 67.4484 236.718 66.2002C242.26 64.9506 248.361 63.7272 254.94 62.5743C261.518 61.4172 268.587 60.3999 276.023 59.42C290.905 57.4786 307.314 55.857 324.507 54.0914C341.701 52.3335 358.04 50.4104 372.796 48.02C387.543 45.6084 400.721 42.769 411.685 40.015C417.168 38.6369 422.108 37.3062 426.407 36.0164C428.569 35.4036 430.548 34.7421 432.389 34.183C434.208 33.5631 435.891 33.0478 437.373 32.5042C443.339 30.4223 446.508 28.932 446.601 29.1162Z" fill="#A6A6A6"/>
</g>
<mask id="mask25_515_40668" style="mask-type:luminance" maskUnits="userSpaceOnUse" x="227" y="13" width="246" height="49">
<path d="M227.699 61.9851H472.434V13.3959H227.699V61.9851Z" fill="white"/>
</mask>
<g mask="url(#mask25_515_40668)">
<path d="M472.437 13.406C472.472 13.4766 471.712 13.9164 470.227 14.6909C468.734 15.4498 466.49 16.4869 463.539 17.668C462.071 18.2822 460.405 18.8667 458.597 19.5557C456.768 20.1819 454.796 20.9105 452.644 21.5875C448.359 23.0065 443.43 24.458 437.951 25.9476C426.992 28.9247 413.801 31.9469 398.995 34.4927C384.189 37.013 367.8 39.0095 350.591 40.7688C333.381 42.5372 316.991 44.0883 302.136 45.9047C294.709 46.8211 287.668 47.7607 281.105 48.8274C275.018 49.8078 268.952 50.9152 262.912 52.149C257.373 53.2857 252.393 54.4434 248.044 55.5617C243.696 56.6757 239.996 57.7947 236.983 58.7471C234.677 59.4978 232.387 60.3012 230.118 61.1565C228.567 61.7616 227.733 62.0461 227.7 61.9748C227.666 61.9042 228.435 61.4799 229.937 60.7344C231.444 60.0051 233.714 59.0259 236.693 57.9083C240.321 56.5845 243.995 55.3918 247.709 54.3326C252.049 53.0901 257.031 51.8165 262.572 50.5733C268.114 49.3294 274.215 48.1116 280.794 46.963C287.37 45.8108 294.437 44.7956 301.874 43.8207C316.753 41.8849 333.163 40.2675 350.356 38.5019C367.55 36.7433 383.892 34.8167 398.65 32.4207C413.4 30.0013 426.58 27.1534 437.543 24.3881C443.025 23.0044 447.965 21.6673 452.264 20.3711C454.425 19.7548 456.404 19.0898 458.244 18.5271C460.062 17.9045 461.744 17.3856 463.225 16.8377C465.514 16.0335 467.785 15.1786 470.036 14.2737C471.574 13.6376 472.401 13.3347 472.437 13.4053" fill="#A6A6A6"/>
</g>
<mask id="mask26_515_40668" style="mask-type:luminance" maskUnits="userSpaceOnUse" x="253" y="-3" width="246" height="50">
<path d="M253.543 46.2722H498.282V-2.31344H253.543V46.2722Z" fill="white"/>
</mask>
<g mask="url(#mask26_515_40668)">
<path d="M498.28 -2.3055C498.311 -2.24266 497.547 -1.8099 496.059 -1.0418C494.564 -0.291352 492.317 0.738659 489.365 1.91269C487.896 2.52406 486.23 3.10437 484.421 3.78987C482.592 4.41253 480.619 5.13755 478.466 5.81176C474.181 7.2237 469.251 8.66884 463.772 10.1535C452.813 13.1193 439.622 16.1324 424.82 18.6703C410.015 21.1857 393.63 23.1773 376.421 24.9372C359.212 26.705 342.82 28.2596 327.965 30.0824C320.536 31.0023 313.495 31.9454 306.932 33.0171C300.844 34.0015 294.777 35.1141 288.736 36.3542C283.197 37.4965 278.217 38.6606 273.869 39.7852C269.521 40.9056 265.821 42.0316 262.81 42.9911C260.505 43.7467 258.218 44.5577 255.951 45.4231C254.403 46.0352 253.573 46.3275 253.544 46.264C253.513 46.2004 254.285 45.7832 255.789 45.0454C257.3 44.3239 259.571 43.3525 262.551 42.242C266.18 40.9265 269.856 39.7406 273.569 38.6868C277.911 37.4513 282.892 36.1834 288.433 34.9458C293.975 33.7075 300.075 32.4954 306.652 31.351C313.229 30.2031 320.295 29.1929 327.73 28.22C342.609 26.2906 359.017 24.6775 376.211 22.9118C393.406 21.1532 409.75 19.2224 424.511 16.8193C439.265 14.3936 452.444 11.5365 463.408 8.75991C468.89 7.37056 473.828 6.02709 478.128 4.72458C480.288 4.10544 482.266 3.43618 484.107 2.8714C485.923 2.2445 487.604 1.72208 489.084 1.17072C491.373 0.361965 493.642 -0.500281 495.89 -1.41527C497.424 -2.05912 498.249 -2.36833 498.28 -2.3055Z" fill="#A6A6A6"/>
</g>
<mask id="mask27_515_40668" style="mask-type:luminance" maskUnits="userSpaceOnUse" x="279" y="-19" width="246" height="50">
<path d="M279.379 30.5596H524.118V-18.0226H279.379V30.5596Z" fill="white"/>
</mask>
<g mask="url(#mask27_515_40668)">
<path d="M524.116 -18.0164C524.143 -17.9607 523.376 -17.5364 521.885 -16.7753C520.387 -16.0319 518.138 -15.009 515.184 -13.8427C513.715 -13.2356 512.047 -12.6581 510.238 -11.9761C508.409 -11.357 506.436 -10.6348 504.282 -9.96411C499.996 -8.55923 495.066 -7.11905 489.586 -5.64075C478.627 -2.68626 465.437 0.317654 450.638 2.84927C435.836 5.35759 419.453 7.3456 402.245 9.10559C385.037 10.8726 368.644 12.4307 353.787 14.2606C346.359 15.1833 339.315 16.1307 332.751 17.2066C326.662 18.1954 320.595 19.3132 314.554 20.5593C309.016 21.7072 304.035 22.8777 299.688 24.0086C295.339 25.1354 291.641 26.2678 288.631 27.2349C286.326 27.9953 284.041 28.8138 281.778 29.6896C280.232 30.3095 279.406 30.6088 279.38 30.553C279.353 30.4965 280.129 30.0871 281.635 29.3571C283.147 28.6427 285.421 27.679 288.402 26.5756C291.392 25.5025 295.08 24.2649 299.424 23.0415C303.765 21.8124 308.746 20.5508 314.288 19.3189C319.829 18.0863 325.929 16.879 332.505 15.7396C339.081 14.5959 346.145 13.5899 353.581 12.6192C368.458 10.6968 384.864 9.08723 402.06 7.32159C419.255 5.56231 435.603 3.62867 450.366 1.21919C465.122 -1.21359 478.303 -4.07985 489.266 -6.86773C494.748 -8.26344 499.686 -9.61255 503.984 -10.9214C506.143 -11.5448 508.122 -12.2162 509.961 -12.7852C511.778 -13.4156 513.458 -13.9416 514.938 -14.4957C517.225 -15.3093 519.491 -16.1791 521.735 -17.1043C523.268 -17.7552 524.088 -18.0722 524.116 -18.0164Z" fill="#A6A6A6"/>
</g>
<mask id="mask28_515_40668" style="mask-type:luminance" maskUnits="userSpaceOnUse" x="305" y="-34" width="245" height="49">
<path d="M305.199 14.8469H549.938V-33.7317H305.199V14.8469Z" fill="white"/>
</mask>
<g mask="url(#mask28_515_40668)">
<path d="M549.935 -33.728C549.96 -33.68 549.189 -33.2621 547.695 -32.5088C546.194 -31.7732 543.944 -30.758 540.987 -29.5981C539.518 -28.9945 537.849 -28.4205 536.04 -27.7414C534.21 -27.1265 532.236 -26.4071 530.083 -25.7407C525.795 -24.3421 520.865 -22.9083 515.384 -21.4356C504.426 -18.4917 491.236 -15.4977 476.439 -12.9724C461.64 -10.4712 445.26 -8.48669 428.052 -6.72671C410.845 -4.95966 394.452 -3.39804 379.594 -1.56181C372.164 -0.636284 365.12 0.316052 358.555 1.39619C352.465 2.38883 346.398 3.5116 340.356 4.76369C334.818 5.91724 329.837 7.0941 325.49 8.23212C321.141 9.3645 317.444 10.5054 314.436 11.4796C311.438 12.4828 309.137 13.3433 307.588 13.9554C306.045 14.5823 305.222 14.8894 305.2 14.8407C305.177 14.7927 305.955 14.391 307.465 13.6688C308.98 12.9607 311.256 12.0048 314.238 10.9084C317.87 9.60954 321.547 8.43763 325.262 7.39484C329.604 6.17351 334.584 4.91758 340.126 3.69131C345.667 2.46433 351.767 1.26278 358.342 0.12687C364.917 -1.01186 371.98 -2.01436 379.415 -2.97942C394.29 -4.89755 410.697 -6.50362 427.893 -8.26925C445.089 -10.0285 461.438 -11.9657 476.204 -14.3823C490.963 -16.8214 504.145 -19.6975 515.108 -22.4967C520.59 -23.8974 525.527 -25.2528 529.824 -26.5688C531.983 -27.195 533.962 -27.8699 535.8 -28.4424C537.616 -29.0757 539.295 -29.6051 540.775 -30.1636C543.061 -30.9818 545.325 -31.8587 547.566 -32.7933C549.095 -33.452 549.911 -33.776 549.935 -33.728Z" fill="#A6A6A6"/>
</g>
</g>
<mask id="mask29_515_40668" style="mask-type:luminance" maskUnits="userSpaceOnUse" x="-818" y="-64" width="1253" height="662">
<path d="M-817.969 597.814H434.377V-63.717H-817.969V597.814Z" fill="white"/>
</mask>
<g mask="url(#mask29_515_40668)">
<mask id="mask30_515_40668" style="mask-type:luminance" maskUnits="userSpaceOnUse" x="-121" y="124" width="246" height="50">
<path d="M-120.387 173.425H124.356V124.785H-120.387V173.425Z" fill="white"/>
</mask>
<g mask="url(#mask30_515_40668)">
<path d="M124.352 124.819C124.468 125.032 121.456 126.923 115.57 129.39C114.109 130.031 112.448 130.638 110.642 131.352C108.82 132.002 106.85 132.754 104.702 133.454C100.422 134.918 95.4959 136.413 90.0175 137.942C79.0609 140.997 65.8655 144.085 51.0394 146.677C36.2154 149.246 19.8094 151.266 2.59425 153.028C-14.6223 154.795 -31.0051 156.322 -45.8503 158.094C-53.275 158.989 -60.305 159.901 -66.8628 160.935C-72.9448 161.887 -79.0074 162.958 -85.0472 164.149C-90.0274 165.131 -94.9846 166.226 -99.9149 167.433C-104.267 168.5 -107.971 169.571 -110.993 170.472C-117.02 172.32 -120.251 173.667 -120.384 173.388C-120.493 173.175 -117.45 171.334 -111.501 169.009C-107.884 167.626 -104.214 166.384 -100.5 165.287C-96.1627 163.999 -91.1814 162.682 -85.6381 161.398C-80.0948 160.115 -73.9903 158.861 -67.4078 157.681C-60.8246 156.497 -53.7479 155.454 -46.3084 154.456C-31.4195 152.476 -15.0035 150.835 2.18404 149.069C19.3716 147.311 35.6965 145.41 50.4372 143.061C65.1666 140.689 78.3415 137.906 89.3074 135.219C94.7906 133.875 99.7331 132.581 104.038 131.33C106.202 130.737 108.184 130.096 110.029 129.557C111.85 128.958 113.538 128.463 115.024 127.941C121.009 125.946 124.214 124.546 124.352 124.819Z" fill="#A6A6A6"/>
</g>
<mask id="mask31_515_40668" style="mask-type:luminance" maskUnits="userSpaceOnUse" x="-95" y="109" width="246" height="49">
<path d="M-94.543 157.709H150.198V109.077H-94.543V157.709Z" fill="white"/>
</mask>
<g mask="url(#mask31_515_40668)">
<path d="M150.197 109.107C150.304 109.305 147.287 111.182 141.398 113.635C139.935 114.271 138.273 114.876 136.468 115.585C134.645 116.232 132.674 116.981 130.525 117.678C126.244 119.136 121.319 120.624 115.84 122.147C104.884 125.192 91.6877 128.27 76.8645 130.856C62.0426 133.417 45.6393 135.434 28.4256 137.196C11.2105 138.964 -5.17439 140.493 -20.021 142.272C-27.4464 143.17 -34.4779 144.085 -41.0357 145.124C-47.1185 146.079 -53.1816 147.156 -59.2214 148.354C-64.757 149.457 -69.7398 150.578 -74.0893 151.656C-78.4409 152.729 -82.1444 153.807 -85.1652 154.716C-91.1893 156.579 -94.4142 157.941 -94.5405 157.676C-94.6415 157.478 -91.5931 155.653 -85.6417 153.341C-82.0229 151.967 -78.3524 150.733 -74.6385 149.641C-70.301 148.36 -65.3196 147.048 -59.7763 145.771C-54.2338 144.493 -48.1299 143.244 -41.5482 142.068C-34.9657 140.889 -27.8897 139.851 -20.4516 138.856C-5.56337 136.882 10.8519 135.244 28.0402 133.479C45.2285 131.721 61.5569 129.816 76.2997 127.46C91.0312 125.081 104.207 122.288 115.173 119.591C120.655 118.241 125.598 116.941 129.902 115.683C132.065 115.087 134.047 114.442 135.891 113.901C137.711 113.298 139.399 112.799 140.884 112.274C146.866 110.264 150.065 108.848 150.196 109.107" fill="#A6A6A6"/>
</g>
<mask id="mask32_515_40668" style="mask-type:luminance" maskUnits="userSpaceOnUse" x="-69" y="93" width="246" height="49">
<path d="M-68.6953 141.994H176.046V93.3692H-68.6953V141.994Z" fill="white"/>
</mask>
<g mask="url(#mask32_515_40668)">
<path d="M176.043 93.396C176.143 93.5796 173.12 95.4405 167.228 97.8797C165.764 98.5122 164.102 99.1144 162.297 99.8204C160.472 100.463 158.501 101.208 156.352 101.902C152.07 103.354 147.144 104.835 141.666 106.354C130.709 109.386 117.513 112.455 102.693 115.034C87.8751 117.59 71.4732 119.602 54.2595 121.364C37.0451 123.132 20.6602 124.666 5.81223 126.45C-1.61318 127.35 -8.64609 128.27 -15.2046 129.314C-21.2883 130.274 -27.3522 131.356 -33.3925 132.559C-38.3733 133.551 -43.3302 134.658 -48.2595 135.879C-52.6112 136.96 -56.314 138.045 -59.3334 138.96C-65.3554 140.838 -68.5746 142.215 -68.6932 141.965C-68.7871 141.782 -65.7331 139.973 -59.7789 137.675C-56.1588 136.309 -52.4879 135.082 -48.7742 133.996C-44.4353 132.721 -39.4547 131.416 -33.9114 130.144C-28.3688 128.871 -22.265 127.629 -15.6832 126.457C-9.10213 125.282 -2.0283 124.248 5.40982 123.257C20.2959 121.288 36.7105 119.653 53.8995 117.888C71.0899 116.13 87.419 114.223 102.165 111.859C116.9 109.473 130.076 106.672 141.041 103.963C146.524 102.608 151.466 101.302 155.769 100.038C157.932 99.4378 159.914 98.789 161.757 98.2447C163.577 97.6375 165.263 97.1363 166.748 96.6068C172.728 94.5835 175.92 93.1518 176.043 93.396Z" fill="#A6A6A6"/>
</g>
<mask id="mask33_515_40668" style="mask-type:luminance" maskUnits="userSpaceOnUse" x="-43" y="77" width="245" height="50">
<path d="M-42.8633 126.28H201.878V77.6609H-42.8633V126.28Z" fill="white"/>
</mask>
<g mask="url(#mask33_515_40668)">
<path d="M201.875 77.6851C201.925 77.786 201.18 78.2548 199.705 79.0603C198.224 79.8474 195.988 80.9148 193.044 82.1242C191.579 82.7539 189.916 83.3512 188.11 84.0536C186.285 84.6939 184.314 85.4359 182.164 86.1263C177.881 87.5708 172.954 89.047 167.476 90.5592C156.518 93.5807 143.325 96.6411 128.507 99.213C113.69 101.762 97.2919 103.771 80.0796 105.531C62.8659 107.3 46.4796 108.837 31.6302 110.628C24.2041 111.531 17.1698 112.456 10.6106 113.504C4.52627 114.467 -1.53785 115.554 -7.57805 116.764C-13.115 117.879 -18.0963 119.012 -22.4458 120.103C-26.7967 121.191 -30.4988 122.281 -33.5169 123.205C-39.5367 125.097 -42.7503 126.489 -42.8611 126.254C-42.9091 126.153 -42.1537 125.699 -40.6634 124.924C-39.1668 124.164 -36.9049 123.156 -33.9313 122.009C-30.3095 120.652 -26.6377 119.431 -22.9238 118.35C-18.5849 117.082 -13.6042 115.783 -8.06164 114.516C-2.51835 113.251 3.58404 112.012 10.1644 110.845C16.7455 109.675 23.8186 108.645 31.256 107.656C46.1407 105.694 62.5546 104.064 79.7443 102.297C96.9347 100.539 113.267 98.6284 128.015 96.2585C142.754 93.8652 155.93 91.0555 166.895 88.3346C172.378 86.9735 177.319 85.6611 181.622 84.3911C183.784 83.7882 185.766 83.1366 187.608 82.588C189.428 81.9788 191.113 81.4726 192.597 80.9403C198.573 78.9022 201.76 77.4556 201.875 77.6851Z" fill="#A6A6A6"/>
</g>
<mask id="mask34_515_40668" style="mask-type:luminance" maskUnits="userSpaceOnUse" x="-18" y="61" width="246" height="50">
<path d="M-17.0352 110.565H227.705V61.953H-17.0352V110.565Z" fill="white"/>
</mask>
<g mask="url(#mask34_515_40668)">
<path d="M227.703 61.9735C227.749 62.0667 227.001 62.5284 225.523 63.3269C224.039 64.1063 221.801 65.1659 218.854 66.3682C217.39 66.9944 215.726 67.5896 213.919 68.2885C212.093 68.9238 210.122 69.663 207.971 70.3499C203.689 71.788 198.761 73.2585 193.282 74.7643C182.324 77.7753 169.131 80.8258 154.317 83.3913C139.503 85.9328 123.107 87.9385 105.895 89.6992C88.6817 91.4669 72.2947 93.0074 57.4439 94.8048C50.0177 95.7126 42.9821 96.6403 36.4215 97.6929C30.3364 98.6609 24.2718 99.753 18.2314 100.969C12.6945 102.088 7.71312 103.228 3.36434 104.326C-0.986567 105.42 -4.68799 106.518 -7.7046 107.449C-13.7216 109.355 -16.9302 110.763 -17.0333 110.543C-17.0778 110.449 -16.3196 110.002 -14.8257 109.235C-13.3269 108.483 -11.0622 107.482 -8.08793 106.342C-4.46456 104.993 -0.792149 103.779 2.92168 102.704C7.26129 101.442 12.2419 100.15 17.7845 98.8895C23.3271 97.6287 29.4295 96.3953 36.0091 95.2333C42.5895 94.067 49.6605 93.0405 57.0979 92.055C71.9812 90.1001 88.3937 88.4729 105.585 86.708C122.776 84.9487 139.111 83.0334 153.861 80.6578C168.603 78.2582 181.78 75.4378 192.745 72.7064C198.227 71.3397 203.168 70.0209 207.469 68.7445C209.632 68.1374 211.613 67.4829 213.454 66.9309C215.274 66.3181 216.958 65.8098 218.441 65.2725C224.415 63.2203 227.596 61.7589 227.703 61.9735Z" fill="#A6A6A6"/>
</g>
<mask id="mask35_515_40668" style="mask-type:luminance" maskUnits="userSpaceOnUse" x="8" y="46" width="246" height="49">
<path d="M8.79297 94.8518H253.536V46.2449H8.79297V94.8518Z" fill="white"/>
</mask>
<g mask="url(#mask35_515_40668)">
<path d="M253.531 46.2633C253.573 46.348 252.821 46.8034 251.34 47.5941C249.854 48.3664 247.613 49.419 244.666 50.6142C243.2 51.2355 241.535 51.8271 239.728 52.5225C237.901 53.1557 235.93 53.8914 233.779 54.5747C229.495 56.0057 224.567 57.4692 219.088 58.9708C208.13 61.9712 194.937 65.0118 180.126 67.5696C165.314 70.104 148.921 72.1075 131.71 73.8689C114.498 75.636 98.1099 77.1799 83.2576 78.9837C75.8315 79.8944 68.7936 80.8263 62.2323 81.8831C56.1468 82.8552 50.0819 83.9525 44.0416 85.1743C38.5039 86.2997 33.5226 87.4455 29.1745 88.5503C24.8236 89.6509 21.1229 90.7558 18.1077 91.6933C12.0928 93.6135 8.89055 95.0375 8.79454 94.832C8.75359 94.7459 9.51534 94.3068 11.0113 93.5472C12.5136 92.8024 14.7798 91.8091 17.7547 90.6767C21.3798 89.3357 25.0531 88.1291 28.7672 87.0593C33.1068 85.8041 38.0881 84.5178 43.63 83.2626C49.1726 82.0074 55.2743 80.7797 61.8532 79.6219C68.4329 78.4606 75.5025 77.4383 82.9399 76.4563C97.8218 74.5071 114.234 72.8834 131.425 71.1185C148.617 69.3592 164.954 67.4404 179.707 65.057C194.452 62.6518 207.629 59.8222 218.594 57.0795C224.076 55.7064 229.017 54.382 233.318 53.0992C235.479 52.4886 237.459 51.8306 239.301 51.2757C241.12 50.6594 242.803 50.1462 244.286 49.6068C250.256 47.5397 253.431 46.0628 253.531 46.2633Z" fill="#A6A6A6"/>
</g>
<mask id="mask36_515_40668" style="mask-type:luminance" maskUnits="userSpaceOnUse" x="34" y="30" width="246" height="50">
<path d="M34.6289 79.1379H279.367V30.5367H34.6289V79.1379Z" fill="white"/>
</mask>
<g mask="url(#mask36_515_40668)">
<path d="M279.367 30.5525C279.405 30.6301 278.649 31.0777 277.166 31.8606C275.676 32.6259 273.434 33.6708 270.485 34.8589C269.018 35.4773 267.352 36.0647 265.545 36.7573C263.717 37.3856 261.746 38.1184 259.594 38.7989C255.31 40.2236 250.381 41.6814 244.902 43.1774C233.944 46.1657 220.751 49.1972 205.943 51.7493C191.134 54.2766 174.744 56.2767 157.533 58.0367C140.321 59.8044 123.933 61.3519 109.08 63.162C101.652 64.0755 94.6138 65.0109 88.0518 66.0727C81.9653 67.0492 75.8997 68.1517 69.8589 69.3795C64.3213 70.5112 59.3399 71.6626 54.9911 72.7738C50.6424 73.8808 46.9416 74.9934 43.9279 75.938C37.9158 77.8724 34.7185 79.3111 34.6302 79.1212C34.5928 79.0428 35.3574 78.6108 36.8568 77.8575C38.3606 77.1212 40.6296 76.1349 43.6059 75.0103C47.2328 73.678 50.907 72.4782 54.6212 71.4134C58.9608 70.1652 63.9422 68.8846 69.484 67.6358C75.0259 66.3862 81.1276 65.1634 87.7052 64.0106C94.2841 62.8528 101.353 61.8348 108.789 60.8549C123.67 58.9135 140.08 57.2933 157.273 55.5276C174.466 53.769 190.806 51.8467 205.562 49.4563C220.309 47.044 233.487 44.2052 244.451 41.4505C249.934 40.0732 254.874 38.7424 259.174 37.4526C261.334 36.8398 263.314 36.1777 265.155 35.6192C266.974 34.9994 268.656 34.484 270.138 33.939C276.105 31.8585 279.275 30.3668 279.367 30.5525Z" fill="#A6A6A6"/>
</g>
<mask id="mask37_515_40668" style="mask-type:luminance" maskUnits="userSpaceOnUse" x="60" y="14" width="246" height="50">
<path d="M60.457 63.4213H305.198V14.8306H60.457V63.4213Z" fill="white"/>
</mask>
<g mask="url(#mask37_515_40668)">
<path d="M305.194 14.8409C305.23 14.9115 304.469 15.3513 302.984 16.1272C301.492 16.8847 299.247 17.9225 296.296 19.1035C294.829 19.7177 293.163 20.3023 291.354 20.9906C289.525 21.6168 287.554 22.3454 285.402 23.0224C281.117 24.4414 276.187 25.8929 270.708 27.3832C259.75 30.3596 246.557 33.3825 231.753 35.9276C216.947 38.4479 200.558 40.4444 183.348 42.2037C166.139 43.9721 149.748 45.5231 134.894 47.3396C127.466 48.2567 120.425 49.1963 113.863 50.2623C107.776 51.243 101.709 52.3504 95.6684 53.5839C90.1308 54.7205 85.1494 55.8783 80.8021 56.9973C76.4526 58.1106 72.7526 59.2296 69.7395 60.1812C67.4334 60.9325 65.1447 61.7363 62.8753 62.5921C61.325 63.1964 60.4913 63.4809 60.4581 63.4103C60.4242 63.339 61.1923 62.9147 62.6946 62.1699C64.2019 61.44 66.4715 60.4615 69.4493 59.3439C73.0776 58.0196 76.7524 56.8267 80.4667 55.7675C84.8071 54.525 89.7884 53.2514 95.3295 52.0082C100.871 50.7643 106.973 49.5472 113.55 48.3986C120.128 47.2457 127.195 46.2312 134.63 45.2556C149.511 43.3198 165.919 41.7031 183.114 39.9375C200.307 38.1782 216.649 36.2523 231.408 33.8555C246.158 31.4369 259.336 28.5883 270.301 25.823C275.783 24.4393 280.721 23.1022 285.021 21.806C287.182 21.1897 289.162 20.5247 291.002 19.9627C292.819 19.3393 294.502 18.8205 295.983 18.2726C298.272 17.469 300.543 16.6141 302.794 15.7085C304.332 15.0725 305.159 14.7696 305.194 14.8402" fill="#A6A6A6"/>
</g>
<mask id="mask38_515_40668" style="mask-type:luminance" maskUnits="userSpaceOnUse" x="86" y="-1" width="246" height="49">
<path d="M86.293 47.7081H331.03V-0.877587H86.293V47.7081Z" fill="white"/>
</mask>
<g mask="url(#mask38_515_40668)">
<path d="M331.029 -0.869762C331.061 -0.806224 330.297 -0.374164 328.808 0.393933C327.314 1.14438 325.068 2.17439 322.114 3.34842C320.646 3.95979 318.98 4.5401 317.171 5.22489C315.342 5.84826 313.369 6.57331 311.216 7.24751C306.931 8.65945 302.001 10.1046 296.522 11.5892C285.563 14.555 272.372 17.5688 257.57 20.1061C242.765 22.6207 226.38 24.613 209.171 26.373C191.962 28.14 175.57 29.6953 160.715 31.5181C153.286 32.438 146.245 33.3819 139.682 34.4528C133.594 35.4372 127.527 36.5498 121.486 37.79C115.947 38.9322 110.967 40.0964 106.619 41.221C102.271 42.3406 98.5714 43.4674 95.5604 44.4268C93.2549 45.1823 90.9679 45.993 88.7012 46.8582C87.153 47.4709 86.3228 47.7632 86.2938 47.699C86.2635 47.6361 87.0351 47.2189 88.5389 46.4812C90.0496 45.7597 92.3207 44.7882 95.2999 43.6785C98.9299 42.3625 102.606 41.1765 106.32 40.1225C110.66 38.887 115.642 37.6191 121.183 36.3815C126.725 35.1433 132.825 33.9304 139.402 32.7867C145.979 31.6388 153.045 30.6286 160.48 29.6558C175.359 27.7263 191.767 26.1132 208.961 24.3475C226.156 22.5883 242.5 20.6581 257.261 18.255C272.015 15.8293 285.194 12.9722 296.158 10.1956C301.64 8.80629 306.578 7.46353 310.878 6.16031C313.038 5.54047 315.017 4.87191 316.857 4.30713C318.673 3.67952 320.354 3.15781 321.834 2.60645C324.123 1.79738 326.392 0.93516 328.64 0.0204801C330.174 -0.623366 330.998 -0.932588 331.029 -0.869051" fill="#A6A6A6"/>
</g>
<mask id="mask39_515_40668" style="mask-type:luminance" maskUnits="userSpaceOnUse" x="112" y="-17" width="245" height="49">
<path d="M112.129 31.9946H356.869V-16.5875H112.129V31.9946Z" fill="white"/>
</mask>
<g mask="url(#mask39_515_40668)">
<path d="M356.866 -16.5812C356.894 -16.5254 356.126 -16.1011 354.635 -15.3401C353.137 -14.5967 350.889 -13.5751 347.934 -12.4075C346.466 -11.8003 344.797 -11.2228 342.988 -10.5409C341.159 -9.92173 339.186 -9.19951 337.032 -8.52884C332.747 -7.12396 327.816 -5.68378 322.336 -4.20547C311.377 -1.25098 298.187 1.75293 283.388 4.28454C268.586 6.79286 252.203 8.78088 234.995 10.5409C217.787 12.3079 201.394 13.866 186.537 15.6945C179.109 16.6186 172.066 17.5653 165.501 18.6419C158.935 19.7143 152.843 20.8445 147.304 21.9946C141.766 23.1425 136.785 24.313 132.438 25.4439C128.089 26.5707 124.391 27.703 121.382 28.6702C119.077 29.4307 116.791 30.2492 114.528 31.1249C112.982 31.7447 112.156 32.0441 112.13 31.9876C112.103 31.9311 112.879 31.5216 114.385 30.7924C115.897 30.0779 118.171 29.1143 121.152 28.0108C124.142 26.9378 127.83 25.7002 132.173 24.4761C136.515 23.2477 141.496 21.9861 147.038 20.7542C152.58 19.5215 158.679 18.3143 165.255 17.1742C171.831 16.0305 178.895 15.0252 186.331 14.0552C201.208 12.1321 217.614 10.5225 234.81 8.75687C252.005 6.99759 268.353 5.06394 283.116 2.65375C297.872 0.221678 311.053 -2.64528 322.016 -5.43246C327.498 -6.82816 332.436 -8.17726 336.734 -9.48684C338.894 -10.1095 340.872 -10.7809 342.711 -11.3506C344.528 -11.9803 346.208 -12.5063 347.688 -13.0612C349.975 -13.8749 352.241 -14.7445 354.485 -15.669C356.018 -16.32 356.838 -16.6369 356.866 -16.5812Z" fill="#A6A6A6"/>
</g>
<mask id="mask40_515_40668" style="mask-type:luminance" maskUnits="userSpaceOnUse" x="137" y="-33" width="246" height="50">
<path d="M137.969 16.282H382.704V-32.2967H137.969V16.282Z" fill="white"/>
</mask>
<g mask="url(#mask40_515_40668)">
<path d="M382.706 -32.2923C382.73 -32.2443 381.959 -31.8264 380.465 -31.0731C378.964 -30.3375 376.713 -29.3223 373.757 -28.1631C372.288 -27.5588 370.619 -26.9841 368.809 -26.3064C366.979 -25.6908 365.005 -24.9721 362.852 -24.3057C358.565 -22.9064 353.634 -21.4726 348.155 -19.9993C337.195 -17.0568 324.005 -14.062 309.209 -11.5375C294.41 -9.0355 278.029 -7.05173 260.822 -5.29103C243.614 -3.52399 227.222 -1.96237 212.363 -0.126848C204.933 0.799387 197.889 1.75104 191.325 2.83117C184.758 3.90778 178.664 5.04439 173.126 6.19865C167.588 7.35292 162.607 8.52977 158.26 9.66709C153.911 10.8002 150.214 11.941 147.205 12.9146C144.207 13.9177 141.906 14.779 140.358 15.3904C138.815 16.0187 137.993 16.3251 137.969 16.2764C137.947 16.2284 138.725 15.8267 140.235 15.1045C141.75 14.3964 144.025 13.4398 147.007 12.3441C150.64 11.0452 154.317 9.8733 158.032 8.83051C162.373 7.60918 167.354 6.35327 172.895 5.12629C178.437 3.90002 184.537 2.69775 191.111 1.56255C197.687 0.423813 204.749 -0.578672 212.184 -1.54515C227.06 -3.46186 243.466 -5.06794 260.662 -6.83287C277.858 -8.59286 294.208 -10.5308 308.975 -12.9466C323.733 -15.3857 336.914 -18.2619 347.877 -21.061C353.359 -22.4624 358.297 -23.8178 362.594 -25.1331C364.753 -25.7593 366.732 -26.4342 368.57 -27.0067C370.386 -27.6407 372.065 -28.1695 373.544 -28.7279C375.83 -29.5463 378.095 -30.4235 380.336 -31.3583C381.865 -32.0163 382.682 -32.3396 382.706 -32.2923Z" fill="#A6A6A6"/>
</g>
<mask id="mask41_515_40668" style="mask-type:luminance" maskUnits="userSpaceOnUse" x="163" y="-49" width="246" height="50">
<path d="M163.805 0.568848H408.543V-48.0069H163.805V0.568848Z" fill="white"/>
</mask>
<g mask="url(#mask41_515_40668)">
<path d="M408.541 -48.0034C408.551 -47.9829 408.363 -47.8707 407.984 -47.6695C407.603 -47.4746 407.035 -47.1859 406.291 -46.8075C404.786 -46.0789 402.534 -45.0708 399.576 -43.9186C398.106 -43.3178 396.436 -42.7474 394.626 -42.0725C392.795 -41.4597 390.822 -40.7453 388.668 -40.0817C384.38 -38.6881 379.448 -37.2613 373.969 -35.7936C363.008 -32.8624 349.82 -29.8775 335.026 -27.3579C320.23 -24.8637 303.851 -22.8828 286.646 -21.1228C269.439 -19.3564 253.045 -17.7906 238.185 -15.9494C230.755 -15.0197 223.71 -14.0645 217.143 -12.9787C210.576 -11.8979 204.482 -10.7556 198.943 -9.59638C193.405 -8.43718 188.424 -7.25397 184.078 -6.10888C179.73 -4.97015 176.032 -3.82154 173.026 -2.84165C170.029 -1.82999 167.73 -0.961643 166.183 -0.342506L164.424 0.364866C164.025 0.518062 163.814 0.586544 163.805 0.566071C163.795 0.544892 163.986 0.436877 164.368 0.243441L166.08 -0.584667C167.598 -1.28428 169.875 -2.2338 172.858 -3.32171C176.493 -4.61223 180.17 -5.7773 183.885 -6.81485C188.227 -8.02983 193.208 -9.28011 198.749 -10.5C204.29 -11.7214 210.389 -12.9187 216.964 -14.049C223.539 -15.1827 230.6 -16.1824 238.034 -17.1446C252.909 -19.0557 269.313 -20.659 286.511 -22.4239C303.707 -24.1839 320.06 -26.1253 334.828 -28.5475C349.59 -30.993 362.772 -33.8783 373.735 -36.6888C379.216 -38.0958 384.154 -39.4569 388.449 -40.7792C390.608 -41.4089 392.586 -42.0873 394.424 -42.6627C396.24 -43.2995 397.918 -43.8325 399.396 -44.3944C401.681 -45.2175 403.944 -46.1019 406.181 -47.0468L407.926 -47.7902C408.323 -47.9511 408.532 -48.0231 408.541 -48.0041" fill="#A6A6A6"/>
</g>
</g>
<mask id="mask42_515_40668" style="mask-type:luminance" maskUnits="userSpaceOnUse" x="-986" y="-63" width="1254" height="663">
<path d="M-985.207 599.251H267.145V-62.2804H-985.207V599.251Z" fill="white"/>
</mask>
<g mask="url(#mask42_515_40668)">
<mask id="mask43_515_40668" style="mask-type:luminance" maskUnits="userSpaceOnUse" x="-236" y="94" width="245" height="50">
<path d="M-235.934 143.431H8.80701V94.8053H-235.934V143.431Z" fill="white"/>
</mask>
<g mask="url(#mask43_515_40668)">
<path d="M8.80494 94.8321C8.90378 95.0156 5.88151 96.8773 -0.0105284 99.3157C-1.47401 99.9483 -3.13586 100.55 -4.94173 101.256C-6.76596 101.899 -8.73705 102.644 -10.8867 103.338C-15.1677 104.789 -20.094 106.271 -25.5724 107.789C-36.5297 110.822 -49.7251 113.891 -64.5448 116.47C-79.3639 119.026 -95.765 121.038 -112.979 122.8C-130.193 124.568 -146.578 126.101 -161.426 127.886C-168.851 128.786 -175.884 129.707 -182.444 130.75C-188.527 131.71 -194.591 132.792 -200.631 133.995C-206.167 135.104 -211.148 136.231 -215.499 137.316C-219.849 138.396 -223.552 139.481 -226.572 140.396C-232.594 142.274 -235.814 143.651 -235.931 143.402C-236.025 143.219 -232.971 141.408 -227.017 139.111C-223.397 137.745 -219.726 136.518 -216.013 135.431C-211.674 134.157 -206.694 132.852 -201.15 131.58C-195.608 130.308 -189.503 129.065 -182.922 127.893C-176.34 126.718 -169.267 125.684 -161.828 124.692C-146.942 122.724 -130.528 121.09 -113.339 119.324C-96.1491 117.567 -79.8192 115.658 -65.0736 113.295C-50.3379 110.91 -37.1623 108.108 -26.1972 105.399C-20.7139 104.044 -15.7721 102.738 -11.4692 101.474C-9.30607 100.874 -7.32512 100.225 -5.48112 99.6807C-3.66112 99.0743 -1.97526 98.5723 -0.489895 98.0429C5.48898 96.0188 8.6821 94.5878 8.80494 94.8321Z" fill="#A6A6A6"/>
</g>
<mask id="mask44_515_40668" style="mask-type:luminance" maskUnits="userSpaceOnUse" x="-211" y="79" width="246" height="49">
<path d="M-210.109 127.716H34.6319V79.0975H-210.109V127.716Z" fill="white"/>
</mask>
<g mask="url(#mask44_515_40668)">
<path d="M34.6291 79.1213C34.6799 79.2216 33.9337 79.6911 32.4596 80.4966C30.9778 81.2837 28.742 82.3512 25.7974 83.5605C24.3339 84.1888 22.6699 84.7875 20.8634 85.4899C19.0391 86.1295 17.0681 86.8722 14.9177 87.5626C10.636 89.0063 5.70827 90.4833 0.229934 91.9955C-10.7282 95.017 -23.9214 98.0774 -38.7383 100.649C-53.5559 103.197 -69.9536 105.207 -87.1659 106.968C-104.38 108.735 -120.767 110.273 -135.616 112.064C-143.042 112.968 -150.076 113.891 -156.636 114.94C-162.72 115.904 -168.784 116.991 -174.824 118.2C-179.806 119.197 -184.763 120.31 -189.692 121.539C-194.043 122.626 -197.744 123.718 -200.763 124.641C-206.782 126.532 -209.996 127.925 -210.107 127.69C-210.155 127.589 -209.4 127.135 -207.91 126.36C-206.413 125.6 -204.15 124.592 -201.177 123.446C-197.556 122.087 -193.884 120.867 -190.17 119.786C-185.83 118.518 -180.85 117.219 -175.307 115.953C-169.765 114.686 -163.662 113.449 -157.082 112.282C-150.501 111.111 -143.428 110.08 -135.99 109.092C-121.105 107.131 -104.692 105.5 -87.5019 103.734C-70.3115 101.976 -53.9796 100.065 -39.2311 97.6948C-24.4925 95.3015 -11.3162 92.4918 -0.351079 89.7709C5.1315 88.4098 10.0726 87.0974 14.3755 85.8274C16.5379 85.2245 18.5195 84.5721 20.3621 84.0236C22.1814 83.4143 23.8665 82.9096 25.3505 82.3766C31.3272 80.3377 34.514 78.8919 34.6298 79.1213" fill="#A6A6A6"/>
</g>
<mask id="mask45_515_40668" style="mask-type:luminance" maskUnits="userSpaceOnUse" x="-185" y="63" width="246" height="50">
<path d="M-184.258 112.002H60.4821V63.3895H-184.258V112.002Z" fill="white"/>
</mask>
<g mask="url(#mask45_515_40668)">
<path d="M60.4804 63.4101C60.527 63.5026 59.778 63.965 58.3011 64.7627C56.8164 65.5428 54.5785 66.6025 51.6318 67.8055C50.1669 68.4302 48.5029 69.0254 46.697 69.7236C44.8707 70.3604 42.8989 71.1002 40.7485 71.7857C36.4661 73.2238 31.5384 74.6943 26.0594 76.2009C15.1013 79.2118 1.90807 82.2623 -12.906 84.8278C-27.7194 87.3693 -44.1156 89.375 -61.3272 91.1357C-78.5409 92.9035 -94.928 94.4439 -109.778 96.2413C-117.205 97.1492 -124.241 98.0768 -130.801 99.1294C-136.886 100.097 -142.951 101.19 -148.991 102.405C-154.528 103.525 -159.51 104.665 -163.858 105.763C-168.209 106.857 -171.911 107.955 -174.927 108.885C-180.944 110.791 -184.152 112.199 -184.256 111.979C-184.3 111.886 -183.542 111.439 -182.048 110.671C-180.55 109.919 -178.286 108.918 -175.311 107.779C-171.687 106.429 -168.014 105.216 -164.3 104.14C-159.961 102.879 -154.98 101.586 -149.437 100.326C-143.896 99.0645 -137.792 97.8319 -131.213 96.6691C-124.633 95.5043 -117.561 94.4771 -110.124 93.4922C-95.2407 91.5367 -78.8283 89.9094 -61.6379 88.1438C-44.446 86.3859 -28.1112 84.4699 -13.3607 82.0936C1.38002 79.6947 14.5577 76.8744 25.5221 74.143C31.0054 72.7762 35.9451 71.4568 40.2466 70.1804C42.4089 69.5739 44.3906 68.9195 46.2318 68.3674C48.0511 67.7546 49.7355 67.2463 51.2188 66.7091C57.1913 64.6561 60.3731 63.1955 60.4812 63.4101" fill="#A6A6A6"/>
</g>
<mask id="mask46_515_40668" style="mask-type:luminance" maskUnits="userSpaceOnUse" x="-159" y="47" width="246" height="50">
<path d="M-158.441 96.2876H86.2985V47.6808H-158.441V96.2876Z" fill="white"/>
</mask>
<g mask="url(#mask46_515_40668)">
<path d="M86.2966 47.6984C86.3389 47.7838 85.5864 48.2385 84.1067 49.0292C82.6192 49.8015 80.3798 50.8541 77.4317 52.0493C75.9654 52.6713 74.3007 53.2622 72.4934 53.9575C70.6671 54.5908 68.6953 55.3271 66.5442 56.0098C62.2611 57.4415 57.3326 58.9057 51.8536 60.4066C40.8955 63.407 27.703 66.4469 12.8917 69.006C-1.91954 71.5405 -18.3122 73.5433 -35.5238 75.304C-52.7354 77.0711 -69.1246 78.615 -83.9761 80.4195C-91.4029 81.3302 -98.4407 82.2621 -105.002 83.3189C-111.088 84.2908 -117.152 85.3879 -123.193 86.6094C-128.73 87.7355 -133.712 88.8805 -138.06 89.9854C-142.411 91.0867 -146.111 92.1908 -149.127 93.1291C-155.142 95.0493 -158.344 96.4726 -158.44 96.2679C-158.481 96.181 -157.719 95.7426 -156.223 94.983C-154.721 94.2375 -152.455 93.2442 -149.479 92.1118C-145.854 90.771 -142.181 89.5644 -138.467 88.4944C-134.128 87.2392 -129.146 85.9529 -123.604 84.6984C-118.062 83.4432 -111.96 82.2148 -105.381 81.057C-98.8015 79.8957 -91.7319 78.8734 -84.2937 77.8914C-69.4119 75.9429 -53.0008 74.3192 -35.8097 72.5543C-18.6172 70.7943 -2.2803 68.8761 12.4731 66.4928C27.2173 64.0868 40.395 61.2573 51.3595 58.5153C56.842 57.1415 61.7824 55.8171 66.0832 54.5343C68.2449 53.9244 70.2251 53.2657 72.067 52.7108C73.8856 52.0945 75.5686 51.5819 77.0512 51.0419C83.0216 48.9748 86.197 47.4993 86.2966 47.6984Z" fill="#A6A6A6"/>
</g>
<mask id="mask47_515_40668" style="mask-type:luminance" maskUnits="userSpaceOnUse" x="-133" y="31" width="246" height="50">
<path d="M-132.59 80.5742H112.149V31.9723H-132.59V80.5742Z" fill="white"/>
</mask>
<g mask="url(#mask47_515_40668)">
<path d="M112.148 31.9878C112.187 32.0655 111.431 32.513 109.947 33.296C108.458 34.0612 106.216 35.1061 103.266 36.2942C101.8 36.9134 100.134 37.5014 98.3264 38.1933C96.4993 38.8216 94.5268 39.5537 92.3757 40.2343C88.0912 41.6603 83.1628 43.1174 77.6844 44.6127C66.7249 47.6011 53.5332 50.6325 38.7247 53.1846C23.9155 55.7127 7.52499 57.712 -9.68589 59.4727C-26.8968 61.2397 -43.2859 62.7872 -58.1389 64.598C-65.5657 65.5109 -72.6042 66.4477 -79.1669 67.5088C-85.2535 68.4846 -91.3192 69.5871 -97.3598 70.8155C-102.897 71.9465 -107.879 73.0979 -112.227 74.2098C-116.576 75.3161 -120.277 76.4287 -123.289 77.3733C-129.303 79.3091 -132.5 80.7464 -132.589 80.5572C-132.626 80.4782 -131.861 80.0468 -130.362 79.2943C-128.857 78.5572 -126.589 77.5717 -123.612 76.4457C-119.985 75.1135 -116.311 73.9137 -112.598 72.8487C-108.258 71.6006 -103.277 70.32 -97.7347 69.0718C-92.1928 67.8222 -86.0911 66.5987 -79.5129 65.4459C-72.9332 64.2888 -65.8657 63.2715 -58.4297 62.2916C-43.5479 60.3502 -27.1383 58.7286 -9.94572 56.963C7.24751 55.2051 23.588 53.282 38.3428 50.8923C53.0905 48.48 66.2682 45.6413 77.2326 42.8866C82.7152 41.5085 87.6549 40.1778 91.9549 38.888C94.1159 38.2752 96.0962 37.6137 97.9367 37.0546C99.7552 36.4347 101.438 35.9194 102.919 35.3758C108.886 33.2939 112.056 31.8035 112.148 31.9878Z" fill="#A6A6A6"/>
</g>
<mask id="mask48_515_40668" style="mask-type:luminance" maskUnits="userSpaceOnUse" x="-107" y="16" width="245" height="49">
<path d="M-106.777 64.8564H137.962V16.2672H-106.777V64.8564Z" fill="white"/>
</mask>
<g mask="url(#mask48_515_40668)">
<path d="M137.96 16.2769C137.995 16.3475 137.235 16.7873 135.75 17.5617C134.257 18.3207 132.013 19.3584 129.061 20.5388C127.594 21.1544 125.928 21.7383 124.119 22.4266C122.292 23.0528 120.319 23.7813 118.167 24.4584C113.882 25.8774 108.953 27.3289 103.474 28.8185C92.5153 31.7955 79.3242 34.8178 64.5186 37.3635C49.7122 39.8838 33.3238 41.8803 16.1143 43.6396C-1.09585 45.4081 -17.4864 46.9591 -32.3407 48.7756C-39.7683 49.6926 -46.8089 50.6316 -53.3717 51.6983C-59.4587 52.6786 -65.5245 53.7861 -71.5652 55.0199C-77.1036 56.1565 -82.0849 57.3143 -86.4323 58.4333C-90.7818 59.5466 -94.4811 60.6655 -97.4935 61.6172C-99.8 62.3682 -102.089 63.1718 -104.359 64.0274C-105.909 64.6324 -106.743 64.9169 -106.776 64.8456C-106.81 64.775 -106.041 64.3507 -104.54 63.6059C-103.032 62.876 -100.763 61.8975 -97.7843 60.7799C-94.1563 59.4555 -90.4817 58.2626 -86.7676 57.2035C-82.4273 55.961 -77.446 54.6874 -71.9041 53.4442C-66.3629 52.2002 -60.2612 50.9824 -53.6837 49.8338C-47.1061 48.6817 -40.0394 47.6665 -32.6034 46.6915C-17.7236 44.7558 -1.314 43.1384 15.8792 41.3728C33.0732 39.6142 49.415 37.6876 64.1734 35.2915C78.9239 32.8721 92.103 30.0243 103.067 27.259C108.549 25.8753 113.488 24.5381 117.788 23.242C119.948 22.6257 121.927 21.9606 123.768 21.3987C125.586 20.7753 127.267 20.2564 128.749 19.7086C131.038 18.9044 133.309 18.0495 135.56 17.1445C137.097 16.5084 137.925 16.2056 137.96 16.2762" fill="#A6A6A6"/>
</g>
<mask id="mask49_515_40668" style="mask-type:luminance" maskUnits="userSpaceOnUse" x="-81" y="0" width="245" height="50">
<path d="M-80.9297 49.1438H163.809V0.558143H-80.9297V49.1438Z" fill="white"/>
</mask>
<g mask="url(#mask49_515_40668)">
<path d="M163.808 0.565829C163.839 0.629366 163.075 1.06143 161.587 1.82952C160.092 2.57997 157.846 3.60998 154.892 4.78401C153.424 5.39538 151.757 5.97569 149.949 6.66048C148.12 7.28315 146.147 8.00889 143.994 8.68239C139.709 10.095 134.779 11.5402 129.3 13.0241C118.341 15.9899 105.15 19.0037 90.3476 21.5417C75.5434 24.0563 59.1578 26.0486 41.949 27.8086C24.7396 29.5756 8.34831 31.1302 -6.50745 32.953C-13.9357 33.8736 -20.977 34.8168 -27.5404 35.8877C-34.106 36.9559 -40.1986 38.0819 -45.7362 39.2248C-51.2745 40.3685 -56.2552 41.5319 -60.6025 42.6566C-64.952 43.7762 -68.6506 44.903 -71.6616 45.8624C-73.9672 46.6176 -76.2543 47.4283 -78.5208 48.2938C-80.069 48.9065 -80.8999 49.1988 -80.9289 49.1346C-80.9585 49.0717 -80.1876 48.6545 -78.6825 47.9168C-77.1731 47.1946 -74.9013 46.2231 -71.9214 45.1141C-68.2919 43.7978 -64.6166 42.6115 -60.9026 41.5574C-56.5615 40.3226 -51.5802 39.0547 -46.039 37.8171C-40.4971 36.5789 -34.3976 35.366 -27.8201 34.2223C-21.2425 33.0744 -14.1771 32.0642 -6.74182 31.0913C8.13654 29.1619 24.5447 27.5488 41.7394 25.7824C58.934 24.0246 75.278 22.0937 90.0391 19.6906C104.793 17.2649 117.972 14.4071 128.936 11.6305C134.418 10.2412 139.356 8.89842 143.655 7.5959C145.815 6.97606 147.795 6.3075 149.634 5.74201C151.451 5.11511 153.132 4.5927 154.612 4.04204C156.9 3.23312 159.169 2.37065 161.417 1.45536C162.952 0.812926 163.776 0.502997 163.808 0.565829Z" fill="#A6A6A6"/>
</g>
<mask id="mask50_515_40668" style="mask-type:luminance" maskUnits="userSpaceOnUse" x="-56" y="-16" width="246" height="50">
<path d="M-55.1133 33.4309H189.625V-15.1512H-55.1133V33.4309Z" fill="white"/>
</mask>
<g mask="url(#mask50_515_40668)">
<path d="M189.624 -15.1457C189.651 -15.0892 188.884 -14.6649 187.393 -13.9032C185.895 -13.1612 183.646 -12.1383 180.692 -10.972C179.223 -10.3642 177.555 -9.78598 175.746 -9.10542C173.917 -8.48629 171.943 -7.76407 169.79 -7.0934C165.504 -5.68781 160.574 -4.24834 155.094 -2.77003C144.135 0.184457 130.945 3.18837 116.145 5.71998C101.344 8.2283 84.9606 10.217 67.7525 11.9763C50.5445 13.7434 34.1518 15.3021 19.2946 17.1313C11.8664 18.054 4.82363 19.0021 -1.7412 20.0773C-7.82993 21.0664 -13.897 22.1844 -19.9383 23.4307C-25.476 24.5779 -30.4573 25.7484 -34.8047 26.8794C-39.1535 28.0061 -42.8513 29.1399 -45.8609 30.1064C-48.1656 30.8667 -50.4509 31.685 -52.7145 32.5603C-54.2606 33.1802 -55.0865 33.4795 -55.1126 33.4237C-55.1388 33.3672 -54.3643 32.9585 -52.8571 32.2278C-51.3442 31.5134 -49.071 30.5497 -46.0903 29.4463C-43.1006 28.3732 -39.4119 27.1356 -35.0687 25.9122C-30.727 24.6838 -25.7464 23.4215 -20.2045 22.1896C-14.6633 20.957 -8.56298 19.7498 -1.98686 18.6103C4.58927 17.4666 11.6525 16.4607 19.0885 15.4906C33.9654 13.5676 50.3722 11.958 67.5675 10.1923C84.7629 8.43305 101.11 6.50009 115.874 4.0899C130.63 1.65712 143.81 -1.20911 154.773 -3.997C160.255 -5.3927 165.193 -6.74182 169.492 -8.05069C171.651 -8.67406 173.63 -9.34545 175.469 -9.91446C177.285 -10.5449 178.966 -11.0708 180.445 -11.625C182.732 -12.4386 184.999 -13.3084 187.243 -14.2336C188.775 -14.8845 189.596 -15.2008 189.624 -15.1457Z" fill="#A6A6A6"/>
</g>
<mask id="mask51_515_40668" style="mask-type:luminance" maskUnits="userSpaceOnUse" x="-30" y="-31" width="246" height="49">
<path d="M-29.2617 17.718H215.475V-30.8613H-29.2617V17.718Z" fill="white"/>
</mask>
<g mask="url(#mask51_515_40668)">
<path d="M215.475 -30.8564C215.499 -30.8084 214.728 -30.3905 213.234 -29.6372C211.733 -28.9016 209.482 -27.8864 206.525 -26.7265C205.057 -26.1222 203.388 -25.5489 201.579 -24.8698C199.749 -24.2549 197.774 -23.5355 195.622 -22.8691C191.334 -21.4705 186.403 -20.0367 180.923 -18.564C169.964 -15.6201 156.774 -12.6261 141.979 -10.1008C127.179 -7.59959 110.798 -5.61511 93.5912 -3.85512C76.3839 -2.08808 59.9912 -0.52646 45.1326 1.30977C37.703 2.2353 30.6588 3.18766 24.094 4.2678C17.5277 5.3444 11.4338 6.48101 5.89541 7.63527C0.356354 8.78883 -4.62497 9.96568 -8.97093 11.1037C-13.3197 12.2368 -17.0176 13.3769 -20.0257 14.3512C-23.0233 15.3544 -25.3241 16.2149 -26.8737 16.827C-28.4162 17.4539 -29.2386 17.761 -29.2612 17.713C-29.2838 17.6643 -28.5059 17.2626 -26.9958 16.5397C-25.4808 15.8323 -23.2054 14.8764 -20.2241 13.7801C-16.5911 12.4815 -12.9141 11.3095 -9.19965 10.2664C-4.85792 9.04509 0.123408 7.78917 5.66458 6.56289C11.205 5.33591 17.3061 4.13437 23.8801 2.99917C30.4562 1.85973 37.5187 0.857243 44.9533 -0.108527C59.8295 -2.02524 76.2349 -3.63133 93.431 -5.39767C110.628 -7.15695 126.977 -9.09413 141.743 -11.5107C156.502 -13.9498 169.683 -16.826 180.646 -19.6251C186.129 -21.0258 191.066 -22.3812 195.363 -23.6965C197.522 -24.3227 199.5 -24.9983 201.339 -25.5708C203.155 -26.2041 204.834 -26.7335 206.314 -27.292C208.6 -28.1103 210.864 -28.9871 213.105 -29.9217C214.634 -30.5804 215.451 -30.9044 215.475 -30.8564Z" fill="#A6A6A6"/>
</g>
<mask id="mask52_515_40668" style="mask-type:luminance" maskUnits="userSpaceOnUse" x="-4" y="-47" width="246" height="50">
<path d="M-3.42969 2.00513H241.307V-46.5707H-3.42969V2.00513Z" fill="white"/>
</mask>
<g mask="url(#mask52_515_40668)">
<path d="M241.308 -46.5672C241.317 -46.5467 241.128 -46.4344 240.751 -46.2332L239.056 -45.3705C237.553 -44.642 235.301 -43.6346 232.343 -42.4817C230.871 -41.8816 229.202 -41.3112 227.392 -40.6363C225.561 -40.0242 223.587 -39.3091 221.433 -38.6455C217.145 -37.2526 212.214 -35.8251 206.735 -34.3581C195.775 -31.4255 182.586 -28.4406 167.792 -25.9217C152.996 -23.4275 136.617 -21.4466 119.412 -19.6866C102.204 -17.9195 85.8105 -16.3544 70.9505 -14.5125C63.5208 -13.5835 56.4752 -12.6276 49.9089 -11.5432C43.342 -10.461 37.2474 -9.3194 31.709 -8.15949C26.1707 -7.00028 21.19 -5.81708 16.8434 -4.6727C12.4953 -3.53326 8.79813 -2.38535 5.7914 -1.40475C2.79455 -0.395215 0.496608 0.474545 -1.04947 1.09368L-2.81018 1.80105C-3.20976 1.95354 -3.42015 2.02273 -3.42932 2.00155C-3.43921 1.98178 -3.24786 1.87236 -2.86593 1.67963L-1.15469 0.850832C0.363146 0.15192 2.64135 -0.796913 5.62408 -1.88552C9.25868 -3.17606 12.9366 -4.34113 16.6514 -5.37867C20.9931 -6.59364 25.9737 -7.84321 31.5148 -9.06384C37.0553 -10.2852 43.1549 -11.4825 49.7296 -12.6128C56.3044 -13.7473 63.3655 -14.7455 70.7993 -15.7085C85.6742 -17.6188 102.079 -19.2221 119.276 -20.9891C136.474 -22.747 152.826 -24.6884 167.594 -27.1113C182.356 -29.5575 195.538 -32.4421 206.501 -35.2533C211.982 -36.6596 216.919 -38.0207 221.215 -39.343C223.374 -39.972 225.352 -40.6511 227.19 -41.2265C229.005 -41.864 230.684 -42.3963 232.162 -42.9583C234.447 -43.7816 236.709 -44.666 238.947 -45.6106L240.692 -46.354C241.089 -46.5149 241.298 -46.5876 241.308 -46.5672Z" fill="#A6A6A6"/>
</g>
</g>
</g>
</g>
<defs>
<clipPath id="clip0_515_40668">
<rect width="402" height="140" fill="white"/>
</clipPath>
</defs>
</svg>
